M48
;Layer_Color=9474304
;FILE_FORMAT=2:5
INCH,LZ
;TYPE=PLATED
T01F00S00C0.01968
T02F00S00C0.02800
T03F00S00C0.02900
T04F00S00C0.03000
T05F00S00C0.03150
T06F00S00C0.03500
T07F00S00C0.03543
%
T01
X0778596Y0188356
Y0193277
Y0198198
Y0203119
Y0208041
Y0212962
Y0217883
Y0222804
Y0227726
Y0232647
T02
X0282792Y0014399
X0358086Y0041399
X0388892Y0024099
X0530892Y0087899
X0583092Y0076099
X0593692Y0096799
X0607692Y0117643
X0612692Y0121499
X0615192Y0148199
X0591361Y0141199
X0597161Y0185899
X0623292Y0209899
X055622Y0171999
X0557492Y0159499
X0644492Y0119599
X0498992Y0158099
X0504492Y0169399
X0485492Y0176799
X0483692Y0190252
X0484021Y0197199
X0476692Y0198899
X0455092Y0188799
X0467992Y0161499
X0410793Y0159399
X0412592Y0168499
Y0177799
X0405892Y0174499
X0409192Y0195999
X0420592Y0138399
X0380092Y0088263
X0380893Y0079599
X0460392Y0066099
X0490592Y0060299
X0354392Y0115499
X0333936Y0130643
X0331192Y0164399
X0349892Y0181799
X0296792Y0199799
X0297217Y0149899
X0298259Y0126899
X0283749Y0130643
X0261792Y0149531
X0266592Y0166399
X0230892Y0149899
X0231692Y0183799
X0221292Y0199699
X0257292Y0094099
X0255092Y0088799
X0268638Y0077075
X0277392Y0095499
X0329592Y0097999
X0180792Y0093399
X0168192Y0115299
X0178892Y0144899
X0113292Y0199707
X0129992Y0275799
X0126492Y0301699
X0165592Y0291599
X0168992Y0286499
X0201592
X0229Y02895
X0258892Y0241299
X0272392Y0232599
X0339892Y0242099
X03355Y0304
X03275Y0299503
X0306592Y03045
X0358592Y0313499
X0386592Y0249799
X0394492Y0224099
X0426492Y0225999
X0422992Y0214699
X0444592Y0267799
X0497769Y0228499
Y0222676
X0540192Y0240799
X0611492Y0235899
X0612792Y0234399
X0694692Y0270899
X0737392Y0223899
T03
X0144Y02425
X0151874
T04
X0106504Y0017075
X0116504
X0126504
X0136504
X0146504
X0208354
X0218354
X0228354
X0238354
X0248354
X0311675Y0017811
X0321675
X0331675
X0341675
X0351675
X0413892Y0017075
X0423892
X0433892
X0443892
X0453892
Y0077075
X0443892
X0433892
X0423892
X0413892
X0351675Y0077811
X0341675
X0331675
X0321675
X0311675
X0248354Y0077075
X0238354
X0228354
X0218354
X0208354
X0146504
X0136504
X0126504
X0116504
X0106504
X0109418Y0310568
X0119418
X0129418
X0139418
X0149418
X0159418
X0169418
X0179418
X0189418
X0199418
X0209418
X0219418
X0229418
X0239418
X0249418
X0259418
X0269418
X0279418
X0289418
X0299418
X0676861Y0310828
Y0300828
X0686861
X0696861
X0706861
X0716861
X0726861
X0736861
X0746861
X0756861
X0766861
Y0310828
X0756861
X0746861
X0736861
X0726861
X0716861
X0706861
X0696861
X0686861
T05
X0588183Y0301403
X0596057
X0603931
X0611805
X0619679
X0627553
Y0309277
X0619679
X0611805
X0603931
X0596057
X0588183
T06
X0377615Y0190696
Y0200696
Y0210696
X0347615
Y0200696
Y0190696
Y0220696
Y0230696
Y0240696
Y0250696
Y0260696
X0377615
Y0250696
Y0240696
Y0230696
Y0220696
T07
X068525Y0129919
X069525
X070525
X071525
X072525
X073525
Y0159919
X072525
X071525
X070525
X069525
X068525
X067525
X066525
Y0129919
X067525
M30
