M48
;Layer_Color=9474304
;FILE_FORMAT=2:5
INCH,LZ
;TYPE=PLATED
T02F00S00C0.02800
%
T02
X0152192Y0031599
X0277792Y0052399
X0347892Y0030899
X0394362Y0017545
X0595792Y0030239
X07575Y0171
X0743Y0189
X0732848Y0201644
X0735Y02105
X0598392Y0192699
X0593092Y0191299
X0579792Y0206099
X0556Y01835
X05325Y0186
X05315Y018
X05335Y0192
X0587992Y0113699
X0495992Y0082899
X0475492Y0076499
X0438Y007
X04315Y0088
X04105Y01485
X04645Y0157
X04705Y02015
X050896Y020596
X0308565Y0171344
X02945Y0169
X0286Y017
X02925Y0155
X0279692Y0145899
X02675Y01515
X0264Y0189
X02765Y01885
X0254Y01835
X0247Y0190558
X02265Y0189245
X02225Y0207
X0241792Y0082799
X0303035Y01205
X0328673Y013458
X0325792Y0146199
X0344592Y0096799
X0364192Y0071899
X0201292Y0145899
X0173425Y0127867
X0135047Y0122045
X0142192Y0095399
X0139742Y0231849
X0159901Y0226599
X0170875Y0225875
X01715Y02155
X01765Y022
X0186136Y0216001
X0195492Y0214999
X0201292Y0216299
X0197192Y0221499
X0195892Y0252121
X0187Y02525
X0187592Y0245899
X0209192Y0242099
X0201592Y0267499
X0183008Y0273823
X0191533Y0283337
X02095Y0297
X017Y03035
X0153Y0297
X0144Y02935
X0141Y02695
X0135047Y0274099
X0152Y0271
X0153844Y0261291
X0151192Y0255499
X0164Y02525
Y0261
X01705Y0255
X02235Y0262
X023017Y0263131
X0223792Y0284799
X0235763Y0288799
X0244Y02385
X024357Y0216
X0236Y0215
X02215Y022
X022975Y022925
X0216179Y0235108
X028Y02405
X02735Y02205
X02705Y0214
X0272392Y0259699
X0307646Y02595
X0306592Y0242099
X03285Y02595
X0339892Y0283065
X0352Y02855
X0329699Y0306149
X0299Y02835
X03845Y0234
X0395
X0442892Y0213999
X05255Y02135
X0527Y0231
X05805Y02285
X058Y0223
X0585396Y0214604
X0590742Y0218242
X0615792Y0286699
X0633592Y0285399
X067875Y029275
X0706Y0283
X07165Y0262
X07295Y0256
X0706765Y023827
M30
