M48
;Layer_Color=9474304
;FILE_FORMAT=2:5
INCH,LZ
;TYPE=PLATED
T02F00S00C0.02800
%
T02
X07575Y0171
X0743Y0189
X0732848Y0201644
X0735Y02105
X0556Y01835
X05325Y0186
X05315Y018
X05335Y0192
X050896Y020596
X04705Y02015
X04645Y0157
X04105Y01485
X04315Y0088
X0438Y007
X0303035Y01205
X02925Y0155
X02945Y0169
X028575Y016975
X02765Y01885
X0264Y0189
X0247Y0190558
X02265Y0189245
X02225Y0207
X02675Y01515
X0186136Y0216001
X01765Y022
X01715Y02155
X0170875Y0225875
X0187192Y0237499
X0187Y02525
X0170529Y0254971
X0164Y02525
X0153844Y0261291
X0152Y0271
X0141Y02695
X0144Y02935
X0153Y0297
X017Y03035
X0191533Y0283337
X0183008Y0273823
X02095Y0297
X023017Y0263131
X022975Y022925
X02215Y022
X0236Y0215
X0244Y02385
X0216179Y0235108
X0273375Y0220375
X02705Y0214
X0307646Y02595
X03285
X0352Y02855
X03845Y0234
X0395
X0527Y0231
X05255Y02135
X058Y0223
X0590742Y0218242
X0584292Y0247399
X0626192Y0244899
X0659392Y0233999
X0654992Y0296199
X067875Y029275
X0592192Y0284399
X0706Y0283
X07165Y0262
X07295Y0256
X0706765Y023827
M30
