M48
;Layer_Color=9474304
;FILE_FORMAT=2:5
INCH,LZ
;TYPE=PLATED
T02F00S00C0.02800
%
T02
X0127Y00085
X0157678Y0019214
X0228Y00255
X0268492Y0048399
X03315Y00265
X0376492Y0027399
X0404792Y0026099
X0434Y0026
X0463192Y0015599
X048372Y0009494
X0512Y00095
X0466644Y0040499
X0411792Y0050299
X05405Y00095
X0584581
X0613
X0641618Y0009434
X0671Y00095
X06995
X074116Y0075799
X0779Y01765
X0670092Y0208484
X0664892Y0211799
X0626092Y0190499
X0609592Y0163799
X0628892Y0142899
X0632246Y0134423
X0621192Y0131899
X0616Y0109999
X0612392Y0100999
X0630392Y0110099
X0640992Y0102399
X0644492Y0119599
X0591292Y0118899
X0590392Y0088499
X0580292Y0081699
X0590392Y0070399
X0560492Y0070999
X0540492Y0081699
X0537492Y0103299
X0565392Y0132099
X0563096Y01905
X0557Y01915
X0556992Y0204899
X0539592Y0206999
X0541192Y0197499
X0533Y0199
X0579692Y0197799
X0677692Y0080399
X0667892Y0059199
X0486392Y0071099
X0479092Y0071499
X0481292Y0086599
X0489992Y0088399
X046391Y0091458
X04715Y0103
X0440692Y0126899
X0432492Y0135099
X0410793Y0159399
X0402592Y0157099
X0391092Y0170599
X0385192Y0187199
X0397992Y0186699
X0385392Y0203499
X0387Y021
X0431625Y0202499
X04405Y0189
X0491092Y0183799
X0506621Y0200799
X04245Y00915
X0371992Y0087799
X0372592Y0101699
X0361992Y0092099
X0360692Y0085299
X0350766Y0095726
X0326Y0094
X0338892Y0071599
X0300092Y0083299
X0292652Y0102073
X0261677Y0097363
X0243492Y0102399
X02403Y0093092
X0248492Y0083299
X0234492Y0072399
X022Y0096
X0224792Y0160999
X0218692Y0172499
X0227398Y0179009
X0235792Y0187199
X0241792Y0195699
X0245957Y0203399
X0247892Y0183799
X0270492Y0203399
X0290998Y0205299
X0291592Y0181599
X0284Y0177
X0307492Y0184799
X0321892Y0182599
X0322592Y0199499
X0366492Y0201499
X0352892Y0135099
X0328892Y0157099
X0303392Y0154999
X02705Y01575
X0268992Y0141799
X0257623Y0134099
X0273862Y0075199
X0185792Y0098399
X0171992Y0102199
X016Y00985
X0163548Y0086399
X0152234Y0086741
X0152192Y0072199
X0132692Y0083699
X0123Y0087
X0118Y0102
X0136192Y009702
X0124Y012
X0131992Y0129699
X0141392Y0134199
X0166392Y0134099
X0152892Y0155499
X0140892Y0173999
X01465Y01995
X0180653Y0195699
X0204312Y0209959
X0103892Y0152399
X0106292Y0116899
X00965Y01195
X0136392Y0246537
X0145492Y02664
X0154192Y0285599
X0166292Y0281699
X01715Y02785
X0173221Y0290307
X01695Y0262
X0158492Y0235399
X0181992Y0230799
X0188Y02305
X0192092Y0220399
X0208614Y0265454
X02065Y02875
X0201692Y0303699
X0129589Y0286803
X0108292Y0281699
X0097292Y0313199
X02315Y0278
X0242592Y0270899
X0246992Y0275099
X0252992Y0272399
X0253401Y0250299
X0267787Y0240713
X02725Y0226
X02825Y0226
X0288392Y0254899
X026668Y0288399
X0243692Y0288999
X0219492Y0256499
X0321Y02805
X0331692Y0276199
X0341346Y0306383
X02995Y03045
X0362792Y0254899
X0357892Y0246499
X0353492Y0225699
X0382292Y0280999
X0381292Y0286299
X0390492Y0288799
X0395192Y0303083
X0384992Y0305526
X0408192Y0270299
X0429892Y0241999
X0430692Y0236077
X0479101Y0245699
X0485793Y0277999
X0467992Y0284499
X0468292Y0291399
X0456059Y0301983
X0442214Y0302278
X0460392Y0273999
X0517892Y0262499
X0518992Y0306899
X0567292Y0291999
X0562992Y0279999
X0570592Y0278299
X0561592Y0250999
X0560992Y0245099
X0555092Y0247199
X056564Y023087
X05895Y0233
X05894Y0227399
X0604392Y0225999
X0610692Y0237699
X06295Y0238
X0705692Y0230722
X07195Y0236
X0725092Y0235999
X0725192Y0227799
X0750892Y0218199
M30
