%TF.GenerationSoftware,Altium Limited,DefaultClient, ()*%
G04 Layer_Color=65535*
G04 Board_Origin=10000758|10000058*
%FSLAX26Y26*%
%MOIN*%
%TF.SameCoordinates,25D2ED89-9C84-4B78-AC60-275F8E3A73DB*%
%TF.FilePolarity,Positive*%
%TF.FileFunction,Legend,Top*%
%TF.Part,Single*%
G01*
G75*
%TA.AperFunction,NonConductor*%
%ADD60C,0.010000*%
%ADD70C,0.005000*%
%ADD71C,0.023622*%
%ADD72C,0.009842*%
%ADD73C,0.008000*%
%ADD74C,0.007874*%
%ADD75C,0.015748*%
%TA.AperFunction,OtherPad,Pad U21-1 (2230.816mil,2809.854mil)*%
%ADD76C,0.015000*%
%TA.AperFunction,OtherPad,Pad U103-1 (2569.324mil,2811.468mil)*%
%ADD77C,0.015000*%
%TA.AperFunction,NonConductor*%
%ADD78C,0.005906*%
%ADD79C,0.003937*%
G36*
X6275527Y3171512D02*
X6314897Y3210883D01*
X6236157D01*
X6275527Y3171512D01*
D02*
G37*
D60*
X1577795Y2425000D02*
G03*
X1577795Y2425000I-98425J0D01*
G01*
X7407496Y1599189D02*
G03*
X7407496Y1599189I-5000J0D01*
G01*
X4835267Y1951932D02*
G03*
X4835267Y1951932I-5000J0D01*
G01*
X3047456Y122988D02*
Y848580D01*
Y122988D02*
X3063204Y107240D01*
X3585644D01*
Y848580D01*
X3047456D02*
X3585644D01*
X1360000Y2200000D02*
X1395000Y2235000D01*
X1360000Y2025000D02*
Y2200000D01*
Y2025000D02*
X1435000D01*
X1395000Y2235000D02*
X1435000D01*
X1495000D02*
X1535000D01*
X1570000Y2200000D01*
Y2025000D02*
Y2200000D01*
X1495000Y2025000D02*
X1570000D01*
X1405000Y2175000D02*
Y2215000D01*
X1385000Y2195000D02*
X1425000D01*
X1354370Y2410000D02*
Y2440000D01*
X1339370Y2425000D02*
X1369370D01*
X995748Y841226D02*
X1533936D01*
Y99888D02*
Y841226D01*
X1011496Y99888D02*
X1533936D01*
X995748Y115636D02*
X1011496Y99888D01*
X995748Y115636D02*
Y841226D01*
X7740682Y1824500D02*
X7866666D01*
Y2385524D01*
X7740682D02*
X7866666D01*
X7740682Y1824500D02*
Y2385524D01*
X5807022Y2939228D02*
X6350330D01*
X5807022D02*
Y3171512D01*
X5999936D01*
Y3140016D02*
Y3171512D01*
Y3140016D02*
X6157416D01*
Y3171512D01*
X6350330D01*
Y2939228D02*
Y3171512D01*
X2014248Y841226D02*
X2552436D01*
Y99888D02*
Y841226D01*
X2029996Y99888D02*
X2552436D01*
X2014248Y115636D02*
X2029996Y99888D01*
X2014248Y115636D02*
Y841226D01*
X4069634D02*
X4607822D01*
Y99888D02*
Y841226D01*
X4085382Y99888D02*
X4607822D01*
X4069634Y115636D02*
X4085382Y99888D01*
X4069634Y115636D02*
Y841226D01*
X2042924Y3030994D02*
Y3090975D01*
X2072914D01*
X2082911Y3080978D01*
Y3060985D01*
X2072914Y3050988D01*
X2042924D01*
X2062918D02*
X2082911Y3030994D01*
X2142892Y3090975D02*
X2102905D01*
Y3060985D01*
X2122898Y3070981D01*
X2132895D01*
X2142892Y3060985D01*
Y3040991D01*
X2132895Y3030994D01*
X2112902D01*
X2102905Y3040991D01*
X2162885Y3080978D02*
X2172882Y3090975D01*
X2192876D01*
X2202872Y3080978D01*
Y3070981D01*
X2192876Y3060985D01*
X2182879D01*
X2192876D01*
X2202872Y3050988D01*
Y3040991D01*
X2192876Y3030994D01*
X2172882D01*
X2162885Y3040991D01*
X1568924Y3104975D02*
Y3054991D01*
X1578921Y3044994D01*
X1598915D01*
X1608911Y3054991D01*
Y3104975D01*
X1628905Y3044994D02*
X1648898D01*
X1638902D01*
Y3104975D01*
X1628905Y3094978D01*
X1678889Y3104975D02*
X1718876D01*
Y3094978D01*
X1678889Y3054991D01*
Y3044994D01*
X2439924Y2932975D02*
Y2882991D01*
X2449921Y2872994D01*
X2469914D01*
X2479911Y2882991D01*
Y2932975D01*
X2499905Y2872994D02*
X2519898D01*
X2509902D01*
Y2932975D01*
X2499905Y2922978D01*
X2549889D02*
X2559885Y2932975D01*
X2579879D01*
X2589876Y2922978D01*
Y2882991D01*
X2579879Y2872994D01*
X2559885D01*
X2549889Y2882991D01*
Y2922978D01*
X2609869D02*
X2619866Y2932975D01*
X2639860D01*
X2649856Y2922978D01*
Y2912981D01*
X2639860Y2902985D01*
X2629863D01*
X2639860D01*
X2649856Y2892988D01*
Y2882991D01*
X2639860Y2872994D01*
X2619866D01*
X2609869Y2882991D01*
X2820924Y1751975D02*
Y1701991D01*
X2830921Y1691994D01*
X2850914D01*
X2860911Y1701991D01*
Y1751975D01*
X2880905Y1691994D02*
X2900898D01*
X2890902D01*
Y1751975D01*
X2880905Y1741978D01*
X2930889D02*
X2940885Y1751975D01*
X2960879D01*
X2970876Y1741978D01*
Y1701991D01*
X2960879Y1691994D01*
X2940885D01*
X2930889Y1701991D01*
Y1741978D01*
X2990869Y1691994D02*
X3010863D01*
X3000866D01*
Y1751975D01*
X2990869Y1741978D01*
X3926924Y2194975D02*
Y2144991D01*
X3936921Y2134994D01*
X3956914D01*
X3966911Y2144991D01*
Y2194975D01*
X3986905Y2134994D02*
X4006898D01*
X3996902D01*
Y2194975D01*
X3986905Y2184978D01*
X4036889D02*
X4046885Y2194975D01*
X4066879D01*
X4076876Y2184978D01*
Y2144991D01*
X4066879Y2134994D01*
X4046885D01*
X4036889Y2144991D01*
Y2184978D01*
X4096869D02*
X4106866Y2194975D01*
X4126859D01*
X4136856Y2184978D01*
Y2144991D01*
X4126859Y2134994D01*
X4106866D01*
X4096869Y2144991D01*
Y2184978D01*
X3127924Y2843975D02*
Y2793991D01*
X3137921Y2783994D01*
X3157914D01*
X3167911Y2793991D01*
Y2843975D01*
X3227892Y2783994D02*
X3187905D01*
X3227892Y2823981D01*
Y2833978D01*
X3217895Y2843975D01*
X3197902D01*
X3187905Y2833978D01*
X3247885D02*
X3257882Y2843975D01*
X3277876D01*
X3287872Y2833978D01*
Y2823981D01*
X3277876Y2813985D01*
X3267879D01*
X3277876D01*
X3287872Y2803988D01*
Y2793991D01*
X3277876Y2783994D01*
X3257882D01*
X3247885Y2793991D01*
X3075924Y1755975D02*
Y1705991D01*
X3085921Y1695994D01*
X3105914D01*
X3115911Y1705991D01*
Y1755975D01*
X3175892Y1695994D02*
X3135905D01*
X3175892Y1735981D01*
Y1745978D01*
X3165895Y1755975D01*
X3145902D01*
X3135905Y1745978D01*
X3235872Y1695994D02*
X3195885D01*
X3235872Y1735981D01*
Y1745978D01*
X3225876Y1755975D01*
X3205882D01*
X3195885Y1745978D01*
X2100023Y2934990D02*
Y2885006D01*
X2110019Y2875010D01*
X2130013D01*
X2140010Y2885006D01*
Y2934990D01*
X2199990Y2875010D02*
X2160003D01*
X2199990Y2914997D01*
Y2924994D01*
X2189994Y2934990D01*
X2170000D01*
X2160003Y2924994D01*
X2219984Y2875010D02*
X2239977D01*
X2229981D01*
Y2934990D01*
X2219984Y2924994D01*
X2315924Y1827975D02*
Y1777991D01*
X2325921Y1767994D01*
X2345914D01*
X2355911Y1777991D01*
Y1827975D01*
X2415892Y1767994D02*
X2375905D01*
X2415892Y1807981D01*
Y1817978D01*
X2405895Y1827975D01*
X2385902D01*
X2375905Y1817978D01*
X2435885D02*
X2445882Y1827975D01*
X2465876D01*
X2475872Y1817978D01*
Y1777991D01*
X2465876Y1767994D01*
X2445882D01*
X2435885Y1777991D01*
Y1817978D01*
X2662924Y2964975D02*
Y2914991D01*
X2672921Y2904994D01*
X2692914D01*
X2702911Y2914991D01*
Y2964975D01*
X2722905Y2904994D02*
X2742898D01*
X2732902D01*
Y2964975D01*
X2722905Y2954978D01*
X2772889Y2914991D02*
X2782885Y2904994D01*
X2802879D01*
X2812876Y2914991D01*
Y2954978D01*
X2802879Y2964975D01*
X2782885D01*
X2772889Y2954978D01*
Y2944981D01*
X2782885Y2934985D01*
X2812876D01*
X3530924Y3213975D02*
Y3163991D01*
X3540921Y3153994D01*
X3560914D01*
X3570911Y3163991D01*
Y3213975D01*
X3590905Y3153994D02*
X3610898D01*
X3600902D01*
Y3213975D01*
X3590905Y3203978D01*
X3640889D02*
X3650885Y3213975D01*
X3670879D01*
X3680876Y3203978D01*
Y3193981D01*
X3670879Y3183985D01*
X3680876Y3173988D01*
Y3163991D01*
X3670879Y3153994D01*
X3650885D01*
X3640889Y3163991D01*
Y3173988D01*
X3650885Y3183985D01*
X3640889Y3193981D01*
Y3203978D01*
X3650885Y3183985D02*
X3670879D01*
X1591924Y2828975D02*
Y2778991D01*
X1601921Y2768994D01*
X1621915D01*
X1631911Y2778991D01*
Y2828975D01*
X1651905Y2768994D02*
X1671898D01*
X1661902D01*
Y2828975D01*
X1651905Y2818978D01*
X1741876Y2828975D02*
X1721882Y2818978D01*
X1701889Y2798985D01*
Y2778991D01*
X1711885Y2768994D01*
X1731879D01*
X1741876Y2778991D01*
Y2788988D01*
X1731879Y2798985D01*
X1701889D01*
X2779167Y2236495D02*
Y2186511D01*
X2789164Y2176514D01*
X2809157D01*
X2819154Y2186511D01*
Y2236495D01*
X2839147Y2176514D02*
X2859141D01*
X2849144D01*
Y2236495D01*
X2839147Y2226498D01*
X2929118Y2236495D02*
X2889131D01*
Y2206504D01*
X2909125Y2216501D01*
X2919122D01*
X2929118Y2206504D01*
Y2186511D01*
X2919122Y2176514D01*
X2899128D01*
X2889131Y2186511D01*
X2259924Y2236477D02*
Y2186494D01*
X2269921Y2176497D01*
X2289914D01*
X2299911Y2186494D01*
Y2236477D01*
X2319905Y2176497D02*
X2339898D01*
X2329902D01*
Y2236477D01*
X2319905Y2226481D01*
X2399879Y2176497D02*
Y2236477D01*
X2369889Y2206487D01*
X2409876D01*
X6410685Y2491354D02*
Y2441370D01*
X6420682Y2431373D01*
X6440676D01*
X6450672Y2441370D01*
Y2491354D01*
X6470666Y2431373D02*
X6490659D01*
X6480663D01*
Y2491354D01*
X6470666Y2481357D01*
X6560637Y2431373D02*
X6520650D01*
X6560637Y2471360D01*
Y2481357D01*
X6550640Y2491354D01*
X6530646D01*
X6520650Y2481357D01*
X6873946Y2465299D02*
Y2415316D01*
X6883943Y2405319D01*
X6903936D01*
X6913933Y2415316D01*
Y2465299D01*
X6933927Y2405319D02*
X6953920D01*
X6943924D01*
Y2465299D01*
X6933927Y2455302D01*
X6983911Y2405319D02*
X7003904D01*
X6993907D01*
Y2465299D01*
X6983911Y2455302D01*
X5980924Y1338975D02*
Y1288991D01*
X5990921Y1278994D01*
X6010914D01*
X6020911Y1288991D01*
Y1338975D01*
X6040905Y1278994D02*
X6060898D01*
X6050902D01*
Y1338975D01*
X6040905Y1328978D01*
X6090889D02*
X6100885Y1338975D01*
X6120879D01*
X6130876Y1328978D01*
Y1288991D01*
X6120879Y1278994D01*
X6100885D01*
X6090889Y1288991D01*
Y1328978D01*
X1258924Y1232975D02*
Y1182991D01*
X1268921Y1172994D01*
X1288915D01*
X1298911Y1182991D01*
Y1232975D01*
X1318905Y1182991D02*
X1328902Y1172994D01*
X1348895D01*
X1358892Y1182991D01*
Y1222978D01*
X1348895Y1232975D01*
X1328902D01*
X1318905Y1222978D01*
Y1212981D01*
X1328902Y1202985D01*
X1358892D01*
X1378885Y1162997D02*
X1418872D01*
X1438866Y1232975D02*
Y1182991D01*
X1448863Y1172994D01*
X1468856D01*
X1478853Y1182991D01*
Y1232975D01*
X1498847Y1162997D02*
X1538834D01*
X1598814Y1232975D02*
Y1172994D01*
X1568824D01*
X1558827Y1182991D01*
Y1202985D01*
X1568824Y1212981D01*
X1598814D01*
X1618808Y1172994D02*
X1638801D01*
X1628805D01*
Y1212981D01*
X1618808D01*
X1688785Y1153001D02*
X1698782D01*
X1708779Y1162997D01*
Y1212981D01*
X1678788D01*
X1668792Y1202985D01*
Y1182991D01*
X1678788Y1172994D01*
X1708779D01*
X1728772D02*
X1748766D01*
X1738769D01*
Y1212981D01*
X1728772D01*
X1788753Y1222978D02*
Y1212981D01*
X1778756D01*
X1798749D01*
X1788753D01*
Y1182991D01*
X1798749Y1172994D01*
X1838737Y1212981D02*
X1858730D01*
X1868727Y1202985D01*
Y1172994D01*
X1838737D01*
X1828740Y1182991D01*
X1838737Y1192988D01*
X1868727D01*
X1888720Y1172994D02*
X1908714D01*
X1898717D01*
Y1232975D01*
X1888720D01*
X1938704Y1162997D02*
X1978691D01*
X1998685Y1172994D02*
X2018678D01*
X2008682D01*
Y1212981D01*
X1998685D01*
X2048669Y1172994D02*
Y1212981D01*
X2078659D01*
X2088656Y1202985D01*
Y1172994D01*
X2148636Y1232975D02*
Y1172994D01*
X2118646D01*
X2108649Y1182991D01*
Y1202985D01*
X2118646Y1212981D01*
X2148636D01*
X2168630Y1172994D02*
X2188623D01*
X2178627D01*
Y1212981D01*
X2168630D01*
X2258601D02*
X2228610D01*
X2218614Y1202985D01*
Y1182991D01*
X2228610Y1172994D01*
X2258601D01*
X2288591Y1212981D02*
X2308584D01*
X2318581Y1202985D01*
Y1172994D01*
X2288591D01*
X2278594Y1182991D01*
X2288591Y1192988D01*
X2318581D01*
X2348572Y1222978D02*
Y1212981D01*
X2338575D01*
X2358568D01*
X2348572D01*
Y1182991D01*
X2358568Y1172994D01*
X2398555D02*
X2418549D01*
X2428546Y1182991D01*
Y1202985D01*
X2418549Y1212981D01*
X2398555D01*
X2388559Y1202985D01*
Y1182991D01*
X2398555Y1172994D01*
X2448539Y1212981D02*
Y1172994D01*
Y1192988D01*
X2458536Y1202985D01*
X2468533Y1212981D01*
X2478530D01*
X2538510Y1172994D02*
Y1232975D01*
X2508520Y1202985D01*
X2548507D01*
X2268924Y1283975D02*
Y1233991D01*
X2278921Y1223994D01*
X2298914D01*
X2308911Y1233991D01*
Y1283975D01*
X2328905Y1233991D02*
X2338902Y1223994D01*
X2358895D01*
X2368892Y1233991D01*
Y1273978D01*
X2358895Y1283975D01*
X2338902D01*
X2328905Y1273978D01*
Y1263981D01*
X2338902Y1253985D01*
X2368892D01*
X2388885Y1213997D02*
X2428872D01*
X2448866Y1283975D02*
Y1233991D01*
X2458863Y1223994D01*
X2478856D01*
X2488853Y1233991D01*
Y1283975D01*
X2508847Y1213997D02*
X2548834D01*
X2608814Y1283975D02*
Y1223994D01*
X2578824D01*
X2568827Y1233991D01*
Y1253985D01*
X2578824Y1263981D01*
X2608814D01*
X2628808Y1223994D02*
X2648801D01*
X2638805D01*
Y1263981D01*
X2628808D01*
X2698785Y1204001D02*
X2708782D01*
X2718779Y1213997D01*
Y1263981D01*
X2688788D01*
X2678792Y1253985D01*
Y1233991D01*
X2688788Y1223994D01*
X2718779D01*
X2738772D02*
X2758766D01*
X2748769D01*
Y1263981D01*
X2738772D01*
X2798753Y1273978D02*
Y1263981D01*
X2788756D01*
X2808749D01*
X2798753D01*
Y1233991D01*
X2808749Y1223994D01*
X2848737Y1263981D02*
X2868730D01*
X2878727Y1253985D01*
Y1223994D01*
X2848737D01*
X2838740Y1233991D01*
X2848737Y1243988D01*
X2878727D01*
X2898720Y1223994D02*
X2918714D01*
X2908717D01*
Y1283975D01*
X2898720D01*
X2948704Y1213997D02*
X2988691D01*
X3008685Y1223994D02*
X3028678D01*
X3018682D01*
Y1263981D01*
X3008685D01*
X3058669Y1223994D02*
Y1263981D01*
X3088659D01*
X3098656Y1253985D01*
Y1223994D01*
X3158636Y1283975D02*
Y1223994D01*
X3128646D01*
X3118649Y1233991D01*
Y1253985D01*
X3128646Y1263981D01*
X3158636D01*
X3178630Y1223994D02*
X3198623D01*
X3188627D01*
Y1263981D01*
X3178630D01*
X3268601D02*
X3238610D01*
X3228614Y1253985D01*
Y1233991D01*
X3238610Y1223994D01*
X3268601D01*
X3298591Y1263981D02*
X3318584D01*
X3328581Y1253985D01*
Y1223994D01*
X3298591D01*
X3288594Y1233991D01*
X3298591Y1243988D01*
X3328581D01*
X3358572Y1273978D02*
Y1263981D01*
X3348575D01*
X3368568D01*
X3358572D01*
Y1233991D01*
X3368568Y1223994D01*
X3408555D02*
X3428549D01*
X3438546Y1233991D01*
Y1253985D01*
X3428549Y1263981D01*
X3408555D01*
X3398559Y1253985D01*
Y1233991D01*
X3408555Y1223994D01*
X3458539Y1263981D02*
Y1223994D01*
Y1243988D01*
X3468536Y1253985D01*
X3478533Y1263981D01*
X3488530D01*
X3518520Y1273978D02*
X3528517Y1283975D01*
X3548510D01*
X3558507Y1273978D01*
Y1263981D01*
X3548510Y1253985D01*
X3538513D01*
X3548510D01*
X3558507Y1243988D01*
Y1233991D01*
X3548510Y1223994D01*
X3528517D01*
X3518520Y1233991D01*
X3329924Y1268975D02*
Y1218991D01*
X3339921Y1208994D01*
X3359914D01*
X3369911Y1218991D01*
Y1268975D01*
X3389905Y1218991D02*
X3399902Y1208994D01*
X3419895D01*
X3429892Y1218991D01*
Y1258978D01*
X3419895Y1268975D01*
X3399902D01*
X3389905Y1258978D01*
Y1248981D01*
X3399902Y1238985D01*
X3429892D01*
X3449885Y1198997D02*
X3489872D01*
X3509866Y1268975D02*
Y1218991D01*
X3519863Y1208994D01*
X3539856D01*
X3549853Y1218991D01*
Y1268975D01*
X3569847Y1198997D02*
X3609834D01*
X3669814Y1268975D02*
Y1208994D01*
X3639824D01*
X3629827Y1218991D01*
Y1238985D01*
X3639824Y1248981D01*
X3669814D01*
X3689808Y1208994D02*
X3709801D01*
X3699805D01*
Y1248981D01*
X3689808D01*
X3759785Y1189001D02*
X3769782D01*
X3779779Y1198997D01*
Y1248981D01*
X3749788D01*
X3739792Y1238985D01*
Y1218991D01*
X3749788Y1208994D01*
X3779779D01*
X3799772D02*
X3819766D01*
X3809769D01*
Y1248981D01*
X3799772D01*
X3859753Y1258978D02*
Y1248981D01*
X3849756D01*
X3869749D01*
X3859753D01*
Y1218991D01*
X3869749Y1208994D01*
X3909737Y1248981D02*
X3929730D01*
X3939727Y1238985D01*
Y1208994D01*
X3909737D01*
X3899740Y1218991D01*
X3909737Y1228988D01*
X3939727D01*
X3959720Y1208994D02*
X3979714D01*
X3969717D01*
Y1268975D01*
X3959720D01*
X4009704Y1198997D02*
X4049691D01*
X4069685Y1208994D02*
X4089678D01*
X4079682D01*
Y1248981D01*
X4069685D01*
X4119669Y1208994D02*
Y1248981D01*
X4149659D01*
X4159656Y1238985D01*
Y1208994D01*
X4219636Y1268975D02*
Y1208994D01*
X4189646D01*
X4179649Y1218991D01*
Y1238985D01*
X4189646Y1248981D01*
X4219636D01*
X4239630Y1208994D02*
X4259623D01*
X4249627D01*
Y1248981D01*
X4239630D01*
X4329601D02*
X4299610D01*
X4289614Y1238985D01*
Y1218991D01*
X4299610Y1208994D01*
X4329601D01*
X4359591Y1248981D02*
X4379584D01*
X4389581Y1238985D01*
Y1208994D01*
X4359591D01*
X4349594Y1218991D01*
X4359591Y1228988D01*
X4389581D01*
X4419572Y1258978D02*
Y1248981D01*
X4409575D01*
X4429568D01*
X4419572D01*
Y1218991D01*
X4429568Y1208994D01*
X4469555D02*
X4489549D01*
X4499546Y1218991D01*
Y1238985D01*
X4489549Y1248981D01*
X4469555D01*
X4459559Y1238985D01*
Y1218991D01*
X4469555Y1208994D01*
X4519539Y1248981D02*
Y1208994D01*
Y1228988D01*
X4529536Y1238985D01*
X4539533Y1248981D01*
X4549529D01*
X4619507Y1208994D02*
X4579520D01*
X4619507Y1248981D01*
Y1258978D01*
X4609510Y1268975D01*
X4589517D01*
X4579520Y1258978D01*
X4294924Y1241975D02*
Y1191991D01*
X4304921Y1181994D01*
X4324914D01*
X4334911Y1191991D01*
Y1241975D01*
X4354905Y1191991D02*
X4364902Y1181994D01*
X4384895D01*
X4394892Y1191991D01*
Y1231978D01*
X4384895Y1241975D01*
X4364902D01*
X4354905Y1231978D01*
Y1221981D01*
X4364902Y1211985D01*
X4394892D01*
X4414885Y1171997D02*
X4454873D01*
X4474866Y1241975D02*
Y1191991D01*
X4484863Y1181994D01*
X4504856D01*
X4514853Y1191991D01*
Y1241975D01*
X4534847Y1171997D02*
X4574834D01*
X4634814Y1241975D02*
Y1181994D01*
X4604824D01*
X4594827Y1191991D01*
Y1211985D01*
X4604824Y1221981D01*
X4634814D01*
X4654808Y1181994D02*
X4674801D01*
X4664805D01*
Y1221981D01*
X4654808D01*
X4724785Y1162001D02*
X4734782D01*
X4744779Y1171997D01*
Y1221981D01*
X4714788D01*
X4704792Y1211985D01*
Y1191991D01*
X4714788Y1181994D01*
X4744779D01*
X4764772D02*
X4784766D01*
X4774769D01*
Y1221981D01*
X4764772D01*
X4824753Y1231978D02*
Y1221981D01*
X4814756D01*
X4834749D01*
X4824753D01*
Y1191991D01*
X4834749Y1181994D01*
X4874737Y1221981D02*
X4894730D01*
X4904727Y1211985D01*
Y1181994D01*
X4874737D01*
X4864740Y1191991D01*
X4874737Y1201988D01*
X4904727D01*
X4924720Y1181994D02*
X4944714D01*
X4934717D01*
Y1241975D01*
X4924720D01*
X4974704Y1171997D02*
X5014691D01*
X5034685Y1181994D02*
X5054678D01*
X5044682D01*
Y1221981D01*
X5034685D01*
X5084669Y1181994D02*
Y1221981D01*
X5114659D01*
X5124656Y1211985D01*
Y1181994D01*
X5184636Y1241975D02*
Y1181994D01*
X5154646D01*
X5144649Y1191991D01*
Y1211985D01*
X5154646Y1221981D01*
X5184636D01*
X5204630Y1181994D02*
X5224623D01*
X5214627D01*
Y1221981D01*
X5204630D01*
X5294601D02*
X5264610D01*
X5254614Y1211985D01*
Y1191991D01*
X5264610Y1181994D01*
X5294601D01*
X5324591Y1221981D02*
X5344584D01*
X5354581Y1211985D01*
Y1181994D01*
X5324591D01*
X5314594Y1191991D01*
X5324591Y1201988D01*
X5354581D01*
X5384572Y1231978D02*
Y1221981D01*
X5374575D01*
X5394568D01*
X5384572D01*
Y1191991D01*
X5394568Y1181994D01*
X5434555D02*
X5454549D01*
X5464546Y1191991D01*
Y1211985D01*
X5454549Y1221981D01*
X5434555D01*
X5424559Y1211985D01*
Y1191991D01*
X5434555Y1181994D01*
X5484539Y1221981D02*
Y1181994D01*
Y1201988D01*
X5494536Y1211985D01*
X5504533Y1221981D01*
X5514529D01*
X5544520Y1181994D02*
X5564513D01*
X5554517D01*
Y1241975D01*
X5544520Y1231978D01*
X6587924Y1726975D02*
Y1676991D01*
X6597921Y1666994D01*
X6617914D01*
X6627911Y1676991D01*
Y1726975D01*
X6647905Y1716978D02*
X6657902Y1726975D01*
X6677895D01*
X6687892Y1716978D01*
Y1706981D01*
X6677895Y1696985D01*
X6687892Y1686988D01*
Y1676991D01*
X6677895Y1666994D01*
X6657902D01*
X6647905Y1676991D01*
Y1686988D01*
X6657902Y1696985D01*
X6647905Y1706981D01*
Y1716978D01*
X6657902Y1696985D02*
X6677895D01*
X3431924Y2771975D02*
Y2721991D01*
X3441921Y2711994D01*
X3461914D01*
X3471911Y2721991D01*
Y2771975D01*
X3491905D02*
X3531892D01*
Y2761978D01*
X3491905Y2721991D01*
Y2711994D01*
X5479627Y2116177D02*
Y2066193D01*
X5489624Y2056197D01*
X5509618D01*
X5519614Y2066193D01*
Y2116177D01*
X5579595D02*
X5559601Y2106180D01*
X5539608Y2086187D01*
Y2066193D01*
X5549605Y2056197D01*
X5569598D01*
X5579595Y2066193D01*
Y2076190D01*
X5569598Y2086187D01*
X5539608D01*
X5484549Y2487984D02*
Y2438000D01*
X5494546Y2428004D01*
X5514539D01*
X5524536Y2438000D01*
Y2487984D01*
X5584516D02*
X5544529D01*
Y2457994D01*
X5564523Y2467991D01*
X5574520D01*
X5584516Y2457994D01*
Y2438000D01*
X5574520Y2428004D01*
X5554526D01*
X5544529Y2438000D01*
X5947617Y2491001D02*
Y2441017D01*
X5957613Y2431021D01*
X5977607D01*
X5987604Y2441017D01*
Y2491001D01*
X6037587Y2431021D02*
Y2491001D01*
X6007597Y2461011D01*
X6047584D01*
X4728924Y2077975D02*
Y2027991D01*
X4738921Y2017994D01*
X4758914D01*
X4768911Y2027991D01*
Y2077975D01*
X4788905Y2067978D02*
X4798902Y2077975D01*
X4818895D01*
X4828892Y2067978D01*
Y2057981D01*
X4818895Y2047985D01*
X4808898D01*
X4818895D01*
X4828892Y2037988D01*
Y2027991D01*
X4818895Y2017994D01*
X4798902D01*
X4788905Y2027991D01*
X5899018Y2144285D02*
Y2094301D01*
X5909015Y2084304D01*
X5929009D01*
X5939006Y2094301D01*
Y2144285D01*
X5998986Y2084304D02*
X5958999D01*
X5998986Y2124291D01*
Y2134288D01*
X5988989Y2144285D01*
X5968996D01*
X5958999Y2134288D01*
X5406924Y1344399D02*
Y1294415D01*
X5416921Y1284418D01*
X5436914D01*
X5446911Y1294415D01*
Y1344399D01*
X5466905Y1284418D02*
X5486898D01*
X5476902D01*
Y1344399D01*
X5466905Y1334402D01*
X7274911Y774978D02*
X7264914Y784975D01*
X7244921D01*
X7234924Y774978D01*
Y764981D01*
X7244921Y754985D01*
X7264914D01*
X7274911Y744988D01*
Y734991D01*
X7264914Y724994D01*
X7244921D01*
X7234924Y734991D01*
X7294905Y784975D02*
Y724994D01*
X7314898Y744988D01*
X7334892Y724994D01*
Y784975D01*
X7394873Y724994D02*
X7354885D01*
X7394873Y764981D01*
Y774978D01*
X7384876Y784975D01*
X7364882D01*
X7354885Y774978D01*
X5301924Y2913994D02*
Y2973975D01*
X5331914D01*
X5341911Y2963978D01*
Y2943985D01*
X5331914Y2933988D01*
X5301924D01*
X5321918D02*
X5341911Y2913994D01*
X5401892Y2973975D02*
X5381898Y2963978D01*
X5361905Y2943985D01*
Y2923991D01*
X5371902Y2913994D01*
X5391895D01*
X5401892Y2923991D01*
Y2933988D01*
X5391895Y2943985D01*
X5361905D01*
X5421885Y2963978D02*
X5431882Y2973975D01*
X5451876D01*
X5461873Y2963978D01*
Y2953981D01*
X5451876Y2943985D01*
X5441879D01*
X5451876D01*
X5461873Y2933988D01*
Y2923991D01*
X5451876Y2913994D01*
X5431882D01*
X5421885Y2923991D01*
X3890924Y3103994D02*
Y3163975D01*
X3920914D01*
X3930911Y3153978D01*
Y3133985D01*
X3920914Y3123988D01*
X3890924D01*
X3910918D02*
X3930911Y3103994D01*
X3990892Y3163975D02*
X3970898Y3153978D01*
X3950905Y3133985D01*
Y3113991D01*
X3960902Y3103994D01*
X3980895D01*
X3990892Y3113991D01*
Y3123988D01*
X3980895Y3133985D01*
X3950905D01*
X4010885Y3103994D02*
X4030879D01*
X4020882D01*
Y3163975D01*
X4010885Y3153978D01*
X3889924Y2661994D02*
Y2721975D01*
X3919914D01*
X3929911Y2711978D01*
Y2691985D01*
X3919914Y2681988D01*
X3889924D01*
X3909918D02*
X3929911Y2661994D01*
X3989892Y2721975D02*
X3969898Y2711978D01*
X3949905Y2691985D01*
Y2671991D01*
X3959902Y2661994D01*
X3979895D01*
X3989892Y2671991D01*
Y2681988D01*
X3979895Y2691985D01*
X3949905D01*
X4009885Y2711978D02*
X4019882Y2721975D01*
X4039876D01*
X4049872Y2711978D01*
Y2671991D01*
X4039876Y2661994D01*
X4019882D01*
X4009885Y2671991D01*
Y2711978D01*
X4117924Y2660994D02*
Y2720975D01*
X4147914D01*
X4157911Y2710978D01*
Y2690985D01*
X4147914Y2680988D01*
X4117924D01*
X4137918D02*
X4157911Y2660994D01*
X4217892Y2720975D02*
X4177905D01*
Y2690985D01*
X4197898Y2700981D01*
X4207895D01*
X4217892Y2690985D01*
Y2670991D01*
X4207895Y2660994D01*
X4187902D01*
X4177905Y2670991D01*
X4237885D02*
X4247882Y2660994D01*
X4267876D01*
X4277873Y2670991D01*
Y2710978D01*
X4267876Y2720975D01*
X4247882D01*
X4237885Y2710978D01*
Y2700981D01*
X4247882Y2690985D01*
X4277873D01*
X4844924Y2914994D02*
Y2974975D01*
X4874914D01*
X4884911Y2964978D01*
Y2944985D01*
X4874914Y2934988D01*
X4844924D01*
X4864918D02*
X4884911Y2914994D01*
X4944892Y2974975D02*
X4904905D01*
Y2944985D01*
X4924898Y2954981D01*
X4934895D01*
X4944892Y2944985D01*
Y2924991D01*
X4934895Y2914994D01*
X4914902D01*
X4904905Y2924991D01*
X4964885Y2964978D02*
X4974882Y2974975D01*
X4994876D01*
X5004873Y2964978D01*
Y2954981D01*
X4994876Y2944985D01*
X5004873Y2934988D01*
Y2924991D01*
X4994876Y2914994D01*
X4974882D01*
X4964885Y2924991D01*
Y2934988D01*
X4974882Y2944985D01*
X4964885Y2954981D01*
Y2964978D01*
X4974882Y2944985D02*
X4994876D01*
X4594924Y3103994D02*
Y3163975D01*
X4624914D01*
X4634911Y3153978D01*
Y3133985D01*
X4624914Y3123988D01*
X4594924D01*
X4614918D02*
X4634911Y3103994D01*
X4694892Y3163975D02*
X4654905D01*
Y3133985D01*
X4674898Y3143981D01*
X4684895D01*
X4694892Y3133985D01*
Y3113991D01*
X4684895Y3103994D01*
X4664902D01*
X4654905Y3113991D01*
X4714885Y3163975D02*
X4754873D01*
Y3153978D01*
X4714885Y3113991D01*
Y3103994D01*
X5063924D02*
Y3163975D01*
X5093914D01*
X5103911Y3153978D01*
Y3133985D01*
X5093914Y3123988D01*
X5063924D01*
X5083918D02*
X5103911Y3103994D01*
X5163892Y3163975D02*
X5123905D01*
Y3133985D01*
X5143898Y3143981D01*
X5153895D01*
X5163892Y3133985D01*
Y3113991D01*
X5153895Y3103994D01*
X5133902D01*
X5123905Y3113991D01*
X5223873Y3163975D02*
X5203879Y3153978D01*
X5183885Y3133985D01*
Y3113991D01*
X5193882Y3103994D01*
X5213876D01*
X5223873Y3113991D01*
Y3123988D01*
X5213876Y3133985D01*
X5183885D01*
X4792924Y2660994D02*
Y2720975D01*
X4822914D01*
X4832911Y2710978D01*
Y2690985D01*
X4822914Y2680988D01*
X4792924D01*
X4812918D02*
X4832911Y2660994D01*
X4892892Y2720975D02*
X4852905D01*
Y2690985D01*
X4872898Y2700981D01*
X4882895D01*
X4892892Y2690985D01*
Y2670991D01*
X4882895Y2660994D01*
X4862902D01*
X4852905Y2670991D01*
X4952873Y2720975D02*
X4912885D01*
Y2690985D01*
X4932879Y2700981D01*
X4942876D01*
X4952873Y2690985D01*
Y2670991D01*
X4942876Y2660994D01*
X4922882D01*
X4912885Y2670991D01*
X4124924Y3097994D02*
Y3157975D01*
X4154914D01*
X4164911Y3147978D01*
Y3127985D01*
X4154914Y3117988D01*
X4124924D01*
X4144918D02*
X4164911Y3097994D01*
X4224892Y3157975D02*
X4184905D01*
Y3127985D01*
X4204898Y3137981D01*
X4214895D01*
X4224892Y3127985D01*
Y3107991D01*
X4214895Y3097994D01*
X4194902D01*
X4184905Y3107991D01*
X4274876Y3097994D02*
Y3157975D01*
X4244885Y3127985D01*
X4284873D01*
X5073924Y2912994D02*
Y2972975D01*
X5103914D01*
X5113911Y2962978D01*
Y2942985D01*
X5103914Y2932988D01*
X5073924D01*
X5093918D02*
X5113911Y2912994D01*
X5173892Y2972975D02*
X5133905D01*
Y2942985D01*
X5153898Y2952981D01*
X5163895D01*
X5173892Y2942985D01*
Y2922991D01*
X5163895Y2912994D01*
X5143902D01*
X5133905Y2922991D01*
X5233873Y2912994D02*
X5193885D01*
X5233873Y2952981D01*
Y2962978D01*
X5223876Y2972975D01*
X5203882D01*
X5193885Y2962978D01*
X4579924Y2659994D02*
Y2719975D01*
X4609914D01*
X4619911Y2709978D01*
Y2689985D01*
X4609914Y2679988D01*
X4579924D01*
X4599918D02*
X4619911Y2659994D01*
X4679892Y2719975D02*
X4639905D01*
Y2689985D01*
X4659898Y2699981D01*
X4669895D01*
X4679892Y2689985D01*
Y2669991D01*
X4669895Y2659994D01*
X4649902D01*
X4639905Y2669991D01*
X4699885Y2659994D02*
X4719879D01*
X4709882D01*
Y2719975D01*
X4699885Y2709978D01*
X4359924Y3097994D02*
Y3157975D01*
X4389914D01*
X4399911Y3147978D01*
Y3127985D01*
X4389914Y3117988D01*
X4359924D01*
X4379918D02*
X4399911Y3097994D01*
X4459892Y3157975D02*
X4419905D01*
Y3127985D01*
X4439898Y3137981D01*
X4449895D01*
X4459892Y3127985D01*
Y3107991D01*
X4449895Y3097994D01*
X4429902D01*
X4419905Y3107991D01*
X4479885Y3147978D02*
X4489882Y3157975D01*
X4509876D01*
X4519873Y3147978D01*
Y3107991D01*
X4509876Y3097994D01*
X4489882D01*
X4479885Y3107991D01*
Y3147978D01*
X5298924Y3103994D02*
Y3163975D01*
X5328914D01*
X5338911Y3153978D01*
Y3133985D01*
X5328914Y3123988D01*
X5298924D01*
X5318918D02*
X5338911Y3103994D01*
X5388895D02*
Y3163975D01*
X5358905Y3133985D01*
X5398892D01*
X5418885Y3113991D02*
X5428882Y3103994D01*
X5448876D01*
X5458873Y3113991D01*
Y3153978D01*
X5448876Y3163975D01*
X5428882D01*
X5418885Y3153978D01*
Y3143981D01*
X5428882Y3133985D01*
X5458873D01*
X4356924Y2479994D02*
Y2539975D01*
X4386914D01*
X4396911Y2529978D01*
Y2509985D01*
X4386914Y2499988D01*
X4356924D01*
X4376918D02*
X4396911Y2479994D01*
X4446895D02*
Y2539975D01*
X4416905Y2509985D01*
X4456892D01*
X4476885Y2529978D02*
X4486882Y2539975D01*
X4506876D01*
X4516873Y2529978D01*
Y2519981D01*
X4506876Y2509985D01*
X4516873Y2499988D01*
Y2489991D01*
X4506876Y2479994D01*
X4486882D01*
X4476885Y2489991D01*
Y2499988D01*
X4486882Y2509985D01*
X4476885Y2519981D01*
Y2529978D01*
X4486882Y2509985D02*
X4506876D01*
X954924Y1024994D02*
Y1084975D01*
X984914D01*
X994911Y1074978D01*
Y1054985D01*
X984914Y1044988D01*
X954924D01*
X974918D02*
X994911Y1024994D01*
X1044895D02*
Y1084975D01*
X1014905Y1054985D01*
X1054892D01*
X1074885Y1084975D02*
X1114872D01*
Y1074978D01*
X1074885Y1034991D01*
Y1024994D01*
X4347924Y2660994D02*
Y2720975D01*
X4377914D01*
X4387911Y2710978D01*
Y2690985D01*
X4377914Y2680988D01*
X4347924D01*
X4367918D02*
X4387911Y2660994D01*
X4437895D02*
Y2720975D01*
X4407905Y2690985D01*
X4447892D01*
X4507873Y2720975D02*
X4487879Y2710978D01*
X4467885Y2690985D01*
Y2670991D01*
X4477882Y2660994D01*
X4497876D01*
X4507873Y2670991D01*
Y2680988D01*
X4497876Y2690985D01*
X4467885D01*
X4828924Y3103994D02*
Y3163975D01*
X4858914D01*
X4868911Y3153978D01*
Y3133985D01*
X4858914Y3123988D01*
X4828924D01*
X4848918D02*
X4868911Y3103994D01*
X4918895D02*
Y3163975D01*
X4888905Y3133985D01*
X4928892D01*
X4988873Y3163975D02*
X4948885D01*
Y3133985D01*
X4968879Y3143981D01*
X4978876D01*
X4988873Y3133985D01*
Y3113991D01*
X4978876Y3103994D01*
X4958882D01*
X4948885Y3113991D01*
X4388924Y2913994D02*
Y2973975D01*
X4418914D01*
X4428911Y2963978D01*
Y2943985D01*
X4418914Y2933988D01*
X4388924D01*
X4408918D02*
X4428911Y2913994D01*
X4478895D02*
Y2973975D01*
X4448905Y2943985D01*
X4488892D01*
X4538876Y2913994D02*
Y2973975D01*
X4508885Y2943985D01*
X4548873D01*
X960924Y1135994D02*
Y1195975D01*
X990914D01*
X1000911Y1185978D01*
Y1165985D01*
X990914Y1155988D01*
X960924D01*
X980918D02*
X1000911Y1135994D01*
X1050895D02*
Y1195975D01*
X1020905Y1165985D01*
X1060892D01*
X1080885Y1185978D02*
X1090882Y1195975D01*
X1110876D01*
X1120872Y1185978D01*
Y1175981D01*
X1110876Y1165985D01*
X1100879D01*
X1110876D01*
X1120872Y1155988D01*
Y1145991D01*
X1110876Y1135994D01*
X1090882D01*
X1080885Y1145991D01*
X4781924Y2433994D02*
Y2493975D01*
X4811914D01*
X4821911Y2483978D01*
Y2463985D01*
X4811914Y2453988D01*
X4781924D01*
X4801918D02*
X4821911Y2433994D01*
X4871895D02*
Y2493975D01*
X4841905Y2463985D01*
X4881892D01*
X4941873Y2433994D02*
X4901885D01*
X4941873Y2473981D01*
Y2483978D01*
X4931876Y2493975D01*
X4911882D01*
X4901885Y2483978D01*
X4307924Y2185994D02*
Y2245975D01*
X4337914D01*
X4347911Y2235978D01*
Y2215985D01*
X4337914Y2205988D01*
X4307924D01*
X4327918D02*
X4347911Y2185994D01*
X4397895D02*
Y2245975D01*
X4367905Y2215985D01*
X4407892D01*
X4427885Y2185994D02*
X4447879D01*
X4437882D01*
Y2245975D01*
X4427885Y2235978D01*
X4159924Y2912994D02*
Y2972975D01*
X4189914D01*
X4199911Y2962978D01*
Y2942985D01*
X4189914Y2932988D01*
X4159924D01*
X4179918D02*
X4199911Y2912994D01*
X4249895D02*
Y2972975D01*
X4219905Y2942985D01*
X4259892D01*
X4279885Y2962978D02*
X4289882Y2972975D01*
X4309876D01*
X4319873Y2962978D01*
Y2922991D01*
X4309876Y2912994D01*
X4289882D01*
X4279885Y2922991D01*
Y2962978D01*
X3931924Y2912994D02*
Y2972975D01*
X3961914D01*
X3971911Y2962978D01*
Y2942985D01*
X3961914Y2932988D01*
X3931924D01*
X3951918D02*
X3971911Y2912994D01*
X3991905Y2962978D02*
X4001902Y2972975D01*
X4021895D01*
X4031892Y2962978D01*
Y2952981D01*
X4021895Y2942985D01*
X4011898D01*
X4021895D01*
X4031892Y2932988D01*
Y2922991D01*
X4021895Y2912994D01*
X4001902D01*
X3991905Y2922991D01*
X4051885D02*
X4061882Y2912994D01*
X4081876D01*
X4091872Y2922991D01*
Y2962978D01*
X4081876Y2972975D01*
X4061882D01*
X4051885Y2962978D01*
Y2952981D01*
X4061882Y2942985D01*
X4091872D01*
X3530924Y1634994D02*
Y1694975D01*
X3560914D01*
X3570911Y1684978D01*
Y1664985D01*
X3560914Y1654988D01*
X3530924D01*
X3550918D02*
X3570911Y1634994D01*
X3590905Y1684978D02*
X3600902Y1694975D01*
X3620895D01*
X3630892Y1684978D01*
Y1674981D01*
X3620895Y1664985D01*
X3610898D01*
X3620895D01*
X3630892Y1654988D01*
Y1644991D01*
X3620895Y1634994D01*
X3600902D01*
X3590905Y1644991D01*
X3650885Y1684978D02*
X3660882Y1694975D01*
X3680876D01*
X3690872Y1684978D01*
Y1674981D01*
X3680876Y1664985D01*
X3690872Y1654988D01*
Y1644991D01*
X3680876Y1634994D01*
X3660882D01*
X3650885Y1644991D01*
Y1654988D01*
X3660882Y1664985D01*
X3650885Y1674981D01*
Y1684978D01*
X3660882Y1664985D02*
X3680876D01*
X1404924Y2835994D02*
Y2895975D01*
X1434915D01*
X1444911Y2885978D01*
Y2865985D01*
X1434915Y2855988D01*
X1404924D01*
X1424918D02*
X1444911Y2835994D01*
X1464905Y2885978D02*
X1474902Y2895975D01*
X1494895D01*
X1504892Y2885978D01*
Y2875981D01*
X1494895Y2865985D01*
X1484898D01*
X1494895D01*
X1504892Y2855988D01*
Y2845991D01*
X1494895Y2835994D01*
X1474902D01*
X1464905Y2845991D01*
X1524885Y2895975D02*
X1564872D01*
Y2885978D01*
X1524885Y2845991D01*
Y2835994D01*
X1090924Y2987994D02*
Y3047975D01*
X1120915D01*
X1130911Y3037978D01*
Y3017985D01*
X1120915Y3007988D01*
X1090924D01*
X1110918D02*
X1130911Y2987994D01*
X1150905Y3037978D02*
X1160902Y3047975D01*
X1180895D01*
X1190892Y3037978D01*
Y3027981D01*
X1180895Y3017985D01*
X1170898D01*
X1180895D01*
X1190892Y3007988D01*
Y2997991D01*
X1180895Y2987994D01*
X1160902D01*
X1150905Y2997991D01*
X1250872Y3047975D02*
X1230879Y3037978D01*
X1210885Y3017985D01*
Y2997991D01*
X1220882Y2987994D01*
X1240876D01*
X1250872Y2997991D01*
Y3007988D01*
X1240876Y3017985D01*
X1210885D01*
X1180924Y2987994D02*
Y3047975D01*
X1210915D01*
X1220911Y3037978D01*
Y3017985D01*
X1210915Y3007988D01*
X1180924D01*
X1200918D02*
X1220911Y2987994D01*
X1240905Y3037978D02*
X1250902Y3047975D01*
X1270895D01*
X1280892Y3037978D01*
Y3027981D01*
X1270895Y3017985D01*
X1260898D01*
X1270895D01*
X1280892Y3007988D01*
Y2997991D01*
X1270895Y2987994D01*
X1250902D01*
X1240905Y2997991D01*
X1340872Y3047975D02*
X1300885D01*
Y3017985D01*
X1320879Y3027981D01*
X1330876D01*
X1340872Y3017985D01*
Y2997991D01*
X1330876Y2987994D01*
X1310882D01*
X1300885Y2997991D01*
X1329924Y2935994D02*
Y2995975D01*
X1359915D01*
X1369911Y2985978D01*
Y2965985D01*
X1359915Y2955988D01*
X1329924D01*
X1349918D02*
X1369911Y2935994D01*
X1389905Y2985978D02*
X1399902Y2995975D01*
X1419895D01*
X1429892Y2985978D01*
Y2975981D01*
X1419895Y2965985D01*
X1409898D01*
X1419895D01*
X1429892Y2955988D01*
Y2945991D01*
X1419895Y2935994D01*
X1399902D01*
X1389905Y2945991D01*
X1479876Y2935994D02*
Y2995975D01*
X1449885Y2965985D01*
X1489872D01*
X1754136Y1235389D02*
Y1295369D01*
X1784126D01*
X1794123Y1285372D01*
Y1265379D01*
X1784126Y1255382D01*
X1754136D01*
X1774130D02*
X1794123Y1235389D01*
X1814117Y1285372D02*
X1824113Y1295369D01*
X1844107D01*
X1854104Y1285372D01*
Y1275376D01*
X1844107Y1265379D01*
X1834110D01*
X1844107D01*
X1854104Y1255382D01*
Y1245385D01*
X1844107Y1235389D01*
X1824113D01*
X1814117Y1245385D01*
X1874097Y1285372D02*
X1884094Y1295369D01*
X1904088D01*
X1914084Y1285372D01*
Y1275376D01*
X1904088Y1265379D01*
X1894091D01*
X1904088D01*
X1914084Y1255382D01*
Y1245385D01*
X1904088Y1235389D01*
X1884094D01*
X1874097Y1245385D01*
X1616134Y999124D02*
Y1059104D01*
X1646124D01*
X1656121Y1049108D01*
Y1029114D01*
X1646124Y1019117D01*
X1616134D01*
X1636127D02*
X1656121Y999124D01*
X1676114Y1049108D02*
X1686111Y1059104D01*
X1706105D01*
X1716101Y1049108D01*
Y1039111D01*
X1706105Y1029114D01*
X1696108D01*
X1706105D01*
X1716101Y1019117D01*
Y1009121D01*
X1706105Y999124D01*
X1686111D01*
X1676114Y1009121D01*
X1776082Y999124D02*
X1736095D01*
X1776082Y1039111D01*
Y1049108D01*
X1766085Y1059104D01*
X1746092D01*
X1736095Y1049108D01*
X1796076Y989127D02*
X1836063D01*
X1856056Y1059104D02*
Y1009121D01*
X1866053Y999124D01*
X1886046D01*
X1896043Y1009121D01*
Y1059104D01*
X1916037Y989127D02*
X1956024D01*
X2016005Y1059104D02*
Y999124D01*
X1986014D01*
X1976017Y1009121D01*
Y1029114D01*
X1986014Y1039111D01*
X2016005D01*
X2035998Y999124D02*
X2055992D01*
X2045995D01*
Y1039111D01*
X2035998D01*
X2105975Y979130D02*
X2115972D01*
X2125969Y989127D01*
Y1039111D01*
X2095979D01*
X2085982Y1029114D01*
Y1009121D01*
X2095979Y999124D01*
X2125969D01*
X2145962D02*
X2165956D01*
X2155959D01*
Y1039111D01*
X2145962D01*
X2205943Y1049108D02*
Y1039111D01*
X2195946D01*
X2215940D01*
X2205943D01*
Y1009121D01*
X2215940Y999124D01*
X2255927Y1039111D02*
X2275920D01*
X2285917Y1029114D01*
Y999124D01*
X2255927D01*
X2245930Y1009121D01*
X2255927Y1019117D01*
X2285917D01*
X2305911Y999124D02*
X2325904D01*
X2315907D01*
Y1059104D01*
X2305911D01*
X2355894Y989127D02*
X2395881D01*
X2415875Y999124D02*
X2435869D01*
X2425872D01*
Y1039111D01*
X2415875D01*
X2465859Y999124D02*
Y1039111D01*
X2495849D01*
X2505846Y1029114D01*
Y999124D01*
X2565827Y1059104D02*
Y999124D01*
X2535836D01*
X2525839Y1009121D01*
Y1029114D01*
X2535836Y1039111D01*
X2565827D01*
X2585820Y999124D02*
X2605814D01*
X2595817D01*
Y1039111D01*
X2585820D01*
X2675791D02*
X2645801D01*
X2635804Y1029114D01*
Y1009121D01*
X2645801Y999124D01*
X2675791D01*
X2705781Y1039111D02*
X2725775D01*
X2735771Y1029114D01*
Y999124D01*
X2705781D01*
X2695784Y1009121D01*
X2705781Y1019117D01*
X2735771D01*
X2765762Y1049108D02*
Y1039111D01*
X2755765D01*
X2775758D01*
X2765762D01*
Y1009121D01*
X2775758Y999124D01*
X2815746D02*
X2835739D01*
X2845736Y1009121D01*
Y1029114D01*
X2835739Y1039111D01*
X2815746D01*
X2805749Y1029114D01*
Y1009121D01*
X2815746Y999124D01*
X2865729Y1039111D02*
Y999124D01*
Y1019117D01*
X2875726Y1029114D01*
X2885723Y1039111D01*
X2895720D01*
X2955700Y999124D02*
Y1059104D01*
X2925710Y1029114D01*
X2965697D01*
X2665350Y1034283D02*
Y1094263D01*
X2695341D01*
X2705337Y1084266D01*
Y1064273D01*
X2695341Y1054276D01*
X2665350D01*
X2685344D02*
X2705337Y1034283D01*
X2725331Y1084266D02*
X2735328Y1094263D01*
X2755321D01*
X2765318Y1084266D01*
Y1074270D01*
X2755321Y1064273D01*
X2745324D01*
X2755321D01*
X2765318Y1054276D01*
Y1044279D01*
X2755321Y1034283D01*
X2735328D01*
X2725331Y1044279D01*
X2825299Y1034283D02*
X2785311D01*
X2825299Y1074270D01*
Y1084266D01*
X2815302Y1094263D01*
X2795308D01*
X2785311Y1084266D01*
X2845292Y1024286D02*
X2885279D01*
X2905273Y1094263D02*
Y1044279D01*
X2915269Y1034283D01*
X2935263D01*
X2945260Y1044279D01*
Y1094263D01*
X2965253Y1024286D02*
X3005240D01*
X3065221Y1094263D02*
Y1034283D01*
X3035231D01*
X3025234Y1044279D01*
Y1064273D01*
X3035231Y1074270D01*
X3065221D01*
X3085215Y1034283D02*
X3105208D01*
X3095211D01*
Y1074270D01*
X3085215D01*
X3155192Y1014289D02*
X3165189D01*
X3175185Y1024286D01*
Y1074270D01*
X3145195D01*
X3135198Y1064273D01*
Y1044279D01*
X3145195Y1034283D01*
X3175185D01*
X3195179D02*
X3215172D01*
X3205176D01*
Y1074270D01*
X3195179D01*
X3255160Y1084266D02*
Y1074270D01*
X3245163D01*
X3265156D01*
X3255160D01*
Y1044279D01*
X3265156Y1034283D01*
X3305143Y1074270D02*
X3325137D01*
X3335134Y1064273D01*
Y1034283D01*
X3305143D01*
X3295146Y1044279D01*
X3305143Y1054276D01*
X3335134D01*
X3355127Y1034283D02*
X3375121D01*
X3365124D01*
Y1094263D01*
X3355127D01*
X3405111Y1024286D02*
X3445098D01*
X3465091Y1034283D02*
X3485085D01*
X3475088D01*
Y1074270D01*
X3465091D01*
X3515075Y1034283D02*
Y1074270D01*
X3545066D01*
X3555062Y1064273D01*
Y1034283D01*
X3615043Y1094263D02*
Y1034283D01*
X3585053D01*
X3575056Y1044279D01*
Y1064273D01*
X3585053Y1074270D01*
X3615043D01*
X3635037Y1034283D02*
X3655030D01*
X3645033D01*
Y1074270D01*
X3635037D01*
X3725007D02*
X3695017D01*
X3685020Y1064273D01*
Y1044279D01*
X3695017Y1034283D01*
X3725007D01*
X3754998Y1074270D02*
X3774991D01*
X3784988Y1064273D01*
Y1034283D01*
X3754998D01*
X3745001Y1044279D01*
X3754998Y1054276D01*
X3784988D01*
X3814978Y1084266D02*
Y1074270D01*
X3804981D01*
X3824975D01*
X3814978D01*
Y1044279D01*
X3824975Y1034283D01*
X3864962D02*
X3884956D01*
X3894952Y1044279D01*
Y1064273D01*
X3884956Y1074270D01*
X3864962D01*
X3854965Y1064273D01*
Y1044279D01*
X3864962Y1034283D01*
X3914946Y1074270D02*
Y1034283D01*
Y1054276D01*
X3924943Y1064273D01*
X3934939Y1074270D01*
X3944936D01*
X3974927Y1084266D02*
X3984923Y1094263D01*
X4004917D01*
X4014914Y1084266D01*
Y1074270D01*
X4004917Y1064273D01*
X3994920D01*
X4004917D01*
X4014914Y1054276D01*
Y1044279D01*
X4004917Y1034283D01*
X3984923D01*
X3974927Y1044279D01*
X3698924Y998994D02*
Y1058975D01*
X3728914D01*
X3738911Y1048978D01*
Y1028985D01*
X3728914Y1018988D01*
X3698924D01*
X3718918D02*
X3738911Y998994D01*
X3758905Y1048978D02*
X3768902Y1058975D01*
X3788895D01*
X3798892Y1048978D01*
Y1038981D01*
X3788895Y1028985D01*
X3778898D01*
X3788895D01*
X3798892Y1018988D01*
Y1008991D01*
X3788895Y998994D01*
X3768902D01*
X3758905Y1008991D01*
X3858872Y998994D02*
X3818885D01*
X3858872Y1038981D01*
Y1048978D01*
X3848876Y1058975D01*
X3828882D01*
X3818885Y1048978D01*
X3878866Y988997D02*
X3918853D01*
X3938847Y1058975D02*
Y1008991D01*
X3948843Y998994D01*
X3968837D01*
X3978834Y1008991D01*
Y1058975D01*
X3998827Y988997D02*
X4038814D01*
X4098795Y1058975D02*
Y998994D01*
X4068805D01*
X4058808Y1008991D01*
Y1028985D01*
X4068805Y1038981D01*
X4098795D01*
X4118788Y998994D02*
X4138782D01*
X4128785D01*
Y1038981D01*
X4118788D01*
X4188766Y979001D02*
X4198762D01*
X4208759Y988997D01*
Y1038981D01*
X4178769D01*
X4168772Y1028985D01*
Y1008991D01*
X4178769Y998994D01*
X4208759D01*
X4228753D02*
X4248746D01*
X4238750D01*
Y1038981D01*
X4228753D01*
X4288733Y1048978D02*
Y1038981D01*
X4278737D01*
X4298730D01*
X4288733D01*
Y1008991D01*
X4298730Y998994D01*
X4338717Y1038981D02*
X4358711D01*
X4368708Y1028985D01*
Y998994D01*
X4338717D01*
X4328720Y1008991D01*
X4338717Y1018988D01*
X4368708D01*
X4388701Y998994D02*
X4408694D01*
X4398698D01*
Y1058975D01*
X4388701D01*
X4438685Y988997D02*
X4478672D01*
X4498665Y998994D02*
X4518659D01*
X4508662D01*
Y1038981D01*
X4498665D01*
X4548649Y998994D02*
Y1038981D01*
X4578640D01*
X4588636Y1028985D01*
Y998994D01*
X4648617Y1058975D02*
Y998994D01*
X4618627D01*
X4608630Y1008991D01*
Y1028985D01*
X4618627Y1038981D01*
X4648617D01*
X4668610Y998994D02*
X4688604D01*
X4678607D01*
Y1038981D01*
X4668610D01*
X4758581D02*
X4728591D01*
X4718594Y1028985D01*
Y1008991D01*
X4728591Y998994D01*
X4758581D01*
X4788572Y1038981D02*
X4808565D01*
X4818562Y1028985D01*
Y998994D01*
X4788572D01*
X4778575Y1008991D01*
X4788572Y1018988D01*
X4818562D01*
X4848552Y1048978D02*
Y1038981D01*
X4838555D01*
X4858549D01*
X4848552D01*
Y1008991D01*
X4858549Y998994D01*
X4898536D02*
X4918529D01*
X4928526Y1008991D01*
Y1028985D01*
X4918529Y1038981D01*
X4898536D01*
X4888539Y1028985D01*
Y1008991D01*
X4898536Y998994D01*
X4948520Y1038981D02*
Y998994D01*
Y1018988D01*
X4958517Y1028985D01*
X4968513Y1038981D01*
X4978510D01*
X5048488Y998994D02*
X5008500D01*
X5048488Y1038981D01*
Y1048978D01*
X5038491Y1058975D01*
X5018497D01*
X5008500Y1048978D01*
X4684663Y998994D02*
Y1058975D01*
X4714654D01*
X4724650Y1048978D01*
Y1028984D01*
X4714654Y1018987D01*
X4684663D01*
X4704657D02*
X4724650Y998994D01*
X4744644Y1048978D02*
X4754641Y1058975D01*
X4774634D01*
X4784631Y1048978D01*
Y1038981D01*
X4774634Y1028984D01*
X4764637D01*
X4774634D01*
X4784631Y1018987D01*
Y1008991D01*
X4774634Y998994D01*
X4754641D01*
X4744644Y1008991D01*
X4844612Y998994D02*
X4804625D01*
X4844612Y1038981D01*
Y1048978D01*
X4834615Y1058975D01*
X4814621D01*
X4804625Y1048978D01*
X4864605Y988997D02*
X4904592D01*
X4924586Y1058975D02*
Y1008991D01*
X4934583Y998994D01*
X4954576D01*
X4964573Y1008991D01*
Y1058975D01*
X4984566Y988997D02*
X5024553D01*
X5084534Y1058975D02*
Y998994D01*
X5054544D01*
X5044547Y1008991D01*
Y1028984D01*
X5054544Y1038981D01*
X5084534D01*
X5104528Y998994D02*
X5124521D01*
X5114524D01*
Y1038981D01*
X5104528D01*
X5174505Y979000D02*
X5184502D01*
X5194498Y988997D01*
Y1038981D01*
X5164508D01*
X5154511Y1028984D01*
Y1008991D01*
X5164508Y998994D01*
X5194498D01*
X5214492D02*
X5234485D01*
X5224489D01*
Y1038981D01*
X5214492D01*
X5274473Y1048978D02*
Y1038981D01*
X5264476D01*
X5284469D01*
X5274473D01*
Y1008991D01*
X5284469Y998994D01*
X5324456Y1038981D02*
X5344450D01*
X5354447Y1028984D01*
Y998994D01*
X5324456D01*
X5314460Y1008991D01*
X5324456Y1018987D01*
X5354447D01*
X5374440Y998994D02*
X5394434D01*
X5384437D01*
Y1058975D01*
X5374440D01*
X5424424Y988997D02*
X5464411D01*
X5484405Y998994D02*
X5504398D01*
X5494401D01*
Y1038981D01*
X5484405D01*
X5534388Y998994D02*
Y1038981D01*
X5564379D01*
X5574376Y1028984D01*
Y998994D01*
X5634356Y1058975D02*
Y998994D01*
X5604366D01*
X5594369Y1008991D01*
Y1028984D01*
X5604366Y1038981D01*
X5634356D01*
X5654350Y998994D02*
X5674343D01*
X5664346D01*
Y1038981D01*
X5654350D01*
X5744320D02*
X5714330D01*
X5704333Y1028984D01*
Y1008991D01*
X5714330Y998994D01*
X5744320D01*
X5774311Y1038981D02*
X5794304D01*
X5804301Y1028984D01*
Y998994D01*
X5774311D01*
X5764314Y1008991D01*
X5774311Y1018987D01*
X5804301D01*
X5834291Y1048978D02*
Y1038981D01*
X5824295D01*
X5844288D01*
X5834291D01*
Y1008991D01*
X5844288Y998994D01*
X5884275D02*
X5904269D01*
X5914266Y1008991D01*
Y1028984D01*
X5904269Y1038981D01*
X5884275D01*
X5874278Y1028984D01*
Y1008991D01*
X5884275Y998994D01*
X5934259Y1038981D02*
Y998994D01*
Y1018987D01*
X5944256Y1028984D01*
X5954252Y1038981D01*
X5964249D01*
X5994240Y998994D02*
X6014233D01*
X6004236D01*
Y1058975D01*
X5994240Y1048978D01*
X1618924Y164994D02*
Y224975D01*
X1648915D01*
X1658911Y214978D01*
Y194984D01*
X1648915Y184988D01*
X1618924D01*
X1638918D02*
X1658911Y164994D01*
X1678905Y214978D02*
X1688902Y224975D01*
X1708895D01*
X1718892Y214978D01*
Y204981D01*
X1708895Y194984D01*
X1698898D01*
X1708895D01*
X1718892Y184988D01*
Y174991D01*
X1708895Y164994D01*
X1688902D01*
X1678905Y174991D01*
X1738885Y164994D02*
X1758879D01*
X1748882D01*
Y224975D01*
X1738885Y214978D01*
X1788869Y154997D02*
X1828856D01*
X1848850Y224975D02*
Y174991D01*
X1858847Y164994D01*
X1878840D01*
X1888837Y174991D01*
Y224975D01*
X1908830Y154997D02*
X1948818D01*
X2008798Y224975D02*
Y164994D01*
X1978808D01*
X1968811Y174991D01*
Y194984D01*
X1978808Y204981D01*
X2008798D01*
X2028792Y164994D02*
X2048785D01*
X2038788D01*
Y204981D01*
X2028792D01*
X2098769Y145001D02*
X2108766D01*
X2118762Y154997D01*
Y204981D01*
X2088772D01*
X2078775Y194984D01*
Y174991D01*
X2088772Y164994D01*
X2118762D01*
X2138756D02*
X2158749D01*
X2148753D01*
Y204981D01*
X2138756D01*
X2198737Y214978D02*
Y204981D01*
X2188740D01*
X2208733D01*
X2198737D01*
Y174991D01*
X2208733Y164994D01*
X2248720Y204981D02*
X2268714D01*
X2278711Y194984D01*
Y164994D01*
X2248720D01*
X2238724Y174991D01*
X2248720Y184988D01*
X2278711D01*
X2298704Y164994D02*
X2318698D01*
X2308701D01*
Y224975D01*
X2298704D01*
X2348688Y154997D02*
X2388675D01*
X2408669Y164994D02*
X2428662D01*
X2418665D01*
Y204981D01*
X2408669D01*
X2458652Y164994D02*
Y204981D01*
X2488643D01*
X2498640Y194984D01*
Y164994D01*
X2558620Y224975D02*
Y164994D01*
X2528630D01*
X2518633Y174991D01*
Y194984D01*
X2528630Y204981D01*
X2558620D01*
X2578614Y164994D02*
X2598607D01*
X2588610D01*
Y204981D01*
X2578614D01*
X2668584D02*
X2638594D01*
X2628597Y194984D01*
Y174991D01*
X2638594Y164994D01*
X2668584D01*
X2698575Y204981D02*
X2718568D01*
X2728565Y194984D01*
Y164994D01*
X2698575D01*
X2688578Y174991D01*
X2698575Y184988D01*
X2728565D01*
X2758555Y214978D02*
Y204981D01*
X2748559D01*
X2768552D01*
X2758555D01*
Y174991D01*
X2768552Y164994D01*
X2808539D02*
X2828533D01*
X2838530Y174991D01*
Y194984D01*
X2828533Y204981D01*
X2808539D01*
X2798542Y194984D01*
Y174991D01*
X2808539Y164994D01*
X2858523Y204981D02*
Y164994D01*
Y184988D01*
X2868520Y194984D01*
X2878517Y204981D01*
X2888513D01*
X2948494Y164994D02*
Y224975D01*
X2918504Y194984D01*
X2958491D01*
X2676003Y904445D02*
Y964426D01*
X2705994D01*
X2715990Y954429D01*
Y934435D01*
X2705994Y924438D01*
X2676003D01*
X2695997D02*
X2715990Y904445D01*
X2735984Y954429D02*
X2745981Y964426D01*
X2765974D01*
X2775971Y954429D01*
Y944432D01*
X2765974Y934435D01*
X2755977D01*
X2765974D01*
X2775971Y924438D01*
Y914442D01*
X2765974Y904445D01*
X2745981D01*
X2735984Y914442D01*
X2795964Y904445D02*
X2815958D01*
X2805961D01*
Y964426D01*
X2795964Y954429D01*
X2845948Y894448D02*
X2885935D01*
X2905929Y964426D02*
Y914442D01*
X2915926Y904445D01*
X2935919D01*
X2945916Y914442D01*
Y964426D01*
X2965909Y894448D02*
X3005896D01*
X3065877Y964426D02*
Y904445D01*
X3035887D01*
X3025890Y914442D01*
Y934435D01*
X3035887Y944432D01*
X3065877D01*
X3085871Y904445D02*
X3105864D01*
X3095867D01*
Y944432D01*
X3085871D01*
X3155848Y884452D02*
X3165845D01*
X3175841Y894448D01*
Y944432D01*
X3145851D01*
X3135854Y934435D01*
Y914442D01*
X3145851Y904445D01*
X3175841D01*
X3195835D02*
X3215829D01*
X3205832D01*
Y944432D01*
X3195835D01*
X3255816Y954429D02*
Y944432D01*
X3245819D01*
X3265812D01*
X3255816D01*
Y914442D01*
X3265812Y904445D01*
X3305799Y944432D02*
X3325793D01*
X3335790Y934435D01*
Y904445D01*
X3305799D01*
X3295803Y914442D01*
X3305799Y924438D01*
X3335790D01*
X3355783Y904445D02*
X3375777D01*
X3365780D01*
Y964426D01*
X3355783D01*
X3405767Y894448D02*
X3445754D01*
X3465748Y904445D02*
X3485741D01*
X3475744D01*
Y944432D01*
X3465748D01*
X3515731Y904445D02*
Y944432D01*
X3545722D01*
X3555718Y934435D01*
Y904445D01*
X3615699Y964426D02*
Y904445D01*
X3585709D01*
X3575712Y914442D01*
Y934435D01*
X3585709Y944432D01*
X3615699D01*
X3635693Y904445D02*
X3655686D01*
X3645689D01*
Y944432D01*
X3635693D01*
X3725664D02*
X3695673D01*
X3685676Y934435D01*
Y914442D01*
X3695673Y904445D01*
X3725664D01*
X3755654Y944432D02*
X3775647D01*
X3785644Y934435D01*
Y904445D01*
X3755654D01*
X3745657Y914442D01*
X3755654Y924438D01*
X3785644D01*
X3815634Y954429D02*
Y944432D01*
X3805638D01*
X3825631D01*
X3815634D01*
Y914442D01*
X3825631Y904445D01*
X3865618D02*
X3885612D01*
X3895608Y914442D01*
Y934435D01*
X3885612Y944432D01*
X3865618D01*
X3855621Y934435D01*
Y914442D01*
X3865618Y904445D01*
X3915602Y944432D02*
Y904445D01*
Y924438D01*
X3925599Y934435D01*
X3935595Y944432D01*
X3945592D01*
X3975583Y954429D02*
X3985579Y964426D01*
X4005573D01*
X4015570Y954429D01*
Y944432D01*
X4005573Y934435D01*
X3995576D01*
X4005573D01*
X4015570Y924438D01*
Y914442D01*
X4005573Y904445D01*
X3985579D01*
X3975583Y914442D01*
X3705432Y149657D02*
Y209637D01*
X3735423D01*
X3745419Y199641D01*
Y179647D01*
X3735423Y169650D01*
X3705432D01*
X3725426D02*
X3745419Y149657D01*
X3765413Y199641D02*
X3775410Y209637D01*
X3795403D01*
X3805400Y199641D01*
Y189644D01*
X3795403Y179647D01*
X3785407D01*
X3795403D01*
X3805400Y169650D01*
Y159654D01*
X3795403Y149657D01*
X3775410D01*
X3765413Y159654D01*
X3825394Y149657D02*
X3845387D01*
X3835390D01*
Y209637D01*
X3825394Y199641D01*
X3875377Y139660D02*
X3915365D01*
X3935358Y209637D02*
Y159654D01*
X3945355Y149657D01*
X3965348D01*
X3975345Y159654D01*
Y209637D01*
X3995339Y139660D02*
X4035326D01*
X4095306Y209637D02*
Y149657D01*
X4065316D01*
X4055319Y159654D01*
Y179647D01*
X4065316Y189644D01*
X4095306D01*
X4115300Y149657D02*
X4135293D01*
X4125297D01*
Y189644D01*
X4115300D01*
X4185277Y129663D02*
X4195274D01*
X4205271Y139660D01*
Y189644D01*
X4175280D01*
X4165284Y179647D01*
Y159654D01*
X4175280Y149657D01*
X4205271D01*
X4225264D02*
X4245258D01*
X4235261D01*
Y189644D01*
X4225264D01*
X4285245Y199641D02*
Y189644D01*
X4275248D01*
X4295242D01*
X4285245D01*
Y159654D01*
X4295242Y149657D01*
X4335229Y189644D02*
X4355222D01*
X4365219Y179647D01*
Y149657D01*
X4335229D01*
X4325232Y159654D01*
X4335229Y169650D01*
X4365219D01*
X4385212Y149657D02*
X4405206D01*
X4395209D01*
Y209637D01*
X4385212D01*
X4435196Y139660D02*
X4475183D01*
X4495177Y149657D02*
X4515170D01*
X4505174D01*
Y189644D01*
X4495177D01*
X4545161Y149657D02*
Y189644D01*
X4575151D01*
X4585148Y179647D01*
Y149657D01*
X4645128Y209637D02*
Y149657D01*
X4615138D01*
X4605141Y159654D01*
Y179647D01*
X4615138Y189644D01*
X4645128D01*
X4665122Y149657D02*
X4685115D01*
X4675119D01*
Y189644D01*
X4665122D01*
X4755093D02*
X4725102D01*
X4715106Y179647D01*
Y159654D01*
X4725102Y149657D01*
X4755093D01*
X4785083Y189644D02*
X4805077D01*
X4815073Y179647D01*
Y149657D01*
X4785083D01*
X4775086Y159654D01*
X4785083Y169650D01*
X4815073D01*
X4845064Y199641D02*
Y189644D01*
X4835067D01*
X4855060D01*
X4845064D01*
Y159654D01*
X4855060Y149657D01*
X4895047D02*
X4915041D01*
X4925038Y159654D01*
Y179647D01*
X4915041Y189644D01*
X4895047D01*
X4885051Y179647D01*
Y159654D01*
X4895047Y149657D01*
X4945031Y189644D02*
Y149657D01*
Y169650D01*
X4955028Y179647D01*
X4965025Y189644D01*
X4975021D01*
X5044999Y149657D02*
X5005012D01*
X5044999Y189644D01*
Y199641D01*
X5035002Y209637D01*
X5015009D01*
X5005012Y199641D01*
X3885783Y149335D02*
Y209316D01*
X3915773D01*
X3925770Y199319D01*
Y179326D01*
X3915773Y169329D01*
X3885783D01*
X3905777D02*
X3925770Y149335D01*
X3945764Y199319D02*
X3955761Y209316D01*
X3975754D01*
X3985751Y199319D01*
Y189322D01*
X3975754Y179326D01*
X3965757D01*
X3975754D01*
X3985751Y169329D01*
Y159332D01*
X3975754Y149335D01*
X3955761D01*
X3945764Y159332D01*
X4005744Y149335D02*
X4025738D01*
X4015741D01*
Y209316D01*
X4005744Y199319D01*
X4055728Y139338D02*
X4095715D01*
X4115709Y209316D02*
Y159332D01*
X4125706Y149335D01*
X4145699D01*
X4155696Y159332D01*
Y209316D01*
X4175689Y139338D02*
X4215676D01*
X4275657Y209316D02*
Y149335D01*
X4245667D01*
X4235670Y159332D01*
Y179326D01*
X4245667Y189322D01*
X4275657D01*
X4295651Y149335D02*
X4315644D01*
X4305647D01*
Y189322D01*
X4295651D01*
X4365628Y129342D02*
X4375625D01*
X4385622Y139338D01*
Y189322D01*
X4355631D01*
X4345634Y179326D01*
Y159332D01*
X4355631Y149335D01*
X4385622D01*
X4405615D02*
X4425609D01*
X4415612D01*
Y189322D01*
X4405615D01*
X4465596Y199319D02*
Y189322D01*
X4455599D01*
X4475592D01*
X4465596D01*
Y159332D01*
X4475592Y149335D01*
X4515579Y189322D02*
X4535573D01*
X4545570Y179326D01*
Y149335D01*
X4515579D01*
X4505583Y159332D01*
X4515579Y169329D01*
X4545570D01*
X4565563Y149335D02*
X4585557D01*
X4575560D01*
Y209316D01*
X4565563D01*
X4615547Y139338D02*
X4655534D01*
X4675528Y149335D02*
X4695521D01*
X4685524D01*
Y189322D01*
X4675528D01*
X4725511Y149335D02*
Y189322D01*
X4755502D01*
X4765498Y179326D01*
Y149335D01*
X4825479Y209316D02*
Y149335D01*
X4795489D01*
X4785492Y159332D01*
Y179326D01*
X4795489Y189322D01*
X4825479D01*
X4845473Y149335D02*
X4865466D01*
X4855469D01*
Y189322D01*
X4845473D01*
X4935444D02*
X4905453D01*
X4895456Y179326D01*
Y159332D01*
X4905453Y149335D01*
X4935444D01*
X4965434Y189322D02*
X4985427D01*
X4995424Y179326D01*
Y149335D01*
X4965434D01*
X4955437Y159332D01*
X4965434Y169329D01*
X4995424D01*
X5025414Y199319D02*
Y189322D01*
X5015418D01*
X5035411D01*
X5025414D01*
Y159332D01*
X5035411Y149335D01*
X5075398D02*
X5095392D01*
X5105389Y159332D01*
Y179326D01*
X5095392Y189322D01*
X5075398D01*
X5065401Y179326D01*
Y159332D01*
X5075398Y149335D01*
X5125382Y189322D02*
Y149335D01*
Y169329D01*
X5135379Y179326D01*
X5145376Y189322D01*
X5155372D01*
X5185363Y149335D02*
X5205356D01*
X5195359D01*
Y209316D01*
X5185363Y199319D01*
X1616147Y266294D02*
Y326274D01*
X1646137D01*
X1656134Y316277D01*
Y296284D01*
X1646137Y286287D01*
X1616147D01*
X1636140D02*
X1656134Y266294D01*
X1676127Y316277D02*
X1686124Y326274D01*
X1706118D01*
X1716114Y316277D01*
Y306281D01*
X1706118Y296284D01*
X1696121D01*
X1706118D01*
X1716114Y286287D01*
Y276291D01*
X1706118Y266294D01*
X1686124D01*
X1676127Y276291D01*
X1736108Y316277D02*
X1746105Y326274D01*
X1766098D01*
X1776095Y316277D01*
Y276291D01*
X1766098Y266294D01*
X1746105D01*
X1736108Y276291D01*
Y316277D01*
X1796089Y256297D02*
X1836076D01*
X1856069Y326274D02*
Y276291D01*
X1866066Y266294D01*
X1886060D01*
X1896056Y276291D01*
Y326274D01*
X1916050Y256297D02*
X1956037D01*
X2016017Y326274D02*
Y266294D01*
X1986027D01*
X1976030Y276291D01*
Y296284D01*
X1986027Y306281D01*
X2016017D01*
X2036011Y266294D02*
X2056005D01*
X2046008D01*
Y306281D01*
X2036011D01*
X2105988Y246300D02*
X2115985D01*
X2125982Y256297D01*
Y306281D01*
X2095992D01*
X2085995Y296284D01*
Y276291D01*
X2095992Y266294D01*
X2125982D01*
X2145975D02*
X2165969D01*
X2155972D01*
Y306281D01*
X2145975D01*
X2205956Y316277D02*
Y306281D01*
X2195959D01*
X2215953D01*
X2205956D01*
Y276291D01*
X2215953Y266294D01*
X2255940Y306281D02*
X2275933D01*
X2285930Y296284D01*
Y266294D01*
X2255940D01*
X2245943Y276291D01*
X2255940Y286287D01*
X2285930D01*
X2305924Y266294D02*
X2325917D01*
X2315920D01*
Y326274D01*
X2305924D01*
X2355907Y256297D02*
X2395894D01*
X2415888Y266294D02*
X2435881D01*
X2425885D01*
Y306281D01*
X2415888D01*
X2465872Y266294D02*
Y306281D01*
X2495862D01*
X2505859Y296284D01*
Y266294D01*
X2565840Y326274D02*
Y266294D01*
X2535849D01*
X2525852Y276291D01*
Y296284D01*
X2535849Y306281D01*
X2565840D01*
X2585833Y266294D02*
X2605827D01*
X2595830D01*
Y306281D01*
X2585833D01*
X2675804D02*
X2645814D01*
X2635817Y296284D01*
Y276291D01*
X2645814Y266294D01*
X2675804D01*
X2705794Y306281D02*
X2725788D01*
X2735785Y296284D01*
Y266294D01*
X2705794D01*
X2695797Y276291D01*
X2705794Y286287D01*
X2735785D01*
X2765775Y316277D02*
Y306281D01*
X2755778D01*
X2775771D01*
X2765775D01*
Y276291D01*
X2775771Y266294D01*
X2815759D02*
X2835752D01*
X2845749Y276291D01*
Y296284D01*
X2835752Y306281D01*
X2815759D01*
X2805762Y296284D01*
Y276291D01*
X2815759Y266294D01*
X2865742Y306281D02*
Y266294D01*
Y286287D01*
X2875739Y296284D01*
X2885736Y306281D01*
X2895733D01*
X2955713Y266294D02*
Y326274D01*
X2925723Y296284D01*
X2965710D01*
X2680506Y774777D02*
Y834757D01*
X2710497D01*
X2720493Y824760D01*
Y804767D01*
X2710497Y794770D01*
X2680506D01*
X2700500D02*
X2720493Y774777D01*
X2740487Y824760D02*
X2750484Y834757D01*
X2770477D01*
X2780474Y824760D01*
Y814764D01*
X2770477Y804767D01*
X2760480D01*
X2770477D01*
X2780474Y794770D01*
Y784773D01*
X2770477Y774777D01*
X2750484D01*
X2740487Y784773D01*
X2800468Y824760D02*
X2810464Y834757D01*
X2830458D01*
X2840455Y824760D01*
Y784773D01*
X2830458Y774777D01*
X2810464D01*
X2800468Y784773D01*
Y824760D01*
X2860448Y764780D02*
X2900435D01*
X2920429Y834757D02*
Y784773D01*
X2930425Y774777D01*
X2950419D01*
X2960416Y784773D01*
Y834757D01*
X2980409Y764780D02*
X3020396D01*
X3080377Y834757D02*
Y774777D01*
X3050387D01*
X3040390Y784773D01*
Y804767D01*
X3050387Y814764D01*
X3080377D01*
X3100370Y774777D02*
X3120364D01*
X3110367D01*
Y814764D01*
X3100370D01*
X3170348Y754783D02*
X3180345D01*
X3190341Y764780D01*
Y814764D01*
X3160351D01*
X3150354Y804767D01*
Y784773D01*
X3160351Y774777D01*
X3190341D01*
X3210335D02*
X3230328D01*
X3220332D01*
Y814764D01*
X3210335D01*
X3270316Y824760D02*
Y814764D01*
X3260319D01*
X3280312D01*
X3270316D01*
Y784773D01*
X3280312Y774777D01*
X3320299Y814764D02*
X3340293D01*
X3350290Y804767D01*
Y774777D01*
X3320299D01*
X3310302Y784773D01*
X3320299Y794770D01*
X3350290D01*
X3370283Y774777D02*
X3390277D01*
X3380280D01*
Y834757D01*
X3370283D01*
X3420267Y764780D02*
X3460254D01*
X3480247Y774777D02*
X3500241D01*
X3490244D01*
Y814764D01*
X3480247D01*
X3530231Y774777D02*
Y814764D01*
X3560222D01*
X3570218Y804767D01*
Y774777D01*
X3630199Y834757D02*
Y774777D01*
X3600209D01*
X3590212Y784773D01*
Y804767D01*
X3600209Y814764D01*
X3630199D01*
X3650193Y774777D02*
X3670186D01*
X3660189D01*
Y814764D01*
X3650193D01*
X3740163D02*
X3710173D01*
X3700176Y804767D01*
Y784773D01*
X3710173Y774777D01*
X3740163D01*
X3770154Y814764D02*
X3790147D01*
X3800144Y804767D01*
Y774777D01*
X3770154D01*
X3760157Y784773D01*
X3770154Y794770D01*
X3800144D01*
X3830134Y824760D02*
Y814764D01*
X3820137D01*
X3840131D01*
X3830134D01*
Y784773D01*
X3840131Y774777D01*
X3880118D02*
X3900112D01*
X3910108Y784773D01*
Y804767D01*
X3900112Y814764D01*
X3880118D01*
X3870121Y804767D01*
Y784773D01*
X3880118Y774777D01*
X3930102Y814764D02*
Y774777D01*
Y794770D01*
X3940099Y804767D01*
X3950095Y814764D01*
X3960092D01*
X3990082Y824760D02*
X4000079Y834757D01*
X4020073D01*
X4030070Y824760D01*
Y814764D01*
X4020073Y804767D01*
X4010076D01*
X4020073D01*
X4030070Y794770D01*
Y784773D01*
X4020073Y774777D01*
X4000079D01*
X3990082Y784773D01*
X3871033Y374601D02*
Y434582D01*
X3901023D01*
X3911020Y424585D01*
Y404592D01*
X3901023Y394595D01*
X3871033D01*
X3891026D02*
X3911020Y374601D01*
X3931014Y424585D02*
X3941010Y434582D01*
X3961004D01*
X3971001Y424585D01*
Y414588D01*
X3961004Y404592D01*
X3951007D01*
X3961004D01*
X3971001Y394595D01*
Y384598D01*
X3961004Y374601D01*
X3941010D01*
X3931014Y384598D01*
X3990994Y424585D02*
X4000991Y434582D01*
X4020984D01*
X4030981Y424585D01*
Y384598D01*
X4020984Y374601D01*
X4000991D01*
X3990994Y384598D01*
Y424585D01*
X4050975Y364604D02*
X4090962D01*
X4110955Y434582D02*
Y384598D01*
X4120952Y374601D01*
X4140946D01*
X4150942Y384598D01*
Y434582D01*
X4170936Y364604D02*
X4210923D01*
X4270904Y434582D02*
Y374601D01*
X4240913D01*
X4230917Y384598D01*
Y404592D01*
X4240913Y414588D01*
X4270904D01*
X4290897Y374601D02*
X4310891D01*
X4300894D01*
Y414588D01*
X4290897D01*
X4360874Y354608D02*
X4370871D01*
X4380868Y364604D01*
Y414588D01*
X4350878D01*
X4340881Y404592D01*
Y384598D01*
X4350878Y374601D01*
X4380868D01*
X4400861D02*
X4420855D01*
X4410858D01*
Y414588D01*
X4400861D01*
X4460842Y424585D02*
Y414588D01*
X4450845D01*
X4470839D01*
X4460842D01*
Y384598D01*
X4470839Y374601D01*
X4510826Y414588D02*
X4530819D01*
X4540816Y404592D01*
Y374601D01*
X4510826D01*
X4500829Y384598D01*
X4510826Y394595D01*
X4540816D01*
X4560810Y374601D02*
X4580803D01*
X4570806D01*
Y434582D01*
X4560810D01*
X4610793Y364604D02*
X4650781D01*
X4670774Y374601D02*
X4690768D01*
X4680771D01*
Y414588D01*
X4670774D01*
X4720758Y374601D02*
Y414588D01*
X4750748D01*
X4760745Y404592D01*
Y374601D01*
X4820726Y434582D02*
Y374601D01*
X4790735D01*
X4780739Y384598D01*
Y404592D01*
X4790735Y414588D01*
X4820726D01*
X4840719Y374601D02*
X4860713D01*
X4850716D01*
Y414588D01*
X4840719D01*
X4930690D02*
X4900700D01*
X4890703Y404592D01*
Y384598D01*
X4900700Y374601D01*
X4930690D01*
X4960680Y414588D02*
X4980674D01*
X4990671Y404592D01*
Y374601D01*
X4960680D01*
X4950684Y384598D01*
X4960680Y394595D01*
X4990671D01*
X5020661Y424585D02*
Y414588D01*
X5010664D01*
X5030658D01*
X5020661D01*
Y384598D01*
X5030658Y374601D01*
X5070645D02*
X5090638D01*
X5100635Y384598D01*
Y404592D01*
X5090638Y414588D01*
X5070645D01*
X5060648Y404592D01*
Y384598D01*
X5070645Y374601D01*
X5120628Y414588D02*
Y374601D01*
Y394595D01*
X5130625Y404592D01*
X5140622Y414588D01*
X5150619D01*
X5220596Y374601D02*
X5180609D01*
X5220596Y414588D01*
Y424585D01*
X5210599Y434582D01*
X5190606D01*
X5180609Y424585D01*
X4710924Y177994D02*
Y237975D01*
X4740914D01*
X4750911Y227978D01*
Y207984D01*
X4740914Y197988D01*
X4710924D01*
X4730918D02*
X4750911Y177994D01*
X4770905Y227978D02*
X4780902Y237975D01*
X4800895D01*
X4810892Y227978D01*
Y217981D01*
X4800895Y207984D01*
X4790898D01*
X4800895D01*
X4810892Y197988D01*
Y187991D01*
X4800895Y177994D01*
X4780902D01*
X4770905Y187991D01*
X4830885Y227978D02*
X4840882Y237975D01*
X4860876D01*
X4870873Y227978D01*
Y187991D01*
X4860876Y177994D01*
X4840882D01*
X4830885Y187991D01*
Y227978D01*
X4890866Y167997D02*
X4930853D01*
X4950847Y237975D02*
Y187991D01*
X4960843Y177994D01*
X4980837D01*
X4990834Y187991D01*
Y237975D01*
X5010827Y167997D02*
X5050814D01*
X5110795Y237975D02*
Y177994D01*
X5080805D01*
X5070808Y187991D01*
Y207984D01*
X5080805Y217981D01*
X5110795D01*
X5130788Y177994D02*
X5150782D01*
X5140785D01*
Y217981D01*
X5130788D01*
X5200766Y158001D02*
X5210762D01*
X5220759Y167997D01*
Y217981D01*
X5190769D01*
X5180772Y207984D01*
Y187991D01*
X5190769Y177994D01*
X5220759D01*
X5240753D02*
X5260746D01*
X5250750D01*
Y217981D01*
X5240753D01*
X5300733Y227978D02*
Y217981D01*
X5290737D01*
X5310730D01*
X5300733D01*
Y187991D01*
X5310730Y177994D01*
X5350717Y217981D02*
X5370711D01*
X5380708Y207984D01*
Y177994D01*
X5350717D01*
X5340720Y187991D01*
X5350717Y197988D01*
X5380708D01*
X5400701Y177994D02*
X5420694D01*
X5410698D01*
Y237975D01*
X5400701D01*
X5450685Y167997D02*
X5490672D01*
X5510665Y177994D02*
X5530659D01*
X5520662D01*
Y217981D01*
X5510665D01*
X5560649Y177994D02*
Y217981D01*
X5590640D01*
X5600636Y207984D01*
Y177994D01*
X5660617Y237975D02*
Y177994D01*
X5630627D01*
X5620630Y187991D01*
Y207984D01*
X5630627Y217981D01*
X5660617D01*
X5680610Y177994D02*
X5700604D01*
X5690607D01*
Y217981D01*
X5680610D01*
X5770581D02*
X5740591D01*
X5730594Y207984D01*
Y187991D01*
X5740591Y177994D01*
X5770581D01*
X5800572Y217981D02*
X5820565D01*
X5830562Y207984D01*
Y177994D01*
X5800572D01*
X5790575Y187991D01*
X5800572Y197988D01*
X5830562D01*
X5860552Y227978D02*
Y217981D01*
X5850555D01*
X5870549D01*
X5860552D01*
Y187991D01*
X5870549Y177994D01*
X5910536D02*
X5930529D01*
X5940526Y187991D01*
Y207984D01*
X5930529Y217981D01*
X5910536D01*
X5900539Y207984D01*
Y187991D01*
X5910536Y177994D01*
X5960520Y217981D02*
Y177994D01*
Y197988D01*
X5970517Y207984D01*
X5980513Y217981D01*
X5990510D01*
X6020500Y177994D02*
X6040494D01*
X6030497D01*
Y237975D01*
X6020500Y227978D01*
X1615903Y388535D02*
Y448516D01*
X1645893D01*
X1655890Y438519D01*
Y418526D01*
X1645893Y408529D01*
X1615903D01*
X1635896D02*
X1655890Y388535D01*
X1715870D02*
X1675883D01*
X1715870Y428522D01*
Y438519D01*
X1705874Y448516D01*
X1685880D01*
X1675883Y438519D01*
X1735864Y398532D02*
X1745861Y388535D01*
X1765854D01*
X1775851Y398532D01*
Y438519D01*
X1765854Y448516D01*
X1745861D01*
X1735864Y438519D01*
Y428522D01*
X1745861Y418526D01*
X1775851D01*
X1795845Y378538D02*
X1835832D01*
X1855825Y448516D02*
Y398532D01*
X1865822Y388535D01*
X1885815D01*
X1895812Y398532D01*
Y448516D01*
X1915806Y378538D02*
X1955793D01*
X2015774Y448516D02*
Y388535D01*
X1985783D01*
X1975786Y398532D01*
Y418526D01*
X1985783Y428522D01*
X2015774D01*
X2035767Y388535D02*
X2055760D01*
X2045764D01*
Y428522D01*
X2035767D01*
X2105744Y368542D02*
X2115741D01*
X2125738Y378538D01*
Y428522D01*
X2095748D01*
X2085751Y418526D01*
Y398532D01*
X2095748Y388535D01*
X2125738D01*
X2145731D02*
X2165725D01*
X2155728D01*
Y428522D01*
X2145731D01*
X2205712Y438519D02*
Y428522D01*
X2195715D01*
X2215709D01*
X2205712D01*
Y398532D01*
X2215709Y388535D01*
X2255696Y428522D02*
X2275689D01*
X2285686Y418526D01*
Y388535D01*
X2255696D01*
X2245699Y398532D01*
X2255696Y408529D01*
X2285686D01*
X2305680Y388535D02*
X2325673D01*
X2315676D01*
Y448516D01*
X2305680D01*
X2355663Y378538D02*
X2395651D01*
X2415644Y388535D02*
X2435637D01*
X2425641D01*
Y428522D01*
X2415644D01*
X2465628Y388535D02*
Y428522D01*
X2495618D01*
X2505615Y418526D01*
Y388535D01*
X2565595Y448516D02*
Y388535D01*
X2535605D01*
X2525608Y398532D01*
Y418526D01*
X2535605Y428522D01*
X2565595D01*
X2585589Y388535D02*
X2605582D01*
X2595586D01*
Y428522D01*
X2585589D01*
X2675560D02*
X2645570D01*
X2635573Y418526D01*
Y398532D01*
X2645570Y388535D01*
X2675560D01*
X2705550Y428522D02*
X2725544D01*
X2735541Y418526D01*
Y388535D01*
X2705550D01*
X2695553Y398532D01*
X2705550Y408529D01*
X2735541D01*
X2765531Y438519D02*
Y428522D01*
X2755534D01*
X2775528D01*
X2765531D01*
Y398532D01*
X2775528Y388535D01*
X2815515D02*
X2835508D01*
X2845505Y398532D01*
Y418526D01*
X2835508Y428522D01*
X2815515D01*
X2805518Y418526D01*
Y398532D01*
X2815515Y388535D01*
X2865498Y428522D02*
Y388535D01*
Y408529D01*
X2875495Y418526D01*
X2885492Y428522D01*
X2895489D01*
X2955469Y388535D02*
Y448516D01*
X2925479Y418526D01*
X2965466D01*
X2675721Y629855D02*
Y689836D01*
X2705711D01*
X2715708Y679839D01*
Y659846D01*
X2705711Y649849D01*
X2675721D01*
X2695715D02*
X2715708Y629855D01*
X2775689D02*
X2735702D01*
X2775689Y669842D01*
Y679839D01*
X2765692Y689836D01*
X2745698D01*
X2735702Y679839D01*
X2795682Y639852D02*
X2805679Y629855D01*
X2825673D01*
X2835669Y639852D01*
Y679839D01*
X2825673Y689836D01*
X2805679D01*
X2795682Y679839D01*
Y669842D01*
X2805679Y659846D01*
X2835669D01*
X2855663Y619859D02*
X2895650D01*
X2915644Y689836D02*
Y639852D01*
X2925640Y629855D01*
X2945634D01*
X2955631Y639852D01*
Y689836D01*
X2975624Y619859D02*
X3015611D01*
X3075592Y689836D02*
Y629855D01*
X3045602D01*
X3035605Y639852D01*
Y659846D01*
X3045602Y669842D01*
X3075592D01*
X3095585Y629855D02*
X3115579D01*
X3105582D01*
Y669842D01*
X3095585D01*
X3165563Y609862D02*
X3175559D01*
X3185556Y619859D01*
Y669842D01*
X3155566D01*
X3145569Y659846D01*
Y639852D01*
X3155566Y629855D01*
X3185556D01*
X3205550D02*
X3225543D01*
X3215546D01*
Y669842D01*
X3205550D01*
X3265530Y679839D02*
Y669842D01*
X3255534D01*
X3275527D01*
X3265530D01*
Y639852D01*
X3275527Y629855D01*
X3315514Y669842D02*
X3335508D01*
X3345504Y659846D01*
Y629855D01*
X3315514D01*
X3305517Y639852D01*
X3315514Y649849D01*
X3345504D01*
X3365498Y629855D02*
X3385491D01*
X3375495D01*
Y689836D01*
X3365498D01*
X3415482Y619859D02*
X3455469D01*
X3475462Y629855D02*
X3495456D01*
X3485459D01*
Y669842D01*
X3475462D01*
X3525446Y629855D02*
Y669842D01*
X3555436D01*
X3565433Y659846D01*
Y629855D01*
X3625414Y689836D02*
Y629855D01*
X3595423D01*
X3585427Y639852D01*
Y659846D01*
X3595423Y669842D01*
X3625414D01*
X3645407Y629855D02*
X3665401D01*
X3655404D01*
Y669842D01*
X3645407D01*
X3735378D02*
X3705388D01*
X3695391Y659846D01*
Y639852D01*
X3705388Y629855D01*
X3735378D01*
X3765369Y669842D02*
X3785362D01*
X3795359Y659846D01*
Y629855D01*
X3765369D01*
X3755372Y639852D01*
X3765369Y649849D01*
X3795359D01*
X3825349Y679839D02*
Y669842D01*
X3815352D01*
X3835346D01*
X3825349D01*
Y639852D01*
X3835346Y629855D01*
X3875333D02*
X3895326D01*
X3905323Y639852D01*
Y659846D01*
X3895326Y669842D01*
X3875333D01*
X3865336Y659846D01*
Y639852D01*
X3875333Y629855D01*
X3925317Y669842D02*
Y629855D01*
Y649849D01*
X3935314Y659846D01*
X3945310Y669842D01*
X3955307D01*
X3985297Y679839D02*
X3995294Y689836D01*
X4015288D01*
X4025284Y679839D01*
Y669842D01*
X4015288Y659846D01*
X4005291D01*
X4015288D01*
X4025284Y649849D01*
Y639852D01*
X4015288Y629855D01*
X3995294D01*
X3985297Y639852D01*
X3715751Y524172D02*
Y584152D01*
X3745741D01*
X3755738Y574155D01*
Y554162D01*
X3745741Y544165D01*
X3715751D01*
X3735744D02*
X3755738Y524172D01*
X3815718D02*
X3775731D01*
X3815718Y564159D01*
Y574155D01*
X3805721Y584152D01*
X3785728D01*
X3775731Y574155D01*
X3835712Y534168D02*
X3845709Y524172D01*
X3865702D01*
X3875699Y534168D01*
Y574155D01*
X3865702Y584152D01*
X3845709D01*
X3835712Y574155D01*
Y564159D01*
X3845709Y554162D01*
X3875699D01*
X3895692Y514175D02*
X3935679D01*
X3955673Y584152D02*
Y534168D01*
X3965670Y524172D01*
X3985663D01*
X3995660Y534168D01*
Y584152D01*
X4015653Y514175D02*
X4055641D01*
X4115621Y584152D02*
Y524172D01*
X4085631D01*
X4075634Y534168D01*
Y554162D01*
X4085631Y564159D01*
X4115621D01*
X4135615Y524172D02*
X4155608D01*
X4145611D01*
Y564159D01*
X4135615D01*
X4205592Y504178D02*
X4215589D01*
X4225586Y514175D01*
Y564159D01*
X4195595D01*
X4185599Y554162D01*
Y534168D01*
X4195595Y524172D01*
X4225586D01*
X4245579D02*
X4265573D01*
X4255576D01*
Y564159D01*
X4245579D01*
X4305560Y574155D02*
Y564159D01*
X4295563D01*
X4315556D01*
X4305560D01*
Y534168D01*
X4315556Y524172D01*
X4355543Y564159D02*
X4375537D01*
X4385534Y554162D01*
Y524172D01*
X4355543D01*
X4345547Y534168D01*
X4355543Y544165D01*
X4385534D01*
X4405527Y524172D02*
X4425521D01*
X4415524D01*
Y584152D01*
X4405527D01*
X4455511Y514175D02*
X4495498D01*
X4515492Y524172D02*
X4535485D01*
X4525489D01*
Y564159D01*
X4515492D01*
X4565475Y524172D02*
Y564159D01*
X4595466D01*
X4605463Y554162D01*
Y524172D01*
X4665443Y584152D02*
Y524172D01*
X4635453D01*
X4625456Y534168D01*
Y554162D01*
X4635453Y564159D01*
X4665443D01*
X4685437Y524172D02*
X4705430D01*
X4695434D01*
Y564159D01*
X4685437D01*
X4775408D02*
X4745417D01*
X4735421Y554162D01*
Y534168D01*
X4745417Y524172D01*
X4775408D01*
X4805398Y564159D02*
X4825391D01*
X4835388Y554162D01*
Y524172D01*
X4805398D01*
X4795401Y534168D01*
X4805398Y544165D01*
X4835388D01*
X4865378Y574155D02*
Y564159D01*
X4855382D01*
X4875375D01*
X4865378D01*
Y534168D01*
X4875375Y524172D01*
X4915362D02*
X4935356D01*
X4945353Y534168D01*
Y554162D01*
X4935356Y564159D01*
X4915362D01*
X4905365Y554162D01*
Y534168D01*
X4915362Y524172D01*
X4965346Y564159D02*
Y524172D01*
Y544165D01*
X4975343Y554162D01*
X4985340Y564159D01*
X4995336D01*
X5065314Y524172D02*
X5025327D01*
X5065314Y564159D01*
Y574155D01*
X5055317Y584152D01*
X5035324D01*
X5025327Y574155D01*
X4684924Y771430D02*
Y831411D01*
X4714914D01*
X4724911Y821414D01*
Y801420D01*
X4714914Y791423D01*
X4684924D01*
X4704918D02*
X4724911Y771430D01*
X4784892D02*
X4744905D01*
X4784892Y811417D01*
Y821414D01*
X4774895Y831411D01*
X4754902D01*
X4744905Y821414D01*
X4804885Y781427D02*
X4814882Y771430D01*
X4834876D01*
X4844873Y781427D01*
Y821414D01*
X4834876Y831411D01*
X4814882D01*
X4804885Y821414D01*
Y811417D01*
X4814882Y801420D01*
X4844873D01*
X4864866Y761433D02*
X4904853D01*
X4924847Y831411D02*
Y781427D01*
X4934843Y771430D01*
X4954837D01*
X4964834Y781427D01*
Y831411D01*
X4984827Y761433D02*
X5024814D01*
X5084795Y831411D02*
Y771430D01*
X5054805D01*
X5044808Y781427D01*
Y801420D01*
X5054805Y811417D01*
X5084795D01*
X5104788Y771430D02*
X5124782D01*
X5114785D01*
Y811417D01*
X5104788D01*
X5174766Y751437D02*
X5184762D01*
X5194759Y761433D01*
Y811417D01*
X5164769D01*
X5154772Y801420D01*
Y781427D01*
X5164769Y771430D01*
X5194759D01*
X5214753D02*
X5234746D01*
X5224750D01*
Y811417D01*
X5214753D01*
X5274733Y821414D02*
Y811417D01*
X5264737D01*
X5284730D01*
X5274733D01*
Y781427D01*
X5284730Y771430D01*
X5324717Y811417D02*
X5344711D01*
X5354708Y801420D01*
Y771430D01*
X5324717D01*
X5314720Y781427D01*
X5324717Y791423D01*
X5354708D01*
X5374701Y771430D02*
X5394694D01*
X5384698D01*
Y831411D01*
X5374701D01*
X5424685Y761433D02*
X5464672D01*
X5484665Y771430D02*
X5504659D01*
X5494662D01*
Y811417D01*
X5484665D01*
X5534649Y771430D02*
Y811417D01*
X5564640D01*
X5574636Y801420D01*
Y771430D01*
X5634617Y831411D02*
Y771430D01*
X5604627D01*
X5594630Y781427D01*
Y801420D01*
X5604627Y811417D01*
X5634617D01*
X5654610Y771430D02*
X5674604D01*
X5664607D01*
Y811417D01*
X5654610D01*
X5744581D02*
X5714591D01*
X5704594Y801420D01*
Y781427D01*
X5714591Y771430D01*
X5744581D01*
X5774572Y811417D02*
X5794565D01*
X5804562Y801420D01*
Y771430D01*
X5774572D01*
X5764575Y781427D01*
X5774572Y791423D01*
X5804562D01*
X5834552Y821414D02*
Y811417D01*
X5824555D01*
X5844549D01*
X5834552D01*
Y781427D01*
X5844549Y771430D01*
X5884536D02*
X5904529D01*
X5914526Y781427D01*
Y801420D01*
X5904529Y811417D01*
X5884536D01*
X5874539Y801420D01*
Y781427D01*
X5884536Y771430D01*
X5934520Y811417D02*
Y771430D01*
Y791423D01*
X5944517Y801420D01*
X5954513Y811417D01*
X5964510D01*
X5994500Y771430D02*
X6014494D01*
X6004497D01*
Y831411D01*
X5994500Y821414D01*
X1615506Y510796D02*
Y570777D01*
X1645496D01*
X1655493Y560780D01*
Y540786D01*
X1645496Y530790D01*
X1615506D01*
X1635500D02*
X1655493Y510796D01*
X1715474D02*
X1675487D01*
X1715474Y550783D01*
Y560780D01*
X1705477Y570777D01*
X1685484D01*
X1675487Y560780D01*
X1735467D02*
X1745464Y570777D01*
X1765458D01*
X1775455Y560780D01*
Y550783D01*
X1765458Y540786D01*
X1775455Y530790D01*
Y520793D01*
X1765458Y510796D01*
X1745464D01*
X1735467Y520793D01*
Y530790D01*
X1745464Y540786D01*
X1735467Y550783D01*
Y560780D01*
X1745464Y540786D02*
X1765458D01*
X1795448Y500799D02*
X1835435D01*
X1855429Y570777D02*
Y520793D01*
X1865425Y510796D01*
X1885419D01*
X1895416Y520793D01*
Y570777D01*
X1915409Y500799D02*
X1955396D01*
X2015377Y570777D02*
Y510796D01*
X1985387D01*
X1975390Y520793D01*
Y540786D01*
X1985387Y550783D01*
X2015377D01*
X2035370Y510796D02*
X2055364D01*
X2045367D01*
Y550783D01*
X2035370D01*
X2105348Y490803D02*
X2115345D01*
X2125341Y500799D01*
Y550783D01*
X2095351D01*
X2085354Y540786D01*
Y520793D01*
X2095351Y510796D01*
X2125341D01*
X2145335D02*
X2165328D01*
X2155332D01*
Y550783D01*
X2145335D01*
X2205315Y560780D02*
Y550783D01*
X2195319D01*
X2215312D01*
X2205315D01*
Y520793D01*
X2215312Y510796D01*
X2255299Y550783D02*
X2275293D01*
X2285289Y540786D01*
Y510796D01*
X2255299D01*
X2245302Y520793D01*
X2255299Y530790D01*
X2285289D01*
X2305283Y510796D02*
X2325276D01*
X2315280D01*
Y570777D01*
X2305283D01*
X2355267Y500799D02*
X2395254D01*
X2415247Y510796D02*
X2435241D01*
X2425244D01*
Y550783D01*
X2415247D01*
X2465231Y510796D02*
Y550783D01*
X2495222D01*
X2505218Y540786D01*
Y510796D01*
X2565199Y570777D02*
Y510796D01*
X2535209D01*
X2525212Y520793D01*
Y540786D01*
X2535209Y550783D01*
X2565199D01*
X2585192Y510796D02*
X2605186D01*
X2595189D01*
Y550783D01*
X2585192D01*
X2675163D02*
X2645173D01*
X2635176Y540786D01*
Y520793D01*
X2645173Y510796D01*
X2675163D01*
X2705154Y550783D02*
X2725147D01*
X2735144Y540786D01*
Y510796D01*
X2705154D01*
X2695157Y520793D01*
X2705154Y530790D01*
X2735144D01*
X2765134Y560780D02*
Y550783D01*
X2755137D01*
X2775131D01*
X2765134D01*
Y520793D01*
X2775131Y510796D01*
X2815118D02*
X2835111D01*
X2845108Y520793D01*
Y540786D01*
X2835111Y550783D01*
X2815118D01*
X2805121Y540786D01*
Y520793D01*
X2815118Y510796D01*
X2865102Y550783D02*
Y510796D01*
Y530790D01*
X2875099Y540786D01*
X2885095Y550783D01*
X2895092D01*
X2955073Y510796D02*
Y570777D01*
X2925082Y540786D01*
X2965070D01*
X2666054Y469227D02*
Y529208D01*
X2696044D01*
X2706041Y519211D01*
Y499217D01*
X2696044Y489221D01*
X2666054D01*
X2686047D02*
X2706041Y469227D01*
X2766021D02*
X2726034D01*
X2766021Y509214D01*
Y519211D01*
X2756024Y529208D01*
X2736031D01*
X2726034Y519211D01*
X2786015D02*
X2796012Y529208D01*
X2816005D01*
X2826002Y519211D01*
Y509214D01*
X2816005Y499217D01*
X2826002Y489221D01*
Y479224D01*
X2816005Y469227D01*
X2796012D01*
X2786015Y479224D01*
Y489221D01*
X2796012Y499217D01*
X2786015Y509214D01*
Y519211D01*
X2796012Y499217D02*
X2816005D01*
X2845995Y459230D02*
X2885983D01*
X2905976Y529208D02*
Y479224D01*
X2915973Y469227D01*
X2935966D01*
X2945963Y479224D01*
Y529208D01*
X2965957Y459230D02*
X3005944D01*
X3065924Y529208D02*
Y469227D01*
X3035934D01*
X3025937Y479224D01*
Y499217D01*
X3035934Y509214D01*
X3065924D01*
X3085918Y469227D02*
X3105911D01*
X3095915D01*
Y509214D01*
X3085918D01*
X3155895Y449233D02*
X3165892D01*
X3175889Y459230D01*
Y509214D01*
X3145898D01*
X3135902Y499217D01*
Y479224D01*
X3145898Y469227D01*
X3175889D01*
X3195882D02*
X3215876D01*
X3205879D01*
Y509214D01*
X3195882D01*
X3255863Y519211D02*
Y509214D01*
X3245866D01*
X3265860D01*
X3255863D01*
Y479224D01*
X3265860Y469227D01*
X3305847Y509214D02*
X3325840D01*
X3335837Y499217D01*
Y469227D01*
X3305847D01*
X3295850Y479224D01*
X3305847Y489221D01*
X3335837D01*
X3355830Y469227D02*
X3375824D01*
X3365827D01*
Y529208D01*
X3355830D01*
X3405814Y459230D02*
X3445801D01*
X3465795Y469227D02*
X3485788D01*
X3475792D01*
Y509214D01*
X3465795D01*
X3515779Y469227D02*
Y509214D01*
X3545769D01*
X3555766Y499217D01*
Y469227D01*
X3615746Y529208D02*
Y469227D01*
X3585756D01*
X3575759Y479224D01*
Y499217D01*
X3585756Y509214D01*
X3615746D01*
X3635740Y469227D02*
X3655733D01*
X3645737D01*
Y509214D01*
X3635740D01*
X3725711D02*
X3695720D01*
X3685724Y499217D01*
Y479224D01*
X3695720Y469227D01*
X3725711D01*
X3755701Y509214D02*
X3775695D01*
X3785691Y499217D01*
Y469227D01*
X3755701D01*
X3745704Y479224D01*
X3755701Y489221D01*
X3785691D01*
X3815682Y519211D02*
Y509214D01*
X3805685D01*
X3825678D01*
X3815682D01*
Y479224D01*
X3825678Y469227D01*
X3865665D02*
X3885659D01*
X3895656Y479224D01*
Y499217D01*
X3885659Y509214D01*
X3865665D01*
X3855669Y499217D01*
Y479224D01*
X3865665Y469227D01*
X3915649Y509214D02*
Y469227D01*
Y489221D01*
X3925646Y499217D01*
X3935643Y509214D01*
X3945640D01*
X3975630Y519211D02*
X3985627Y529208D01*
X4005620D01*
X4015617Y519211D01*
Y509214D01*
X4005620Y499217D01*
X3995623D01*
X4005620D01*
X4015617Y489221D01*
Y479224D01*
X4005620Y469227D01*
X3985627D01*
X3975630Y479224D01*
X3695754Y649752D02*
Y709733D01*
X3725744D01*
X3735741Y699736D01*
Y679742D01*
X3725744Y669746D01*
X3695754D01*
X3715748D02*
X3735741Y649752D01*
X3795722D02*
X3755735D01*
X3795722Y689739D01*
Y699736D01*
X3785725Y709733D01*
X3765731D01*
X3755735Y699736D01*
X3815715D02*
X3825712Y709733D01*
X3845706D01*
X3855702Y699736D01*
Y689739D01*
X3845706Y679742D01*
X3855702Y669746D01*
Y659749D01*
X3845706Y649752D01*
X3825712D01*
X3815715Y659749D01*
Y669746D01*
X3825712Y679742D01*
X3815715Y689739D01*
Y699736D01*
X3825712Y679742D02*
X3845706D01*
X3875696Y639755D02*
X3915683D01*
X3935677Y709733D02*
Y659749D01*
X3945673Y649752D01*
X3965667D01*
X3975664Y659749D01*
Y709733D01*
X3995657Y639755D02*
X4035644D01*
X4095625Y709733D02*
Y649752D01*
X4065635D01*
X4055638Y659749D01*
Y679742D01*
X4065635Y689739D01*
X4095625D01*
X4115618Y649752D02*
X4135612D01*
X4125615D01*
Y689739D01*
X4115618D01*
X4185596Y629759D02*
X4195592D01*
X4205589Y639755D01*
Y689739D01*
X4175599D01*
X4165602Y679742D01*
Y659749D01*
X4175599Y649752D01*
X4205589D01*
X4225583D02*
X4245576D01*
X4235579D01*
Y689739D01*
X4225583D01*
X4285563Y699736D02*
Y689739D01*
X4275566D01*
X4295560D01*
X4285563D01*
Y659749D01*
X4295560Y649752D01*
X4335547Y689739D02*
X4355541D01*
X4365537Y679742D01*
Y649752D01*
X4335547D01*
X4325550Y659749D01*
X4335547Y669746D01*
X4365537D01*
X4385531Y649752D02*
X4405524D01*
X4395528D01*
Y709733D01*
X4385531D01*
X4435515Y639755D02*
X4475502D01*
X4495495Y649752D02*
X4515489D01*
X4505492D01*
Y689739D01*
X4495495D01*
X4545479Y649752D02*
Y689739D01*
X4575469D01*
X4585466Y679742D01*
Y649752D01*
X4645447Y709733D02*
Y649752D01*
X4615457D01*
X4605460Y659749D01*
Y679742D01*
X4615457Y689739D01*
X4645447D01*
X4665440Y649752D02*
X4685434D01*
X4675437D01*
Y689739D01*
X4665440D01*
X4755411D02*
X4725421D01*
X4715424Y679742D01*
Y659749D01*
X4725421Y649752D01*
X4755411D01*
X4785401Y689739D02*
X4805395D01*
X4815392Y679742D01*
Y649752D01*
X4785401D01*
X4775405Y659749D01*
X4785401Y669746D01*
X4815392D01*
X4845382Y699736D02*
Y689739D01*
X4835385D01*
X4855379D01*
X4845382D01*
Y659749D01*
X4855379Y649752D01*
X4895366D02*
X4915359D01*
X4925356Y659749D01*
Y679742D01*
X4915359Y689739D01*
X4895366D01*
X4885369Y679742D01*
Y659749D01*
X4895366Y649752D01*
X4945350Y689739D02*
Y649752D01*
Y669746D01*
X4955346Y679742D01*
X4965343Y689739D01*
X4975340D01*
X5045317Y649752D02*
X5005330D01*
X5045317Y689739D01*
Y699736D01*
X5035321Y709733D01*
X5015327D01*
X5005330Y699736D01*
X4684869Y429994D02*
Y489975D01*
X4714860D01*
X4724856Y479978D01*
Y459985D01*
X4714860Y449988D01*
X4684869D01*
X4704863D02*
X4724856Y429994D01*
X4784837D02*
X4744850D01*
X4784837Y469981D01*
Y479978D01*
X4774840Y489975D01*
X4754847D01*
X4744850Y479978D01*
X4804831D02*
X4814827Y489975D01*
X4834821D01*
X4844818Y479978D01*
Y469981D01*
X4834821Y459985D01*
X4844818Y449988D01*
Y439991D01*
X4834821Y429994D01*
X4814827D01*
X4804831Y439991D01*
Y449988D01*
X4814827Y459985D01*
X4804831Y469981D01*
Y479978D01*
X4814827Y459985D02*
X4834821D01*
X4864811Y419997D02*
X4904798D01*
X4924792Y489975D02*
Y439991D01*
X4934789Y429994D01*
X4954782D01*
X4964779Y439991D01*
Y489975D01*
X4984772Y419997D02*
X5024760D01*
X5084740Y489975D02*
Y429994D01*
X5054750D01*
X5044753Y439991D01*
Y459985D01*
X5054750Y469981D01*
X5084740D01*
X5104734Y429994D02*
X5124727D01*
X5114730D01*
Y469981D01*
X5104734D01*
X5174711Y410001D02*
X5184708D01*
X5194704Y419997D01*
Y469981D01*
X5164714D01*
X5154717Y459985D01*
Y439991D01*
X5164714Y429994D01*
X5194704D01*
X5214698D02*
X5234691D01*
X5224695D01*
Y469981D01*
X5214698D01*
X5274679Y479978D02*
Y469981D01*
X5264682D01*
X5284675D01*
X5274679D01*
Y439991D01*
X5284675Y429994D01*
X5324662Y469981D02*
X5344656D01*
X5354653Y459985D01*
Y429994D01*
X5324662D01*
X5314666Y439991D01*
X5324662Y449988D01*
X5354653D01*
X5374646Y429994D02*
X5394640D01*
X5384643D01*
Y489975D01*
X5374646D01*
X5424630Y419997D02*
X5464617D01*
X5484611Y429994D02*
X5504604D01*
X5494607D01*
Y469981D01*
X5484611D01*
X5534594Y429994D02*
Y469981D01*
X5564585D01*
X5574582Y459985D01*
Y429994D01*
X5634562Y489975D02*
Y429994D01*
X5604572D01*
X5594575Y439991D01*
Y459985D01*
X5604572Y469981D01*
X5634562D01*
X5654556Y429994D02*
X5674549D01*
X5664552D01*
Y469981D01*
X5654556D01*
X5744526D02*
X5714536D01*
X5704539Y459985D01*
Y439991D01*
X5714536Y429994D01*
X5744526D01*
X5774517Y469981D02*
X5794510D01*
X5804507Y459985D01*
Y429994D01*
X5774517D01*
X5764520Y439991D01*
X5774517Y449988D01*
X5804507D01*
X5834497Y479978D02*
Y469981D01*
X5824501D01*
X5844494D01*
X5834497D01*
Y439991D01*
X5844494Y429994D01*
X5884481D02*
X5904475D01*
X5914471Y439991D01*
Y459985D01*
X5904475Y469981D01*
X5884481D01*
X5874484Y459985D01*
Y439991D01*
X5884481Y429994D01*
X5934465Y469981D02*
Y429994D01*
Y449988D01*
X5944462Y459985D01*
X5954458Y469981D01*
X5964455D01*
X5994446Y429994D02*
X6014439D01*
X6004442D01*
Y489975D01*
X5994446Y479978D01*
X1615616Y633145D02*
Y693126D01*
X1645607D01*
X1655603Y683129D01*
Y663136D01*
X1645607Y653139D01*
X1615616D01*
X1635610D02*
X1655603Y633145D01*
X1715584D02*
X1675597D01*
X1715584Y673132D01*
Y683129D01*
X1705587Y693126D01*
X1685594D01*
X1675597Y683129D01*
X1735577Y693126D02*
X1775564D01*
Y683129D01*
X1735577Y643142D01*
Y633145D01*
X1795558Y623149D02*
X1835545D01*
X1855539Y693126D02*
Y643142D01*
X1865535Y633145D01*
X1885529D01*
X1895526Y643142D01*
Y693126D01*
X1915519Y623149D02*
X1955506D01*
X2015487Y693126D02*
Y633145D01*
X1985497D01*
X1975500Y643142D01*
Y663136D01*
X1985497Y673132D01*
X2015487D01*
X2035480Y633145D02*
X2055474D01*
X2045477D01*
Y673132D01*
X2035480D01*
X2105458Y613152D02*
X2115454D01*
X2125451Y623149D01*
Y673132D01*
X2095461D01*
X2085464Y663136D01*
Y643142D01*
X2095461Y633145D01*
X2125451D01*
X2145445D02*
X2165438D01*
X2155442D01*
Y673132D01*
X2145445D01*
X2205425Y683129D02*
Y673132D01*
X2195429D01*
X2215422D01*
X2205425D01*
Y643142D01*
X2215422Y633145D01*
X2255409Y673132D02*
X2275403D01*
X2285399Y663136D01*
Y633145D01*
X2255409D01*
X2245412Y643142D01*
X2255409Y653139D01*
X2285399D01*
X2305393Y633145D02*
X2325387D01*
X2315390D01*
Y693126D01*
X2305393D01*
X2355377Y623149D02*
X2395364D01*
X2415357Y633145D02*
X2435351D01*
X2425354D01*
Y673132D01*
X2415357D01*
X2465341Y633145D02*
Y673132D01*
X2495331D01*
X2505328Y663136D01*
Y633145D01*
X2565309Y693126D02*
Y633145D01*
X2535319D01*
X2525322Y643142D01*
Y663136D01*
X2535319Y673132D01*
X2565309D01*
X2585302Y633145D02*
X2605296D01*
X2595299D01*
Y673132D01*
X2585302D01*
X2675273D02*
X2645283D01*
X2635286Y663136D01*
Y643142D01*
X2645283Y633145D01*
X2675273D01*
X2705264Y673132D02*
X2725257D01*
X2735254Y663136D01*
Y633145D01*
X2705264D01*
X2695267Y643142D01*
X2705264Y653139D01*
X2735254D01*
X2765244Y683129D02*
Y673132D01*
X2755247D01*
X2775241D01*
X2765244D01*
Y643142D01*
X2775241Y633145D01*
X2815228D02*
X2835222D01*
X2845218Y643142D01*
Y663136D01*
X2835222Y673132D01*
X2815228D01*
X2805231Y663136D01*
Y643142D01*
X2815228Y633145D01*
X2865212Y673132D02*
Y633145D01*
Y653139D01*
X2875209Y663136D01*
X2885205Y673132D01*
X2895202D01*
X2955183Y633145D02*
Y693126D01*
X2925192Y663136D01*
X2965180D01*
X2670291Y309426D02*
Y369406D01*
X2700281D01*
X2710278Y359410D01*
Y339416D01*
X2700281Y329419D01*
X2670291D01*
X2690284D02*
X2710278Y309426D01*
X2770258D02*
X2730271D01*
X2770258Y349413D01*
Y359410D01*
X2760262Y369406D01*
X2740268D01*
X2730271Y359410D01*
X2790252Y369406D02*
X2830239D01*
Y359410D01*
X2790252Y319423D01*
Y309426D01*
X2850233Y299429D02*
X2890220D01*
X2910213Y369406D02*
Y319423D01*
X2920210Y309426D01*
X2940203D01*
X2950200Y319423D01*
Y369406D01*
X2970194Y299429D02*
X3010181D01*
X3070161Y369406D02*
Y309426D01*
X3040171D01*
X3030174Y319423D01*
Y339416D01*
X3040171Y349413D01*
X3070161D01*
X3090155Y309426D02*
X3110148D01*
X3100152D01*
Y349413D01*
X3090155D01*
X3160132Y289432D02*
X3170129D01*
X3180126Y299429D01*
Y349413D01*
X3150135D01*
X3140139Y339416D01*
Y319423D01*
X3150135Y309426D01*
X3180126D01*
X3200119D02*
X3220113D01*
X3210116D01*
Y349413D01*
X3200119D01*
X3260100Y359410D02*
Y349413D01*
X3250103D01*
X3270097D01*
X3260100D01*
Y319423D01*
X3270097Y309426D01*
X3310084Y349413D02*
X3330077D01*
X3340074Y339416D01*
Y309426D01*
X3310084D01*
X3300087Y319423D01*
X3310084Y329419D01*
X3340074D01*
X3360068Y309426D02*
X3380061D01*
X3370064D01*
Y369406D01*
X3360068D01*
X3410051Y299429D02*
X3450038D01*
X3470032Y309426D02*
X3490025D01*
X3480029D01*
Y349413D01*
X3470032D01*
X3520016Y309426D02*
Y349413D01*
X3550006D01*
X3560003Y339416D01*
Y309426D01*
X3619983Y369406D02*
Y309426D01*
X3589993D01*
X3579996Y319423D01*
Y339416D01*
X3589993Y349413D01*
X3619983D01*
X3639977Y309426D02*
X3659970D01*
X3649974D01*
Y349413D01*
X3639977D01*
X3729948D02*
X3699957D01*
X3689961Y339416D01*
Y319423D01*
X3699957Y309426D01*
X3729948D01*
X3759938Y349413D02*
X3779932D01*
X3789928Y339416D01*
Y309426D01*
X3759938D01*
X3749941Y319423D01*
X3759938Y329419D01*
X3789928D01*
X3819919Y359410D02*
Y349413D01*
X3809922D01*
X3829915D01*
X3819919D01*
Y319423D01*
X3829915Y309426D01*
X3869903D02*
X3889896D01*
X3899893Y319423D01*
Y339416D01*
X3889896Y349413D01*
X3869903D01*
X3859906Y339416D01*
Y319423D01*
X3869903Y309426D01*
X3919886Y349413D02*
Y309426D01*
Y329419D01*
X3929883Y339416D01*
X3939880Y349413D01*
X3949877D01*
X3979867Y359410D02*
X3989864Y369406D01*
X4009857D01*
X4019854Y359410D01*
Y349413D01*
X4009857Y339416D01*
X3999860D01*
X4009857D01*
X4019854Y329419D01*
Y319423D01*
X4009857Y309426D01*
X3989864D01*
X3979867Y319423D01*
X3711207Y394552D02*
Y454533D01*
X3741197D01*
X3751194Y444536D01*
Y424542D01*
X3741197Y414545D01*
X3711207D01*
X3731200D02*
X3751194Y394552D01*
X3811175D02*
X3771187D01*
X3811175Y434539D01*
Y444536D01*
X3801178Y454533D01*
X3781184D01*
X3771187Y444536D01*
X3831168Y454533D02*
X3871155D01*
Y444536D01*
X3831168Y404549D01*
Y394552D01*
X3891149Y384555D02*
X3931136D01*
X3951129Y454533D02*
Y404549D01*
X3961126Y394552D01*
X3981119D01*
X3991116Y404549D01*
Y454533D01*
X4011110Y384555D02*
X4051097D01*
X4111078Y454533D02*
Y394552D01*
X4081087D01*
X4071090Y404549D01*
Y424542D01*
X4081087Y434539D01*
X4111078D01*
X4131071Y394552D02*
X4151065D01*
X4141068D01*
Y434539D01*
X4131071D01*
X4201048Y374558D02*
X4211045D01*
X4221042Y384555D01*
Y434539D01*
X4191052D01*
X4181055Y424542D01*
Y404549D01*
X4191052Y394552D01*
X4221042D01*
X4241035D02*
X4261029D01*
X4251032D01*
Y434539D01*
X4241035D01*
X4301016Y444536D02*
Y434539D01*
X4291019D01*
X4311013D01*
X4301016D01*
Y404549D01*
X4311013Y394552D01*
X4351000Y434539D02*
X4370993D01*
X4380990Y424542D01*
Y394552D01*
X4351000D01*
X4341003Y404549D01*
X4351000Y414545D01*
X4380990D01*
X4400984Y394552D02*
X4420977D01*
X4410980D01*
Y454533D01*
X4400984D01*
X4450967Y384555D02*
X4490954D01*
X4510948Y394552D02*
X4530941D01*
X4520945D01*
Y434539D01*
X4510948D01*
X4560932Y394552D02*
Y434539D01*
X4590922D01*
X4600919Y424542D01*
Y394552D01*
X4660900Y454533D02*
Y394552D01*
X4630909D01*
X4620912Y404549D01*
Y424542D01*
X4630909Y434539D01*
X4660900D01*
X4680893Y394552D02*
X4700886D01*
X4690890D01*
Y434539D01*
X4680893D01*
X4770864D02*
X4740874D01*
X4730877Y424542D01*
Y404549D01*
X4740874Y394552D01*
X4770864D01*
X4800854Y434539D02*
X4820848D01*
X4830845Y424542D01*
Y394552D01*
X4800854D01*
X4790857Y404549D01*
X4800854Y414545D01*
X4830845D01*
X4860835Y444536D02*
Y434539D01*
X4850838D01*
X4870832D01*
X4860835D01*
Y404549D01*
X4870832Y394552D01*
X4910819D02*
X4930812D01*
X4940809Y404549D01*
Y424542D01*
X4930812Y434539D01*
X4910819D01*
X4900822Y424542D01*
Y404549D01*
X4910819Y394552D01*
X4960802Y434539D02*
Y394552D01*
Y414545D01*
X4970799Y424542D01*
X4980796Y434539D01*
X4990793D01*
X5060770Y394552D02*
X5020783D01*
X5060770Y434539D01*
Y444536D01*
X5050773Y454533D01*
X5030780D01*
X5020783Y444536D01*
X4685034Y543514D02*
Y603495D01*
X4715024D01*
X4725021Y593498D01*
Y573504D01*
X4715024Y563508D01*
X4685034D01*
X4705027D02*
X4725021Y543514D01*
X4785002D02*
X4745014D01*
X4785002Y583501D01*
Y593498D01*
X4775005Y603495D01*
X4755011D01*
X4745014Y593498D01*
X4804995Y603495D02*
X4844982D01*
Y593498D01*
X4804995Y553511D01*
Y543514D01*
X4864976Y533517D02*
X4904963D01*
X4924956Y603495D02*
Y553511D01*
X4934953Y543514D01*
X4954947D01*
X4964943Y553511D01*
Y603495D01*
X4984937Y533517D02*
X5024924D01*
X5084904Y603495D02*
Y543514D01*
X5054914D01*
X5044917Y553511D01*
Y573504D01*
X5054914Y583501D01*
X5084904D01*
X5104898Y543514D02*
X5124891D01*
X5114895D01*
Y583501D01*
X5104898D01*
X5174875Y523521D02*
X5184872D01*
X5194869Y533517D01*
Y583501D01*
X5164879D01*
X5154882Y573504D01*
Y553511D01*
X5164879Y543514D01*
X5194869D01*
X5214862D02*
X5234856D01*
X5224859D01*
Y583501D01*
X5214862D01*
X5274843Y593498D02*
Y583501D01*
X5264846D01*
X5284840D01*
X5274843D01*
Y553511D01*
X5284840Y543514D01*
X5324827Y583501D02*
X5344820D01*
X5354817Y573504D01*
Y543514D01*
X5324827D01*
X5314830Y553511D01*
X5324827Y563508D01*
X5354817D01*
X5374811Y543514D02*
X5394804D01*
X5384807D01*
Y603495D01*
X5374811D01*
X5424794Y533517D02*
X5464782D01*
X5484775Y543514D02*
X5504769D01*
X5494772D01*
Y583501D01*
X5484775D01*
X5534759Y543514D02*
Y583501D01*
X5564749D01*
X5574746Y573504D01*
Y543514D01*
X5634726Y603495D02*
Y543514D01*
X5604736D01*
X5594739Y553511D01*
Y573504D01*
X5604736Y583501D01*
X5634726D01*
X5654720Y543514D02*
X5674713D01*
X5664717D01*
Y583501D01*
X5654720D01*
X5744691D02*
X5714701D01*
X5704704Y573504D01*
Y553511D01*
X5714701Y543514D01*
X5744691D01*
X5774681Y583501D02*
X5794675D01*
X5804672Y573504D01*
Y543514D01*
X5774681D01*
X5764684Y553511D01*
X5774681Y563508D01*
X5804672D01*
X5834662Y593498D02*
Y583501D01*
X5824665D01*
X5844658D01*
X5834662D01*
Y553511D01*
X5844658Y543514D01*
X5884646D02*
X5904639D01*
X5914636Y553511D01*
Y573504D01*
X5904639Y583501D01*
X5884646D01*
X5874649Y573504D01*
Y553511D01*
X5884646Y543514D01*
X5934629Y583501D02*
Y543514D01*
Y563508D01*
X5944626Y573504D01*
X5954623Y583501D01*
X5964620D01*
X5994610Y543514D02*
X6014604D01*
X6004607D01*
Y603495D01*
X5994610Y593498D01*
X1615728Y755492D02*
Y815473D01*
X1645718D01*
X1655715Y805476D01*
Y785482D01*
X1645718Y775486D01*
X1615728D01*
X1635722D02*
X1655715Y755492D01*
X1715696D02*
X1675709D01*
X1715696Y795479D01*
Y805476D01*
X1705699Y815473D01*
X1685705D01*
X1675709Y805476D01*
X1775676Y815473D02*
X1755683Y805476D01*
X1735689Y785482D01*
Y765489D01*
X1745686Y755492D01*
X1765679D01*
X1775676Y765489D01*
Y775486D01*
X1765679Y785482D01*
X1735689D01*
X1795670Y745495D02*
X1835657D01*
X1855650Y815473D02*
Y765489D01*
X1865647Y755492D01*
X1885641D01*
X1895638Y765489D01*
Y815473D01*
X1915631Y745495D02*
X1955618D01*
X2015599Y815473D02*
Y755492D01*
X1985608D01*
X1975612Y765489D01*
Y785482D01*
X1985608Y795479D01*
X2015599D01*
X2035592Y755492D02*
X2055586D01*
X2045589D01*
Y795479D01*
X2035592D01*
X2105570Y735499D02*
X2115566D01*
X2125563Y745495D01*
Y795479D01*
X2095573D01*
X2085576Y785482D01*
Y765489D01*
X2095573Y755492D01*
X2125563D01*
X2145557D02*
X2165550D01*
X2155553D01*
Y795479D01*
X2145557D01*
X2205537Y805476D02*
Y795479D01*
X2195540D01*
X2215534D01*
X2205537D01*
Y765489D01*
X2215534Y755492D01*
X2255521Y795479D02*
X2275515D01*
X2285511Y785482D01*
Y755492D01*
X2255521D01*
X2245524Y765489D01*
X2255521Y775486D01*
X2285511D01*
X2305505Y755492D02*
X2325498D01*
X2315502D01*
Y815473D01*
X2305505D01*
X2355489Y745495D02*
X2395476D01*
X2415469Y755492D02*
X2435463D01*
X2425466D01*
Y795479D01*
X2415469D01*
X2465453Y755492D02*
Y795479D01*
X2495443D01*
X2505440Y785482D01*
Y755492D01*
X2565421Y815473D02*
Y755492D01*
X2535430D01*
X2525434Y765489D01*
Y785482D01*
X2535430Y795479D01*
X2565421D01*
X2585414Y755492D02*
X2605408D01*
X2595411D01*
Y795479D01*
X2585414D01*
X2675385D02*
X2645395D01*
X2635398Y785482D01*
Y765489D01*
X2645395Y755492D01*
X2675385D01*
X2705375Y795479D02*
X2725369D01*
X2735366Y785482D01*
Y755492D01*
X2705375D01*
X2695379Y765489D01*
X2705375Y775486D01*
X2735366D01*
X2765356Y805476D02*
Y795479D01*
X2755359D01*
X2775353D01*
X2765356D01*
Y765489D01*
X2775353Y755492D01*
X2815340D02*
X2835333D01*
X2845330Y765489D01*
Y785482D01*
X2835333Y795479D01*
X2815340D01*
X2805343Y785482D01*
Y765489D01*
X2815340Y755492D01*
X2865324Y795479D02*
Y755492D01*
Y775486D01*
X2875320Y785482D01*
X2885317Y795479D01*
X2895314D01*
X2955294Y755492D02*
Y815473D01*
X2925304Y785482D01*
X2965291D01*
X2675210Y154733D02*
Y214713D01*
X2705201D01*
X2715198Y204716D01*
Y184723D01*
X2705201Y174726D01*
X2675210D01*
X2695204D02*
X2715198Y154733D01*
X2775178D02*
X2735191D01*
X2775178Y194720D01*
Y204716D01*
X2765181Y214713D01*
X2745188D01*
X2735191Y204716D01*
X2835159Y214713D02*
X2815165Y204716D01*
X2795172Y184723D01*
Y164730D01*
X2805168Y154733D01*
X2825162D01*
X2835159Y164730D01*
Y174726D01*
X2825162Y184723D01*
X2795172D01*
X2855152Y144736D02*
X2895139D01*
X2915133Y214713D02*
Y164730D01*
X2925130Y154733D01*
X2945123D01*
X2955120Y164730D01*
Y214713D01*
X2975113Y144736D02*
X3015101D01*
X3075081Y214713D02*
Y154733D01*
X3045091D01*
X3035094Y164730D01*
Y184723D01*
X3045091Y194720D01*
X3075081D01*
X3095075Y154733D02*
X3115068D01*
X3105071D01*
Y194720D01*
X3095075D01*
X3165052Y134739D02*
X3175049D01*
X3185046Y144736D01*
Y194720D01*
X3155055D01*
X3145058Y184723D01*
Y164730D01*
X3155055Y154733D01*
X3185046D01*
X3205039D02*
X3225032D01*
X3215036D01*
Y194720D01*
X3205039D01*
X3265020Y204716D02*
Y194720D01*
X3255023D01*
X3275016D01*
X3265020D01*
Y164730D01*
X3275016Y154733D01*
X3315003Y194720D02*
X3334997D01*
X3344994Y184723D01*
Y154733D01*
X3315003D01*
X3305007Y164730D01*
X3315003Y174726D01*
X3344994D01*
X3364987Y154733D02*
X3384981D01*
X3374984D01*
Y214713D01*
X3364987D01*
X3414971Y144736D02*
X3454958D01*
X3474952Y154733D02*
X3494945D01*
X3484948D01*
Y194720D01*
X3474952D01*
X3524935Y154733D02*
Y194720D01*
X3554926D01*
X3564923Y184723D01*
Y154733D01*
X3624903Y214713D02*
Y154733D01*
X3594913D01*
X3584916Y164730D01*
Y184723D01*
X3594913Y194720D01*
X3624903D01*
X3644897Y154733D02*
X3664890D01*
X3654893D01*
Y194720D01*
X3644897D01*
X3734867D02*
X3704877D01*
X3694880Y184723D01*
Y164730D01*
X3704877Y154733D01*
X3734867D01*
X3764858Y194720D02*
X3784851D01*
X3794848Y184723D01*
Y154733D01*
X3764858D01*
X3754861Y164730D01*
X3764858Y174726D01*
X3794848D01*
X3824838Y204716D02*
Y194720D01*
X3814842D01*
X3834835D01*
X3824838D01*
Y164730D01*
X3834835Y154733D01*
X3874822D02*
X3894816D01*
X3904812Y164730D01*
Y184723D01*
X3894816Y194720D01*
X3874822D01*
X3864825Y184723D01*
Y164730D01*
X3874822Y154733D01*
X3924806Y194720D02*
Y154733D01*
Y174726D01*
X3934803Y184723D01*
X3944800Y194720D01*
X3954796D01*
X3984787Y204716D02*
X3994783Y214713D01*
X4014777D01*
X4024774Y204716D01*
Y194720D01*
X4014777Y184723D01*
X4004780D01*
X4014777D01*
X4024774Y174726D01*
Y164730D01*
X4014777Y154733D01*
X3994783D01*
X3984787Y164730D01*
X3685736Y884585D02*
Y944565D01*
X3715726D01*
X3725723Y934569D01*
Y914575D01*
X3715726Y904578D01*
X3685736D01*
X3705729D02*
X3725723Y884585D01*
X3785703D02*
X3745716D01*
X3785703Y924572D01*
Y934569D01*
X3775706Y944565D01*
X3755713D01*
X3745716Y934569D01*
X3845684Y944565D02*
X3825690Y934569D01*
X3805697Y914575D01*
Y894582D01*
X3815694Y884585D01*
X3835687D01*
X3845684Y894582D01*
Y904578D01*
X3835687Y914575D01*
X3805697D01*
X3865677Y874588D02*
X3905664D01*
X3925658Y944565D02*
Y894582D01*
X3935655Y884585D01*
X3955648D01*
X3965645Y894582D01*
Y944565D01*
X3985639Y874588D02*
X4025626D01*
X4085606Y944565D02*
Y884585D01*
X4055616D01*
X4045619Y894582D01*
Y914575D01*
X4055616Y924572D01*
X4085606D01*
X4105600Y884585D02*
X4125593D01*
X4115597D01*
Y924572D01*
X4105600D01*
X4175577Y864591D02*
X4185574D01*
X4195571Y874588D01*
Y924572D01*
X4165580D01*
X4155584Y914575D01*
Y894582D01*
X4165580Y884585D01*
X4195571D01*
X4215564D02*
X4235558D01*
X4225561D01*
Y924572D01*
X4215564D01*
X4275545Y934569D02*
Y924572D01*
X4265548D01*
X4285542D01*
X4275545D01*
Y894582D01*
X4285542Y884585D01*
X4325529Y924572D02*
X4345522D01*
X4355519Y914575D01*
Y884585D01*
X4325529D01*
X4315532Y894582D01*
X4325529Y904578D01*
X4355519D01*
X4375512Y884585D02*
X4395506D01*
X4385509D01*
Y944565D01*
X4375512D01*
X4425496Y874588D02*
X4465483D01*
X4485477Y884585D02*
X4505470D01*
X4495474D01*
Y924572D01*
X4485477D01*
X4535461Y884585D02*
Y924572D01*
X4565451D01*
X4575448Y914575D01*
Y884585D01*
X4635428Y944565D02*
Y884585D01*
X4605438D01*
X4595441Y894582D01*
Y914575D01*
X4605438Y924572D01*
X4635428D01*
X4655422Y884585D02*
X4675415D01*
X4665419D01*
Y924572D01*
X4655422D01*
X4745393D02*
X4715402D01*
X4705406Y914575D01*
Y894582D01*
X4715402Y884585D01*
X4745393D01*
X4775383Y924572D02*
X4795377D01*
X4805373Y914575D01*
Y884585D01*
X4775383D01*
X4765386Y894582D01*
X4775383Y904578D01*
X4805373D01*
X4835364Y934569D02*
Y924572D01*
X4825367D01*
X4845360D01*
X4835364D01*
Y894582D01*
X4845360Y884585D01*
X4885347D02*
X4905341D01*
X4915338Y894582D01*
Y914575D01*
X4905341Y924572D01*
X4885347D01*
X4875351Y914575D01*
Y894582D01*
X4885347Y884585D01*
X4935331Y924572D02*
Y884585D01*
Y904578D01*
X4945328Y914575D01*
X4955325Y924572D01*
X4965322D01*
X5035299Y884585D02*
X4995312D01*
X5035299Y924572D01*
Y934569D01*
X5025302Y944565D01*
X5005309D01*
X4995312Y934569D01*
X4684998Y657417D02*
Y717397D01*
X4714988D01*
X4724985Y707401D01*
Y687407D01*
X4714988Y677410D01*
X4684998D01*
X4704991D02*
X4724985Y657417D01*
X4784966D02*
X4744979D01*
X4784966Y697404D01*
Y707401D01*
X4774969Y717397D01*
X4754975D01*
X4744979Y707401D01*
X4844946Y717397D02*
X4824953Y707401D01*
X4804959Y687407D01*
Y667414D01*
X4814956Y657417D01*
X4834949D01*
X4844946Y667414D01*
Y677410D01*
X4834949Y687407D01*
X4804959D01*
X4864940Y647420D02*
X4904927D01*
X4924920Y717397D02*
Y667414D01*
X4934917Y657417D01*
X4954911D01*
X4964907Y667414D01*
Y717397D01*
X4984901Y647420D02*
X5024888D01*
X5084869Y717397D02*
Y657417D01*
X5054878D01*
X5044882Y667414D01*
Y687407D01*
X5054878Y697404D01*
X5084869D01*
X5104862Y657417D02*
X5124856D01*
X5114859D01*
Y697404D01*
X5104862D01*
X5174839Y637423D02*
X5184836D01*
X5194833Y647420D01*
Y697404D01*
X5164843D01*
X5154846Y687407D01*
Y667414D01*
X5164843Y657417D01*
X5194833D01*
X5214827D02*
X5234820D01*
X5224823D01*
Y697404D01*
X5214827D01*
X5274807Y707401D02*
Y697404D01*
X5264810D01*
X5284804D01*
X5274807D01*
Y667414D01*
X5284804Y657417D01*
X5324791Y697404D02*
X5344784D01*
X5354781Y687407D01*
Y657417D01*
X5324791D01*
X5314794Y667414D01*
X5324791Y677410D01*
X5354781D01*
X5374775Y657417D02*
X5394768D01*
X5384771D01*
Y717397D01*
X5374775D01*
X5424758Y647420D02*
X5464746D01*
X5484739Y657417D02*
X5504733D01*
X5494736D01*
Y697404D01*
X5484739D01*
X5534723Y657417D02*
Y697404D01*
X5564713D01*
X5574710Y687407D01*
Y657417D01*
X5634691Y717397D02*
Y657417D01*
X5604700D01*
X5594703Y667414D01*
Y687407D01*
X5604700Y697404D01*
X5634691D01*
X5654684Y657417D02*
X5674678D01*
X5664681D01*
Y697404D01*
X5654684D01*
X5744655D02*
X5714665D01*
X5704668Y687407D01*
Y667414D01*
X5714665Y657417D01*
X5744655D01*
X5774645Y697404D02*
X5794639D01*
X5804636Y687407D01*
Y657417D01*
X5774645D01*
X5764649Y667414D01*
X5774645Y677410D01*
X5804636D01*
X5834626Y707401D02*
Y697404D01*
X5824629D01*
X5844623D01*
X5834626D01*
Y667414D01*
X5844623Y657417D01*
X5884610D02*
X5904603D01*
X5914600Y667414D01*
Y687407D01*
X5904603Y697404D01*
X5884610D01*
X5874613Y687407D01*
Y667414D01*
X5884610Y657417D01*
X5934593Y697404D02*
Y657417D01*
Y677410D01*
X5944590Y687407D01*
X5954587Y697404D01*
X5964584D01*
X5994574Y657417D02*
X6014568D01*
X6004571D01*
Y717397D01*
X5994574Y707401D01*
X1616035Y877706D02*
Y937687D01*
X1646025D01*
X1656022Y927690D01*
Y907697D01*
X1646025Y897700D01*
X1616035D01*
X1636028D02*
X1656022Y877706D01*
X1716003D02*
X1676015D01*
X1716003Y917693D01*
Y927690D01*
X1706006Y937687D01*
X1686012D01*
X1676015Y927690D01*
X1775983Y937687D02*
X1735996D01*
Y907697D01*
X1755989Y917693D01*
X1765986D01*
X1775983Y907697D01*
Y887703D01*
X1765986Y877706D01*
X1745993D01*
X1735996Y887703D01*
X1795977Y867710D02*
X1835964D01*
X1855957Y937687D02*
Y887703D01*
X1865954Y877706D01*
X1885947D01*
X1895944Y887703D01*
Y937687D01*
X1915938Y867710D02*
X1955925D01*
X2015906Y937687D02*
Y877706D01*
X1985915D01*
X1975918Y887703D01*
Y907697D01*
X1985915Y917693D01*
X2015906D01*
X2035899Y877706D02*
X2055892D01*
X2045896D01*
Y917693D01*
X2035899D01*
X2105876Y857713D02*
X2115873D01*
X2125870Y867710D01*
Y917693D01*
X2095880D01*
X2085883Y907697D01*
Y887703D01*
X2095880Y877706D01*
X2125870D01*
X2145863D02*
X2165857D01*
X2155860D01*
Y917693D01*
X2145863D01*
X2205844Y927690D02*
Y917693D01*
X2195847D01*
X2215841D01*
X2205844D01*
Y887703D01*
X2215841Y877706D01*
X2255828Y917693D02*
X2275821D01*
X2285818Y907697D01*
Y877706D01*
X2255828D01*
X2245831Y887703D01*
X2255828Y897700D01*
X2285818D01*
X2305812Y877706D02*
X2325805D01*
X2315808D01*
Y937687D01*
X2305812D01*
X2355795Y867710D02*
X2395782D01*
X2415776Y877706D02*
X2435769D01*
X2425773D01*
Y917693D01*
X2415776D01*
X2465760Y877706D02*
Y917693D01*
X2495750D01*
X2505747Y907697D01*
Y877706D01*
X2565727Y937687D02*
Y877706D01*
X2535737D01*
X2525740Y887703D01*
Y907697D01*
X2535737Y917693D01*
X2565727D01*
X2585721Y877706D02*
X2605715D01*
X2595718D01*
Y917693D01*
X2585721D01*
X2675692D02*
X2645702D01*
X2635705Y907697D01*
Y887703D01*
X2645702Y877706D01*
X2675692D01*
X2705682Y917693D02*
X2725676D01*
X2735673Y907697D01*
Y877706D01*
X2705682D01*
X2695685Y887703D01*
X2705682Y897700D01*
X2735673D01*
X2765663Y927690D02*
Y917693D01*
X2755666D01*
X2775660D01*
X2765663D01*
Y887703D01*
X2775660Y877706D01*
X2815647D02*
X2835640D01*
X2845637Y887703D01*
Y907697D01*
X2835640Y917693D01*
X2815647D01*
X2805650Y907697D01*
Y887703D01*
X2815647Y877706D01*
X2865630Y917693D02*
Y877706D01*
Y897700D01*
X2875627Y907697D01*
X2885624Y917693D01*
X2895621D01*
X2955601Y877706D02*
Y937687D01*
X2925611Y907697D01*
X2965598D01*
X2680337Y1180061D02*
Y1240042D01*
X2710327D01*
X2720324Y1230045D01*
Y1210051D01*
X2710327Y1200054D01*
X2680337D01*
X2700331D02*
X2720324Y1180061D01*
X2780305D02*
X2740318D01*
X2780305Y1220048D01*
Y1230045D01*
X2770308Y1240042D01*
X2750314D01*
X2740318Y1230045D01*
X2840285Y1240042D02*
X2800298D01*
Y1210051D01*
X2820292Y1220048D01*
X2830289D01*
X2840285Y1210051D01*
Y1190058D01*
X2830289Y1180061D01*
X2810295D01*
X2800298Y1190058D01*
X2860279Y1170064D02*
X2900266D01*
X2920260Y1240042D02*
Y1190058D01*
X2930256Y1180061D01*
X2950250D01*
X2960247Y1190058D01*
Y1240042D01*
X2980240Y1170064D02*
X3020227D01*
X3080208Y1240042D02*
Y1180061D01*
X3050218D01*
X3040221Y1190058D01*
Y1210051D01*
X3050218Y1220048D01*
X3080208D01*
X3100201Y1180061D02*
X3120195D01*
X3110198D01*
Y1220048D01*
X3100201D01*
X3170179Y1160068D02*
X3180175D01*
X3190172Y1170064D01*
Y1220048D01*
X3160182D01*
X3150185Y1210051D01*
Y1190058D01*
X3160182Y1180061D01*
X3190172D01*
X3210166D02*
X3230159D01*
X3220162D01*
Y1220048D01*
X3210166D01*
X3270146Y1230045D02*
Y1220048D01*
X3260149D01*
X3280143D01*
X3270146D01*
Y1190058D01*
X3280143Y1180061D01*
X3320130Y1220048D02*
X3340124D01*
X3350120Y1210051D01*
Y1180061D01*
X3320130D01*
X3310133Y1190058D01*
X3320130Y1200054D01*
X3350120D01*
X3370114Y1180061D02*
X3390107D01*
X3380111D01*
Y1240042D01*
X3370114D01*
X3420098Y1170064D02*
X3460085D01*
X3480078Y1180061D02*
X3500072D01*
X3490075D01*
Y1220048D01*
X3480078D01*
X3530062Y1180061D02*
Y1220048D01*
X3560052D01*
X3570049Y1210051D01*
Y1180061D01*
X3630030Y1240042D02*
Y1180061D01*
X3600039D01*
X3590043Y1190058D01*
Y1210051D01*
X3600039Y1220048D01*
X3630030D01*
X3650023Y1180061D02*
X3670017D01*
X3660020D01*
Y1220048D01*
X3650023D01*
X3739994D02*
X3710004D01*
X3700007Y1210051D01*
Y1190058D01*
X3710004Y1180061D01*
X3739994D01*
X3769985Y1220048D02*
X3789978D01*
X3799975Y1210051D01*
Y1180061D01*
X3769985D01*
X3759988Y1190058D01*
X3769985Y1200054D01*
X3799975D01*
X3829965Y1230045D02*
Y1220048D01*
X3819968D01*
X3839962D01*
X3829965D01*
Y1190058D01*
X3839962Y1180061D01*
X3879949D02*
X3899942D01*
X3909939Y1190058D01*
Y1210051D01*
X3899942Y1220048D01*
X3879949D01*
X3869952Y1210051D01*
Y1190058D01*
X3879949Y1180061D01*
X3929933Y1220048D02*
Y1180061D01*
Y1200054D01*
X3939930Y1210051D01*
X3949926Y1220048D01*
X3959923D01*
X3989913Y1230045D02*
X3999910Y1240042D01*
X4019904D01*
X4029900Y1230045D01*
Y1220048D01*
X4019904Y1210051D01*
X4009907D01*
X4019904D01*
X4029900Y1200054D01*
Y1190058D01*
X4019904Y1180061D01*
X3999910D01*
X3989913Y1190058D01*
X3705405Y764668D02*
Y824649D01*
X3735396D01*
X3745392Y814652D01*
Y794659D01*
X3735396Y784662D01*
X3705405D01*
X3725399D02*
X3745392Y764668D01*
X3805373D02*
X3765386D01*
X3805373Y804655D01*
Y814652D01*
X3795376Y824649D01*
X3775383D01*
X3765386Y814652D01*
X3865354Y824649D02*
X3825366D01*
Y794659D01*
X3845360Y804655D01*
X3855357D01*
X3865354Y794659D01*
Y774665D01*
X3855357Y764668D01*
X3835363D01*
X3825366Y774665D01*
X3885347Y754672D02*
X3925334D01*
X3945328Y824649D02*
Y774665D01*
X3955324Y764668D01*
X3975318D01*
X3985315Y774665D01*
Y824649D01*
X4005308Y754672D02*
X4045295D01*
X4105276Y824649D02*
Y764668D01*
X4075286D01*
X4065289Y774665D01*
Y794659D01*
X4075286Y804655D01*
X4105276D01*
X4125269Y764668D02*
X4145263D01*
X4135266D01*
Y804655D01*
X4125269D01*
X4195247Y744675D02*
X4205243D01*
X4215240Y754672D01*
Y804655D01*
X4185250D01*
X4175253Y794659D01*
Y774665D01*
X4185250Y764668D01*
X4215240D01*
X4235234D02*
X4255227D01*
X4245231D01*
Y804655D01*
X4235234D01*
X4295214Y814652D02*
Y804655D01*
X4285218D01*
X4305211D01*
X4295214D01*
Y774665D01*
X4305211Y764668D01*
X4345198Y804655D02*
X4365192D01*
X4375189Y794659D01*
Y764668D01*
X4345198D01*
X4335201Y774665D01*
X4345198Y784662D01*
X4375189D01*
X4395182Y764668D02*
X4415176D01*
X4405179D01*
Y824649D01*
X4395182D01*
X4445166Y754672D02*
X4485153D01*
X4505146Y764668D02*
X4525140D01*
X4515143D01*
Y804655D01*
X4505146D01*
X4555130Y764668D02*
Y804655D01*
X4585120D01*
X4595117Y794659D01*
Y764668D01*
X4655098Y824649D02*
Y764668D01*
X4625108D01*
X4615111Y774665D01*
Y794659D01*
X4625108Y804655D01*
X4655098D01*
X4675091Y764668D02*
X4695085D01*
X4685088D01*
Y804655D01*
X4675091D01*
X4765062D02*
X4735072D01*
X4725075Y794659D01*
Y774665D01*
X4735072Y764668D01*
X4765062D01*
X4795053Y804655D02*
X4815046D01*
X4825043Y794659D01*
Y764668D01*
X4795053D01*
X4785056Y774665D01*
X4795053Y784662D01*
X4825043D01*
X4855033Y814652D02*
Y804655D01*
X4845036D01*
X4865030D01*
X4855033D01*
Y774665D01*
X4865030Y764668D01*
X4905017D02*
X4925011D01*
X4935007Y774665D01*
Y794659D01*
X4925011Y804655D01*
X4905017D01*
X4895020Y794659D01*
Y774665D01*
X4905017Y764668D01*
X4955001Y804655D02*
Y764668D01*
Y784662D01*
X4964998Y794659D01*
X4974994Y804655D01*
X4984991D01*
X5054968Y764668D02*
X5014981D01*
X5054968Y804655D01*
Y814652D01*
X5044972Y824649D01*
X5024978D01*
X5014981Y814652D01*
X4685131Y885087D02*
Y945068D01*
X4715121D01*
X4725118Y935071D01*
Y915077D01*
X4715121Y905081D01*
X4685131D01*
X4705124D02*
X4725118Y885087D01*
X4785098D02*
X4745111D01*
X4785098Y925074D01*
Y935071D01*
X4775102Y945068D01*
X4755108D01*
X4745111Y935071D01*
X4845079Y945068D02*
X4805092D01*
Y915077D01*
X4825085Y925074D01*
X4835082D01*
X4845079Y915077D01*
Y895084D01*
X4835082Y885087D01*
X4815089D01*
X4805092Y895084D01*
X4865073Y875090D02*
X4905060D01*
X4925053Y945068D02*
Y895084D01*
X4935050Y885087D01*
X4955043D01*
X4965040Y895084D01*
Y945068D01*
X4985034Y875090D02*
X5025021D01*
X5085001Y945068D02*
Y885087D01*
X5055011D01*
X5045014Y895084D01*
Y915077D01*
X5055011Y925074D01*
X5085001D01*
X5104995Y885087D02*
X5124988D01*
X5114992D01*
Y925074D01*
X5104995D01*
X5174972Y865094D02*
X5184969D01*
X5194966Y875090D01*
Y925074D01*
X5164975D01*
X5154979Y915077D01*
Y895084D01*
X5164975Y885087D01*
X5194966D01*
X5214959D02*
X5234953D01*
X5224956D01*
Y925074D01*
X5214959D01*
X5274940Y935071D02*
Y925074D01*
X5264943D01*
X5284937D01*
X5274940D01*
Y895084D01*
X5284937Y885087D01*
X5324924Y925074D02*
X5344917D01*
X5354914Y915077D01*
Y885087D01*
X5324924D01*
X5314927Y895084D01*
X5324924Y905081D01*
X5354914D01*
X5374908Y885087D02*
X5394901D01*
X5384904D01*
Y945068D01*
X5374908D01*
X5424891Y875090D02*
X5464878D01*
X5484872Y885087D02*
X5504865D01*
X5494869D01*
Y925074D01*
X5484872D01*
X5534856Y885087D02*
Y925074D01*
X5564846D01*
X5574843Y915077D01*
Y885087D01*
X5634823Y945068D02*
Y885087D01*
X5604833D01*
X5594836Y895084D01*
Y915077D01*
X5604833Y925074D01*
X5634823D01*
X5654817Y885087D02*
X5674810D01*
X5664814D01*
Y925074D01*
X5654817D01*
X5744788D02*
X5714797D01*
X5704801Y915077D01*
Y895084D01*
X5714797Y885087D01*
X5744788D01*
X5774778Y925074D02*
X5794772D01*
X5804768Y915077D01*
Y885087D01*
X5774778D01*
X5764781Y895084D01*
X5774778Y905081D01*
X5804768D01*
X5834759Y935071D02*
Y925074D01*
X5824762D01*
X5844755D01*
X5834759D01*
Y895084D01*
X5844755Y885087D01*
X5884743D02*
X5904736D01*
X5914733Y895084D01*
Y915077D01*
X5904736Y925074D01*
X5884743D01*
X5874746Y915077D01*
Y895084D01*
X5884743Y885087D01*
X5934726Y925074D02*
Y885087D01*
Y905081D01*
X5944723Y915077D01*
X5954720Y925074D01*
X5964717D01*
X5994707Y885087D02*
X6014700D01*
X6004704D01*
Y945068D01*
X5994707Y935071D01*
X3908924Y2454994D02*
Y2514975D01*
X3938914D01*
X3948911Y2504978D01*
Y2484985D01*
X3938914Y2474988D01*
X3908924D01*
X3928918D02*
X3948911Y2454994D01*
X4008892D02*
X3968905D01*
X4008892Y2494981D01*
Y2504978D01*
X3998895Y2514975D01*
X3978902D01*
X3968905Y2504978D01*
X4058876Y2454994D02*
Y2514975D01*
X4028885Y2484985D01*
X4068872D01*
X4138924Y2454994D02*
Y2514975D01*
X4168914D01*
X4178911Y2504978D01*
Y2484985D01*
X4168914Y2474988D01*
X4138924D01*
X4158918D02*
X4178911Y2454994D01*
X4238892D02*
X4198905D01*
X4238892Y2494981D01*
Y2504978D01*
X4228895Y2514975D01*
X4208902D01*
X4198905Y2504978D01*
X4258885D02*
X4268882Y2514975D01*
X4288876D01*
X4298873Y2504978D01*
Y2494981D01*
X4288876Y2484985D01*
X4278879D01*
X4288876D01*
X4298873Y2474988D01*
Y2464991D01*
X4288876Y2454994D01*
X4268882D01*
X4258885Y2464991D01*
X4298924Y2009994D02*
Y2069975D01*
X4328914D01*
X4338911Y2059978D01*
Y2039985D01*
X4328914Y2029988D01*
X4298924D01*
X4318918D02*
X4338911Y2009994D01*
X4398892D02*
X4358905D01*
X4398892Y2049981D01*
Y2059978D01*
X4388895Y2069975D01*
X4368902D01*
X4358905Y2059978D01*
X4458873Y2009994D02*
X4418885D01*
X4458873Y2049981D01*
Y2059978D01*
X4448876Y2069975D01*
X4428882D01*
X4418885Y2059978D01*
X2763924Y1392994D02*
Y1452975D01*
X2793914D01*
X2803911Y1442978D01*
Y1422985D01*
X2793914Y1412988D01*
X2763924D01*
X2783918D02*
X2803911Y1392994D01*
X2863892D02*
X2823905D01*
X2863892Y1432981D01*
Y1442978D01*
X2853895Y1452975D01*
X2833902D01*
X2823905Y1442978D01*
X2883885Y1392994D02*
X2903879D01*
X2893882D01*
Y1452975D01*
X2883885Y1442978D01*
X2973924Y1392994D02*
Y1452975D01*
X3003914D01*
X3013911Y1442978D01*
Y1422985D01*
X3003914Y1412988D01*
X2973924D01*
X2993918D02*
X3013911Y1392994D01*
X3073892D02*
X3033905D01*
X3073892Y1432981D01*
Y1442978D01*
X3063895Y1452975D01*
X3043902D01*
X3033905Y1442978D01*
X3093885D02*
X3103882Y1452975D01*
X3123876D01*
X3133872Y1442978D01*
Y1402991D01*
X3123876Y1392994D01*
X3103882D01*
X3093885Y1402991D01*
Y1442978D01*
X3203924Y1392994D02*
Y1452975D01*
X3233914D01*
X3243911Y1442978D01*
Y1422985D01*
X3233914Y1412988D01*
X3203924D01*
X3223918D02*
X3243911Y1392994D01*
X3263905D02*
X3283898D01*
X3273902D01*
Y1452975D01*
X3263905Y1442978D01*
X3313889Y1402991D02*
X3323885Y1392994D01*
X3343879D01*
X3353876Y1402991D01*
Y1442978D01*
X3343879Y1452975D01*
X3323885D01*
X3313889Y1442978D01*
Y1432981D01*
X3323885Y1422985D01*
X3353876D01*
X3830924Y1740994D02*
Y1800975D01*
X3860914D01*
X3870911Y1790978D01*
Y1770985D01*
X3860914Y1760988D01*
X3830924D01*
X3850918D02*
X3870911Y1740994D01*
X3890905D02*
X3910898D01*
X3900902D01*
Y1800975D01*
X3890905Y1790978D01*
X3940889D02*
X3950885Y1800975D01*
X3970879D01*
X3980876Y1790978D01*
Y1780981D01*
X3970879Y1770985D01*
X3980876Y1760988D01*
Y1750991D01*
X3970879Y1740994D01*
X3950885D01*
X3940889Y1750991D01*
Y1760988D01*
X3950885Y1770985D01*
X3940889Y1780981D01*
Y1790978D01*
X3950885Y1770985D02*
X3970879D01*
X4050924Y1740994D02*
Y1800975D01*
X4080914D01*
X4090911Y1790978D01*
Y1770985D01*
X4080914Y1760988D01*
X4050924D01*
X4070918D02*
X4090911Y1740994D01*
X4110905D02*
X4130898D01*
X4120902D01*
Y1800975D01*
X4110905Y1790978D01*
X4160889Y1800975D02*
X4200876D01*
Y1790978D01*
X4160889Y1750991D01*
Y1740994D01*
X5635024Y3040010D02*
Y3099990D01*
X5665015D01*
X5675011Y3089994D01*
Y3070000D01*
X5665015Y3060003D01*
X5635024D01*
X5655018D02*
X5675011Y3040010D01*
X5695005D02*
X5714998D01*
X5705002D01*
Y3099990D01*
X5695005Y3089994D01*
X5784976Y3099990D02*
X5764982Y3089994D01*
X5744989Y3070000D01*
Y3050006D01*
X5754985Y3040010D01*
X5774979D01*
X5784976Y3050006D01*
Y3060003D01*
X5774979Y3070000D01*
X5744989D01*
X5492230Y3057666D02*
Y3117647D01*
X5522220D01*
X5532217Y3107650D01*
Y3087657D01*
X5522220Y3077660D01*
X5492230D01*
X5512224D02*
X5532217Y3057666D01*
X5552211D02*
X5572204D01*
X5562207D01*
Y3117647D01*
X5552211Y3107650D01*
X5642181Y3117647D02*
X5602194D01*
Y3087657D01*
X5622188Y3097653D01*
X5632185D01*
X5642181Y3087657D01*
Y3067663D01*
X5632185Y3057666D01*
X5612191D01*
X5602194Y3067663D01*
X5627549Y3162389D02*
Y3222369D01*
X5657539D01*
X5667536Y3212373D01*
Y3192379D01*
X5657539Y3182382D01*
X5627549D01*
X5647543D02*
X5667536Y3162389D01*
X5687530D02*
X5707523D01*
X5697527D01*
Y3222369D01*
X5687530Y3212373D01*
X5767504Y3162389D02*
Y3222369D01*
X5737514Y3192379D01*
X5777501D01*
X5496849Y3157836D02*
Y3217816D01*
X5526840D01*
X5536836Y3207819D01*
Y3187826D01*
X5526840Y3177829D01*
X5496849D01*
X5516843D02*
X5536836Y3157836D01*
X5556830D02*
X5576823D01*
X5566827D01*
Y3217816D01*
X5556830Y3207819D01*
X5606814D02*
X5616810Y3217816D01*
X5636804D01*
X5646801Y3207819D01*
Y3197823D01*
X5636804Y3187826D01*
X5626807D01*
X5636804D01*
X5646801Y3177829D01*
Y3167832D01*
X5636804Y3157836D01*
X5616810D01*
X5606814Y3167832D01*
X4888924Y139994D02*
Y199975D01*
X4918914D01*
X4928911Y189978D01*
Y169984D01*
X4918914Y159988D01*
X4888924D01*
X4908918D02*
X4928911Y139994D01*
X4948905D02*
X4968898D01*
X4958902D01*
Y199975D01*
X4948905Y189978D01*
X5038876Y139994D02*
X4998889D01*
X5038876Y179981D01*
Y189978D01*
X5028879Y199975D01*
X5008885D01*
X4998889Y189978D01*
X5176924Y139994D02*
Y199975D01*
X5206914D01*
X5216911Y189978D01*
Y169984D01*
X5206914Y159988D01*
X5176924D01*
X5196918D02*
X5216911Y139994D01*
X5236905D02*
X5256898D01*
X5246902D01*
Y199975D01*
X5236905Y189978D01*
X5286889Y139994D02*
X5306882D01*
X5296885D01*
Y199975D01*
X5286889Y189978D01*
X5464924Y139994D02*
Y199975D01*
X5494914D01*
X5504911Y189978D01*
Y169984D01*
X5494914Y159988D01*
X5464924D01*
X5484918D02*
X5504911Y139994D01*
X5524905D02*
X5544898D01*
X5534902D01*
Y199975D01*
X5524905Y189978D01*
X5574889D02*
X5584885Y199975D01*
X5604879D01*
X5614876Y189978D01*
Y149991D01*
X5604879Y139994D01*
X5584885D01*
X5574889Y149991D01*
Y189978D01*
X5752924Y139994D02*
Y199975D01*
X5782914D01*
X5792911Y189978D01*
Y169984D01*
X5782914Y159988D01*
X5752924D01*
X5772918D02*
X5792911Y139994D01*
X5812905Y149991D02*
X5822902Y139994D01*
X5842895D01*
X5852892Y149991D01*
Y189978D01*
X5842895Y199975D01*
X5822902D01*
X5812905Y189978D01*
Y179981D01*
X5822902Y169984D01*
X5852892D01*
X6041924Y139994D02*
Y199975D01*
X6071914D01*
X6081911Y189978D01*
Y169984D01*
X6071914Y159988D01*
X6041924D01*
X6061918D02*
X6081911Y139994D01*
X6101905Y189978D02*
X6111902Y199975D01*
X6131895D01*
X6141892Y189978D01*
Y179981D01*
X6131895Y169984D01*
X6141892Y159988D01*
Y149991D01*
X6131895Y139994D01*
X6111902D01*
X6101905Y149991D01*
Y159988D01*
X6111902Y169984D01*
X6101905Y179981D01*
Y189978D01*
X6111902Y169984D02*
X6131895D01*
X6329924Y139994D02*
Y199975D01*
X6359914D01*
X6369911Y189978D01*
Y169984D01*
X6359914Y159988D01*
X6329924D01*
X6349918D02*
X6369911Y139994D01*
X6389905Y199975D02*
X6429892D01*
Y189978D01*
X6389905Y149991D01*
Y139994D01*
X6617924D02*
Y199975D01*
X6647914D01*
X6657911Y189978D01*
Y169984D01*
X6647914Y159988D01*
X6617924D01*
X6637918D02*
X6657911Y139994D01*
X6717892Y199975D02*
X6697898Y189978D01*
X6677905Y169984D01*
Y149991D01*
X6687902Y139994D01*
X6707895D01*
X6717892Y149991D01*
Y159988D01*
X6707895Y169984D01*
X6677905D01*
X6905924Y139994D02*
Y199975D01*
X6935914D01*
X6945911Y189978D01*
Y169984D01*
X6935914Y159988D01*
X6905924D01*
X6925918D02*
X6945911Y139994D01*
X7005892Y199975D02*
X6965905D01*
Y169984D01*
X6985898Y179981D01*
X6995895D01*
X7005892Y169984D01*
Y149991D01*
X6995895Y139994D01*
X6975902D01*
X6965905Y149991D01*
X6924924Y663994D02*
Y723975D01*
X6954914D01*
X6964911Y713978D01*
Y693985D01*
X6954914Y683988D01*
X6924924D01*
X6944918D02*
X6964911Y663994D01*
X7014895D02*
Y723975D01*
X6984905Y693985D01*
X7024892D01*
X6704924Y663994D02*
Y723975D01*
X6734914D01*
X6744911Y713978D01*
Y693985D01*
X6734914Y683988D01*
X6704924D01*
X6724918D02*
X6744911Y663994D01*
X6764905Y713978D02*
X6774902Y723975D01*
X6794895D01*
X6804892Y713978D01*
Y703981D01*
X6794895Y693985D01*
X6784898D01*
X6794895D01*
X6804892Y683988D01*
Y673991D01*
X6794895Y663994D01*
X6774902D01*
X6764905Y673991D01*
X6484924Y663994D02*
Y723975D01*
X6514914D01*
X6524911Y713978D01*
Y693985D01*
X6514914Y683988D01*
X6484924D01*
X6504918D02*
X6524911Y663994D01*
X6584892D02*
X6544905D01*
X6584892Y703981D01*
Y713978D01*
X6574895Y723975D01*
X6554902D01*
X6544905Y713978D01*
X6259924Y663994D02*
Y723975D01*
X6289914D01*
X6299911Y713978D01*
Y693985D01*
X6289914Y683988D01*
X6259924D01*
X6279918D02*
X6299911Y663994D01*
X6319905D02*
X6339898D01*
X6329902D01*
Y723975D01*
X6319905Y713978D01*
X7745924Y2420994D02*
Y2480975D01*
X7775914D01*
X7785911Y2470978D01*
Y2450985D01*
X7775914Y2440988D01*
X7745924D01*
X7835895Y2420994D02*
Y2480975D01*
X7805905Y2450985D01*
X7845892D01*
X1045924Y3185994D02*
Y3245975D01*
X1075915D01*
X1085911Y3235978D01*
Y3215985D01*
X1075915Y3205988D01*
X1045924D01*
X1105905Y3235978D02*
X1115902Y3245975D01*
X1135895D01*
X1145892Y3235978D01*
Y3225981D01*
X1135895Y3215985D01*
X1125898D01*
X1135895D01*
X1145892Y3205988D01*
Y3195991D01*
X1135895Y3185994D01*
X1115902D01*
X1105905Y3195991D01*
X5811924Y3240994D02*
Y3300975D01*
X5841914D01*
X5851911Y3290978D01*
Y3270985D01*
X5841914Y3260988D01*
X5811924D01*
X5911892Y3240994D02*
X5871905D01*
X5911892Y3280981D01*
Y3290978D01*
X5901895Y3300975D01*
X5881902D01*
X5871905Y3290978D01*
X6628924Y3205994D02*
Y3265975D01*
X6658914D01*
X6668911Y3255978D01*
Y3235985D01*
X6658914Y3225988D01*
X6628924D01*
X6688905Y3205994D02*
X6708898D01*
X6698902D01*
Y3265975D01*
X6688905Y3255978D01*
X1000924Y955975D02*
Y895994D01*
X1030915D01*
X1040911Y905991D01*
Y945978D01*
X1030915Y955975D01*
X1000924D01*
X1100892Y945978D02*
X1090895Y955975D01*
X1070902D01*
X1060905Y945978D01*
Y935981D01*
X1070902Y925984D01*
X1090895D01*
X1100892Y915988D01*
Y905991D01*
X1090895Y895994D01*
X1070902D01*
X1060905Y905991D01*
X1120885Y895994D02*
X1140879D01*
X1130882D01*
Y955975D01*
X1120885Y945978D01*
X1170869Y885997D02*
X1210856D01*
X1230850Y955975D02*
Y905991D01*
X1240847Y895994D01*
X1260840D01*
X1270837Y905991D01*
Y955975D01*
X1290830Y885997D02*
X1330818D01*
X1390798Y955975D02*
Y895994D01*
X1360808D01*
X1350811Y905991D01*
Y925984D01*
X1360808Y935981D01*
X1390798D01*
X1410792Y895994D02*
X1430785D01*
X1420788D01*
Y935981D01*
X1410792D01*
X1480769Y876001D02*
X1490766D01*
X1500763Y885997D01*
Y935981D01*
X1470772D01*
X1460775Y925984D01*
Y905991D01*
X1470772Y895994D01*
X1500763D01*
X1520756D02*
X1540749D01*
X1530753D01*
Y935981D01*
X1520756D01*
X1580737Y945978D02*
Y935981D01*
X1570740D01*
X1590733D01*
X1580737D01*
Y905991D01*
X1590733Y895994D01*
X1630720Y935981D02*
X1650714D01*
X1660711Y925984D01*
Y895994D01*
X1630720D01*
X1620724Y905991D01*
X1630720Y915988D01*
X1660711D01*
X1680704Y895994D02*
X1700698D01*
X1690701D01*
Y955975D01*
X1680704D01*
X1730688Y885997D02*
X1770675D01*
X1790669Y895994D02*
X1810662D01*
X1800665D01*
Y935981D01*
X1790669D01*
X1840652Y895994D02*
Y935981D01*
X1870643D01*
X1880639Y925984D01*
Y895994D01*
X1940620Y955975D02*
Y895994D01*
X1910630D01*
X1900633Y905991D01*
Y925984D01*
X1910630Y935981D01*
X1940620D01*
X1960614Y895994D02*
X1980607D01*
X1970610D01*
Y935981D01*
X1960614D01*
X2050584D02*
X2020594D01*
X2010597Y925984D01*
Y905991D01*
X2020594Y895994D01*
X2050584D01*
X2080575Y935981D02*
X2100568D01*
X2110565Y925984D01*
Y895994D01*
X2080575D01*
X2070578Y905991D01*
X2080575Y915988D01*
X2110565D01*
X2140555Y945978D02*
Y935981D01*
X2130559D01*
X2150552D01*
X2140555D01*
Y905991D01*
X2150552Y895994D01*
X2190539D02*
X2210533D01*
X2220530Y905991D01*
Y925984D01*
X2210533Y935981D01*
X2190539D01*
X2180542Y925984D01*
Y905991D01*
X2190539Y895994D01*
X2240523Y935981D02*
Y895994D01*
Y915988D01*
X2250520Y925984D01*
X2260517Y935981D01*
X2270513D01*
X2330494Y895994D02*
Y955975D01*
X2300504Y925984D01*
X2340491D01*
X2018924Y956298D02*
Y896317D01*
X2048914D01*
X2058911Y906314D01*
Y946301D01*
X2048914Y956298D01*
X2018924D01*
X2118892Y946301D02*
X2108895Y956298D01*
X2088902D01*
X2078905Y946301D01*
Y936304D01*
X2088902Y926308D01*
X2108895D01*
X2118892Y916311D01*
Y906314D01*
X2108895Y896317D01*
X2088902D01*
X2078905Y906314D01*
X2138885Y896317D02*
X2158879D01*
X2148882D01*
Y956298D01*
X2138885Y946301D01*
X2188869Y886321D02*
X2228856D01*
X2248850Y956298D02*
Y906314D01*
X2258847Y896317D01*
X2278840D01*
X2288837Y906314D01*
Y956298D01*
X2308830Y886321D02*
X2348818D01*
X2408798Y956298D02*
Y896317D01*
X2378808D01*
X2368811Y906314D01*
Y926308D01*
X2378808Y936304D01*
X2408798D01*
X2428792Y896317D02*
X2448785D01*
X2438788D01*
Y936304D01*
X2428792D01*
X2498769Y876324D02*
X2508766D01*
X2518762Y886321D01*
Y936304D01*
X2488772D01*
X2478775Y926308D01*
Y906314D01*
X2488772Y896317D01*
X2518762D01*
X2538756D02*
X2558749D01*
X2548753D01*
Y936304D01*
X2538756D01*
X2598737Y946301D02*
Y936304D01*
X2588740D01*
X2608733D01*
X2598737D01*
Y906314D01*
X2608733Y896317D01*
X2648720Y936304D02*
X2668714D01*
X2678711Y926308D01*
Y896317D01*
X2648720D01*
X2638724Y906314D01*
X2648720Y916311D01*
X2678711D01*
X2698704Y896317D02*
X2718698D01*
X2708701D01*
Y956298D01*
X2698704D01*
X2748688Y886321D02*
X2788675D01*
X2808669Y896317D02*
X2828662D01*
X2818665D01*
Y936304D01*
X2808669D01*
X2858652Y896317D02*
Y936304D01*
X2888643D01*
X2898640Y926308D01*
Y896317D01*
X2958620Y956298D02*
Y896317D01*
X2928630D01*
X2918633Y906314D01*
Y926308D01*
X2928630Y936304D01*
X2958620D01*
X2978614Y896317D02*
X2998607D01*
X2988610D01*
Y936304D01*
X2978614D01*
X3068584D02*
X3038594D01*
X3028597Y926308D01*
Y906314D01*
X3038594Y896317D01*
X3068584D01*
X3098575Y936304D02*
X3118568D01*
X3128565Y926308D01*
Y896317D01*
X3098575D01*
X3088578Y906314D01*
X3098575Y916311D01*
X3128565D01*
X3158555Y946301D02*
Y936304D01*
X3148559D01*
X3168552D01*
X3158555D01*
Y906314D01*
X3168552Y896317D01*
X3208539D02*
X3228533D01*
X3238530Y906314D01*
Y926308D01*
X3228533Y936304D01*
X3208539D01*
X3198542Y926308D01*
Y906314D01*
X3208539Y896317D01*
X3258523Y936304D02*
Y896317D01*
Y916311D01*
X3268520Y926308D01*
X3278517Y936304D01*
X3288513D01*
X3318504Y946301D02*
X3328500Y956298D01*
X3348494D01*
X3358491Y946301D01*
Y936304D01*
X3348494Y926308D01*
X3338497D01*
X3348494D01*
X3358491Y916311D01*
Y906314D01*
X3348494Y896317D01*
X3328500D01*
X3318504Y906314D01*
X3052924Y963975D02*
Y903994D01*
X3082914D01*
X3092911Y913991D01*
Y953978D01*
X3082914Y963975D01*
X3052924D01*
X3152892Y953978D02*
X3142895Y963975D01*
X3122902D01*
X3112905Y953978D01*
Y943981D01*
X3122902Y933985D01*
X3142895D01*
X3152892Y923988D01*
Y913991D01*
X3142895Y903994D01*
X3122902D01*
X3112905Y913991D01*
X3172885Y903994D02*
X3192879D01*
X3182882D01*
Y963975D01*
X3172885Y953978D01*
X3222869Y893997D02*
X3262856D01*
X3282850Y963975D02*
Y913991D01*
X3292847Y903994D01*
X3312840D01*
X3322837Y913991D01*
Y963975D01*
X3342830Y893997D02*
X3382818D01*
X3442798Y963975D02*
Y903994D01*
X3412808D01*
X3402811Y913991D01*
Y933985D01*
X3412808Y943981D01*
X3442798D01*
X3462792Y903994D02*
X3482785D01*
X3472788D01*
Y943981D01*
X3462792D01*
X3532769Y884001D02*
X3542766D01*
X3552762Y893997D01*
Y943981D01*
X3522772D01*
X3512775Y933985D01*
Y913991D01*
X3522772Y903994D01*
X3552762D01*
X3572756D02*
X3592749D01*
X3582753D01*
Y943981D01*
X3572756D01*
X3632737Y953978D02*
Y943981D01*
X3622740D01*
X3642733D01*
X3632737D01*
Y913991D01*
X3642733Y903994D01*
X3682720Y943981D02*
X3702714D01*
X3712711Y933985D01*
Y903994D01*
X3682720D01*
X3672724Y913991D01*
X3682720Y923988D01*
X3712711D01*
X3732704Y903994D02*
X3752698D01*
X3742701D01*
Y963975D01*
X3732704D01*
X3782688Y893997D02*
X3822675D01*
X3842669Y903994D02*
X3862662D01*
X3852665D01*
Y943981D01*
X3842669D01*
X3892652Y903994D02*
Y943981D01*
X3922643D01*
X3932640Y933985D01*
Y903994D01*
X3992620Y963975D02*
Y903994D01*
X3962630D01*
X3952633Y913991D01*
Y933985D01*
X3962630Y943981D01*
X3992620D01*
X4012614Y903994D02*
X4032607D01*
X4022610D01*
Y943981D01*
X4012614D01*
X4102584D02*
X4072594D01*
X4062597Y933985D01*
Y913991D01*
X4072594Y903994D01*
X4102584D01*
X4132575Y943981D02*
X4152568D01*
X4162565Y933985D01*
Y903994D01*
X4132575D01*
X4122578Y913991D01*
X4132575Y923988D01*
X4162565D01*
X4192555Y953978D02*
Y943981D01*
X4182559D01*
X4202552D01*
X4192555D01*
Y913991D01*
X4202552Y903994D01*
X4242539D02*
X4262533D01*
X4272529Y913991D01*
Y933985D01*
X4262533Y943981D01*
X4242539D01*
X4232542Y933985D01*
Y913991D01*
X4242539Y903994D01*
X4292523Y943981D02*
Y903994D01*
Y923988D01*
X4302520Y933985D01*
X4312516Y943981D01*
X4322513D01*
X4392491Y903994D02*
X4352504D01*
X4392491Y943981D01*
Y953978D01*
X4382494Y963975D01*
X4362500D01*
X4352504Y953978D01*
X4074924Y955975D02*
Y895994D01*
X4104914D01*
X4114911Y905991D01*
Y945978D01*
X4104914Y955975D01*
X4074924D01*
X4174892Y945978D02*
X4164895Y955975D01*
X4144902D01*
X4134905Y945978D01*
Y935981D01*
X4144902Y925985D01*
X4164895D01*
X4174892Y915988D01*
Y905991D01*
X4164895Y895994D01*
X4144902D01*
X4134905Y905991D01*
X4194885Y895994D02*
X4214879D01*
X4204882D01*
Y955975D01*
X4194885Y945978D01*
X4244869Y885997D02*
X4284856D01*
X4304850Y955975D02*
Y905991D01*
X4314847Y895994D01*
X4334840D01*
X4344837Y905991D01*
Y955975D01*
X4364830Y885997D02*
X4404818D01*
X4464798Y955975D02*
Y895994D01*
X4434808D01*
X4424811Y905991D01*
Y925985D01*
X4434808Y935981D01*
X4464798D01*
X4484792Y895994D02*
X4504785D01*
X4494788D01*
Y935981D01*
X4484792D01*
X4554769Y876001D02*
X4564766D01*
X4574762Y885997D01*
Y935981D01*
X4544772D01*
X4534775Y925985D01*
Y905991D01*
X4544772Y895994D01*
X4574762D01*
X4594756D02*
X4614749D01*
X4604753D01*
Y935981D01*
X4594756D01*
X4654737Y945978D02*
Y935981D01*
X4644740D01*
X4664733D01*
X4654737D01*
Y905991D01*
X4664733Y895994D01*
X4704720Y935981D02*
X4724714D01*
X4734711Y925985D01*
Y895994D01*
X4704720D01*
X4694724Y905991D01*
X4704720Y915988D01*
X4734711D01*
X4754704Y895994D02*
X4774698D01*
X4764701D01*
Y955975D01*
X4754704D01*
X4804688Y885997D02*
X4844675D01*
X4864669Y895994D02*
X4884662D01*
X4874665D01*
Y935981D01*
X4864669D01*
X4914652Y895994D02*
Y935981D01*
X4944643D01*
X4954640Y925985D01*
Y895994D01*
X5014620Y955975D02*
Y895994D01*
X4984630D01*
X4974633Y905991D01*
Y925985D01*
X4984630Y935981D01*
X5014620D01*
X5034614Y895994D02*
X5054607D01*
X5044610D01*
Y935981D01*
X5034614D01*
X5124584D02*
X5094594D01*
X5084597Y925985D01*
Y905991D01*
X5094594Y895994D01*
X5124584D01*
X5154575Y935981D02*
X5174568D01*
X5184565Y925985D01*
Y895994D01*
X5154575D01*
X5144578Y905991D01*
X5154575Y915988D01*
X5184565D01*
X5214555Y945978D02*
Y935981D01*
X5204559D01*
X5224552D01*
X5214555D01*
Y905991D01*
X5224552Y895994D01*
X5264539D02*
X5284533D01*
X5294529Y905991D01*
Y925985D01*
X5284533Y935981D01*
X5264539D01*
X5254542Y925985D01*
Y905991D01*
X5264539Y895994D01*
X5314523Y935981D02*
Y895994D01*
Y915988D01*
X5324520Y925985D01*
X5334516Y935981D01*
X5344513D01*
X5374504Y895994D02*
X5394497D01*
X5384500D01*
Y955975D01*
X5374504Y945978D01*
X889924Y2040975D02*
Y1980994D01*
X919914D01*
X929911Y1990991D01*
Y2030978D01*
X919914Y2040975D01*
X889924D01*
X949905Y1980994D02*
Y2020981D01*
X969898Y2040975D01*
X989892Y2020981D01*
Y1980994D01*
Y2010985D01*
X949905D01*
X1049872Y1980994D02*
X1009885D01*
X1049872Y2020981D01*
Y2030978D01*
X1039876Y2040975D01*
X1019882D01*
X1009885Y2030978D01*
X879924Y2751975D02*
Y2691994D01*
X909914D01*
X919911Y2701991D01*
Y2741978D01*
X909914Y2751975D01*
X879924D01*
X939905Y2691994D02*
Y2731981D01*
X959898Y2751975D01*
X979892Y2731981D01*
Y2691994D01*
Y2721985D01*
X939905D01*
X999885Y2691994D02*
X1019879D01*
X1009882D01*
Y2751975D01*
X999885Y2741978D01*
X2044924Y1755975D02*
Y1695994D01*
X2074914D01*
X2084911Y1705991D01*
Y1745978D01*
X2074914Y1755975D01*
X2044924D01*
X2104905Y1695994D02*
X2124898D01*
X2114902D01*
Y1755975D01*
X2104905Y1745978D01*
X2154889Y1755975D02*
X2194876D01*
Y1745978D01*
X2154889Y1705991D01*
Y1695994D01*
X1628924Y1755975D02*
Y1695994D01*
X1658915D01*
X1668911Y1705991D01*
Y1745978D01*
X1658915Y1755975D01*
X1628924D01*
X1688905Y1695994D02*
X1708898D01*
X1698902D01*
Y1755975D01*
X1688905Y1745978D01*
X1778876Y1755975D02*
X1738889D01*
Y1725985D01*
X1758882Y1735981D01*
X1768879D01*
X1778876Y1725985D01*
Y1705991D01*
X1768879Y1695994D01*
X1748885D01*
X1738889Y1705991D01*
X1856924Y2050975D02*
Y1990994D01*
X1886915D01*
X1896911Y2000991D01*
Y2040978D01*
X1886915Y2050975D01*
X1856924D01*
X1916905Y1990994D02*
X1936898D01*
X1926902D01*
Y2050975D01*
X1916905Y2040978D01*
X1996879Y1990994D02*
Y2050975D01*
X1966889Y2020985D01*
X2006876D01*
X1412924Y2050975D02*
Y1990994D01*
X1442915D01*
X1452911Y2000991D01*
Y2040978D01*
X1442915Y2050975D01*
X1412924D01*
X1472905Y1990994D02*
X1492898D01*
X1482902D01*
Y2050975D01*
X1472905Y2040978D01*
X1522889D02*
X1532885Y2050975D01*
X1552879D01*
X1562876Y2040978D01*
Y2030981D01*
X1552879Y2020985D01*
X1542882D01*
X1552879D01*
X1562876Y2010988D01*
Y2000991D01*
X1552879Y1990994D01*
X1532885D01*
X1522889Y2000991D01*
X1420924Y1755975D02*
Y1695994D01*
X1450915D01*
X1460911Y1705991D01*
Y1745978D01*
X1450915Y1755975D01*
X1420924D01*
X1480905Y1695994D02*
X1500898D01*
X1490902D01*
Y1755975D01*
X1480905Y1745978D01*
X1570876Y1695994D02*
X1530889D01*
X1570876Y1735981D01*
Y1745978D01*
X1560879Y1755975D01*
X1540885D01*
X1530889Y1745978D01*
X1836924Y1755975D02*
Y1695994D01*
X1866915D01*
X1876911Y1705991D01*
Y1745978D01*
X1866915Y1755975D01*
X1836924D01*
X1896905Y1695994D02*
X1916898D01*
X1906902D01*
Y1755975D01*
X1896905Y1745978D01*
X1946889Y1695994D02*
X1966882D01*
X1956885D01*
Y1755975D01*
X1946889Y1745978D01*
X1634924Y2050975D02*
Y1990994D01*
X1664915D01*
X1674911Y2000991D01*
Y2040978D01*
X1664915Y2050975D01*
X1634924D01*
X1694905Y1990994D02*
X1714898D01*
X1704902D01*
Y2050975D01*
X1694905Y2040978D01*
X1744889D02*
X1754885Y2050975D01*
X1774879D01*
X1784876Y2040978D01*
Y2000991D01*
X1774879Y1990994D01*
X1754885D01*
X1744889Y2000991D01*
Y2040978D01*
X2078924Y2050975D02*
Y1990994D01*
X2108914D01*
X2118911Y2000991D01*
Y2040978D01*
X2108914Y2050975D01*
X2078924D01*
X2138905Y2000991D02*
X2148902Y1990994D01*
X2168895D01*
X2178892Y2000991D01*
Y2040978D01*
X2168895Y2050975D01*
X2148902D01*
X2138905Y2040978D01*
Y2030981D01*
X2148902Y2020985D01*
X2178892D01*
X4822924Y425975D02*
Y365994D01*
X4852914D01*
X4862911Y375991D01*
Y415978D01*
X4852914Y425975D01*
X4822924D01*
X4882905Y415978D02*
X4892902Y425975D01*
X4912895D01*
X4922892Y415978D01*
Y405981D01*
X4912895Y395985D01*
X4922892Y385988D01*
Y375991D01*
X4912895Y365994D01*
X4892902D01*
X4882905Y375991D01*
Y385988D01*
X4892902Y395985D01*
X4882905Y405981D01*
Y415978D01*
X4892902Y395985D02*
X4912895D01*
X5139924Y425975D02*
Y365994D01*
X5169914D01*
X5179911Y375991D01*
Y415978D01*
X5169914Y425975D01*
X5139924D01*
X5199905D02*
X5239892D01*
Y415978D01*
X5199905Y375991D01*
Y365994D01*
X5456924Y425975D02*
Y365994D01*
X5486914D01*
X5496911Y375991D01*
Y415978D01*
X5486914Y425975D01*
X5456924D01*
X5556892D02*
X5536898Y415978D01*
X5516905Y395985D01*
Y375991D01*
X5526902Y365994D01*
X5546895D01*
X5556892Y375991D01*
Y385988D01*
X5546895Y395985D01*
X5516905D01*
X5772924Y425975D02*
Y365994D01*
X5802914D01*
X5812911Y375991D01*
Y415978D01*
X5802914Y425975D01*
X5772924D01*
X5872892D02*
X5832905D01*
Y395985D01*
X5852898Y405981D01*
X5862895D01*
X5872892Y395985D01*
Y375991D01*
X5862895Y365994D01*
X5842902D01*
X5832905Y375991D01*
X6089924Y425975D02*
Y365994D01*
X6119914D01*
X6129911Y375991D01*
Y415978D01*
X6119914Y425975D01*
X6089924D01*
X6179895Y365994D02*
Y425975D01*
X6149905Y395985D01*
X6189892D01*
X6405924Y425975D02*
Y365994D01*
X6435914D01*
X6445911Y375991D01*
Y415978D01*
X6435914Y425975D01*
X6405924D01*
X6465905Y415978D02*
X6475902Y425975D01*
X6495895D01*
X6505892Y415978D01*
Y405981D01*
X6495895Y395985D01*
X6485898D01*
X6495895D01*
X6505892Y385988D01*
Y375991D01*
X6495895Y365994D01*
X6475902D01*
X6465905Y375991D01*
X6722924Y438975D02*
Y378994D01*
X6752914D01*
X6762911Y388991D01*
Y428978D01*
X6752914Y438975D01*
X6722924D01*
X6822892Y378994D02*
X6782905D01*
X6822892Y418981D01*
Y428978D01*
X6812895Y438975D01*
X6792902D01*
X6782905Y428978D01*
X7038924Y438975D02*
Y378994D01*
X7068914D01*
X7078911Y388991D01*
Y428978D01*
X7068914Y438975D01*
X7038924D01*
X7098905Y378994D02*
X7118898D01*
X7108902D01*
Y438975D01*
X7098905Y428978D01*
X2708911Y2631978D02*
X2698914Y2641975D01*
X2678921D01*
X2668924Y2631978D01*
Y2591991D01*
X2678921Y2581994D01*
X2698914D01*
X2708911Y2591991D01*
X2768892Y2641975D02*
X2728905D01*
Y2611985D01*
X2748898Y2621981D01*
X2758895D01*
X2768892Y2611985D01*
Y2591991D01*
X2758895Y2581994D01*
X2738902D01*
X2728905Y2591991D01*
X2828872Y2581994D02*
X2788885D01*
X2828872Y2621981D01*
Y2631978D01*
X2818876Y2641975D01*
X2798882D01*
X2788885Y2631978D01*
X2851911Y2651978D02*
X2841914Y2661975D01*
X2821921D01*
X2811924Y2651978D01*
Y2611991D01*
X2821921Y2601994D01*
X2841914D01*
X2851911Y2611991D01*
X2911892Y2661975D02*
X2871905D01*
Y2631985D01*
X2891898Y2641981D01*
X2901895D01*
X2911892Y2631985D01*
Y2611991D01*
X2901895Y2601994D01*
X2881902D01*
X2871905Y2611991D01*
X2931885Y2601994D02*
X2951879D01*
X2941882D01*
Y2661975D01*
X2931885Y2651978D01*
X3029911Y1868978D02*
X3019914Y1878975D01*
X2999921D01*
X2989924Y1868978D01*
Y1828991D01*
X2999921Y1818994D01*
X3019914D01*
X3029911Y1828991D01*
X3089892Y1878975D02*
X3049905D01*
Y1848985D01*
X3069898Y1858981D01*
X3079895D01*
X3089892Y1848985D01*
Y1828991D01*
X3079895Y1818994D01*
X3059902D01*
X3049905Y1828991D01*
X3109885Y1868978D02*
X3119882Y1878975D01*
X3139876D01*
X3149872Y1868978D01*
Y1828991D01*
X3139876Y1818994D01*
X3119882D01*
X3109885Y1828991D01*
Y1868978D01*
X1274911Y1338978D02*
X1264915Y1348975D01*
X1244921D01*
X1234924Y1338978D01*
Y1298991D01*
X1244921Y1288994D01*
X1264915D01*
X1274911Y1298991D01*
X1324895Y1288994D02*
Y1348975D01*
X1294905Y1318985D01*
X1334892D01*
X1354885Y1298991D02*
X1364882Y1288994D01*
X1384876D01*
X1394872Y1298991D01*
Y1338978D01*
X1384876Y1348975D01*
X1364882D01*
X1354885Y1338978D01*
Y1328981D01*
X1364882Y1318985D01*
X1394872D01*
X991911Y1346978D02*
X981914Y1356975D01*
X961921D01*
X951924Y1346978D01*
Y1306991D01*
X961921Y1296994D01*
X981914D01*
X991911Y1306991D01*
X1041895Y1296994D02*
Y1356975D01*
X1011905Y1326985D01*
X1051892D01*
X1071885Y1346978D02*
X1081882Y1356975D01*
X1101876D01*
X1111872Y1346978D01*
Y1336981D01*
X1101876Y1326985D01*
X1111872Y1316988D01*
Y1306991D01*
X1101876Y1296994D01*
X1081882D01*
X1071885Y1306991D01*
Y1316988D01*
X1081882Y1326985D01*
X1071885Y1336981D01*
Y1346978D01*
X1081882Y1326985D02*
X1101876D01*
X3496911Y1802978D02*
X3486914Y1812975D01*
X3466921D01*
X3456924Y1802978D01*
Y1762991D01*
X3466921Y1752994D01*
X3486914D01*
X3496911Y1762991D01*
X3546895Y1752994D02*
Y1812975D01*
X3516905Y1782985D01*
X3556892D01*
X3576885Y1812975D02*
X3616872D01*
Y1802978D01*
X3576885Y1762991D01*
Y1752994D01*
X3343911Y1801978D02*
X3333914Y1811975D01*
X3313921D01*
X3303924Y1801978D01*
Y1761991D01*
X3313921Y1751994D01*
X3333914D01*
X3343911Y1761991D01*
X3393895Y1751994D02*
Y1811975D01*
X3363905Y1781985D01*
X3403892D01*
X3463872Y1811975D02*
X3443879Y1801978D01*
X3423885Y1781985D01*
Y1761991D01*
X3433882Y1751994D01*
X3453876D01*
X3463872Y1761991D01*
Y1771988D01*
X3453876Y1781985D01*
X3423885D01*
X2381911Y2844978D02*
X2371914Y2854975D01*
X2351921D01*
X2341924Y2844978D01*
Y2804991D01*
X2351921Y2794994D01*
X2371914D01*
X2381911Y2804991D01*
X2431895Y2794994D02*
Y2854975D01*
X2401905Y2824985D01*
X2441892D01*
X2501872Y2854975D02*
X2461885D01*
Y2824985D01*
X2481879Y2834981D01*
X2491876D01*
X2501872Y2824985D01*
Y2804991D01*
X2491876Y2794994D01*
X2471882D01*
X2461885Y2804991D01*
X3492911Y3165978D02*
X3482914Y3175975D01*
X3462921D01*
X3452924Y3165978D01*
Y3125991D01*
X3462921Y3115994D01*
X3482914D01*
X3492911Y3125991D01*
X3542895Y3115994D02*
Y3175975D01*
X3512905Y3145985D01*
X3552892D01*
X3602876Y3115994D02*
Y3175975D01*
X3572885Y3145985D01*
X3612872D01*
X2384911Y2938978D02*
X2374914Y2948975D01*
X2354921D01*
X2344924Y2938978D01*
Y2898991D01*
X2354921Y2888994D01*
X2374914D01*
X2384911Y2898991D01*
X2434895Y2888994D02*
Y2948975D01*
X2404905Y2918985D01*
X2444892D01*
X2464885Y2938978D02*
X2474882Y2948975D01*
X2494876D01*
X2504872Y2938978D01*
Y2928981D01*
X2494876Y2918985D01*
X2484879D01*
X2494876D01*
X2504872Y2908988D01*
Y2898991D01*
X2494876Y2888994D01*
X2474882D01*
X2464885Y2898991D01*
X2300911Y2913978D02*
X2290914Y2923975D01*
X2270921D01*
X2260924Y2913978D01*
Y2873991D01*
X2270921Y2863994D01*
X2290914D01*
X2300911Y2873991D01*
X2350895Y2863994D02*
Y2923975D01*
X2320905Y2893985D01*
X2360892D01*
X2420872Y2863994D02*
X2380885D01*
X2420872Y2903981D01*
Y2913978D01*
X2410876Y2923975D01*
X2390882D01*
X2380885Y2913978D01*
X2301911Y2795978D02*
X2291914Y2805975D01*
X2271921D01*
X2261924Y2795978D01*
Y2755991D01*
X2271921Y2745994D01*
X2291914D01*
X2301911Y2755991D01*
X2351895Y2745994D02*
Y2805975D01*
X2321905Y2775985D01*
X2361892D01*
X2381885Y2745994D02*
X2401879D01*
X2391882D01*
Y2805975D01*
X2381885Y2795978D01*
X3019911Y1672978D02*
X3009914Y1682975D01*
X2989921D01*
X2979924Y1672978D01*
Y1632991D01*
X2989921Y1622994D01*
X3009914D01*
X3019911Y1632991D01*
X3069895Y1622994D02*
Y1682975D01*
X3039905Y1652985D01*
X3079892D01*
X3099885Y1672978D02*
X3109882Y1682975D01*
X3129876D01*
X3139872Y1672978D01*
Y1632991D01*
X3129876Y1622994D01*
X3109882D01*
X3099885Y1632991D01*
Y1672978D01*
X3454911Y3048978D02*
X3444914Y3058975D01*
X3424921D01*
X3414924Y3048978D01*
Y3008991D01*
X3424921Y2998994D01*
X3444914D01*
X3454911Y3008991D01*
X3474905Y3048978D02*
X3484902Y3058975D01*
X3504895D01*
X3514892Y3048978D01*
Y3038981D01*
X3504895Y3028985D01*
X3494898D01*
X3504895D01*
X3514892Y3018988D01*
Y3008991D01*
X3504895Y2998994D01*
X3484902D01*
X3474905Y3008991D01*
X3534885D02*
X3544882Y2998994D01*
X3564876D01*
X3574872Y3008991D01*
Y3048978D01*
X3564876Y3058975D01*
X3544882D01*
X3534885Y3048978D01*
Y3038981D01*
X3544882Y3028985D01*
X3574872D01*
X1404911Y2321978D02*
X1394915Y2331975D01*
X1374921D01*
X1364924Y2321978D01*
Y2281991D01*
X1374921Y2271994D01*
X1394915D01*
X1404911Y2281991D01*
X1424905Y2321978D02*
X1434902Y2331975D01*
X1454895D01*
X1464892Y2321978D01*
Y2311981D01*
X1454895Y2301985D01*
X1444898D01*
X1454895D01*
X1464892Y2291988D01*
Y2281991D01*
X1454895Y2271994D01*
X1434902D01*
X1424905Y2281991D01*
X1484885Y2321978D02*
X1494882Y2331975D01*
X1514876D01*
X1524872Y2321978D01*
Y2311981D01*
X1514876Y2301985D01*
X1524872Y2291988D01*
Y2281991D01*
X1514876Y2271994D01*
X1494882D01*
X1484885Y2281991D01*
Y2291988D01*
X1494882Y2301985D01*
X1484885Y2311981D01*
Y2321978D01*
X1494882Y2301985D02*
X1514876D01*
X1383911Y2607978D02*
X1373915Y2617975D01*
X1353921D01*
X1343924Y2607978D01*
Y2567991D01*
X1353921Y2557994D01*
X1373915D01*
X1383911Y2567991D01*
X1403905Y2607978D02*
X1413902Y2617975D01*
X1433895D01*
X1443892Y2607978D01*
Y2597981D01*
X1433895Y2587985D01*
X1423898D01*
X1433895D01*
X1443892Y2577988D01*
Y2567991D01*
X1433895Y2557994D01*
X1413902D01*
X1403905Y2567991D01*
X1503872Y2617975D02*
X1483879Y2607978D01*
X1463885Y2587985D01*
Y2567991D01*
X1473882Y2557994D01*
X1493876D01*
X1503872Y2567991D01*
Y2577988D01*
X1493876Y2587985D01*
X1463885D01*
X2785911Y1651978D02*
X2775914Y1661975D01*
X2755921D01*
X2745924Y1651978D01*
Y1611991D01*
X2755921Y1601994D01*
X2775914D01*
X2785911Y1611991D01*
X2805905Y1651978D02*
X2815902Y1661975D01*
X2835895D01*
X2845892Y1651978D01*
Y1641981D01*
X2835895Y1631985D01*
X2825898D01*
X2835895D01*
X2845892Y1621988D01*
Y1611991D01*
X2835895Y1601994D01*
X2815902D01*
X2805905Y1611991D01*
X2905872Y1661975D02*
X2865885D01*
Y1631985D01*
X2885879Y1641981D01*
X2895876D01*
X2905872Y1631985D01*
Y1611991D01*
X2895876Y1601994D01*
X2875882D01*
X2865885Y1611991D01*
X2747911Y1874978D02*
X2737914Y1884975D01*
X2717921D01*
X2707924Y1874978D01*
Y1834991D01*
X2717921Y1824994D01*
X2737914D01*
X2747911Y1834991D01*
X2767905Y1874978D02*
X2777902Y1884975D01*
X2797895D01*
X2807892Y1874978D01*
Y1864981D01*
X2797895Y1854985D01*
X2787898D01*
X2797895D01*
X2807892Y1844988D01*
Y1834991D01*
X2797895Y1824994D01*
X2777902D01*
X2767905Y1834991D01*
X2857876Y1824994D02*
Y1884975D01*
X2827885Y1854985D01*
X2867872D01*
X1660911Y2449978D02*
X1650915Y2459975D01*
X1630921D01*
X1620924Y2449978D01*
Y2409991D01*
X1630921Y2399994D01*
X1650915D01*
X1660911Y2409991D01*
X1680905Y2449978D02*
X1690902Y2459975D01*
X1710895D01*
X1720892Y2449978D01*
Y2439981D01*
X1710895Y2429985D01*
X1700898D01*
X1710895D01*
X1720892Y2419988D01*
Y2409991D01*
X1710895Y2399994D01*
X1690902D01*
X1680905Y2409991D01*
X1740885Y2449978D02*
X1750882Y2459975D01*
X1770876D01*
X1780872Y2449978D01*
Y2439981D01*
X1770876Y2429985D01*
X1760879D01*
X1770876D01*
X1780872Y2419988D01*
Y2409991D01*
X1770876Y2399994D01*
X1750882D01*
X1740885Y2409991D01*
X2702911Y2333978D02*
X2692914Y2343975D01*
X2672921D01*
X2662924Y2333978D01*
Y2293991D01*
X2672921Y2283994D01*
X2692914D01*
X2702911Y2293991D01*
X2722905Y2333978D02*
X2732902Y2343975D01*
X2752895D01*
X2762892Y2333978D01*
Y2323981D01*
X2752895Y2313985D01*
X2742898D01*
X2752895D01*
X2762892Y2303988D01*
Y2293991D01*
X2752895Y2283994D01*
X2732902D01*
X2722905Y2293991D01*
X2822872Y2283994D02*
X2782885D01*
X2822872Y2323981D01*
Y2333978D01*
X2812876Y2343975D01*
X2792882D01*
X2782885Y2333978D01*
X4336911Y1792978D02*
X4326914Y1802975D01*
X4306921D01*
X4296924Y1792978D01*
Y1752991D01*
X4306921Y1742994D01*
X4326914D01*
X4336911Y1752991D01*
X4356905Y1792978D02*
X4366902Y1802975D01*
X4386895D01*
X4396892Y1792978D01*
Y1782981D01*
X4386895Y1772985D01*
X4376898D01*
X4386895D01*
X4396892Y1762988D01*
Y1752991D01*
X4386895Y1742994D01*
X4366902D01*
X4356905Y1752991D01*
X4416885Y1742994D02*
X4436879D01*
X4426882D01*
Y1802975D01*
X4416885Y1792978D01*
X1143911Y1343978D02*
X1133915Y1353975D01*
X1113921D01*
X1103924Y1343978D01*
Y1303991D01*
X1113921Y1293994D01*
X1133915D01*
X1143911Y1303991D01*
X1163905Y1343978D02*
X1173902Y1353975D01*
X1193895D01*
X1203892Y1343978D01*
Y1333981D01*
X1193895Y1323985D01*
X1183898D01*
X1193895D01*
X1203892Y1313988D01*
Y1303991D01*
X1193895Y1293994D01*
X1173902D01*
X1163905Y1303991D01*
X1223885Y1343978D02*
X1233882Y1353975D01*
X1253876D01*
X1263872Y1343978D01*
Y1303991D01*
X1253876Y1293994D01*
X1233882D01*
X1223885Y1303991D01*
Y1343978D01*
X1480911Y2688978D02*
X1470915Y2698975D01*
X1450921D01*
X1440924Y2688978D01*
Y2648991D01*
X1450921Y2638994D01*
X1470915D01*
X1480911Y2648991D01*
X1540892Y2638994D02*
X1500905D01*
X1540892Y2678981D01*
Y2688978D01*
X1530895Y2698975D01*
X1510902D01*
X1500905Y2688978D01*
X1560885Y2648991D02*
X1570882Y2638994D01*
X1590876D01*
X1600872Y2648991D01*
Y2688978D01*
X1590876Y2698975D01*
X1570882D01*
X1560885Y2688978D01*
Y2678981D01*
X1570882Y2668985D01*
X1600872D01*
X1931911Y2487978D02*
X1921915Y2497975D01*
X1901921D01*
X1891924Y2487978D01*
Y2447991D01*
X1901921Y2437994D01*
X1921915D01*
X1931911Y2447991D01*
X1991892Y2437994D02*
X1951905D01*
X1991892Y2477981D01*
Y2487978D01*
X1981895Y2497975D01*
X1961902D01*
X1951905Y2487978D01*
X2011885D02*
X2021882Y2497975D01*
X2041876D01*
X2051872Y2487978D01*
Y2477981D01*
X2041876Y2467985D01*
X2051872Y2457988D01*
Y2447991D01*
X2041876Y2437994D01*
X2021882D01*
X2011885Y2447991D01*
Y2457988D01*
X2021882Y2467985D01*
X2011885Y2477981D01*
Y2487978D01*
X2021882Y2467985D02*
X2041876D01*
X1818911Y2471978D02*
X1808915Y2481975D01*
X1788921D01*
X1778924Y2471978D01*
Y2431991D01*
X1788921Y2421994D01*
X1808915D01*
X1818911Y2431991D01*
X1878892Y2421994D02*
X1838905D01*
X1878892Y2461981D01*
Y2471978D01*
X1868895Y2481975D01*
X1848902D01*
X1838905Y2471978D01*
X1898885Y2481975D02*
X1938872D01*
Y2471978D01*
X1898885Y2431991D01*
Y2421994D01*
X2977911Y2322978D02*
X2967914Y2332975D01*
X2947921D01*
X2937924Y2322978D01*
Y2282991D01*
X2947921Y2272994D01*
X2967914D01*
X2977911Y2282991D01*
X3037892Y2272994D02*
X2997905D01*
X3037892Y2312981D01*
Y2322978D01*
X3027895Y2332975D01*
X3007902D01*
X2997905Y2322978D01*
X3097872Y2332975D02*
X3077879Y2322978D01*
X3057885Y2302985D01*
Y2282991D01*
X3067882Y2272994D01*
X3087876D01*
X3097872Y2282991D01*
Y2292988D01*
X3087876Y2302985D01*
X3057885D01*
X2833911Y2289978D02*
X2823914Y2299975D01*
X2803921D01*
X2793924Y2289978D01*
Y2249991D01*
X2803921Y2239994D01*
X2823914D01*
X2833911Y2249991D01*
X2893892Y2239994D02*
X2853905D01*
X2893892Y2279981D01*
Y2289978D01*
X2883895Y2299975D01*
X2863902D01*
X2853905Y2289978D01*
X2953872Y2299975D02*
X2913885D01*
Y2269985D01*
X2933879Y2279981D01*
X2943876D01*
X2953872Y2269985D01*
Y2249991D01*
X2943876Y2239994D01*
X2923882D01*
X2913885Y2249991D01*
X4039911Y2288978D02*
X4029914Y2298975D01*
X4009921D01*
X3999924Y2288978D01*
Y2248991D01*
X4009921Y2238994D01*
X4029914D01*
X4039911Y2248991D01*
X4099892Y2238994D02*
X4059905D01*
X4099892Y2278981D01*
Y2288978D01*
X4089895Y2298975D01*
X4069902D01*
X4059905Y2288978D01*
X4149876Y2238994D02*
Y2298975D01*
X4119885Y2268985D01*
X4159873D01*
X3940911Y2274978D02*
X3930914Y2284975D01*
X3910921D01*
X3900924Y2274978D01*
Y2234991D01*
X3910921Y2224994D01*
X3930914D01*
X3940911Y2234991D01*
X4000892Y2224994D02*
X3960905D01*
X4000892Y2264981D01*
Y2274978D01*
X3990895Y2284975D01*
X3970902D01*
X3960905Y2274978D01*
X4020885D02*
X4030882Y2284975D01*
X4050876D01*
X4060872Y2274978D01*
Y2264981D01*
X4050876Y2254985D01*
X4040879D01*
X4050876D01*
X4060872Y2244988D01*
Y2234991D01*
X4050876Y2224994D01*
X4030882D01*
X4020885Y2234991D01*
X2360911Y1888978D02*
X2350914Y1898975D01*
X2330921D01*
X2320924Y1888978D01*
Y1848991D01*
X2330921Y1838994D01*
X2350914D01*
X2360911Y1848991D01*
X2420892Y1838994D02*
X2380905D01*
X2420892Y1878981D01*
Y1888978D01*
X2410895Y1898975D01*
X2390902D01*
X2380905Y1888978D01*
X2480872Y1838994D02*
X2440885D01*
X2480872Y1878981D01*
Y1888978D01*
X2470876Y1898975D01*
X2450882D01*
X2440885Y1888978D01*
X2583911Y1878978D02*
X2573914Y1888975D01*
X2553921D01*
X2543924Y1878978D01*
Y1838991D01*
X2553921Y1828994D01*
X2573914D01*
X2583911Y1838991D01*
X2643892Y1828994D02*
X2603905D01*
X2643892Y1868981D01*
Y1878978D01*
X2633895Y1888975D01*
X2613902D01*
X2603905Y1878978D01*
X2663885Y1828994D02*
X2683879D01*
X2673882D01*
Y1888975D01*
X2663885Y1878978D01*
X3117911Y2792978D02*
X3107914Y2802975D01*
X3087921D01*
X3077924Y2792978D01*
Y2752991D01*
X3087921Y2742994D01*
X3107914D01*
X3117911Y2752991D01*
X3177892Y2742994D02*
X3137905D01*
X3177892Y2782981D01*
Y2792978D01*
X3167895Y2802975D01*
X3147902D01*
X3137905Y2792978D01*
X3197885D02*
X3207882Y2802975D01*
X3227876D01*
X3237872Y2792978D01*
Y2752991D01*
X3227876Y2742994D01*
X3207882D01*
X3197885Y2752991D01*
Y2792978D01*
X3090911Y2686978D02*
X3080914Y2696975D01*
X3060921D01*
X3050924Y2686978D01*
Y2646991D01*
X3060921Y2636994D01*
X3080914D01*
X3090911Y2646991D01*
X3110905Y2636994D02*
X3130898D01*
X3120902D01*
Y2696975D01*
X3110905Y2686978D01*
X3160889Y2646991D02*
X3170885Y2636994D01*
X3190879D01*
X3200876Y2646991D01*
Y2686978D01*
X3190879Y2696975D01*
X3170885D01*
X3160889Y2686978D01*
Y2676981D01*
X3170885Y2666985D01*
X3200876D01*
X2506911Y2313978D02*
X2496914Y2323975D01*
X2476921D01*
X2466924Y2313978D01*
Y2273991D01*
X2476921Y2263994D01*
X2496914D01*
X2506911Y2273991D01*
X2526905Y2263994D02*
X2546898D01*
X2536902D01*
Y2323975D01*
X2526905Y2313978D01*
X2576889D02*
X2586885Y2323975D01*
X2606879D01*
X2616876Y2313978D01*
Y2303981D01*
X2606879Y2293985D01*
X2616876Y2283988D01*
Y2273991D01*
X2606879Y2263994D01*
X2586885D01*
X2576889Y2273991D01*
Y2283988D01*
X2586885Y2293985D01*
X2576889Y2303981D01*
Y2313978D01*
X2586885Y2293985D02*
X2606879D01*
X2298911Y2327978D02*
X2288914Y2337975D01*
X2268921D01*
X2258924Y2327978D01*
Y2287991D01*
X2268921Y2277994D01*
X2288914D01*
X2298911Y2287991D01*
X2318905Y2277994D02*
X2338898D01*
X2328902D01*
Y2337975D01*
X2318905Y2327978D01*
X2368889Y2337975D02*
X2408876D01*
Y2327978D01*
X2368889Y2287991D01*
Y2277994D01*
X3572911Y1388978D02*
X3562914Y1398975D01*
X3542921D01*
X3532924Y1388978D01*
Y1348991D01*
X3542921Y1338994D01*
X3562914D01*
X3572911Y1348991D01*
X3592905Y1338994D02*
X3612898D01*
X3602902D01*
Y1398975D01*
X3592905Y1388978D01*
X3682876Y1398975D02*
X3662882Y1388978D01*
X3642889Y1368985D01*
Y1348991D01*
X3652885Y1338994D01*
X3672879D01*
X3682876Y1348991D01*
Y1358988D01*
X3672879Y1368985D01*
X3642889D01*
X4570911Y1359978D02*
X4560914Y1369975D01*
X4540921D01*
X4530924Y1359978D01*
Y1319991D01*
X4540921Y1309994D01*
X4560914D01*
X4570911Y1319991D01*
X4590905Y1309994D02*
X4610898D01*
X4600902D01*
Y1369975D01*
X4590905Y1359978D01*
X4680876Y1369975D02*
X4640889D01*
Y1339985D01*
X4660882Y1349981D01*
X4670879D01*
X4680876Y1339985D01*
Y1319991D01*
X4670879Y1309994D01*
X4650885D01*
X4640889Y1319991D01*
X6199588Y2034857D02*
X6189591Y2044854D01*
X6169598D01*
X6159601Y2034857D01*
Y1994870D01*
X6169598Y1984873D01*
X6189591D01*
X6199588Y1994870D01*
X6219581Y1984873D02*
X6239575D01*
X6229578D01*
Y2044854D01*
X6219581Y2034857D01*
X6299556Y1984873D02*
Y2044854D01*
X6269565Y2014864D01*
X6309552D01*
X6451626Y2255969D02*
X6441629Y2265966D01*
X6421636D01*
X6411639Y2255969D01*
Y2215982D01*
X6421636Y2205985D01*
X6441629D01*
X6451626Y2215982D01*
X6471620Y2205985D02*
X6491613D01*
X6481617D01*
Y2265966D01*
X6471620Y2255969D01*
X6521604D02*
X6531600Y2265966D01*
X6551594D01*
X6561591Y2255969D01*
Y2245972D01*
X6551594Y2235975D01*
X6541597D01*
X6551594D01*
X6561591Y2225979D01*
Y2215982D01*
X6551594Y2205985D01*
X6531600D01*
X6521604Y2215982D01*
X7386911Y1288978D02*
X7376914Y1298975D01*
X7356921D01*
X7346924Y1288978D01*
Y1248991D01*
X7356921Y1238994D01*
X7376914D01*
X7386911Y1248991D01*
X7406905Y1238994D02*
X7426898D01*
X7416902D01*
Y1298975D01*
X7406905Y1288978D01*
X7496876Y1238994D02*
X7456889D01*
X7496876Y1278981D01*
Y1288978D01*
X7486879Y1298975D01*
X7466885D01*
X7456889Y1288978D01*
X6394911Y1231978D02*
X6384914Y1241975D01*
X6364921D01*
X6354924Y1231978D01*
Y1191991D01*
X6364921Y1181994D01*
X6384914D01*
X6394911Y1191991D01*
X6414905Y1181994D02*
X6434898D01*
X6424902D01*
Y1241975D01*
X6414905Y1231978D01*
X6464889Y1181994D02*
X6484882D01*
X6474885D01*
Y1241975D01*
X6464889Y1231978D01*
X7314911Y226978D02*
X7304914Y236975D01*
X7284921D01*
X7274924Y226978D01*
Y186991D01*
X7284921Y176994D01*
X7304914D01*
X7314911Y186991D01*
X7334905Y176994D02*
X7354898D01*
X7344902D01*
Y236975D01*
X7334905Y226978D01*
X7384889D02*
X7394885Y236975D01*
X7414879D01*
X7424876Y226978D01*
Y186991D01*
X7414879Y176994D01*
X7394885D01*
X7384889Y186991D01*
Y226978D01*
X7631911Y2035978D02*
X7621914Y2045975D01*
X7601921D01*
X7591924Y2035978D01*
Y1995991D01*
X7601921Y1985994D01*
X7621914D01*
X7631911Y1995991D01*
X7651905D02*
X7661902Y1985994D01*
X7681895D01*
X7691892Y1995991D01*
Y2035978D01*
X7681895Y2045975D01*
X7661902D01*
X7651905Y2035978D01*
Y2025981D01*
X7661902Y2015985D01*
X7691892D01*
X2518911Y1372978D02*
X2508914Y1382975D01*
X2488921D01*
X2478924Y1372978D01*
Y1332991D01*
X2488921Y1322994D01*
X2508914D01*
X2518911Y1332991D01*
X2538905Y1372978D02*
X2548902Y1382975D01*
X2568895D01*
X2578892Y1372978D01*
Y1362981D01*
X2568895Y1352985D01*
X2578892Y1342988D01*
Y1332991D01*
X2568895Y1322994D01*
X2548902D01*
X2538905Y1332991D01*
Y1342988D01*
X2548902Y1352985D01*
X2538905Y1362981D01*
Y1372978D01*
X2548902Y1352985D02*
X2568895D01*
X1609911Y1279978D02*
X1599915Y1289975D01*
X1579921D01*
X1569924Y1279978D01*
Y1239991D01*
X1579921Y1229994D01*
X1599915D01*
X1609911Y1239991D01*
X1629905Y1289975D02*
X1669892D01*
Y1279978D01*
X1629905Y1239991D01*
Y1229994D01*
X5988849Y2245534D02*
X5978852Y2255531D01*
X5958859D01*
X5948862Y2245534D01*
Y2205547D01*
X5958859Y2195550D01*
X5978852D01*
X5988849Y2205547D01*
X6048829Y2255531D02*
X6028836Y2245534D01*
X6008842Y2225541D01*
Y2205547D01*
X6018839Y2195550D01*
X6038833D01*
X6048829Y2205547D01*
Y2215544D01*
X6038833Y2225541D01*
X6008842D01*
X5734827Y1994964D02*
X5724830Y2004961D01*
X5704837D01*
X5694840Y1994964D01*
Y1954977D01*
X5704837Y1944980D01*
X5724830D01*
X5734827Y1954977D01*
X5794808Y2004961D02*
X5754821D01*
Y1974971D01*
X5774814Y1984967D01*
X5784811D01*
X5794808Y1974971D01*
Y1954977D01*
X5784811Y1944980D01*
X5764817D01*
X5754821Y1954977D01*
X6915277Y2255965D02*
X6905280Y2265962D01*
X6885286D01*
X6875289Y2255965D01*
Y2215978D01*
X6885286Y2205981D01*
X6905280D01*
X6915277Y2215978D01*
X6965260Y2205981D02*
Y2265962D01*
X6935270Y2235972D01*
X6975257D01*
X5525911Y2243978D02*
X5515914Y2253975D01*
X5495921D01*
X5485924Y2243978D01*
Y2203991D01*
X5495921Y2193994D01*
X5515914D01*
X5525911Y2203991D01*
X5545905Y2243978D02*
X5555902Y2253975D01*
X5575895D01*
X5585892Y2243978D01*
Y2233981D01*
X5575895Y2223985D01*
X5565898D01*
X5575895D01*
X5585892Y2213988D01*
Y2203991D01*
X5575895Y2193994D01*
X5555902D01*
X5545905Y2203991D01*
X4935911Y2148978D02*
X4925914Y2158975D01*
X4905921D01*
X4895924Y2148978D01*
Y2108991D01*
X4905921Y2098994D01*
X4925914D01*
X4935911Y2108991D01*
X4995892Y2098994D02*
X4955905D01*
X4995892Y2138981D01*
Y2148978D01*
X4985895Y2158975D01*
X4965902D01*
X4955905Y2148978D01*
X5650911Y1108978D02*
X5640914Y1118975D01*
X5620921D01*
X5610924Y1108978D01*
Y1068991D01*
X5620921Y1058994D01*
X5640914D01*
X5650911Y1068991D01*
X5670905Y1058994D02*
X5690898D01*
X5680902D01*
Y1118975D01*
X5670905Y1108978D01*
D70*
X3078702Y1574821D02*
G03*
X3078702Y1574821I-5000J0D01*
G01*
X3111892Y1634820D02*
X3135702D01*
X3084332Y1585214D02*
Y1634820D01*
X3163702Y1585214D02*
Y1634820D01*
X1839538Y1489820D02*
X1902532D01*
X1839538D02*
Y1519348D01*
X1839540Y1663048D02*
X1902532D01*
X1839538Y1633522D02*
Y1663048D01*
X1902532Y1489820D02*
Y1519348D01*
Y1633522D02*
Y1663048D01*
X1829696Y1519348D02*
X1839538D01*
X1902532D02*
X1912374D01*
X1829696Y1633522D02*
X1839538D01*
X1902532D02*
X1912374D01*
X1829696Y1519348D02*
Y1633522D01*
X1912374Y1519348D02*
Y1633522D01*
X2047464Y1489820D02*
X2110456D01*
X2047464D02*
Y1519348D01*
Y1663048D02*
X2110456D01*
X2047464Y1633522D02*
Y1663048D01*
X2110456Y1489820D02*
Y1519348D01*
Y1633522D02*
Y1663048D01*
X2037622Y1519348D02*
X2047464D01*
X2110456D02*
X2120300D01*
X2037622Y1633522D02*
X2047464D01*
X2110456D02*
X2120300D01*
X2037622Y1519348D02*
Y1633522D01*
X2120300Y1519348D02*
Y1633522D01*
X1631614Y1489820D02*
X1694606D01*
X1631614D02*
Y1519348D01*
Y1663048D02*
X1694606D01*
X1631614Y1633522D02*
Y1663048D01*
X1694606Y1489820D02*
Y1519348D01*
Y1633522D02*
Y1663048D01*
X1621770Y1519348D02*
X1631614D01*
X1694606D02*
X1704448D01*
X1621770Y1633522D02*
X1631614D01*
X1694606D02*
X1704448D01*
X1621770Y1519348D02*
Y1633522D01*
X1704448Y1519348D02*
Y1633522D01*
X1859110Y1784990D02*
X1922102D01*
X1859110D02*
Y1814518D01*
Y1958218D02*
X1922102D01*
X1859110Y1928690D02*
Y1958218D01*
X1922102Y1784990D02*
Y1814518D01*
Y1928690D02*
Y1958218D01*
X1849268Y1814518D02*
X1859110D01*
X1922102D02*
X1931944D01*
X1849268Y1928690D02*
X1859110D01*
X1922102D02*
X1931944D01*
X1849268Y1814518D02*
Y1928690D01*
X1931944Y1814518D02*
Y1928690D01*
X1415102Y1784990D02*
X1478094D01*
X1415102D02*
Y1814518D01*
Y1958218D02*
X1478094D01*
X1415102Y1928690D02*
Y1958218D01*
X1478094Y1784990D02*
Y1814518D01*
Y1928690D02*
Y1958218D01*
X1405258Y1814518D02*
X1415102D01*
X1478094D02*
X1487936D01*
X1405258Y1928690D02*
X1415102D01*
X1478094D02*
X1487936D01*
X1405258Y1814518D02*
Y1928690D01*
X1487936Y1814518D02*
Y1928690D01*
X1423688Y1489820D02*
X1486680D01*
X1423688D02*
Y1519348D01*
Y1663048D02*
X1486680D01*
X1423688Y1633522D02*
Y1663048D01*
X1486680Y1489820D02*
Y1519348D01*
Y1633522D02*
Y1663048D01*
X1413846Y1519348D02*
X1423688D01*
X1486680D02*
X1496522D01*
X1413846Y1633522D02*
X1423688D01*
X1486680D02*
X1496522D01*
X1413846Y1519348D02*
Y1633522D01*
X1496522Y1519348D02*
Y1633522D01*
X1637106Y1784990D02*
X1700098D01*
X1637106D02*
Y1814518D01*
Y1958218D02*
X1700098D01*
X1637106Y1928690D02*
Y1958218D01*
X1700098Y1784990D02*
Y1814518D01*
Y1928690D02*
Y1958218D01*
X1627262Y1814518D02*
X1637106D01*
X1700098D02*
X1709940D01*
X1627262Y1928690D02*
X1637106D01*
X1700098D02*
X1709940D01*
X1627262Y1814518D02*
Y1928690D01*
X1709940Y1814518D02*
Y1928690D01*
X2081114Y1958218D02*
X2144106D01*
Y1928690D02*
Y1958218D01*
X2081114Y1784990D02*
X2144106D01*
Y1814518D01*
X2081114Y1928690D02*
Y1958218D01*
Y1784990D02*
Y1814518D01*
X2144106Y1928690D02*
X2153948D01*
X2071272D02*
X2081114D01*
X2144106Y1814518D02*
X2153948D01*
X2071272Y1814516D02*
X2081114D01*
X2153948Y1814518D02*
Y1928690D01*
X2071272Y1814518D02*
Y1928690D01*
D71*
X5647835Y1916496D02*
G03*
X5647835Y1916496I-11811J0D01*
G01*
X1703189Y2961024D02*
G03*
X1703189Y2961024I-11811J0D01*
G01*
X2455519Y1964638D02*
G03*
X2455519Y1964638I-11811J0D01*
G01*
X2450735Y1684155D02*
G03*
X2450735Y1684155I-11811J0D01*
G01*
X4106942Y1939125D02*
G03*
X4106942Y1939125I-11811J0D01*
G01*
X1660787Y2545315D02*
G03*
X1660787Y2545315I-11811J0D01*
G01*
X2975118Y1964638D02*
G03*
X2975118Y1964638I-11811J0D01*
G01*
X6592701Y2228976D02*
G03*
X6592701Y2228976I-11811J0D01*
G01*
X6129441D02*
G03*
X6129441Y2228976I-11811J0D01*
G01*
X5595315Y2331338D02*
G03*
X5595315Y2331338I-11811J0D01*
G01*
X6162616Y1077023D02*
G03*
X6162616Y1077023I-11811J0D01*
G01*
X1370315Y1056024D02*
G03*
X1370315Y1056024I-11811J0D01*
G01*
X2379570Y1107256D02*
G03*
X2379570Y1107256I-11811J0D01*
G01*
X3440701Y1092165D02*
G03*
X3440701Y1092165I-11811J0D01*
G01*
X4405737Y1065170D02*
G03*
X4405737Y1065170I-11811J0D01*
G01*
X6082835Y1899685D02*
G03*
X6082835Y1899685I-11811J0D01*
G01*
X5602402Y1072102D02*
G03*
X5602402Y1072102I-11811J0D01*
G01*
D72*
X5698032Y1996220D02*
G03*
X5698032Y1996220I-4921J0D01*
G01*
X1607717Y3005315D02*
G03*
X1607717Y3005315I-4921J0D01*
G01*
X2543118Y1907551D02*
G03*
X2543118Y1907551I-4921J0D01*
G01*
X3755184Y3053794D02*
G03*
X3755184Y3053794I-4921J0D01*
G01*
X3352341Y2684388D02*
G03*
X3352341Y2684388I-4921J0D01*
G01*
X2355263Y1728446D02*
G03*
X2355263Y1728446I-4921J0D01*
G01*
X2918969Y1647514D02*
G03*
X2918969Y1647514I-4921J0D01*
G01*
X4179777Y1894637D02*
G03*
X4179777Y1894637I-4921J0D01*
G01*
X2727753Y2865549D02*
G03*
X2727753Y2865549I-4921J0D01*
G01*
X1596811Y2450827D02*
G03*
X1596811Y2450827I-4921J0D01*
G01*
X3062716Y1907551D02*
G03*
X3062716Y1907551I-4921J0D01*
G01*
X6674394Y2171890D02*
G03*
X6674394Y2171890I-4921J0D01*
G01*
X6211134D02*
G03*
X6211134Y2171890I-4921J0D01*
G01*
X5508701Y2388425D02*
G03*
X5508701Y2388425I-4921J0D01*
G01*
X6244309Y1019937D02*
G03*
X6244309Y1019937I-4921J0D01*
G01*
X1283701Y1113110D02*
G03*
X1283701Y1113110I-4921J0D01*
G01*
X2292955Y1164342D02*
G03*
X2292955Y1164342I-4921J0D01*
G01*
X3354087Y1149251D02*
G03*
X3354087Y1149251I-4921J0D01*
G01*
X4319123Y1122257D02*
G03*
X4319123Y1122257I-4921J0D01*
G01*
X6133032Y1994173D02*
G03*
X6133032Y1994173I-4921J0D01*
G01*
X5690000Y1015015D02*
G03*
X5690000Y1015015I-4921J0D01*
G01*
D73*
X2200816Y2744855D02*
G03*
X2200816Y2744855I-10000J0D01*
G01*
X2539324Y2746469D02*
G03*
X2539324Y2746469I-10000J0D01*
G01*
X2215816Y2679854D02*
Y2769854D01*
X2095816D02*
X2215816D01*
X2095816Y2679854D02*
Y2769854D01*
Y2679854D02*
X2215816D01*
X2434324Y2681468D02*
X2554324D01*
X2434324D02*
Y2771468D01*
X2554324D01*
Y2681468D02*
Y2771468D01*
D74*
X7016161Y2192067D02*
G03*
X7003366Y2192067I-6398J0D01*
G01*
X3601150Y2662477D02*
G03*
X3651150Y2662477I25000J0D01*
G01*
X7390291Y1474189D02*
G03*
X7390291Y1424189I0J-25000D01*
G01*
X5474606Y1814134D02*
Y1955866D01*
X5675394Y1814134D02*
Y1955866D01*
X5474606Y1814134D02*
X5675394D01*
X5474606Y1955866D02*
X5675394D01*
X1652008Y2799606D02*
Y3000394D01*
X1777992Y2799606D02*
Y3000394D01*
X1652008D02*
X1777992D01*
X1652008Y2799606D02*
X1777992D01*
X2364968Y2126054D02*
X2483078D01*
X2364968Y1925268D02*
X2483078D01*
X2364968D02*
Y2126054D01*
X2483078Y1925268D02*
Y2126054D01*
X3541404Y2988834D02*
X3738254D01*
X3541404Y2925842D02*
X3738254D01*
Y2988834D01*
X3541404Y2925842D02*
Y2988834D01*
X3138560Y2619426D02*
X3335412D01*
X3138560Y2556434D02*
X3335412D01*
Y2619426D01*
X3138560Y2556434D02*
Y2619426D01*
X2399554Y1522736D02*
Y1723524D01*
X2525538Y1522736D02*
Y1723524D01*
X2399554D02*
X2525538D01*
X2399554Y1522736D02*
X2525538D01*
X2902236Y1598300D02*
Y1621922D01*
X2815622Y1598300D02*
Y1621922D01*
X2902236D01*
X2815622Y1598300D02*
X2902236D01*
X7016162Y2192066D02*
X7055630D01*
X6963898D02*
X7003366D01*
X6963898D02*
Y2371200D01*
X7055630D01*
Y2192066D02*
Y2371200D01*
X3987060Y2100542D02*
X4134304D01*
X3987060Y1899756D02*
Y2100542D01*
X4134304Y1899756D02*
Y2100542D01*
X3987060Y1899756D02*
X4134304D01*
X2787792Y2656690D02*
Y2853540D01*
X2850784Y2656690D02*
Y2853540D01*
X2787792D02*
X2850784D01*
X2787792Y2656690D02*
X2850784D01*
X1810394Y2505944D02*
Y2624054D01*
X1609606Y2505944D02*
Y2624054D01*
X1810394D01*
X1609606Y2505944D02*
X1810394D01*
X2884566Y2126054D02*
X3002676D01*
X2884566Y1925268D02*
X3002676D01*
X2884566D02*
Y2126054D01*
X3002676Y1925268D02*
Y2126054D01*
X3536150Y2662476D02*
X3601150D01*
X3651150D02*
X3716150D01*
X3536150Y1851452D02*
X3716150D01*
X3536150D02*
Y2662476D01*
X3716150Y1851452D02*
Y2662476D01*
X6620260Y2189606D02*
Y2390394D01*
X6494276Y2189606D02*
Y2390394D01*
Y2189606D02*
X6620260D01*
X6494276Y2390394D02*
X6620260D01*
X6157000Y2189606D02*
Y2390394D01*
X6031016Y2189606D02*
Y2390394D01*
Y2189606D02*
X6157000D01*
X6031016Y2390394D02*
X6157000D01*
X5544134Y2169920D02*
Y2370708D01*
X5685866Y2169920D02*
Y2370708D01*
X5544134D02*
X5685866D01*
X5544134Y2169920D02*
X5685866D01*
X6190176Y1037654D02*
Y1238440D01*
X6064192Y1037654D02*
Y1238440D01*
Y1037654D02*
X6190176D01*
X6064192Y1238440D02*
X6190176D01*
X1319134Y894606D02*
Y1095394D01*
X1460866Y894606D02*
Y1095394D01*
X1319134D02*
X1460866D01*
X1319134Y894606D02*
X1460866D01*
X2328388Y945838D02*
Y1146626D01*
X2470120Y945838D02*
Y1146626D01*
X2328388D02*
X2470120D01*
X2328388Y945838D02*
X2470120D01*
X3389520Y930748D02*
Y1131534D01*
X3531252Y930748D02*
Y1131534D01*
X3389520D02*
X3531252D01*
X3389520Y930748D02*
X3531252D01*
X4354556Y903754D02*
Y1104540D01*
X4496288Y903754D02*
Y1104540D01*
X4354556D02*
X4496288D01*
X4354556Y903754D02*
X4496288D01*
X6614700Y1553520D02*
X7390292D01*
X6614700Y1344858D02*
X7390292D01*
Y1474190D02*
Y1553520D01*
Y1344858D02*
Y1424190D01*
X6614700Y1344858D02*
Y1553520D01*
X5909606Y1820944D02*
Y1939054D01*
X6110394Y1820944D02*
Y1939054D01*
X5909606Y1820944D02*
X6110394D01*
X5909606Y1939054D02*
X6110394D01*
X5511850Y1233520D02*
X5629960D01*
X5511850Y1032732D02*
X5629960D01*
X5511850D02*
Y1233520D01*
X5629960Y1032732D02*
Y1233520D01*
X7351426Y331054D02*
X7370986D01*
X7229316D02*
X7266600D01*
X7693882D02*
Y598770D01*
X7229316Y331054D02*
Y598770D01*
X7452426Y331054D02*
X7471986D01*
X7552426D02*
X7571986D01*
X7551426Y599054D02*
X7570986D01*
X7451426D02*
X7470986D01*
X7352426D02*
X7371986D01*
X7230316D02*
X7267600D01*
X7656316D02*
X7693600D01*
X7656316Y331054D02*
X7693600D01*
D75*
X7264749Y283809D02*
G03*
X7264749Y283809I-7874J0D01*
G01*
D76*
X2230816Y2809854D02*
D03*
D77*
X2569324Y2811468D02*
D03*
D78*
X3408504Y2868347D02*
X3471496D01*
X2336298Y2664658D02*
X2399290D01*
X2349754Y2181102D02*
Y2244094D01*
X2368378Y1741854D02*
Y1804848D01*
X2902114Y2504634D02*
Y2567626D01*
X2984458Y2175760D02*
Y2238752D01*
X3044852Y2549630D02*
X3107844D01*
X1939276Y2341394D02*
Y2404386D01*
X4047250Y2141816D02*
Y2204810D01*
X1668346Y2303504D02*
Y2366496D01*
X2702134Y1695124D02*
X2765126D01*
X2983504Y1688346D02*
X3046496D01*
X1018734Y1226090D02*
Y1264090D01*
X944734Y1226090D02*
X1018734D01*
X944734Y1264090D02*
X1018734D01*
X944734Y1226090D02*
Y1264090D01*
X3503958Y1655618D02*
Y1718610D01*
X3446240Y3083192D02*
X3484240D01*
Y3009192D02*
Y3083192D01*
X3446240Y3009192D02*
Y3083192D01*
Y3009192D02*
X3484240D01*
D79*
X4870402Y302392D02*
X4886150Y318140D01*
Y286644D02*
Y318140D01*
Y302392D02*
X4901898D01*
X4870402D02*
X4886150Y286644D01*
X4870402D02*
Y318140D01*
Y278770D02*
X4901898D01*
X4870402Y326014D02*
X4901898D01*
X5186974Y302392D02*
X5202722Y318140D01*
Y286644D02*
Y318140D01*
Y302392D02*
X5218470D01*
X5186974D02*
X5202722Y286644D01*
X5186974D02*
Y318140D01*
Y278770D02*
X5218470D01*
X5186974Y326014D02*
X5218470D01*
X5503548Y302392D02*
X5519296Y318140D01*
Y286644D02*
Y318140D01*
Y302392D02*
X5535044D01*
X5503548D02*
X5519296Y286644D01*
X5503548D02*
Y318140D01*
Y278770D02*
X5535044D01*
X5503548Y326014D02*
X5535044D01*
X5820120Y302392D02*
X5835868Y318140D01*
Y286644D02*
Y318140D01*
Y302392D02*
X5851616D01*
X5820120D02*
X5835868Y286644D01*
X5820120D02*
Y318140D01*
Y278770D02*
X5851616D01*
X5820120Y326014D02*
X5851616D01*
X6136692Y302392D02*
X6152440Y318140D01*
Y286644D02*
Y318140D01*
Y302392D02*
X6168188D01*
X6136692D02*
X6152440Y286644D01*
X6136692D02*
Y318140D01*
Y278770D02*
X6168188D01*
X6136692Y326014D02*
X6168188D01*
X6453264Y302392D02*
X6469012Y318140D01*
Y286644D02*
Y318140D01*
Y302392D02*
X6484760D01*
X6453264D02*
X6469012Y286644D01*
X6453264D02*
Y318140D01*
Y278770D02*
X6484760D01*
X6453264Y326014D02*
X6484760D01*
X6772930Y302392D02*
X6788678Y318140D01*
Y286644D02*
Y318140D01*
Y302392D02*
X6804426D01*
X6772930D02*
X6788678Y286644D01*
X6772930D02*
Y318140D01*
X6772182Y257392D02*
X6803678D01*
X6773678Y347392D02*
X6805174D01*
X7089502Y302392D02*
X7105250Y318140D01*
Y286644D02*
Y318140D01*
Y302392D02*
X7120998D01*
X7089502D02*
X7105250Y286644D01*
X7089502D02*
Y318140D01*
X7088754Y257392D02*
X7120250D01*
X7090250Y347392D02*
X7121746D01*
%TF.MD5,716c6db28ab76993e67efa7e34df1d5d*%
M02*
