%TF.GenerationSoftware,Altium Limited,DefaultClient, ()*%
G04 Layer_Physical_Order=3*
G04 Layer_Color=16440176*
G04 Board_Origin=10000758|10000058*
%FSLAX26Y26*%
%MOIN*%
%TF.SameCoordinates,25D2ED89-9C84-4B78-AC60-275F8E3A73DB*%
%TF.FilePolarity,Positive*%
%TF.FileFunction,Copper,L3,Inr,Signal*%
%TF.Part,Single*%
G01*
G75*
%TA.AperFunction,Conductor*%
%ADD10C,0.010000*%
%ADD57C,0.030000*%
%TA.AperFunction,ComponentPad*%
%ADD61C,0.060000*%
%ADD62R,0.060000X0.060000*%
%ADD63R,0.100000X0.050000*%
%ADD64O,0.100000X0.050000*%
%ADD65C,0.039370*%
%ADD66R,0.039370X0.039370*%
%ADD67R,0.059055X0.059055*%
%ADD68C,0.059055*%
%TA.AperFunction,ViaPad*%
%ADD69C,0.050000*%
G36*
X5676922Y3098078D02*
Y1094740D01*
X3240260D01*
X3225000Y1110000D01*
Y1458125D01*
X3229924Y1458308D01*
X3231832Y1451187D01*
X3235519Y1444802D01*
X3240732Y1439589D01*
X3247117Y1435902D01*
X3254238Y1433994D01*
X3261610D01*
X3268732Y1435902D01*
X3275117Y1439589D01*
X3280330Y1444802D01*
X3284016Y1451187D01*
X3285924Y1458308D01*
Y1465680D01*
X3284016Y1472802D01*
X3282644Y1475178D01*
X3582692Y1775226D01*
X3582692Y1775226D01*
X3584460Y1777873D01*
X3585081Y1780994D01*
Y2340586D01*
X3643303Y2398807D01*
X3724222D01*
X3726692Y2392843D01*
X3731180Y2386994D01*
X3737029Y2382506D01*
X3743841Y2379685D01*
X3751150Y2378723D01*
X3801150D01*
X3808460Y2379685D01*
X3815271Y2382506D01*
X3821120Y2386994D01*
X3825608Y2392843D01*
X3828430Y2399655D01*
X3829392Y2406964D01*
X3828430Y2414274D01*
X3825608Y2421085D01*
X3821120Y2426934D01*
X3815271Y2431422D01*
X3808460Y2434244D01*
X3801150Y2435206D01*
X3751150D01*
X3743841Y2434244D01*
X3737029Y2431422D01*
X3731180Y2426934D01*
X3726692Y2421085D01*
X3724222Y2415121D01*
X3639925D01*
X3639924Y2415121D01*
X3636803Y2414500D01*
X3634157Y2412732D01*
X3634156Y2412732D01*
X3571157Y2349732D01*
X3569388Y2347086D01*
X3568767Y2343964D01*
X3568767Y2343964D01*
Y1784373D01*
X3271108Y1486714D01*
X3268732Y1488086D01*
X3261610Y1489994D01*
X3254238D01*
X3247117Y1488086D01*
X3240732Y1484400D01*
X3235519Y1479187D01*
X3231832Y1472802D01*
X3229924Y1465681D01*
X3225000Y1465864D01*
Y3100000D01*
X3286637Y3100126D01*
X3287300Y3095127D01*
X3283485Y3094105D01*
X3275504Y3089497D01*
X3268987Y3082981D01*
X3264379Y3075000D01*
X3262099Y3066490D01*
X3296994D01*
Y3061490D01*
X3301994D01*
Y3026595D01*
X3310504Y3028875D01*
X3318485Y3033483D01*
X3322000Y3036999D01*
X3324170Y3036702D01*
X3327293Y3035220D01*
X3328908Y3029193D01*
X3332595Y3022808D01*
X3337808Y3017595D01*
X3344193Y3013908D01*
X3346843Y3013198D01*
Y2874575D01*
X3346843Y2874574D01*
X3347464Y2871453D01*
X3349233Y2868807D01*
X3374205Y2843834D01*
X3372832Y2841458D01*
X3370924Y2834336D01*
Y2826964D01*
X3372832Y2819843D01*
X3376519Y2813458D01*
X3381732Y2808245D01*
X3388117Y2804558D01*
X3395238Y2802650D01*
X3402610D01*
X3409732Y2804558D01*
X3416117Y2808245D01*
X3421330Y2813458D01*
X3425016Y2819843D01*
X3426924Y2826964D01*
Y2834336D01*
X3425016Y2841458D01*
X3421330Y2847843D01*
X3416117Y2853056D01*
X3409732Y2856742D01*
X3402610Y2858650D01*
X3395238D01*
X3388117Y2856742D01*
X3385740Y2855370D01*
X3363157Y2877953D01*
Y3013198D01*
X3365808Y3013908D01*
X3372193Y3017595D01*
X3377406Y3022808D01*
X3381092Y3029193D01*
X3383000Y3036314D01*
Y3043686D01*
X3381092Y3050808D01*
X3377406Y3057193D01*
X3372193Y3062406D01*
X3365808Y3066092D01*
X3358686Y3068000D01*
X3351314D01*
X3344193Y3066092D01*
X3337808Y3062406D01*
X3336994Y3061592D01*
X3331994Y3063663D01*
Y3066098D01*
X3329609Y3075000D01*
X3325001Y3082981D01*
X3318485Y3089497D01*
X3310504Y3094105D01*
X3306541Y3095167D01*
X3307195Y3100168D01*
X5670000Y3105000D01*
X5676922Y3098078D01*
D02*
G37*
G36*
X935000Y3115000D02*
X1058404D01*
X1061448Y3111033D01*
X1061178Y3110027D01*
Y3101338D01*
X1063427Y3092945D01*
X1067772Y3085420D01*
X1073916Y3079276D01*
X1081441Y3074931D01*
X1089834Y3072682D01*
X1098523D01*
X1106916Y3074931D01*
X1114441Y3079276D01*
X1120585Y3085420D01*
X1124929Y3092945D01*
X1127178Y3101338D01*
Y3110027D01*
X1126909Y3111033D01*
X1129952Y3115000D01*
X1158404D01*
X1161448Y3111033D01*
X1161178Y3110027D01*
Y3101338D01*
X1163427Y3092945D01*
X1167772Y3085420D01*
X1173916Y3079276D01*
X1181441Y3074931D01*
X1189834Y3072682D01*
X1198523D01*
X1206916Y3074931D01*
X1214441Y3079276D01*
X1220585Y3085420D01*
X1224929Y3092945D01*
X1227178Y3101338D01*
Y3110027D01*
X1226909Y3111033D01*
X1229952Y3115000D01*
X1258404D01*
X1261448Y3111033D01*
X1261178Y3110027D01*
Y3101338D01*
X1263427Y3092945D01*
X1267772Y3085420D01*
X1273916Y3079276D01*
X1281441Y3074931D01*
X1289834Y3072682D01*
X1298523D01*
X1306916Y3074931D01*
X1314441Y3079276D01*
X1320585Y3085420D01*
X1324929Y3092945D01*
X1327178Y3101338D01*
Y3110027D01*
X1326909Y3111033D01*
X1329952Y3115000D01*
X1358404D01*
X1361448Y3111033D01*
X1361178Y3110027D01*
Y3101338D01*
X1363427Y3092945D01*
X1367772Y3085420D01*
X1373916Y3079276D01*
X1381441Y3074931D01*
X1389834Y3072682D01*
X1398523D01*
X1406916Y3074931D01*
X1414441Y3079276D01*
X1420585Y3085420D01*
X1424929Y3092945D01*
X1427178Y3101338D01*
Y3110027D01*
X1426909Y3111033D01*
X1429952Y3115000D01*
X1458404D01*
X1461448Y3111033D01*
X1461178Y3110027D01*
Y3101338D01*
X1463427Y3092945D01*
X1467772Y3085420D01*
X1473916Y3079276D01*
X1481441Y3074931D01*
X1489834Y3072682D01*
X1498523D01*
X1506916Y3074931D01*
X1514441Y3079276D01*
X1520585Y3085420D01*
X1524929Y3092945D01*
X1527178Y3101338D01*
Y3110027D01*
X1526909Y3111033D01*
X1529952Y3115000D01*
X1558404D01*
X1561448Y3111033D01*
X1561178Y3110027D01*
Y3101338D01*
X1563427Y3092945D01*
X1567772Y3085420D01*
X1573916Y3079276D01*
X1581441Y3074931D01*
X1589834Y3072682D01*
X1598523D01*
X1606916Y3074931D01*
X1614441Y3079276D01*
X1620585Y3085420D01*
X1624929Y3092945D01*
X1627178Y3101338D01*
Y3110027D01*
X1626909Y3111033D01*
X1629952Y3115000D01*
X1658404D01*
X1661448Y3111033D01*
X1661178Y3110027D01*
Y3101338D01*
X1663427Y3092945D01*
X1667772Y3085420D01*
X1673916Y3079276D01*
X1681441Y3074931D01*
X1689834Y3072682D01*
X1698523D01*
X1706916Y3074931D01*
X1714441Y3079276D01*
X1720585Y3085420D01*
X1724929Y3092945D01*
X1727178Y3101338D01*
Y3110027D01*
X1726909Y3111033D01*
X1729952Y3115000D01*
X1758404D01*
X1761448Y3111033D01*
X1761178Y3110027D01*
Y3101338D01*
X1763427Y3092945D01*
X1767772Y3085420D01*
X1773916Y3079276D01*
X1781441Y3074931D01*
X1789834Y3072682D01*
X1798523D01*
X1806916Y3074931D01*
X1814441Y3079276D01*
X1820585Y3085420D01*
X1824929Y3092945D01*
X1827178Y3101338D01*
Y3110027D01*
X1826909Y3111033D01*
X1829952Y3115000D01*
X1858404D01*
X1861448Y3111033D01*
X1861178Y3110027D01*
Y3101338D01*
X1863427Y3092945D01*
X1867772Y3085420D01*
X1873916Y3079276D01*
X1881441Y3074931D01*
X1889834Y3072682D01*
X1898523D01*
X1906916Y3074931D01*
X1914441Y3079276D01*
X1920585Y3085420D01*
X1924929Y3092945D01*
X1927178Y3101338D01*
Y3110027D01*
X1926909Y3111033D01*
X1929952Y3115000D01*
X1958404D01*
X1961448Y3111033D01*
X1961178Y3110027D01*
Y3101338D01*
X1963427Y3092945D01*
X1967772Y3085420D01*
X1973916Y3079276D01*
X1981441Y3074931D01*
X1989834Y3072682D01*
X1998523D01*
X2006916Y3074931D01*
X2014441Y3079276D01*
X2020585Y3085420D01*
X2024929Y3092945D01*
X2027178Y3101338D01*
Y3110027D01*
X2026909Y3111033D01*
X2029952Y3115000D01*
X2058404D01*
X2061448Y3111033D01*
X2061178Y3110027D01*
Y3101338D01*
X2063427Y3092945D01*
X2067772Y3085420D01*
X2073916Y3079276D01*
X2081441Y3074931D01*
X2089834Y3072682D01*
X2098523D01*
X2106916Y3074931D01*
X2114441Y3079276D01*
X2120585Y3085420D01*
X2124929Y3092945D01*
X2127178Y3101338D01*
Y3110027D01*
X2126909Y3111033D01*
X2129952Y3115000D01*
X2158404D01*
X2161448Y3111033D01*
X2161178Y3110027D01*
Y3101338D01*
X2163427Y3092945D01*
X2167772Y3085420D01*
X2173916Y3079276D01*
X2181441Y3074931D01*
X2189834Y3072682D01*
X2198523D01*
X2206916Y3074931D01*
X2214441Y3079276D01*
X2220585Y3085420D01*
X2224929Y3092945D01*
X2227178Y3101338D01*
Y3110027D01*
X2226909Y3111033D01*
X2229952Y3115000D01*
X2258404D01*
X2261448Y3111033D01*
X2261178Y3110027D01*
Y3101338D01*
X2263427Y3092945D01*
X2267772Y3085420D01*
X2273916Y3079276D01*
X2281441Y3074931D01*
X2289834Y3072682D01*
X2298523D01*
X2306916Y3074931D01*
X2314441Y3079276D01*
X2320585Y3085420D01*
X2324929Y3092945D01*
X2327178Y3101338D01*
Y3110027D01*
X2326909Y3111033D01*
X2329952Y3115000D01*
X2358404D01*
X2361448Y3111033D01*
X2361178Y3110027D01*
Y3101338D01*
X2363427Y3092945D01*
X2367772Y3085420D01*
X2373916Y3079276D01*
X2381441Y3074931D01*
X2389834Y3072682D01*
X2398523D01*
X2406916Y3074931D01*
X2414441Y3079276D01*
X2420585Y3085420D01*
X2424929Y3092945D01*
X2427178Y3101338D01*
Y3110027D01*
X2426909Y3111033D01*
X2429952Y3115000D01*
X2458404D01*
X2461448Y3111033D01*
X2461178Y3110027D01*
Y3101338D01*
X2463427Y3092945D01*
X2467772Y3085420D01*
X2473916Y3079276D01*
X2481441Y3074931D01*
X2489834Y3072682D01*
X2498523D01*
X2506916Y3074931D01*
X2514441Y3079276D01*
X2520585Y3085420D01*
X2524929Y3092945D01*
X2527178Y3101338D01*
Y3110027D01*
X2526909Y3111033D01*
X2529952Y3115000D01*
X2558404D01*
X2561448Y3111033D01*
X2561178Y3110027D01*
Y3101338D01*
X2563427Y3092945D01*
X2567772Y3085420D01*
X2573916Y3079276D01*
X2581441Y3074931D01*
X2589834Y3072682D01*
X2598523D01*
X2606916Y3074931D01*
X2614441Y3079276D01*
X2620585Y3085420D01*
X2624929Y3092945D01*
X2627178Y3101338D01*
Y3110027D01*
X2626909Y3111033D01*
X2629952Y3115000D01*
X2658404D01*
X2661448Y3111033D01*
X2661178Y3110027D01*
Y3101338D01*
X2663427Y3092945D01*
X2667772Y3085420D01*
X2673916Y3079276D01*
X2681441Y3074931D01*
X2689834Y3072682D01*
X2698523D01*
X2706916Y3074931D01*
X2714441Y3079276D01*
X2720585Y3085420D01*
X2724929Y3092945D01*
X2727178Y3101338D01*
Y3110027D01*
X2726909Y3111033D01*
X2729952Y3115000D01*
X2758404D01*
X2761448Y3111033D01*
X2761178Y3110027D01*
Y3101338D01*
X2763427Y3092945D01*
X2767772Y3085420D01*
X2773916Y3079276D01*
X2781441Y3074931D01*
X2789834Y3072682D01*
X2798523D01*
X2806916Y3074931D01*
X2814441Y3079276D01*
X2820585Y3085420D01*
X2824929Y3092945D01*
X2827178Y3101338D01*
Y3110027D01*
X2826909Y3111033D01*
X2829952Y3115000D01*
X2851157D01*
X2854201Y3111033D01*
X2854178Y3110948D01*
Y3110682D01*
X2934178D01*
Y3110948D01*
X2934155Y3111033D01*
X2937199Y3115000D01*
X2958404D01*
X2961448Y3111033D01*
X2961178Y3110027D01*
Y3101338D01*
X2963427Y3092945D01*
X2967772Y3085420D01*
X2973916Y3079276D01*
X2981441Y3074931D01*
X2989834Y3072682D01*
X2998523D01*
X3006916Y3074931D01*
X3014441Y3079276D01*
X3020585Y3085420D01*
X3024929Y3092945D01*
X3027178Y3101338D01*
Y3110027D01*
X3026909Y3111033D01*
X3029952Y3115000D01*
X3155000D01*
Y1105000D01*
X3135000Y1085000D01*
X3125000Y1095000D01*
X903549D01*
X900026Y1098549D01*
X914952Y3128525D01*
X919579Y3130421D01*
X935000Y3115000D01*
D02*
G37*
G36*
X5785000Y3085000D02*
X5849745D01*
X5851075Y3080035D01*
X5855420Y3072510D01*
X5861564Y3066366D01*
X5869089Y3062021D01*
X5877482Y3059772D01*
X5886171D01*
X5894564Y3062021D01*
X5902089Y3066366D01*
X5908233Y3072510D01*
X5912577Y3080035D01*
X5913908Y3085000D01*
X5928485D01*
X5929815Y3080035D01*
X5934160Y3072510D01*
X5940304Y3066366D01*
X5947829Y3062021D01*
X5956222Y3059772D01*
X5964911D01*
X5973304Y3062021D01*
X5980829Y3066366D01*
X5986973Y3072510D01*
X5991317Y3080035D01*
X5992648Y3085000D01*
X6007225D01*
X6008555Y3080035D01*
X6012900Y3072510D01*
X6019044Y3066366D01*
X6026569Y3062021D01*
X6034962Y3059772D01*
X6043651D01*
X6052044Y3062021D01*
X6059569Y3066366D01*
X6065713Y3072510D01*
X6070057Y3080035D01*
X6071388Y3085000D01*
X6085965D01*
X6087295Y3080035D01*
X6091640Y3072510D01*
X6097784Y3066366D01*
X6105309Y3062021D01*
X6113702Y3059772D01*
X6122391D01*
X6130784Y3062021D01*
X6138309Y3066366D01*
X6144453Y3072510D01*
X6148797Y3080035D01*
X6150128Y3085000D01*
X6164705D01*
X6166035Y3080035D01*
X6170380Y3072510D01*
X6176524Y3066366D01*
X6184049Y3062021D01*
X6192442Y3059772D01*
X6201131D01*
X6209524Y3062021D01*
X6217049Y3066366D01*
X6223193Y3072510D01*
X6227537Y3080035D01*
X6228868Y3085000D01*
X6242526D01*
Y3059772D01*
X6308526D01*
Y3085000D01*
X6745223D01*
X6748348Y3081876D01*
X6755873Y3077531D01*
X6764266Y3075282D01*
X6772955D01*
X6781348Y3077531D01*
X6788873Y3081876D01*
X6791997Y3085000D01*
X6845223D01*
X6848348Y3081876D01*
X6855873Y3077531D01*
X6864266Y3075282D01*
X6872955D01*
X6881348Y3077531D01*
X6888873Y3081876D01*
X6891997Y3085000D01*
X6945223D01*
X6948348Y3081876D01*
X6955873Y3077531D01*
X6964266Y3075282D01*
X6972955D01*
X6981348Y3077531D01*
X6988873Y3081876D01*
X6991997Y3085000D01*
X7045223D01*
X7048348Y3081876D01*
X7055873Y3077531D01*
X7064266Y3075282D01*
X7072955D01*
X7081348Y3077531D01*
X7088873Y3081876D01*
X7091997Y3085000D01*
X7145223D01*
X7148348Y3081876D01*
X7155873Y3077531D01*
X7164266Y3075282D01*
X7172955D01*
X7181348Y3077531D01*
X7188873Y3081876D01*
X7191997Y3085000D01*
X7245223D01*
X7248348Y3081876D01*
X7255873Y3077531D01*
X7264266Y3075282D01*
X7272955D01*
X7281348Y3077531D01*
X7288873Y3081876D01*
X7291997Y3085000D01*
X7345223D01*
X7348348Y3081876D01*
X7355873Y3077531D01*
X7364266Y3075282D01*
X7372955D01*
X7381348Y3077531D01*
X7388873Y3081876D01*
X7391997Y3085000D01*
X7445223D01*
X7448348Y3081876D01*
X7455873Y3077531D01*
X7464266Y3075282D01*
X7472955D01*
X7481348Y3077531D01*
X7488873Y3081876D01*
X7491997Y3085000D01*
X7545223D01*
X7548348Y3081876D01*
X7555873Y3077531D01*
X7564266Y3075282D01*
X7572955D01*
X7581348Y3077531D01*
X7588873Y3081876D01*
X7591997Y3085000D01*
X7645223D01*
X7648348Y3081876D01*
X7655873Y3077531D01*
X7664266Y3075282D01*
X7672955D01*
X7681348Y3077531D01*
X7688873Y3081876D01*
X7691997Y3085000D01*
X7845000D01*
Y60000D01*
X7830000Y45000D01*
X7820000Y55000D01*
X890000D01*
Y1035000D01*
X895000Y1040000D01*
X921953Y1013047D01*
X5744134D01*
Y3086827D01*
X5776667Y3093333D01*
X5785000Y3085000D01*
D02*
G37*
%LPC*%
G36*
X3291994Y3056490D02*
X3262099D01*
X3264379Y3047981D01*
X3268987Y3040000D01*
X3275504Y3033483D01*
X3283485Y3028875D01*
X3291994Y3026595D01*
Y3056490D01*
D02*
G37*
G36*
X3278686Y3023034D02*
X3271314D01*
X3264193Y3021126D01*
X3257808Y3017440D01*
X3252595Y3012227D01*
X3248908Y3005842D01*
X3247000Y2998720D01*
Y2991348D01*
X3248908Y2984227D01*
X3252595Y2977842D01*
X3257808Y2972629D01*
X3264193Y2968942D01*
X3271314Y2967034D01*
X3278686D01*
X3285808Y2968942D01*
X3292193Y2972629D01*
X3297406Y2977842D01*
X3301092Y2984227D01*
X3303000Y2991348D01*
Y2998720D01*
X3301092Y3005842D01*
X3297406Y3012227D01*
X3292193Y3017440D01*
X3285808Y3021126D01*
X3278686Y3023034D01*
D02*
G37*
G36*
X3523686Y2883000D02*
X3516314D01*
X3509192Y2881092D01*
X3502808Y2877406D01*
X3497594Y2872192D01*
X3493908Y2865808D01*
X3492000Y2858686D01*
Y2851314D01*
X3493908Y2844192D01*
X3497594Y2837808D01*
X3502808Y2832594D01*
X3509192Y2828908D01*
X3516314Y2827000D01*
X3523686D01*
X3530808Y2828908D01*
X3537192Y2832594D01*
X3542406Y2837808D01*
X3546092Y2844192D01*
X3548000Y2851314D01*
Y2858686D01*
X3546092Y2865808D01*
X3542406Y2872192D01*
X3537192Y2877406D01*
X3530808Y2881092D01*
X3523686Y2883000D01*
D02*
G37*
G36*
X4449610Y2705994D02*
X4442238D01*
X4435117Y2704086D01*
X4428732Y2700400D01*
X4423519Y2695187D01*
X4419832Y2688802D01*
X4417924Y2681680D01*
Y2674308D01*
X4419832Y2667187D01*
X4423519Y2660802D01*
X4428732Y2655589D01*
X4435117Y2651902D01*
X4442238Y2649994D01*
X4449610D01*
X4456732Y2651902D01*
X4463117Y2655589D01*
X4468330Y2660802D01*
X4472016Y2667187D01*
X4473924Y2674308D01*
Y2681680D01*
X4472016Y2688802D01*
X4468330Y2695187D01*
X4463117Y2700400D01*
X4456732Y2704086D01*
X4449610Y2705994D01*
D02*
G37*
G36*
X3801150Y2635206D02*
X3751150D01*
X3743841Y2634244D01*
X3737029Y2631422D01*
X3731180Y2626934D01*
X3726692Y2621085D01*
X3723871Y2614274D01*
X3722909Y2606964D01*
X3723871Y2599655D01*
X3726692Y2592843D01*
X3731180Y2586994D01*
X3737029Y2582506D01*
X3743841Y2579685D01*
X3751150Y2578723D01*
X3801150D01*
X3808460Y2579685D01*
X3815271Y2582506D01*
X3821120Y2586994D01*
X3825608Y2592843D01*
X3828430Y2599655D01*
X3829392Y2606964D01*
X3828430Y2614274D01*
X3825608Y2621085D01*
X3821120Y2626934D01*
X3815271Y2631422D01*
X3808460Y2634244D01*
X3801150Y2635206D01*
D02*
G37*
G36*
X3288686Y2623000D02*
X3281314D01*
X3274193Y2621092D01*
X3267808Y2617406D01*
X3262595Y2612193D01*
X3258908Y2605808D01*
X3257000Y2598686D01*
Y2591314D01*
X3258908Y2584193D01*
X3262595Y2577808D01*
X3267808Y2572595D01*
X3274193Y2568908D01*
X3281314Y2567000D01*
X3288686D01*
X3295808Y2568908D01*
X3302193Y2572595D01*
X3307406Y2577808D01*
X3311092Y2584193D01*
X3313000Y2591314D01*
Y2598686D01*
X3311092Y2605808D01*
X3307406Y2612193D01*
X3302193Y2617406D01*
X3295808Y2621092D01*
X3288686Y2623000D01*
D02*
G37*
G36*
X3870924Y2532889D02*
Y2502994D01*
X3900819D01*
X3898539Y2511504D01*
X3893931Y2519485D01*
X3887415Y2526001D01*
X3879434Y2530609D01*
X3870924Y2532889D01*
D02*
G37*
G36*
X3501150Y2535206D02*
X3451150D01*
X3443841Y2534244D01*
X3437029Y2531422D01*
X3431180Y2526934D01*
X3426692Y2521085D01*
X3423871Y2514274D01*
X3422909Y2506964D01*
X3423871Y2499655D01*
X3426692Y2492843D01*
X3431180Y2486994D01*
X3437029Y2482506D01*
X3443841Y2479685D01*
X3451150Y2478723D01*
X3501150D01*
X3508460Y2479685D01*
X3515271Y2482506D01*
X3521120Y2486994D01*
X3525608Y2492843D01*
X3528430Y2499655D01*
X3529392Y2506964D01*
X3528430Y2514274D01*
X3525608Y2521085D01*
X3521120Y2526934D01*
X3515271Y2531422D01*
X3508460Y2534244D01*
X3501150Y2535206D01*
D02*
G37*
G36*
X5405610Y2435994D02*
X5398238D01*
X5391117Y2434086D01*
X5384732Y2430400D01*
X5379519Y2425187D01*
X5375832Y2418802D01*
X5373924Y2411680D01*
Y2404308D01*
X5375832Y2397187D01*
X5379519Y2390802D01*
X5384732Y2385589D01*
X5391117Y2381902D01*
X5398238Y2379994D01*
X5405610D01*
X5412732Y2381902D01*
X5419117Y2385589D01*
X5424330Y2390802D01*
X5428016Y2397187D01*
X5429924Y2404308D01*
Y2411680D01*
X5428016Y2418802D01*
X5424330Y2425187D01*
X5419117Y2430400D01*
X5412732Y2434086D01*
X5405610Y2435994D01*
D02*
G37*
G36*
X3402610Y2448994D02*
X3395238D01*
X3388117Y2447086D01*
X3381732Y2443400D01*
X3376519Y2438187D01*
X3372832Y2431802D01*
X3370924Y2424680D01*
Y2417308D01*
X3372832Y2410187D01*
X3376519Y2403802D01*
X3381732Y2398589D01*
X3388117Y2394902D01*
X3395238Y2392994D01*
X3402610D01*
X3409732Y2394902D01*
X3416117Y2398589D01*
X3418636Y2401108D01*
X3423871Y2399655D01*
X3426692Y2392843D01*
X3431180Y2386994D01*
X3437029Y2382506D01*
X3443841Y2379685D01*
X3451150Y2378723D01*
X3501150D01*
X3508460Y2379685D01*
X3515271Y2382506D01*
X3521120Y2386994D01*
X3525608Y2392843D01*
X3528430Y2399655D01*
X3529392Y2406964D01*
X3528430Y2414274D01*
X3525608Y2421085D01*
X3521120Y2426934D01*
X3515271Y2431422D01*
X3508460Y2434244D01*
X3501150Y2435206D01*
X3451150D01*
X3443841Y2434244D01*
X3437029Y2431422D01*
X3431180Y2426934D01*
X3425947Y2428327D01*
X3425016Y2431802D01*
X3421330Y2438187D01*
X3416117Y2443400D01*
X3409732Y2447086D01*
X3402610Y2448994D01*
D02*
G37*
G36*
X3848686Y2368000D02*
X3841314D01*
X3834192Y2366092D01*
X3827808Y2362406D01*
X3822594Y2357192D01*
X3818908Y2350808D01*
X3817000Y2343686D01*
Y2336314D01*
X3817059Y2336093D01*
X3812867Y2332418D01*
X3808460Y2334244D01*
X3801150Y2335206D01*
X3751150D01*
X3743841Y2334244D01*
X3737029Y2331422D01*
X3731180Y2326934D01*
X3726692Y2321085D01*
X3724222Y2315121D01*
X3671924D01*
X3668803Y2314500D01*
X3666157Y2312732D01*
X3666156Y2312732D01*
X3628157Y2274732D01*
X3626388Y2272086D01*
X3625767Y2268964D01*
X3625767Y2268964D01*
Y1696373D01*
X3299912Y1370518D01*
X3297536Y1371890D01*
X3290414Y1373798D01*
X3283042D01*
X3275921Y1371890D01*
X3269536Y1368204D01*
X3264323Y1362991D01*
X3260636Y1356606D01*
X3258728Y1349485D01*
Y1342112D01*
X3260636Y1334991D01*
X3264323Y1328606D01*
X3269536Y1323393D01*
X3275921Y1319706D01*
X3283042Y1317798D01*
X3290414D01*
X3297536Y1319706D01*
X3303921Y1323393D01*
X3309134Y1328606D01*
X3312820Y1334991D01*
X3314728Y1342112D01*
Y1349485D01*
X3312820Y1356606D01*
X3311448Y1358983D01*
X3639692Y1687226D01*
X3641460Y1689873D01*
X3642081Y1692994D01*
X3642081Y1692995D01*
Y2265586D01*
X3675303Y2298807D01*
X3724222D01*
X3726692Y2292843D01*
X3731180Y2286994D01*
X3737029Y2282506D01*
X3743841Y2279685D01*
X3751150Y2278723D01*
X3801150D01*
X3808460Y2279685D01*
X3815271Y2282506D01*
X3821120Y2286994D01*
X3825608Y2292843D01*
X3828430Y2299655D01*
X3829392Y2306964D01*
X3828830Y2311231D01*
X3833466Y2314328D01*
X3834192Y2313908D01*
X3841314Y2312000D01*
X3848686D01*
X3855808Y2313908D01*
X3862192Y2317594D01*
X3867406Y2322808D01*
X3871092Y2329192D01*
X3873000Y2336314D01*
Y2343686D01*
X3871092Y2350808D01*
X3867406Y2357192D01*
X3862192Y2362406D01*
X3855808Y2366092D01*
X3848686Y2368000D01*
D02*
G37*
G36*
X3953686D02*
X3946314D01*
X3939192Y2366092D01*
X3932808Y2362406D01*
X3927594Y2357192D01*
X3923908Y2350808D01*
X3922000Y2343686D01*
Y2336314D01*
X3923908Y2329192D01*
X3927594Y2322808D01*
X3932808Y2317594D01*
X3939192Y2313908D01*
X3946314Y2312000D01*
X3953686D01*
X3960808Y2313908D01*
X3967192Y2317594D01*
X3972406Y2322808D01*
X3976092Y2329192D01*
X3978000Y2336314D01*
Y2343686D01*
X3976092Y2350808D01*
X3972406Y2357192D01*
X3967192Y2362406D01*
X3960808Y2366092D01*
X3953686Y2368000D01*
D02*
G37*
G36*
X4686610Y2345994D02*
X4679238D01*
X4672117Y2344086D01*
X4665732Y2340400D01*
X4660519Y2335187D01*
X4656832Y2328802D01*
X4654924Y2321680D01*
Y2314308D01*
X4656832Y2307187D01*
X4660519Y2300802D01*
X4665732Y2295589D01*
X4672117Y2291902D01*
X4679238Y2289994D01*
X4686610D01*
X4693732Y2291902D01*
X4700117Y2295589D01*
X4705330Y2300802D01*
X4709016Y2307187D01*
X4710924Y2314308D01*
Y2321680D01*
X4709016Y2328802D01*
X4705330Y2335187D01*
X4700117Y2340400D01*
X4693732Y2344086D01*
X4686610Y2345994D01*
D02*
G37*
G36*
X5273686Y2338000D02*
X5266314D01*
X5259193Y2336092D01*
X5252808Y2332406D01*
X5247595Y2327193D01*
X5243908Y2320808D01*
X5242000Y2313686D01*
Y2306314D01*
X5243908Y2299193D01*
X5247595Y2292808D01*
X5252808Y2287595D01*
X5259193Y2283908D01*
X5266314Y2282000D01*
X5273686D01*
X5280808Y2283908D01*
X5287193Y2287595D01*
X5292406Y2292808D01*
X5296092Y2299193D01*
X5298000Y2306314D01*
Y2313686D01*
X5296092Y2320808D01*
X5292406Y2327193D01*
X5287193Y2332406D01*
X5280808Y2336092D01*
X5273686Y2338000D01*
D02*
G37*
G36*
X3501150Y2335206D02*
X3451150D01*
X3443841Y2334244D01*
X3437029Y2331422D01*
X3431180Y2326934D01*
X3426692Y2321085D01*
X3423871Y2314274D01*
X3422909Y2306964D01*
X3423871Y2299655D01*
X3426692Y2292843D01*
X3431180Y2286994D01*
X3437029Y2282506D01*
X3443841Y2279685D01*
X3451150Y2278723D01*
X3501150D01*
X3508460Y2279685D01*
X3515271Y2282506D01*
X3521120Y2286994D01*
X3525608Y2292843D01*
X3528430Y2299655D01*
X3529392Y2306964D01*
X3528430Y2314274D01*
X3525608Y2321085D01*
X3521120Y2326934D01*
X3515271Y2331422D01*
X3508460Y2334244D01*
X3501150Y2335206D01*
D02*
G37*
G36*
X4268610Y2287994D02*
X4261238D01*
X4254117Y2286086D01*
X4247732Y2282400D01*
X4242519Y2277187D01*
X4238832Y2270802D01*
X4236924Y2263680D01*
Y2256308D01*
X4238832Y2249187D01*
X4242519Y2242802D01*
X4247732Y2237589D01*
X4254117Y2233902D01*
X4261238Y2231994D01*
X4268610D01*
X4275732Y2233902D01*
X4282117Y2237589D01*
X4287330Y2242802D01*
X4291016Y2249187D01*
X4292924Y2256308D01*
Y2263680D01*
X4291016Y2270802D01*
X4287330Y2277187D01*
X4282117Y2282400D01*
X4275732Y2286086D01*
X4268610Y2287994D01*
D02*
G37*
G36*
X3948610Y2268994D02*
X3941238D01*
X3934117Y2267086D01*
X3927732Y2263400D01*
X3922519Y2258187D01*
X3918832Y2251802D01*
X3916924Y2244680D01*
Y2237308D01*
X3918832Y2230187D01*
X3922519Y2223802D01*
X3927732Y2218589D01*
X3934117Y2214902D01*
X3941238Y2212994D01*
X3948610D01*
X3955732Y2214902D01*
X3962117Y2218589D01*
X3967330Y2223802D01*
X3971016Y2230187D01*
X3972924Y2237308D01*
Y2244680D01*
X3971016Y2251802D01*
X3967330Y2258187D01*
X3962117Y2263400D01*
X3955732Y2267086D01*
X3948610Y2268994D01*
D02*
G37*
G36*
X4981377Y2312994D02*
X4974004D01*
X4966883Y2311086D01*
X4960498Y2307400D01*
X4955285Y2302187D01*
X4951598Y2295802D01*
X4949690Y2288680D01*
Y2281308D01*
X4951598Y2274187D01*
X4955285Y2267802D01*
X4960498Y2262589D01*
X4966883Y2258902D01*
X4968513Y2258465D01*
Y2253289D01*
X4966883Y2252852D01*
X4960498Y2249166D01*
X4955285Y2243953D01*
X4951598Y2237568D01*
X4949690Y2230447D01*
Y2223074D01*
X4951598Y2215953D01*
X4955285Y2209568D01*
X4960498Y2204355D01*
X4966883Y2200668D01*
X4974004Y2198760D01*
X4981377D01*
X4988498Y2200668D01*
X4994883Y2204355D01*
X5000096Y2209568D01*
X5003782Y2215953D01*
X5005690Y2223074D01*
Y2230447D01*
X5003782Y2237568D01*
X5000096Y2243953D01*
X4994883Y2249166D01*
X4988498Y2252852D01*
X4986867Y2253289D01*
Y2258465D01*
X4988498Y2258902D01*
X4994883Y2262589D01*
X5000096Y2267802D01*
X5003782Y2274187D01*
X5005690Y2281308D01*
Y2288680D01*
X5003782Y2295802D01*
X5000096Y2302187D01*
X4994883Y2307400D01*
X4988498Y2311086D01*
X4981377Y2312994D01*
D02*
G37*
G36*
X3801150Y2235206D02*
X3751150D01*
X3743841Y2234244D01*
X3737029Y2231422D01*
X3731180Y2226934D01*
X3726692Y2221085D01*
X3723871Y2214274D01*
X3722909Y2206964D01*
X3723871Y2199655D01*
X3726692Y2192843D01*
X3731180Y2186994D01*
X3737029Y2182506D01*
X3743841Y2179685D01*
X3751150Y2178723D01*
X3801150D01*
X3808460Y2179685D01*
X3815271Y2182506D01*
X3821120Y2186994D01*
X3825608Y2192843D01*
X3828430Y2199655D01*
X3829392Y2206964D01*
X3828430Y2214274D01*
X3825608Y2221085D01*
X3821120Y2226934D01*
X3815271Y2231422D01*
X3808460Y2234244D01*
X3801150Y2235206D01*
D02*
G37*
G36*
X3501150D02*
X3451150D01*
X3443841Y2234244D01*
X3437029Y2231422D01*
X3431180Y2226934D01*
X3426692Y2221085D01*
X3423871Y2214274D01*
X3422909Y2206964D01*
X3423871Y2199655D01*
X3426692Y2192843D01*
X3431180Y2186994D01*
X3437029Y2182506D01*
X3443841Y2179685D01*
X3451150Y2178723D01*
X3501150D01*
X3508460Y2179685D01*
X3515271Y2182506D01*
X3521120Y2186994D01*
X3525608Y2192843D01*
X3528430Y2199655D01*
X3529392Y2206964D01*
X3528430Y2214274D01*
X3525608Y2221085D01*
X3521120Y2226934D01*
X3515271Y2231422D01*
X3508460Y2234244D01*
X3501150Y2235206D01*
D02*
G37*
G36*
X3529150Y2634964D02*
X3423150D01*
Y2578964D01*
X3510419D01*
X3638157Y2451227D01*
X3640803Y2449458D01*
X3643924Y2448837D01*
X3643925Y2448838D01*
X3916546D01*
X4205204Y2160178D01*
X4203832Y2157802D01*
X4201924Y2150680D01*
Y2143308D01*
X4203832Y2136187D01*
X4207519Y2129802D01*
X4212732Y2124589D01*
X4219117Y2120902D01*
X4222033Y2120121D01*
X4221375Y2115121D01*
X3828079D01*
X3825608Y2121085D01*
X3821120Y2126934D01*
X3815271Y2131422D01*
X3808460Y2134244D01*
X3801150Y2135206D01*
X3751150D01*
X3743841Y2134244D01*
X3737029Y2131422D01*
X3731180Y2126934D01*
X3726692Y2121085D01*
X3723871Y2114274D01*
X3722909Y2106964D01*
X3723871Y2099655D01*
X3726692Y2092843D01*
X3731180Y2086994D01*
X3737029Y2082506D01*
X3743841Y2079685D01*
X3751150Y2078723D01*
X3801150D01*
X3808460Y2079685D01*
X3815271Y2082506D01*
X3821120Y2086994D01*
X3825608Y2092843D01*
X3828079Y2098807D01*
X4395894D01*
X4395894Y2098807D01*
X4399016Y2099428D01*
X4401662Y2101197D01*
X4415740Y2115275D01*
X4418117Y2113902D01*
X4425238Y2111994D01*
X4432610D01*
X4439732Y2113902D01*
X4446117Y2117589D01*
X4451330Y2122802D01*
X4455016Y2129187D01*
X4456924Y2136308D01*
Y2143680D01*
X4455016Y2150802D01*
X4451330Y2157187D01*
X4446117Y2162400D01*
X4439732Y2166086D01*
X4432610Y2167994D01*
X4425238D01*
X4418117Y2166086D01*
X4411732Y2162400D01*
X4406519Y2157187D01*
X4402832Y2150802D01*
X4400924Y2143680D01*
Y2136308D01*
X4402832Y2129187D01*
X4404205Y2126810D01*
X4392516Y2115121D01*
X4238474D01*
X4237815Y2120121D01*
X4240732Y2120902D01*
X4247117Y2124589D01*
X4252330Y2129802D01*
X4256016Y2136187D01*
X4257924Y2143308D01*
Y2150680D01*
X4256016Y2157802D01*
X4252330Y2164187D01*
X4247117Y2169400D01*
X4240732Y2173086D01*
X4233610Y2174994D01*
X4226238D01*
X4219117Y2173086D01*
X4216740Y2171714D01*
X3925692Y2462762D01*
X3923046Y2464530D01*
X3919924Y2465151D01*
X3919924Y2465151D01*
X3889038D01*
X3887613Y2469395D01*
X3887578Y2470151D01*
X3893931Y2476504D01*
X3898539Y2484485D01*
X3900819Y2492994D01*
X3865924D01*
Y2497994D01*
X3860924D01*
Y2532889D01*
X3852415Y2530609D01*
X3844434Y2526001D01*
X3837917Y2519485D01*
X3833739Y2512248D01*
X3831221Y2512149D01*
X3828603Y2512958D01*
X3828430Y2514274D01*
X3825608Y2521085D01*
X3821120Y2526934D01*
X3815271Y2531422D01*
X3808460Y2534244D01*
X3801150Y2535206D01*
X3751150D01*
X3743841Y2534244D01*
X3737029Y2531422D01*
X3731180Y2526934D01*
X3726692Y2521085D01*
X3723871Y2514274D01*
X3722909Y2506964D01*
X3723871Y2499655D01*
X3726692Y2492843D01*
X3731180Y2486994D01*
X3737029Y2482506D01*
X3743841Y2479685D01*
X3751150Y2478723D01*
X3801150D01*
X3808460Y2479685D01*
X3815271Y2482506D01*
X3821120Y2486994D01*
X3825608Y2492843D01*
X3830544Y2493137D01*
X3831050Y2492916D01*
X3833309Y2484485D01*
X3837917Y2476504D01*
X3844270Y2470151D01*
X3844235Y2469395D01*
X3842810Y2465151D01*
X3647303D01*
X3529150Y2583304D01*
Y2634964D01*
D02*
G37*
G36*
X5258686Y2163000D02*
X5251314D01*
X5244193Y2161092D01*
X5237808Y2157406D01*
X5232595Y2152193D01*
X5228908Y2145808D01*
X5227000Y2138686D01*
Y2131314D01*
X5228908Y2124193D01*
X5232595Y2117808D01*
X5237808Y2112595D01*
X5244193Y2108908D01*
X5251314Y2107000D01*
X5258686D01*
X5265808Y2108908D01*
X5272193Y2112595D01*
X5277406Y2117808D01*
X5281092Y2124193D01*
X5283000Y2131314D01*
Y2138686D01*
X5281092Y2145808D01*
X5277406Y2152193D01*
X5272193Y2157406D01*
X5265808Y2161092D01*
X5258686Y2163000D01*
D02*
G37*
G36*
X3501150Y2135206D02*
X3451150D01*
X3443841Y2134244D01*
X3437029Y2131422D01*
X3431180Y2126934D01*
X3426692Y2121085D01*
X3423871Y2114274D01*
X3422909Y2106964D01*
X3423871Y2099655D01*
X3426692Y2092843D01*
X3431180Y2086994D01*
X3437029Y2082506D01*
X3443841Y2079685D01*
X3451150Y2078723D01*
X3501150D01*
X3508460Y2079685D01*
X3515271Y2082506D01*
X3521120Y2086994D01*
X3525608Y2092843D01*
X3528430Y2099655D01*
X3529392Y2106964D01*
X3528430Y2114274D01*
X3525608Y2121085D01*
X3521120Y2126934D01*
X3515271Y2131422D01*
X3508460Y2134244D01*
X3501150Y2135206D01*
D02*
G37*
G36*
X5478686Y2103000D02*
X5471314D01*
X5464193Y2101092D01*
X5457808Y2097406D01*
X5452595Y2092193D01*
X5448908Y2085808D01*
X5447000Y2078686D01*
Y2071314D01*
X5448908Y2064193D01*
X5452595Y2057808D01*
X5457808Y2052595D01*
X5464193Y2048908D01*
X5471314Y2047000D01*
X5478686D01*
X5485808Y2048908D01*
X5492193Y2052595D01*
X5497406Y2057808D01*
X5501092Y2064193D01*
X5503000Y2071314D01*
Y2078686D01*
X5501092Y2085808D01*
X5497406Y2092193D01*
X5492193Y2097406D01*
X5485808Y2101092D01*
X5478686Y2103000D01*
D02*
G37*
G36*
X5093283Y2087596D02*
X5085910D01*
X5078789Y2085688D01*
X5072404Y2082002D01*
X5067191Y2076789D01*
X5063504Y2070404D01*
X5061596Y2063282D01*
Y2055910D01*
X5063504Y2048789D01*
X5067191Y2042404D01*
X5072404Y2037191D01*
X5078789Y2033504D01*
X5085910Y2031596D01*
X5093283D01*
X5100404Y2033504D01*
X5106789Y2037191D01*
X5112002Y2042404D01*
X5115688Y2048789D01*
X5117596Y2055910D01*
Y2063282D01*
X5115688Y2070404D01*
X5112002Y2076789D01*
X5106789Y2082002D01*
X5100404Y2085688D01*
X5093283Y2087596D01*
D02*
G37*
G36*
X4708686Y2043000D02*
X4701314D01*
X4694193Y2041092D01*
X4687808Y2037406D01*
X4682595Y2032193D01*
X4678908Y2025808D01*
X4677000Y2018687D01*
Y2011314D01*
X4678908Y2004193D01*
X4682595Y1997808D01*
X4687808Y1992595D01*
X4694193Y1988908D01*
X4701314Y1987000D01*
X4708686D01*
X4715808Y1988908D01*
X4722193Y1992595D01*
X4727406Y1997808D01*
X4731092Y2004193D01*
X4733000Y2011314D01*
Y2018687D01*
X4731092Y2025808D01*
X4727406Y2032193D01*
X4722193Y2037406D01*
X4715808Y2041092D01*
X4708686Y2043000D01*
D02*
G37*
G36*
X3801150Y2035206D02*
X3751150D01*
X3743841Y2034244D01*
X3737029Y2031422D01*
X3731180Y2026934D01*
X3726692Y2021085D01*
X3723871Y2014274D01*
X3722909Y2006964D01*
X3723871Y1999655D01*
X3726692Y1992843D01*
X3731180Y1986994D01*
X3737029Y1982506D01*
X3743841Y1979685D01*
X3751150Y1978723D01*
X3801150D01*
X3808460Y1979685D01*
X3815271Y1982506D01*
X3821120Y1986994D01*
X3825608Y1992843D01*
X3828430Y1999655D01*
X3829392Y2006964D01*
X3828430Y2014274D01*
X3825608Y2021085D01*
X3821120Y2026934D01*
X3815271Y2031422D01*
X3808460Y2034244D01*
X3801150Y2035206D01*
D02*
G37*
G36*
X3501150D02*
X3451150D01*
X3443841Y2034244D01*
X3437029Y2031422D01*
X3431180Y2026934D01*
X3426692Y2021085D01*
X3423871Y2014274D01*
X3422909Y2006964D01*
X3423871Y1999655D01*
X3426692Y1992843D01*
X3431180Y1986994D01*
X3437029Y1982506D01*
X3443841Y1979685D01*
X3451150Y1978723D01*
X3501150D01*
X3508460Y1979685D01*
X3515271Y1982506D01*
X3521120Y1986994D01*
X3525608Y1992843D01*
X3528430Y1999655D01*
X3529392Y2006964D01*
X3528430Y2014274D01*
X3525608Y2021085D01*
X3521120Y2026934D01*
X3515271Y2031422D01*
X3508460Y2034244D01*
X3501150Y2035206D01*
D02*
G37*
G36*
X4770610Y2016994D02*
X4763238D01*
X4756117Y2015086D01*
X4749732Y2011400D01*
X4744519Y2006187D01*
X4740832Y1999802D01*
X4738924Y1992680D01*
Y1985308D01*
X4740832Y1978187D01*
X4744519Y1971802D01*
X4749732Y1966589D01*
X4756117Y1962902D01*
X4763238Y1960994D01*
X4770610D01*
X4777732Y1962902D01*
X4784117Y1966589D01*
X4789330Y1971802D01*
X4793016Y1978187D01*
X4794924Y1985308D01*
Y1992680D01*
X4793016Y1999802D01*
X4789330Y2006187D01*
X4784117Y2011400D01*
X4777732Y2015086D01*
X4770610Y2016994D01*
D02*
G37*
G36*
X4843900Y1999994D02*
X4836528D01*
X4829407Y1998086D01*
X4823022Y1994400D01*
X4817809Y1989187D01*
X4814122Y1982802D01*
X4812214Y1975680D01*
Y1968308D01*
X4814122Y1961187D01*
X4817809Y1954802D01*
X4823022Y1949589D01*
X4829407Y1945902D01*
X4836528Y1943994D01*
X4843900D01*
X4851022Y1945902D01*
X4857407Y1949589D01*
X4862620Y1954802D01*
X4866306Y1961187D01*
X4868214Y1968308D01*
Y1975680D01*
X4866306Y1982802D01*
X4862620Y1989187D01*
X4857407Y1994400D01*
X4851022Y1998086D01*
X4843900Y1999994D01*
D02*
G37*
G36*
X4095610Y1987994D02*
X4088238D01*
X4081117Y1986086D01*
X4074732Y1982400D01*
X4069519Y1977187D01*
X4065832Y1970802D01*
X4063924Y1963680D01*
Y1956308D01*
X4065832Y1949187D01*
X4069519Y1942802D01*
X4074732Y1937589D01*
X4081117Y1933902D01*
X4088238Y1931994D01*
X4095610D01*
X4102732Y1933902D01*
X4109117Y1937589D01*
X4114330Y1942802D01*
X4118016Y1949187D01*
X4119924Y1956308D01*
Y1963680D01*
X4118016Y1970802D01*
X4114330Y1977187D01*
X4109117Y1982400D01*
X4102732Y1986086D01*
X4095610Y1987994D01*
D02*
G37*
G36*
X3801150Y1935206D02*
X3751150D01*
X3743841Y1934244D01*
X3737029Y1931422D01*
X3731180Y1926934D01*
X3726692Y1921085D01*
X3723871Y1914274D01*
X3722909Y1906964D01*
X3723871Y1899655D01*
X3726692Y1892843D01*
X3731180Y1886994D01*
X3737029Y1882506D01*
X3743841Y1879685D01*
X3751150Y1878723D01*
X3801150D01*
X3808460Y1879685D01*
X3815271Y1882506D01*
X3821120Y1886994D01*
X3825608Y1892843D01*
X3828430Y1899655D01*
X3829392Y1906964D01*
X3828430Y1914274D01*
X3825608Y1921085D01*
X3821120Y1926934D01*
X3815271Y1931422D01*
X3808460Y1934244D01*
X3801150Y1935206D01*
D02*
G37*
G36*
X3501150D02*
X3451150D01*
X3443841Y1934244D01*
X3437029Y1931422D01*
X3431180Y1926934D01*
X3426692Y1921085D01*
X3423871Y1914274D01*
X3422909Y1906964D01*
X3423871Y1899655D01*
X3426692Y1892843D01*
X3431180Y1886994D01*
X3437029Y1882506D01*
X3443841Y1879685D01*
X3451150Y1878723D01*
X3501150D01*
X3508460Y1879685D01*
X3515271Y1882506D01*
X3521120Y1886994D01*
X3525608Y1892843D01*
X3528430Y1899655D01*
X3529392Y1906964D01*
X3528430Y1914274D01*
X3525608Y1921085D01*
X3521120Y1926934D01*
X3515271Y1931422D01*
X3508460Y1934244D01*
X3501150Y1935206D01*
D02*
G37*
G36*
X4840610Y1930522D02*
X4833238D01*
X4826117Y1928614D01*
X4819732Y1924928D01*
X4814519Y1919715D01*
X4810832Y1913330D01*
X4808924Y1906208D01*
Y1898836D01*
X4810832Y1891715D01*
X4814519Y1885330D01*
X4819732Y1880117D01*
X4826117Y1876430D01*
X4833238Y1874522D01*
X4840610D01*
X4847732Y1876430D01*
X4854117Y1880117D01*
X4859330Y1885330D01*
X4863016Y1891715D01*
X4864924Y1898836D01*
Y1906208D01*
X4863016Y1913330D01*
X4859330Y1919715D01*
X4854117Y1924928D01*
X4847732Y1928614D01*
X4840610Y1930522D01*
D02*
G37*
G36*
X4521610Y1964994D02*
X4514238D01*
X4507117Y1963086D01*
X4500732Y1959400D01*
X4495519Y1954187D01*
X4491832Y1947802D01*
X4489924Y1940680D01*
Y1933308D01*
X4491832Y1926187D01*
X4495519Y1919802D01*
X4500732Y1914589D01*
X4507117Y1910902D01*
X4514238Y1908994D01*
X4521610D01*
X4526589Y1910328D01*
X4529177Y1905845D01*
X4528519Y1905187D01*
X4524832Y1898802D01*
X4522924Y1891680D01*
Y1884308D01*
X4524832Y1877187D01*
X4528519Y1870802D01*
X4533732Y1865589D01*
X4540117Y1861902D01*
X4547238Y1859994D01*
X4554610D01*
X4561732Y1861902D01*
X4568117Y1865589D01*
X4573330Y1870802D01*
X4577016Y1877187D01*
X4578924Y1884308D01*
Y1891680D01*
X4577016Y1898802D01*
X4573330Y1905187D01*
X4568117Y1910400D01*
X4561732Y1914086D01*
X4554610Y1915994D01*
X4547238D01*
X4542259Y1914660D01*
X4539671Y1919143D01*
X4540330Y1919802D01*
X4544016Y1926187D01*
X4545924Y1933308D01*
Y1940680D01*
X4544016Y1947802D01*
X4540330Y1954187D01*
X4535117Y1959400D01*
X4528732Y1963086D01*
X4521610Y1964994D01*
D02*
G37*
G36*
X5563686Y1863000D02*
X5556314D01*
X5549193Y1861092D01*
X5542808Y1857406D01*
X5537595Y1852193D01*
X5533908Y1845808D01*
X5532000Y1838687D01*
Y1831314D01*
X5533908Y1824193D01*
X5537595Y1817808D01*
X5542808Y1812595D01*
X5549193Y1808908D01*
X5556314Y1807000D01*
X5563686D01*
X5570808Y1808908D01*
X5577193Y1812595D01*
X5582406Y1817808D01*
X5586092Y1824193D01*
X5588000Y1831314D01*
Y1838687D01*
X5586092Y1845808D01*
X5582406Y1852193D01*
X5577193Y1857406D01*
X5570808Y1861092D01*
X5563686Y1863000D01*
D02*
G37*
G36*
X3502610Y1845994D02*
X3495238D01*
X3488117Y1844086D01*
X3481732Y1840400D01*
X3476519Y1835187D01*
X3472832Y1828802D01*
X3470924Y1821680D01*
Y1814308D01*
X3472832Y1807187D01*
X3476519Y1800802D01*
X3481732Y1795589D01*
X3488117Y1791902D01*
X3495238Y1789994D01*
X3502610D01*
X3509732Y1791902D01*
X3516117Y1795589D01*
X3521330Y1800802D01*
X3525016Y1807187D01*
X3526924Y1814308D01*
Y1821680D01*
X3525016Y1828802D01*
X3521330Y1835187D01*
X3516117Y1840400D01*
X3509732Y1844086D01*
X3502610Y1845994D01*
D02*
G37*
G36*
X5338686Y1948000D02*
X5331314D01*
X5324193Y1946092D01*
X5317808Y1942406D01*
X5312595Y1937193D01*
X5308908Y1930808D01*
X5307000Y1923687D01*
Y1916314D01*
X5308908Y1909193D01*
X5312595Y1902808D01*
X5317808Y1897595D01*
X5324193Y1893908D01*
X5327582Y1893000D01*
X5326924Y1888000D01*
X5321314D01*
X5314193Y1886092D01*
X5307808Y1882406D01*
X5302595Y1877193D01*
X5298908Y1870808D01*
X5297000Y1863687D01*
Y1856314D01*
X5298908Y1849193D01*
X5302595Y1842808D01*
X5307808Y1837595D01*
X5314193Y1833908D01*
X5317582Y1833000D01*
X5316924Y1828000D01*
X5311314D01*
X5304193Y1826092D01*
X5297808Y1822406D01*
X5292595Y1817193D01*
X5288908Y1810808D01*
X5287000Y1803687D01*
Y1796314D01*
X5288908Y1789193D01*
X5292595Y1782808D01*
X5297808Y1777595D01*
X5304193Y1773908D01*
X5311314Y1772000D01*
X5318686D01*
X5325808Y1773908D01*
X5332193Y1777595D01*
X5337406Y1782808D01*
X5341092Y1789193D01*
X5343000Y1796314D01*
Y1803687D01*
X5341092Y1810808D01*
X5337406Y1817193D01*
X5332193Y1822406D01*
X5325808Y1826092D01*
X5322418Y1827000D01*
X5323077Y1832000D01*
X5328686D01*
X5335808Y1833908D01*
X5342193Y1837595D01*
X5347406Y1842808D01*
X5351092Y1849193D01*
X5353000Y1856314D01*
Y1863687D01*
X5351092Y1870808D01*
X5347406Y1877193D01*
X5342193Y1882406D01*
X5335808Y1886092D01*
X5332418Y1887000D01*
X5333077Y1892000D01*
X5338686D01*
X5345808Y1893908D01*
X5352193Y1897595D01*
X5357406Y1902808D01*
X5361092Y1909193D01*
X5363000Y1916314D01*
Y1923687D01*
X5361092Y1930808D01*
X5357406Y1937193D01*
X5352193Y1942406D01*
X5345808Y1946092D01*
X5338686Y1948000D01*
D02*
G37*
G36*
X4129610Y1805994D02*
X4122238D01*
X4115117Y1804086D01*
X4108732Y1800400D01*
X4103519Y1795187D01*
X4099832Y1788802D01*
X4097924Y1781680D01*
Y1774308D01*
X4099832Y1767187D01*
X4103519Y1760802D01*
X4108732Y1755589D01*
X4115117Y1751902D01*
X4122238Y1749994D01*
X4129610D01*
X4136732Y1751902D01*
X4143117Y1755589D01*
X4148330Y1760802D01*
X4152016Y1767187D01*
X4153924Y1774308D01*
Y1781680D01*
X4152016Y1788802D01*
X4148330Y1795187D01*
X4143117Y1800400D01*
X4136732Y1804086D01*
X4129610Y1805994D01*
D02*
G37*
G36*
X4858610Y1795994D02*
X4851238D01*
X4844117Y1794086D01*
X4837732Y1790400D01*
X4832519Y1785187D01*
X4828832Y1778802D01*
X4826924Y1771680D01*
Y1764308D01*
X4828832Y1757187D01*
X4832519Y1750802D01*
X4837732Y1745589D01*
X4844117Y1741902D01*
X4851238Y1739994D01*
X4858610D01*
X4865732Y1741902D01*
X4872117Y1745589D01*
X4877330Y1750802D01*
X4881016Y1757187D01*
X4882924Y1764308D01*
Y1771680D01*
X4881016Y1778802D01*
X4877330Y1785187D01*
X4872117Y1790400D01*
X4865732Y1794086D01*
X4858610Y1795994D01*
D02*
G37*
G36*
X4062610Y1772994D02*
X4055238D01*
X4048117Y1771086D01*
X4041732Y1767400D01*
X4036519Y1762187D01*
X4032832Y1755802D01*
X4030924Y1748680D01*
Y1741308D01*
X4032832Y1734187D01*
X4036519Y1727802D01*
X4041732Y1722589D01*
X4048117Y1718902D01*
X4055238Y1716994D01*
X4062610D01*
X4069732Y1718902D01*
X4076117Y1722589D01*
X4081330Y1727802D01*
X4085016Y1734187D01*
X4086924Y1741308D01*
Y1748680D01*
X4085016Y1755802D01*
X4081330Y1762187D01*
X4076117Y1767400D01*
X4069732Y1771086D01*
X4062610Y1772994D01*
D02*
G37*
G36*
X5565891Y1747994D02*
X5558518D01*
X5551397Y1746086D01*
X5545012Y1742400D01*
X5539799Y1737187D01*
X5536112Y1730802D01*
X5534204Y1723680D01*
Y1716308D01*
X5536112Y1709187D01*
X5539799Y1702802D01*
X5545012Y1697589D01*
X5551397Y1693902D01*
X5558518Y1691994D01*
X5565891D01*
X5573012Y1693902D01*
X5579397Y1697589D01*
X5584610Y1702802D01*
X5588296Y1709187D01*
X5590204Y1716308D01*
Y1723680D01*
X5588296Y1730802D01*
X5584610Y1737187D01*
X5579397Y1742400D01*
X5573012Y1746086D01*
X5565891Y1747994D01*
D02*
G37*
G36*
X5048610Y1721994D02*
X5041238D01*
X5034117Y1720086D01*
X5027732Y1716400D01*
X5022519Y1711187D01*
X5018832Y1704802D01*
X5016924Y1697680D01*
Y1690308D01*
X5018832Y1683187D01*
X5022519Y1676802D01*
X5027732Y1671589D01*
X5034117Y1667902D01*
X5041238Y1665994D01*
X5048610D01*
X5055732Y1667902D01*
X5062117Y1671589D01*
X5067330Y1676802D01*
X5071016Y1683187D01*
X5072924Y1690308D01*
Y1697680D01*
X5071016Y1704802D01*
X5067330Y1711187D01*
X5062117Y1716400D01*
X5055732Y1720086D01*
X5048610Y1721994D01*
D02*
G37*
G36*
X4129610Y1712994D02*
X4122238D01*
X4115117Y1711086D01*
X4108732Y1707400D01*
X4103519Y1702187D01*
X4099832Y1695802D01*
X4097924Y1688680D01*
Y1681308D01*
X4099832Y1674187D01*
X4103519Y1667802D01*
X4108732Y1662589D01*
X4115117Y1658902D01*
X4122238Y1656994D01*
X4129610D01*
X4136732Y1658902D01*
X4143117Y1662589D01*
X4148330Y1667802D01*
X4152016Y1674187D01*
X4153924Y1681308D01*
Y1688680D01*
X4152016Y1695802D01*
X4148330Y1702187D01*
X4143117Y1707400D01*
X4136732Y1711086D01*
X4129610Y1712994D01*
D02*
G37*
G36*
X3315610Y1671994D02*
X3308238D01*
X3301117Y1670086D01*
X3294732Y1666400D01*
X3289519Y1661187D01*
X3285832Y1654802D01*
X3283924Y1647680D01*
Y1640308D01*
X3285832Y1633187D01*
X3289519Y1626802D01*
X3294732Y1621589D01*
X3301117Y1617902D01*
X3308238Y1615994D01*
X3315610D01*
X3322732Y1617902D01*
X3329117Y1621589D01*
X3334330Y1626802D01*
X3338016Y1633187D01*
X3339924Y1640308D01*
Y1647680D01*
X3338016Y1654802D01*
X3334330Y1661187D01*
X3329117Y1666400D01*
X3322732Y1670086D01*
X3315610Y1671994D01*
D02*
G37*
G36*
X4683610Y1642994D02*
X4676238D01*
X4669117Y1641086D01*
X4662732Y1637400D01*
X4657519Y1632187D01*
X4653832Y1625802D01*
X4651924Y1618680D01*
Y1611308D01*
X4653832Y1604187D01*
X4655464Y1601361D01*
X4652169Y1597067D01*
X4648686Y1598000D01*
X4641314D01*
X4634193Y1596092D01*
X4627808Y1592406D01*
X4622595Y1587193D01*
X4618908Y1580808D01*
X4617000Y1573687D01*
Y1566314D01*
X4618908Y1559193D01*
X4622595Y1552808D01*
X4627808Y1547595D01*
X4634193Y1543908D01*
X4641314Y1542000D01*
X4648686D01*
X4655808Y1543908D01*
X4662193Y1547595D01*
X4667406Y1552808D01*
X4671092Y1559193D01*
X4673000Y1566314D01*
Y1573687D01*
X4671092Y1580808D01*
X4669460Y1583634D01*
X4672755Y1587927D01*
X4676238Y1586994D01*
X4683610D01*
X4690732Y1588902D01*
X4697117Y1592589D01*
X4702330Y1597802D01*
X4706016Y1604187D01*
X4707924Y1611308D01*
Y1618680D01*
X4706016Y1625802D01*
X4702330Y1632187D01*
X4697117Y1637400D01*
X4690732Y1641086D01*
X4683610Y1642994D01*
D02*
G37*
G36*
X5578610Y1622994D02*
X5571238D01*
X5564117Y1621086D01*
X5557732Y1617400D01*
X5552519Y1612187D01*
X5548832Y1605802D01*
X5546924Y1598680D01*
Y1591308D01*
X5548832Y1584187D01*
X5552519Y1577802D01*
X5557732Y1572589D01*
X5564117Y1568902D01*
X5571238Y1566994D01*
X5578610D01*
X5585732Y1568902D01*
X5592117Y1572589D01*
X5597330Y1577802D01*
X5601016Y1584187D01*
X5602924Y1591308D01*
Y1598680D01*
X5601016Y1605802D01*
X5597330Y1612187D01*
X5592117Y1617400D01*
X5585732Y1621086D01*
X5578610Y1622994D01*
D02*
G37*
G36*
X4111614Y1621994D02*
X4104242D01*
X4097121Y1620086D01*
X4090736Y1616400D01*
X4085523Y1611187D01*
X4081836Y1604802D01*
X4079928Y1597680D01*
Y1590308D01*
X4081836Y1583187D01*
X4085523Y1576802D01*
X4090736Y1571589D01*
X4097121Y1567902D01*
X4104242Y1565994D01*
X4111614D01*
X4118736Y1567902D01*
X4125121Y1571589D01*
X4130334Y1576802D01*
X4134020Y1583187D01*
X4135928Y1590308D01*
Y1597680D01*
X4134020Y1604802D01*
X4130334Y1611187D01*
X4125121Y1616400D01*
X4118736Y1620086D01*
X4111614Y1621994D01*
D02*
G37*
G36*
X4993610Y1608994D02*
X4986238D01*
X4979117Y1607086D01*
X4972732Y1603400D01*
X4967519Y1598187D01*
X4963832Y1591802D01*
X4961924Y1584680D01*
Y1577308D01*
X4963832Y1570187D01*
X4967519Y1563802D01*
X4972732Y1558589D01*
X4979117Y1554902D01*
X4986238Y1552994D01*
X4993610D01*
X5000732Y1554902D01*
X5007117Y1558589D01*
X5012330Y1563802D01*
X5016016Y1570187D01*
X5017924Y1577308D01*
Y1584680D01*
X5016016Y1591802D01*
X5012330Y1598187D01*
X5007117Y1603400D01*
X5000732Y1607086D01*
X4993610Y1608994D01*
D02*
G37*
G36*
X4108686Y1513000D02*
X4101314D01*
X4094193Y1511092D01*
X4087808Y1507406D01*
X4082595Y1502193D01*
X4078908Y1495808D01*
X4077000Y1488687D01*
Y1481314D01*
X4078908Y1474193D01*
X4082595Y1467808D01*
X4087808Y1462595D01*
X4094193Y1458908D01*
X4101314Y1457000D01*
X4108686D01*
X4115808Y1458908D01*
X4122193Y1462595D01*
X4127406Y1467808D01*
X4131092Y1474193D01*
X4133000Y1481314D01*
Y1488687D01*
X4131092Y1495808D01*
X4127406Y1502193D01*
X4122193Y1507406D01*
X4115808Y1511092D01*
X4108686Y1513000D01*
D02*
G37*
G36*
X4209610Y1411994D02*
X4202238D01*
X4195117Y1410086D01*
X4188732Y1406400D01*
X4183519Y1401187D01*
X4179832Y1394802D01*
X4177924Y1387680D01*
Y1380308D01*
X4179832Y1373187D01*
X4183519Y1366802D01*
X4188732Y1361589D01*
X4195117Y1357902D01*
X4202238Y1355994D01*
X4209610D01*
X4216732Y1357902D01*
X4223117Y1361589D01*
X4228330Y1366802D01*
X4232016Y1373187D01*
X4233924Y1380308D01*
Y1387680D01*
X4232016Y1394802D01*
X4228330Y1401187D01*
X4223117Y1406400D01*
X4216732Y1410086D01*
X4209610Y1411994D01*
D02*
G37*
G36*
X3343044Y1334428D02*
X3335672D01*
X3328551Y1332520D01*
X3322166Y1328834D01*
X3316953Y1323621D01*
X3313266Y1317236D01*
X3311358Y1310114D01*
Y1302742D01*
X3313266Y1295621D01*
X3316953Y1289236D01*
X3322166Y1284023D01*
X3328551Y1280336D01*
X3335672Y1278428D01*
X3343044D01*
X3350166Y1280336D01*
X3356551Y1284023D01*
X3361764Y1289236D01*
X3365450Y1295621D01*
X3367358Y1302742D01*
Y1310114D01*
X3365450Y1317236D01*
X3361764Y1323621D01*
X3356551Y1328834D01*
X3350166Y1332520D01*
X3343044Y1334428D01*
D02*
G37*
G36*
X3547610Y1182994D02*
X3540238D01*
X3533117Y1181086D01*
X3526732Y1177400D01*
X3521519Y1172187D01*
X3517832Y1165802D01*
X3515924Y1158680D01*
Y1151308D01*
X3517832Y1144187D01*
X3521519Y1137802D01*
X3526732Y1132589D01*
X3533117Y1128902D01*
X3540238Y1126994D01*
X3547610D01*
X3554732Y1128902D01*
X3561117Y1132589D01*
X3566330Y1137802D01*
X3570016Y1144187D01*
X3571924Y1151308D01*
Y1158680D01*
X3570016Y1165802D01*
X3566330Y1172187D01*
X3561117Y1177400D01*
X3554732Y1181086D01*
X3547610Y1182994D01*
D02*
G37*
G36*
X2934178Y3100682D02*
X2899178D01*
Y3065682D01*
X2899444D01*
X2909618Y3068408D01*
X2918739Y3073674D01*
X2926186Y3081122D01*
X2931452Y3090243D01*
X2934178Y3100416D01*
Y3100682D01*
D02*
G37*
G36*
X2889178D02*
X2854178D01*
Y3100416D01*
X2856904Y3090243D01*
X2862170Y3081122D01*
X2869618Y3073674D01*
X2878739Y3068408D01*
X2888912Y3065682D01*
X2889178D01*
Y3100682D01*
D02*
G37*
G36*
X1703687Y3063000D02*
X1696314D01*
X1689193Y3061092D01*
X1682808Y3057406D01*
X1677595Y3052193D01*
X1673908Y3045808D01*
X1672000Y3038686D01*
Y3031314D01*
X1673908Y3024193D01*
X1677595Y3017808D01*
X1682808Y3012595D01*
X1689193Y3008908D01*
X1696314Y3007000D01*
X1703687D01*
X1710808Y3008908D01*
X1717193Y3012595D01*
X1722406Y3017808D01*
X1726092Y3024193D01*
X1728000Y3031314D01*
Y3038686D01*
X1726092Y3045808D01*
X1722406Y3052193D01*
X1717193Y3057406D01*
X1710808Y3061092D01*
X1703687Y3063000D01*
D02*
G37*
G36*
X1268611Y3044994D02*
X1261238D01*
X1254117Y3043086D01*
X1247732Y3039400D01*
X1242519Y3034187D01*
X1238832Y3027802D01*
X1236924Y3020680D01*
Y3013308D01*
X1238832Y3006187D01*
X1242519Y2999802D01*
X1247732Y2994589D01*
X1254117Y2990902D01*
X1261238Y2988994D01*
X1268611D01*
X1275732Y2990902D01*
X1282117Y2994589D01*
X1287330Y2999802D01*
X1291016Y3006187D01*
X1292924Y3013308D01*
Y3020680D01*
X1291016Y3027802D01*
X1287330Y3034187D01*
X1282117Y3039400D01*
X1275732Y3043086D01*
X1268611Y3044994D01*
D02*
G37*
G36*
X1533687Y2998000D02*
X1526314D01*
X1519193Y2996092D01*
X1512808Y2992406D01*
X1507595Y2987193D01*
X1503908Y2980808D01*
X1502000Y2973686D01*
Y2966314D01*
X1503908Y2959193D01*
X1507595Y2952808D01*
X1512808Y2947595D01*
X1519193Y2943908D01*
X1526314Y2942000D01*
X1533687D01*
X1540808Y2943908D01*
X1547193Y2947595D01*
X1552406Y2952808D01*
X1556092Y2959193D01*
X1558000Y2966314D01*
Y2973686D01*
X1556092Y2980808D01*
X1552406Y2987193D01*
X1547193Y2992406D01*
X1540808Y2996092D01*
X1533687Y2998000D01*
D02*
G37*
G36*
X2098686Y2998000D02*
X2091314D01*
X2084192Y2996092D01*
X2077808Y2992406D01*
X2072594Y2987192D01*
X2068908Y2980808D01*
X2067000Y2973686D01*
Y2966314D01*
X2068908Y2959192D01*
X2072594Y2952808D01*
X2077808Y2947594D01*
X2084192Y2943908D01*
X2091314Y2942000D01*
X2098686D01*
X2105808Y2943908D01*
X2112192Y2947594D01*
X2117406Y2952808D01*
X2121092Y2959192D01*
X2123000Y2966314D01*
Y2973686D01*
X2121092Y2980808D01*
X2117406Y2987192D01*
X2112192Y2992406D01*
X2105808Y2996092D01*
X2098686Y2998000D01*
D02*
G37*
G36*
X1443687Y2963000D02*
X1436314D01*
X1429193Y2961092D01*
X1422808Y2957406D01*
X1417595Y2952193D01*
X1413908Y2945808D01*
X1412000Y2938686D01*
Y2931314D01*
X1413908Y2924193D01*
X1417595Y2917808D01*
X1422808Y2912595D01*
X1429193Y2908908D01*
X1436314Y2907000D01*
X1443687D01*
X1450808Y2908908D01*
X1457193Y2912595D01*
X1462406Y2917808D01*
X1466092Y2924193D01*
X1468000Y2931314D01*
Y2938686D01*
X1466092Y2945808D01*
X1462406Y2952193D01*
X1457193Y2957406D01*
X1450808Y2961092D01*
X1443687Y2963000D01*
D02*
G37*
G36*
X1926627Y2956994D02*
X1919254D01*
X1912133Y2955086D01*
X1905748Y2951400D01*
X1900535Y2946187D01*
X1896848Y2939802D01*
X1894940Y2932680D01*
Y2925308D01*
X1896848Y2918187D01*
X1900535Y2911802D01*
X1905748Y2906589D01*
X1912133Y2902902D01*
X1919254Y2900994D01*
X1926627D01*
X1933748Y2902902D01*
X1940133Y2906589D01*
X1945346Y2911802D01*
X1949032Y2918187D01*
X1950940Y2925308D01*
Y2932680D01*
X1949032Y2939802D01*
X1945346Y2946187D01*
X1940133Y2951400D01*
X1933748Y2955086D01*
X1926627Y2956994D01*
D02*
G37*
G36*
X2293686Y2923000D02*
X2286314D01*
X2279193Y2921092D01*
X2272808Y2917406D01*
X2267595Y2912193D01*
X2263908Y2905808D01*
X2262000Y2898686D01*
Y2894937D01*
X2257000Y2892866D01*
X2256104Y2893762D01*
X2253458Y2895530D01*
X2250336Y2896151D01*
X2250336Y2896151D01*
X2186325D01*
X2183204Y2895530D01*
X2180557Y2893762D01*
X2180557Y2893762D01*
X1831232Y2544437D01*
X1829464Y2541791D01*
X1828843Y2538669D01*
X1828843Y2538669D01*
Y2444919D01*
X1828843Y2444918D01*
X1829464Y2441797D01*
X1831232Y2439151D01*
X1850156Y2420227D01*
X1850157Y2420227D01*
X1852803Y2418458D01*
X1855924Y2417837D01*
X1855925Y2417838D01*
X1934545D01*
X1963767Y2388616D01*
Y2241796D01*
X1961117Y2241086D01*
X1954732Y2237400D01*
X1949519Y2232187D01*
X1945832Y2225802D01*
X1943924Y2218680D01*
Y2211308D01*
X1945832Y2204187D01*
X1949519Y2197802D01*
X1954732Y2192589D01*
X1961117Y2188902D01*
X1968238Y2186994D01*
X1975611D01*
X1982732Y2188902D01*
X1989117Y2192589D01*
X1994330Y2197802D01*
X1998016Y2204187D01*
X1999924Y2211308D01*
Y2218680D01*
X1998016Y2225802D01*
X1994330Y2232187D01*
X1989117Y2237400D01*
X1982732Y2241086D01*
X1980081Y2241796D01*
Y2391994D01*
X1980081Y2391994D01*
X1979460Y2395116D01*
X1977692Y2397762D01*
X1977692Y2397762D01*
X1943692Y2431762D01*
X1941046Y2433530D01*
X1937924Y2434151D01*
X1937924Y2434151D01*
X1897750D01*
X1895679Y2439151D01*
X1898330Y2441802D01*
X1902016Y2448187D01*
X1903694Y2454448D01*
X1945740Y2496495D01*
X1948117Y2495122D01*
X1955238Y2493214D01*
X1962611D01*
X1969732Y2495122D01*
X1976117Y2498809D01*
X1981330Y2504022D01*
X1985016Y2510407D01*
X1986028Y2514182D01*
X1991393Y2514888D01*
X1992594Y2512808D01*
X1997808Y2507594D01*
X2004192Y2503908D01*
X2011314Y2502000D01*
X2018686D01*
X2025808Y2503908D01*
X2032192Y2507594D01*
X2035767Y2511169D01*
X2040767Y2509098D01*
Y2202373D01*
X2026109Y2187714D01*
X2023732Y2189086D01*
X2016611Y2190994D01*
X2009238D01*
X2002117Y2189086D01*
X1995732Y2185400D01*
X1990519Y2180187D01*
X1986832Y2173802D01*
X1984924Y2166680D01*
Y2164033D01*
X1979924Y2162693D01*
X1977330Y2167187D01*
X1972117Y2172400D01*
X1965732Y2176086D01*
X1958611Y2177994D01*
X1951238D01*
X1944117Y2176086D01*
X1941740Y2174714D01*
X1812460Y2303994D01*
X1858740Y2350275D01*
X1861117Y2348902D01*
X1868238Y2346994D01*
X1875611D01*
X1882732Y2348902D01*
X1889117Y2352589D01*
X1894330Y2357802D01*
X1898016Y2364187D01*
X1899924Y2371308D01*
Y2378680D01*
X1898016Y2385802D01*
X1894330Y2392187D01*
X1889117Y2397400D01*
X1882732Y2401086D01*
X1875611Y2402994D01*
X1868238D01*
X1861117Y2401086D01*
X1854732Y2397400D01*
X1849519Y2392187D01*
X1845832Y2385802D01*
X1843924Y2378680D01*
Y2371308D01*
X1845832Y2364187D01*
X1847205Y2361810D01*
X1795157Y2309762D01*
X1793388Y2307116D01*
X1792767Y2303994D01*
X1793388Y2300873D01*
X1795157Y2298227D01*
X1930205Y2163178D01*
X1928832Y2160802D01*
X1926924Y2153680D01*
Y2146308D01*
X1928832Y2139187D01*
X1932519Y2132802D01*
X1937732Y2127589D01*
X1944117Y2123902D01*
X1951238Y2121994D01*
X1958611D01*
X1965732Y2123902D01*
X1972117Y2127589D01*
X1977330Y2132802D01*
X1981016Y2139187D01*
X1982924Y2146308D01*
Y2148956D01*
X1987924Y2150296D01*
X1990519Y2145802D01*
X1995732Y2140589D01*
X2002117Y2136902D01*
X2009238Y2134994D01*
X2016611D01*
X2023732Y2136902D01*
X2030117Y2140589D01*
X2035330Y2145802D01*
X2039016Y2152187D01*
X2040924Y2159308D01*
Y2166680D01*
X2039016Y2173802D01*
X2037644Y2176178D01*
X2054692Y2193226D01*
X2054692Y2193227D01*
X2056460Y2195873D01*
X2057081Y2198994D01*
X2057081Y2198995D01*
Y2401345D01*
X2062081Y2402684D01*
X2063917Y2399504D01*
X2070434Y2392987D01*
X2073572Y2391175D01*
Y1816994D01*
X2074969Y1809971D01*
X2078947Y1804017D01*
X2258998Y1623966D01*
X2257084Y1619347D01*
X2122526D01*
X1431486Y2310386D01*
X1432319Y2313494D01*
X1402424D01*
Y2283599D01*
X1405532Y2284432D01*
X2101947Y1588017D01*
X2107901Y1584039D01*
X2114924Y1582642D01*
X2919318D01*
X2919976Y1577642D01*
X2914192Y1576092D01*
X2907808Y1572406D01*
X2902594Y1567192D01*
X2898908Y1560808D01*
X2897000Y1553686D01*
Y1546314D01*
X2898908Y1539192D01*
X2902594Y1532808D01*
X2907808Y1527594D01*
X2914192Y1523908D01*
X2921314Y1522000D01*
X2928686D01*
X2935808Y1523908D01*
X2942192Y1527594D01*
X2947406Y1532808D01*
X2951092Y1539192D01*
X2953000Y1546314D01*
Y1553686D01*
X2951092Y1560808D01*
X2947406Y1567192D01*
X2942192Y1572406D01*
X2935808Y1576092D01*
X2930024Y1577642D01*
X2930682Y1582642D01*
X2967924D01*
X2974948Y1584039D01*
X2980901Y1588017D01*
X3023901Y1631017D01*
X3027880Y1636971D01*
X3029277Y1643994D01*
Y1763994D01*
Y2194076D01*
Y2656994D01*
Y2814076D01*
X3027880Y2821099D01*
X3024047Y2826835D01*
X3024895Y2830000D01*
X2955105D01*
X2957385Y2821491D01*
X2961993Y2813510D01*
X2968510Y2806993D01*
X2976491Y2802385D01*
X2985392Y2800000D01*
X2992572D01*
Y2707834D01*
X2987952Y2705921D01*
X2980901Y2712971D01*
X2974948Y2716950D01*
X2967924Y2718347D01*
X2287000D01*
X2279977Y2716950D01*
X2274023Y2712971D01*
X2222023Y2660971D01*
X2218045Y2655017D01*
X2217058Y2650056D01*
X2213510Y2648007D01*
X2206993Y2641491D01*
X2202385Y2633510D01*
X2200105Y2625000D01*
X2235000D01*
Y2620000D01*
X2240000D01*
Y2585105D01*
X2248510Y2587385D01*
X2256491Y2591993D01*
X2263007Y2598510D01*
X2267615Y2606491D01*
X2270000Y2615392D01*
Y2622116D01*
X2275000Y2622774D01*
X2275608Y2620505D01*
X2279295Y2614120D01*
X2284508Y2608907D01*
X2290893Y2605220D01*
X2298014Y2603312D01*
X2305387D01*
X2312508Y2605220D01*
X2318893Y2608907D01*
X2324106Y2614120D01*
X2327792Y2620505D01*
X2329700Y2627626D01*
Y2634999D01*
X2327792Y2642120D01*
X2324106Y2648505D01*
X2318893Y2653718D01*
X2312508Y2657404D01*
X2305387Y2659312D01*
X2298014D01*
X2290893Y2657404D01*
X2284508Y2653718D01*
X2279295Y2648505D01*
X2275608Y2642120D01*
X2273700Y2634999D01*
Y2630118D01*
X2268700Y2629460D01*
X2267615Y2633510D01*
X2263007Y2641491D01*
X2258729Y2645769D01*
X2294602Y2681642D01*
X2960322D01*
X2992572Y2649392D01*
Y2244916D01*
X2987952Y2243003D01*
X2834062Y2396892D01*
X2834895Y2400000D01*
X2805000D01*
Y2370105D01*
X2808108Y2370938D01*
X2992572Y2186474D01*
Y2020016D01*
X2987572Y2017945D01*
X2985117Y2020400D01*
X2978732Y2024086D01*
X2971610Y2025994D01*
X2964238D01*
X2957117Y2024086D01*
X2950732Y2020400D01*
X2945519Y2015187D01*
X2941832Y2008802D01*
X2941122Y2006151D01*
X2476925D01*
X2476924Y2006151D01*
X2473803Y2005530D01*
X2471157Y2003762D01*
X2471156Y2003762D01*
X2330108Y1862714D01*
X2327732Y1864086D01*
X2320610Y1865994D01*
X2313238D01*
X2306117Y1864086D01*
X2299732Y1860400D01*
X2294519Y1855187D01*
X2290832Y1848802D01*
X2288924Y1841680D01*
Y1834308D01*
X2290832Y1827187D01*
X2294519Y1820802D01*
X2299732Y1815589D01*
X2306117Y1811902D01*
X2313238Y1809994D01*
X2320610D01*
X2327732Y1811902D01*
X2334117Y1815589D01*
X2339330Y1820802D01*
X2343016Y1827187D01*
X2344924Y1834308D01*
Y1841680D01*
X2343016Y1848802D01*
X2341644Y1851178D01*
X2480303Y1989838D01*
X2941122D01*
X2941832Y1987187D01*
X2945519Y1980802D01*
X2950732Y1975589D01*
X2957117Y1971902D01*
X2964238Y1969994D01*
X2971610D01*
X2978732Y1971902D01*
X2985117Y1975589D01*
X2987572Y1978044D01*
X2992572Y1975973D01*
Y1771596D01*
X2980947Y1759971D01*
X2976969Y1754017D01*
X2975572Y1746994D01*
Y1702558D01*
X2974278Y1702053D01*
X2970572Y1701709D01*
X2967406Y1707193D01*
X2962193Y1712406D01*
X2955808Y1716092D01*
X2948686Y1718000D01*
X2941314D01*
X2934193Y1716092D01*
X2927808Y1712406D01*
X2922595Y1707193D01*
X2918908Y1700808D01*
X2917000Y1693687D01*
Y1686314D01*
X2918908Y1679193D01*
X2922595Y1672808D01*
X2927808Y1667595D01*
X2934193Y1663908D01*
X2941314Y1662000D01*
X2948686D01*
X2955808Y1663908D01*
X2962193Y1667595D01*
X2967406Y1672808D01*
X2970572Y1678291D01*
X2974278Y1677948D01*
X2975572Y1677442D01*
Y1663596D01*
X2931322Y1619347D01*
X2315526D01*
X2110277Y1824596D01*
Y2391175D01*
X2113415Y2392987D01*
X2119931Y2399504D01*
X2124539Y2407485D01*
X2126819Y2415994D01*
X2091924D01*
Y2420994D01*
X2086924D01*
Y2455889D01*
X2078415Y2453609D01*
X2070434Y2449001D01*
X2063917Y2442485D01*
X2062081Y2439304D01*
X2057081Y2440644D01*
Y2673994D01*
X2056460Y2677116D01*
X2054692Y2679762D01*
X2052046Y2681530D01*
X2048924Y2682151D01*
X2042994D01*
X2042016Y2685802D01*
X2038330Y2692187D01*
X2033117Y2697400D01*
X2026732Y2701086D01*
X2019864Y2702926D01*
X2018453Y2705265D01*
X2017480Y2707614D01*
X2189704Y2879838D01*
X2229263D01*
X2229921Y2874838D01*
X2227117Y2874086D01*
X2220732Y2870400D01*
X2215519Y2865187D01*
X2211832Y2858802D01*
X2209924Y2851680D01*
Y2844308D01*
X2211832Y2837187D01*
X2213205Y2834810D01*
X2174157Y2795762D01*
X2172388Y2793116D01*
X2171767Y2789994D01*
X2171767Y2789994D01*
Y2382572D01*
X2167177Y2378626D01*
X2165474Y2379082D01*
X2158102D01*
X2150981Y2377174D01*
X2144596Y2373488D01*
X2139383Y2368275D01*
X2135696Y2361890D01*
X2133788Y2354769D01*
Y2347396D01*
X2135696Y2340275D01*
X2139383Y2333890D01*
X2144596Y2328677D01*
X2150981Y2324990D01*
X2158102Y2323082D01*
X2165474D01*
X2166877Y2323458D01*
X2167378Y2323365D01*
X2171767Y2319592D01*
Y1895995D01*
X2171767Y1895994D01*
X2172388Y1892873D01*
X2174157Y1890226D01*
X2406156Y1658227D01*
X2406157Y1658226D01*
X2408803Y1656458D01*
X2411924Y1655838D01*
X2639122D01*
X2639832Y1653187D01*
X2643519Y1646802D01*
X2648732Y1641589D01*
X2655117Y1637902D01*
X2662238Y1635994D01*
X2669610D01*
X2676732Y1637902D01*
X2683117Y1641589D01*
X2688330Y1646802D01*
X2692016Y1653187D01*
X2693924Y1660308D01*
Y1667680D01*
X2692016Y1674802D01*
X2688330Y1681187D01*
X2683117Y1686400D01*
X2676732Y1690086D01*
X2669610Y1691994D01*
X2662238D01*
X2655117Y1690086D01*
X2648732Y1686400D01*
X2643519Y1681187D01*
X2639832Y1674802D01*
X2639122Y1672151D01*
X2415303D01*
X2188081Y1899373D01*
Y1975168D01*
X2193081Y1977239D01*
X2195732Y1974589D01*
X2202117Y1970902D01*
X2209238Y1968994D01*
X2216610D01*
X2223732Y1970902D01*
X2230117Y1974589D01*
X2235330Y1979802D01*
X2239016Y1986187D01*
X2240924Y1993308D01*
Y2000680D01*
X2239016Y2007802D01*
X2235330Y2014187D01*
X2230117Y2019400D01*
X2223732Y2023086D01*
X2216610Y2024994D01*
X2209238D01*
X2202117Y2023086D01*
X2195732Y2019400D01*
X2193081Y2016749D01*
X2188081Y2018820D01*
Y2180625D01*
X2190994Y2182034D01*
X2193081Y2182321D01*
X2197808Y2177594D01*
X2204192Y2173908D01*
X2211314Y2172000D01*
X2218686D01*
X2225808Y2173908D01*
X2232192Y2177594D01*
X2237406Y2182808D01*
X2241092Y2189192D01*
X2243000Y2196314D01*
Y2203686D01*
X2241092Y2210808D01*
X2237406Y2217192D01*
X2232192Y2222406D01*
X2225808Y2226092D01*
X2218686Y2228000D01*
X2211314D01*
X2204192Y2226092D01*
X2197808Y2222406D01*
X2193081Y2217679D01*
X2190994Y2217966D01*
X2188081Y2219375D01*
Y2319171D01*
X2200555Y2331644D01*
X2200556Y2331644D01*
X2201613Y2333227D01*
X2202324Y2334290D01*
X2202324Y2334291D01*
X2202324Y2334291D01*
X2202532Y2335336D01*
X2202945Y2337412D01*
X2202945Y2337412D01*
Y2364750D01*
X2202945Y2364750D01*
X2202324Y2367872D01*
X2200556Y2370518D01*
X2200556Y2370518D01*
X2188081Y2382993D01*
Y2728952D01*
X2193081Y2730292D01*
X2194519Y2727802D01*
X2199732Y2722589D01*
X2206117Y2718902D01*
X2213238Y2716994D01*
X2220610D01*
X2227732Y2718902D01*
X2234117Y2722589D01*
X2239330Y2727802D01*
X2243016Y2734187D01*
X2244924Y2741308D01*
Y2748680D01*
X2243016Y2755802D01*
X2239330Y2762187D01*
X2234117Y2767400D01*
X2227732Y2771086D01*
X2220610Y2772994D01*
X2213238D01*
X2206117Y2771086D01*
X2199732Y2767400D01*
X2194519Y2762187D01*
X2193081Y2759696D01*
X2188081Y2761036D01*
Y2786615D01*
X2224740Y2823275D01*
X2227117Y2821902D01*
X2234238Y2819994D01*
X2241610D01*
X2248732Y2821902D01*
X2255117Y2825589D01*
X2260330Y2830802D01*
X2264016Y2837187D01*
X2265924Y2844308D01*
Y2851680D01*
X2265148Y2854575D01*
X2269631Y2857164D01*
X2270562Y2856233D01*
X2270562Y2856233D01*
X2273209Y2854464D01*
X2276330Y2853843D01*
X2276331Y2853843D01*
X2303667D01*
X2303668Y2853843D01*
X2306789Y2854464D01*
X2309436Y2856233D01*
X2309436Y2856233D01*
X2327458Y2874253D01*
X2333707Y2873431D01*
X2335225Y2870802D01*
X2340438Y2865589D01*
X2346823Y2861902D01*
X2353944Y2859994D01*
X2361316D01*
X2368438Y2861902D01*
X2374823Y2865589D01*
X2380036Y2870802D01*
X2383722Y2877187D01*
X2385630Y2884308D01*
Y2891680D01*
X2383722Y2898802D01*
X2380036Y2905187D01*
X2374823Y2910400D01*
X2368438Y2914086D01*
X2361316Y2915994D01*
X2353944D01*
X2346823Y2914086D01*
X2340438Y2910400D01*
X2335225Y2905187D01*
X2331538Y2898802D01*
X2330828Y2896151D01*
X2329665D01*
X2329664Y2896151D01*
X2326543Y2895530D01*
X2323896Y2893762D01*
X2323896Y2893762D01*
X2323000Y2892866D01*
X2318000Y2894937D01*
Y2898686D01*
X2316092Y2905808D01*
X2312406Y2912193D01*
X2307193Y2917406D01*
X2300808Y2921092D01*
X2293686Y2923000D01*
D02*
G37*
G36*
X1659611Y2943994D02*
X1652238D01*
X1645117Y2942086D01*
X1638732Y2938400D01*
X1633519Y2933187D01*
X1629832Y2926802D01*
X1627924Y2919680D01*
Y2912308D01*
X1629832Y2905187D01*
X1633519Y2898802D01*
X1638732Y2893589D01*
X1645117Y2889902D01*
X1652238Y2887994D01*
X1659611D01*
X1666732Y2889902D01*
X1673117Y2893589D01*
X1678330Y2898802D01*
X1682016Y2905187D01*
X1683924Y2912308D01*
Y2919680D01*
X1682016Y2926802D01*
X1678330Y2933187D01*
X1673117Y2938400D01*
X1666732Y2942086D01*
X1659611Y2943994D01*
D02*
G37*
G36*
X2019611Y2892994D02*
X2012238D01*
X2005117Y2891086D01*
X1998732Y2887400D01*
X1993519Y2882187D01*
X1989832Y2875802D01*
X1987924Y2868680D01*
Y2861308D01*
X1989832Y2854187D01*
X1991413Y2851449D01*
X1987753Y2847789D01*
X1983602Y2850185D01*
X1976480Y2852093D01*
X1969108D01*
X1961987Y2850185D01*
X1955602Y2846499D01*
X1950389Y2841286D01*
X1948169Y2837441D01*
X1947142Y2837360D01*
X1942962Y2838422D01*
X1941418Y2844181D01*
X1937732Y2850566D01*
X1932519Y2855779D01*
X1926134Y2859466D01*
X1919013Y2861374D01*
X1911640D01*
X1904519Y2859466D01*
X1898134Y2855779D01*
X1892921Y2850566D01*
X1889235Y2844181D01*
X1887327Y2837060D01*
Y2829688D01*
X1889235Y2822566D01*
X1892921Y2816181D01*
X1898134Y2810968D01*
X1904519Y2807282D01*
X1911640Y2805374D01*
X1919013D01*
X1926134Y2807282D01*
X1932519Y2810968D01*
X1937732Y2816181D01*
X1939952Y2820026D01*
X1940979Y2820107D01*
X1945159Y2819045D01*
X1946702Y2813286D01*
X1950389Y2806901D01*
X1955602Y2801688D01*
X1961987Y2798002D01*
X1969108Y2796093D01*
X1976480D01*
X1983602Y2798002D01*
X1989987Y2801688D01*
X1995200Y2806901D01*
X1998886Y2813286D01*
X2000794Y2820407D01*
Y2827780D01*
X1998886Y2834901D01*
X1997305Y2837639D01*
X2000966Y2841299D01*
X2005117Y2838902D01*
X2012238Y2836994D01*
X2019611D01*
X2026732Y2838902D01*
X2033117Y2842589D01*
X2038330Y2847802D01*
X2042016Y2854187D01*
X2043924Y2861308D01*
Y2868680D01*
X2042016Y2875802D01*
X2038330Y2882187D01*
X2033117Y2887400D01*
X2026732Y2891086D01*
X2019611Y2892994D01*
D02*
G37*
G36*
X2995000Y2869895D02*
Y2840000D01*
X3024895D01*
X3022615Y2848510D01*
X3018007Y2856491D01*
X3011491Y2863007D01*
X3003510Y2867615D01*
X2995000Y2869895D01*
D02*
G37*
G36*
X2985000D02*
X2976491Y2867615D01*
X2968510Y2863007D01*
X2961993Y2856491D01*
X2957385Y2848510D01*
X2955105Y2840000D01*
X2985000D01*
Y2869895D01*
D02*
G37*
G36*
X1693611Y2892994D02*
X1686238D01*
X1679117Y2891086D01*
X1672732Y2887400D01*
X1667519Y2882187D01*
X1663832Y2875802D01*
X1661924Y2868680D01*
Y2861308D01*
X1663832Y2854187D01*
X1667519Y2847802D01*
X1672732Y2842589D01*
X1679117Y2838902D01*
X1686238Y2836994D01*
X1693611D01*
X1700732Y2838902D01*
X1707117Y2842589D01*
X1712330Y2847802D01*
X1716016Y2854187D01*
X1717924Y2861308D01*
Y2868680D01*
X1716016Y2875802D01*
X1712330Y2882187D01*
X1707117Y2887400D01*
X1700732Y2891086D01*
X1693611Y2892994D01*
D02*
G37*
G36*
X1835080Y2773123D02*
Y2743228D01*
X1864975D01*
X1862695Y2751738D01*
X1858087Y2759719D01*
X1851571Y2766235D01*
X1843590Y2770843D01*
X1835080Y2773123D01*
D02*
G37*
G36*
X1825080D02*
X1816571Y2770843D01*
X1808590Y2766235D01*
X1802073Y2759719D01*
X1797465Y2751738D01*
X1795185Y2743228D01*
X1825080D01*
Y2773123D01*
D02*
G37*
G36*
X1864975Y2733228D02*
X1835080D01*
Y2703333D01*
X1843590Y2705613D01*
X1851571Y2710221D01*
X1858087Y2716738D01*
X1862695Y2724719D01*
X1864975Y2733228D01*
D02*
G37*
G36*
X1825080D02*
X1795185D01*
X1797465Y2724719D01*
X1802073Y2716738D01*
X1808590Y2710221D01*
X1816571Y2705613D01*
X1825080Y2703333D01*
Y2733228D01*
D02*
G37*
G36*
X1523687Y2738000D02*
X1516314D01*
X1509193Y2736092D01*
X1502808Y2732406D01*
X1497595Y2727193D01*
X1493908Y2720808D01*
X1492000Y2713686D01*
Y2706314D01*
X1493908Y2699193D01*
X1497595Y2692808D01*
X1502808Y2687595D01*
X1509193Y2683908D01*
X1516314Y2682000D01*
X1523687D01*
X1530808Y2683908D01*
X1537193Y2687595D01*
X1542406Y2692808D01*
X1546092Y2699193D01*
X1548000Y2706314D01*
Y2713686D01*
X1546092Y2720808D01*
X1542406Y2727193D01*
X1537193Y2732406D01*
X1530808Y2736092D01*
X1523687Y2738000D01*
D02*
G37*
G36*
X1413686Y2723000D02*
X1406314D01*
X1399192Y2721092D01*
X1392808Y2717406D01*
X1387594Y2712192D01*
X1383908Y2705808D01*
X1382000Y2698686D01*
Y2691314D01*
X1383908Y2684192D01*
X1387594Y2677808D01*
X1392808Y2672594D01*
X1399192Y2668908D01*
X1406314Y2667000D01*
X1413686D01*
X1420808Y2668908D01*
X1427192Y2672594D01*
X1432406Y2677808D01*
X1436092Y2684192D01*
X1438000Y2691314D01*
Y2698686D01*
X1436092Y2705808D01*
X1432406Y2712192D01*
X1427192Y2717406D01*
X1420808Y2721092D01*
X1413686Y2723000D01*
D02*
G37*
G36*
X1543444Y2647803D02*
Y2617908D01*
X1573339D01*
X1571059Y2626418D01*
X1566451Y2634399D01*
X1559935Y2640915D01*
X1551954Y2645523D01*
X1543444Y2647803D01*
D02*
G37*
G36*
X1533444D02*
X1524935Y2645523D01*
X1516954Y2640915D01*
X1510437Y2634399D01*
X1505830Y2626418D01*
X1503550Y2617908D01*
X1533444D01*
Y2647803D01*
D02*
G37*
G36*
X2230000Y2615000D02*
X2200105D01*
X2202385Y2606491D01*
X2206993Y2598510D01*
X2213510Y2591993D01*
X2221491Y2587385D01*
X2230000Y2585105D01*
Y2615000D01*
D02*
G37*
G36*
X1303611Y2785994D02*
X1296238D01*
X1289117Y2784086D01*
X1282732Y2780400D01*
X1277519Y2775187D01*
X1273832Y2768802D01*
X1271924Y2761680D01*
Y2754308D01*
X1273832Y2747187D01*
X1277519Y2740802D01*
X1282732Y2735589D01*
X1289117Y2731902D01*
X1296238Y2729994D01*
X1303611D01*
X1310732Y2731902D01*
X1317117Y2735589D01*
X1317658Y2736130D01*
X1323198Y2734599D01*
X1324380Y2730187D01*
X1328067Y2723802D01*
X1333280Y2718589D01*
X1339665Y2714902D01*
X1342315Y2714192D01*
Y1247248D01*
X1339665Y1246538D01*
X1333280Y1242852D01*
X1328067Y1237639D01*
X1324380Y1231254D01*
X1322472Y1224132D01*
Y1216760D01*
X1324380Y1209639D01*
X1328067Y1203254D01*
X1333280Y1198041D01*
X1339665Y1194354D01*
X1346786Y1192446D01*
X1354159D01*
X1361280Y1194354D01*
X1367665Y1198041D01*
X1372878Y1203254D01*
X1376564Y1209639D01*
X1378472Y1216760D01*
Y1224132D01*
X1376564Y1231254D01*
X1372878Y1237639D01*
X1367665Y1242852D01*
X1361280Y1246538D01*
X1358629Y1247248D01*
Y2136221D01*
X1363248Y2138135D01*
X1780767Y1720616D01*
Y1475796D01*
X1778117Y1475086D01*
X1771732Y1471400D01*
X1766519Y1466187D01*
X1762832Y1459802D01*
X1760924Y1452680D01*
Y1445308D01*
X1762832Y1438187D01*
X1766519Y1431802D01*
X1771732Y1426589D01*
X1778117Y1422902D01*
X1785238Y1420994D01*
X1792611D01*
X1799732Y1422902D01*
X1806117Y1426589D01*
X1811330Y1431802D01*
X1815016Y1438187D01*
X1816924Y1445308D01*
Y1452680D01*
X1815016Y1459802D01*
X1811330Y1466187D01*
X1806117Y1471400D01*
X1799732Y1475086D01*
X1797081Y1475796D01*
Y1723994D01*
X1797081Y1723994D01*
X1796460Y1727116D01*
X1794692Y1729762D01*
X1794692Y1729762D01*
X1372081Y2152373D01*
Y2287920D01*
X1377081Y2289825D01*
X1383915Y2285879D01*
X1392424Y2283599D01*
Y2318494D01*
Y2353389D01*
X1383915Y2351109D01*
X1377081Y2347164D01*
X1372081Y2349068D01*
Y2438615D01*
X1480303Y2546838D01*
X1485122D01*
X1485832Y2544187D01*
X1489519Y2537802D01*
X1494732Y2532589D01*
X1501117Y2528902D01*
X1508238Y2526994D01*
X1515611D01*
X1522732Y2528902D01*
X1529117Y2532589D01*
X1534330Y2537802D01*
X1538016Y2544187D01*
X1539924Y2551308D01*
Y2558680D01*
X1538016Y2565802D01*
X1534330Y2572187D01*
X1533447Y2573070D01*
X1535679Y2577908D01*
X1543052D01*
X1551954Y2580293D01*
X1559935Y2584901D01*
X1566451Y2591418D01*
X1571059Y2599399D01*
X1573339Y2607908D01*
X1503550D01*
X1505830Y2599399D01*
X1510437Y2591418D01*
X1513861Y2587994D01*
X1511790Y2582994D01*
X1508238D01*
X1501117Y2581086D01*
X1494732Y2577400D01*
X1489519Y2572187D01*
X1485832Y2565802D01*
X1485122Y2563151D01*
X1476924D01*
X1473803Y2562530D01*
X1471157Y2560762D01*
X1471156Y2560762D01*
X1363248Y2452854D01*
X1358629Y2454767D01*
Y2714192D01*
X1361280Y2714902D01*
X1367665Y2718589D01*
X1372878Y2723802D01*
X1376564Y2730187D01*
X1378472Y2737308D01*
Y2744680D01*
X1376564Y2751802D01*
X1372878Y2758187D01*
X1367665Y2763400D01*
X1361280Y2767086D01*
X1354159Y2768994D01*
X1346786D01*
X1339665Y2767086D01*
X1333280Y2763400D01*
X1332739Y2762859D01*
X1327198Y2764390D01*
X1326016Y2768802D01*
X1322330Y2775187D01*
X1317117Y2780400D01*
X1310732Y2784086D01*
X1303611Y2785994D01*
D02*
G37*
G36*
X1708686Y2578000D02*
X1701314D01*
X1694192Y2576092D01*
X1687808Y2572406D01*
X1682594Y2567192D01*
X1678908Y2560808D01*
X1677000Y2553686D01*
Y2546314D01*
X1678908Y2539192D01*
X1682594Y2532808D01*
X1688100Y2527302D01*
X1694485Y2523615D01*
X1701607Y2521707D01*
X1708979D01*
X1716100Y2523615D01*
X1722485Y2527302D01*
X1727698Y2532515D01*
X1731385Y2538900D01*
X1733293Y2546021D01*
Y2553394D01*
X1731385Y2560515D01*
X1727698Y2566900D01*
X1722192Y2572406D01*
X1715808Y2576092D01*
X1708686Y2578000D01*
D02*
G37*
G36*
X1643686Y2553000D02*
X1636314D01*
X1629192Y2551092D01*
X1622808Y2547406D01*
X1617594Y2542192D01*
X1613908Y2535808D01*
X1612000Y2528686D01*
Y2521314D01*
X1613908Y2514192D01*
X1617594Y2507808D01*
X1622808Y2502594D01*
X1629192Y2498908D01*
X1636314Y2497000D01*
X1643686D01*
X1650808Y2498908D01*
X1657192Y2502594D01*
X1662406Y2507808D01*
X1666092Y2514192D01*
X1668000Y2521314D01*
Y2528686D01*
X1666092Y2535808D01*
X1662406Y2542192D01*
X1657192Y2547406D01*
X1650808Y2551092D01*
X1643686Y2553000D01*
D02*
G37*
G36*
X2378223Y2499829D02*
X2370850D01*
X2363729Y2497921D01*
X2357344Y2494235D01*
X2352131Y2489022D01*
X2348445Y2482637D01*
X2346537Y2475516D01*
Y2468143D01*
X2348445Y2461022D01*
X2352131Y2454637D01*
X2357344Y2449424D01*
X2363729Y2445738D01*
X2370850Y2443829D01*
X2378223D01*
X2385344Y2445738D01*
X2391729Y2449424D01*
X2396942Y2454637D01*
X2400628Y2461022D01*
X2402537Y2468143D01*
Y2475516D01*
X2400628Y2482637D01*
X2396942Y2489022D01*
X2391729Y2494235D01*
X2385344Y2497921D01*
X2378223Y2499829D01*
D02*
G37*
G36*
X2096924Y2455889D02*
Y2425994D01*
X2126819D01*
X2124539Y2434504D01*
X2119931Y2442485D01*
X2113415Y2449001D01*
X2105434Y2453609D01*
X2096924Y2455889D01*
D02*
G37*
G36*
X2805000Y2439895D02*
Y2410000D01*
X2834895D01*
X2832615Y2418510D01*
X2828007Y2426491D01*
X2821491Y2433007D01*
X2813510Y2437615D01*
X2805000Y2439895D01*
D02*
G37*
G36*
X2795000D02*
X2786491Y2437615D01*
X2778510Y2433007D01*
X2771993Y2426491D01*
X2767385Y2418510D01*
X2765105Y2410000D01*
X2795000D01*
Y2439895D01*
D02*
G37*
G36*
X3069610Y3073000D02*
X3062238D01*
X3055117Y3071092D01*
X3048732Y3067406D01*
X3043519Y3062193D01*
X3039832Y3055808D01*
X3037924Y3048686D01*
Y3041314D01*
X3039832Y3034193D01*
X3043519Y3027808D01*
X3048732Y3022595D01*
X3055117Y3018908D01*
X3057767Y3018198D01*
Y2615910D01*
X3054051Y2612193D01*
X3050364Y2605808D01*
X3048456Y2598686D01*
Y2591314D01*
X3050364Y2584193D01*
X3054051Y2577808D01*
X3057767Y2574091D01*
Y2447796D01*
X3055117Y2447086D01*
X3048732Y2443400D01*
X3043519Y2438187D01*
X3039832Y2431802D01*
X3037924Y2424680D01*
Y2417308D01*
X3039832Y2410187D01*
X3043519Y2403802D01*
X3048732Y2398589D01*
X3055117Y2394902D01*
X3062238Y2392994D01*
X3069610D01*
X3076732Y2394902D01*
X3083117Y2398589D01*
X3088330Y2403802D01*
X3092016Y2410187D01*
X3093924Y2417308D01*
Y2424680D01*
X3092016Y2431802D01*
X3088330Y2438187D01*
X3083117Y2443400D01*
X3076732Y2447086D01*
X3074081Y2447796D01*
Y2567000D01*
X3080142D01*
X3087264Y2568908D01*
X3093649Y2572595D01*
X3098862Y2577808D01*
X3102548Y2584193D01*
X3104456Y2591314D01*
Y2598686D01*
X3102548Y2605808D01*
X3098862Y2612193D01*
X3093649Y2617406D01*
X3087264Y2621092D01*
X3080142Y2623000D01*
X3074081D01*
Y3018198D01*
X3076732Y3018908D01*
X3083117Y3022595D01*
X3088330Y3027808D01*
X3092016Y3034193D01*
X3093924Y3041314D01*
Y3048686D01*
X3092016Y3055808D01*
X3088330Y3062193D01*
X3083117Y3067406D01*
X3076732Y3071092D01*
X3069610Y3073000D01*
D02*
G37*
G36*
X1643686Y2638000D02*
X1636314D01*
X1629192Y2636092D01*
X1622808Y2632406D01*
X1617594Y2627192D01*
X1613908Y2620808D01*
X1612000Y2613686D01*
Y2606314D01*
X1613908Y2599192D01*
X1617594Y2592808D01*
X1621933Y2588469D01*
X1512973Y2479508D01*
X1511204Y2476862D01*
X1510583Y2473740D01*
X1510583Y2473740D01*
Y2456979D01*
X1506003Y2455751D01*
X1498478Y2451407D01*
X1492334Y2445263D01*
X1487989Y2437738D01*
X1485740Y2429345D01*
Y2420656D01*
X1487989Y2412263D01*
X1492334Y2404738D01*
X1498478Y2398594D01*
X1506003Y2394249D01*
X1514396Y2392000D01*
X1523085D01*
X1531478Y2394249D01*
X1539003Y2398594D01*
X1545147Y2404738D01*
X1549491Y2412263D01*
X1551740Y2420656D01*
Y2429345D01*
X1549491Y2437738D01*
X1545147Y2445263D01*
X1539003Y2451407D01*
X1531478Y2455751D01*
X1526897Y2456979D01*
Y2470361D01*
X1638535Y2582000D01*
X1643686D01*
X1650808Y2583908D01*
X1657192Y2587594D01*
X1662406Y2592808D01*
X1666092Y2599192D01*
X1668000Y2606314D01*
Y2613686D01*
X1666092Y2620808D01*
X1662406Y2627192D01*
X1657192Y2632406D01*
X1650808Y2636092D01*
X1643686Y2638000D01*
D02*
G37*
G36*
X2592610Y2440994D02*
X2585238D01*
X2578117Y2439086D01*
X2571732Y2435400D01*
X2566519Y2430187D01*
X2562832Y2423802D01*
X2560924Y2416680D01*
Y2409308D01*
X2562832Y2402187D01*
X2566519Y2395802D01*
X2571732Y2390589D01*
X2578117Y2386902D01*
X2585238Y2384994D01*
X2592610D01*
X2599732Y2386902D01*
X2606117Y2390589D01*
X2611330Y2395802D01*
X2615016Y2402187D01*
X2616924Y2409308D01*
Y2416680D01*
X2615016Y2423802D01*
X2611330Y2430187D01*
X2606117Y2435400D01*
X2599732Y2439086D01*
X2592610Y2440994D01*
D02*
G37*
G36*
X2795000Y2400000D02*
X2765105D01*
X2767385Y2391491D01*
X2771993Y2383510D01*
X2778510Y2376993D01*
X2786491Y2372385D01*
X2795000Y2370105D01*
Y2400000D01*
D02*
G37*
G36*
X2443686Y2413000D02*
X2436314D01*
X2429192Y2411092D01*
X2422808Y2407406D01*
X2417594Y2402192D01*
X2413908Y2395808D01*
X2412000Y2388686D01*
Y2381314D01*
X2413908Y2374192D01*
X2417594Y2367808D01*
X2422808Y2362594D01*
X2429192Y2358908D01*
X2436314Y2357000D01*
X2443686D01*
X2450808Y2358908D01*
X2457192Y2362594D01*
X2462406Y2367808D01*
X2466092Y2374192D01*
X2468000Y2381314D01*
Y2388686D01*
X2466092Y2395808D01*
X2462406Y2402192D01*
X2457192Y2407406D01*
X2450808Y2411092D01*
X2443686Y2413000D01*
D02*
G37*
G36*
X1402424Y2353389D02*
Y2323494D01*
X1432319D01*
X1430039Y2332004D01*
X1425431Y2339985D01*
X1418915Y2346501D01*
X1410934Y2351109D01*
X1402424Y2353389D01*
D02*
G37*
G36*
X2727610Y2624994D02*
X2720238D01*
X2713117Y2623086D01*
X2706732Y2619400D01*
X2701519Y2614187D01*
X2697832Y2607802D01*
X2695924Y2600680D01*
Y2593308D01*
X2697832Y2586187D01*
X2701519Y2579802D01*
X2706732Y2574589D01*
X2713117Y2570902D01*
X2715767Y2570192D01*
Y2352796D01*
X2713117Y2352086D01*
X2706732Y2348400D01*
X2701519Y2343187D01*
X2697832Y2336802D01*
X2695924Y2329680D01*
Y2322308D01*
X2697832Y2315187D01*
X2701519Y2308802D01*
X2706732Y2303589D01*
X2713117Y2299902D01*
X2720238Y2297994D01*
X2727610D01*
X2734732Y2299902D01*
X2741117Y2303589D01*
X2746330Y2308802D01*
X2750016Y2315187D01*
X2751924Y2322308D01*
Y2329680D01*
X2750016Y2336802D01*
X2746330Y2343187D01*
X2741117Y2348400D01*
X2734732Y2352086D01*
X2732081Y2352796D01*
Y2570192D01*
X2734732Y2570902D01*
X2741117Y2574589D01*
X2746330Y2579802D01*
X2750016Y2586187D01*
X2751924Y2593308D01*
Y2600680D01*
X2750016Y2607802D01*
X2746330Y2614187D01*
X2741117Y2619400D01*
X2734732Y2623086D01*
X2727610Y2624994D01*
D02*
G37*
G36*
X2301186Y2320500D02*
X2293814D01*
X2286692Y2318592D01*
X2280308Y2314906D01*
X2275094Y2309692D01*
X2271408Y2303308D01*
X2269500Y2296186D01*
Y2288814D01*
X2271408Y2281692D01*
X2275094Y2275308D01*
X2280308Y2270094D01*
X2286692Y2266408D01*
X2293814Y2264500D01*
X2301186D01*
X2308308Y2266408D01*
X2314692Y2270094D01*
X2319906Y2275308D01*
X2323592Y2281692D01*
X2325500Y2288814D01*
Y2296186D01*
X2323592Y2303308D01*
X2319906Y2309692D01*
X2314692Y2314906D01*
X2308308Y2318592D01*
X2301186Y2320500D01*
D02*
G37*
G36*
X1473000Y2458000D02*
X1407000D01*
Y2392000D01*
X1461465D01*
X1574287Y2279178D01*
X1572914Y2276802D01*
X1571006Y2269680D01*
Y2262308D01*
X1572914Y2255187D01*
X1576601Y2248802D01*
X1581814Y2243589D01*
X1588199Y2239902D01*
X1595320Y2237994D01*
X1602693D01*
X1609814Y2239902D01*
X1616199Y2243589D01*
X1621412Y2248802D01*
X1625098Y2255187D01*
X1627006Y2262308D01*
Y2269680D01*
X1625098Y2276802D01*
X1621412Y2283187D01*
X1616199Y2288400D01*
X1609814Y2292086D01*
X1602693Y2293994D01*
X1595320D01*
X1588199Y2292086D01*
X1585822Y2290714D01*
X1473000Y2403536D01*
Y2458000D01*
D02*
G37*
G36*
X1712436Y2286750D02*
X1705064D01*
X1697942Y2284842D01*
X1691558Y2281156D01*
X1686344Y2275942D01*
X1682658Y2269558D01*
X1680750Y2262436D01*
Y2255064D01*
X1682658Y2247942D01*
X1686344Y2241558D01*
X1691558Y2236344D01*
X1697942Y2232658D01*
X1705064Y2230750D01*
X1712436D01*
X1719558Y2232658D01*
X1725942Y2236344D01*
X1731156Y2241558D01*
X1734842Y2247942D01*
X1736750Y2255064D01*
Y2262436D01*
X1734842Y2269558D01*
X1731156Y2275942D01*
X1725942Y2281156D01*
X1719558Y2284842D01*
X1712436Y2286750D01*
D02*
G37*
G36*
X2738686Y2233000D02*
X2731314D01*
X2724192Y2231092D01*
X2717808Y2227406D01*
X2711344Y2220942D01*
X2707658Y2214558D01*
X2705750Y2207436D01*
Y2200064D01*
X2707658Y2192942D01*
X2711344Y2186558D01*
X2716558Y2181344D01*
X2722942Y2177658D01*
X2730064Y2175750D01*
X2737436D01*
X2744558Y2177658D01*
X2750942Y2181344D01*
X2757406Y2187808D01*
X2761092Y2194192D01*
X2763000Y2201314D01*
Y2208686D01*
X2761092Y2215808D01*
X2757406Y2222192D01*
X2752192Y2227406D01*
X2745808Y2231092D01*
X2738686Y2233000D01*
D02*
G37*
G36*
X1768686Y2228000D02*
X1761314D01*
X1754192Y2226092D01*
X1747808Y2222406D01*
X1742594Y2217192D01*
X1738908Y2210808D01*
X1737000Y2203686D01*
Y2196314D01*
X1738908Y2189192D01*
X1742594Y2182808D01*
X1747808Y2177594D01*
X1754192Y2173908D01*
X1761314Y2172000D01*
X1768686D01*
X1775808Y2173908D01*
X1782192Y2177594D01*
X1787406Y2182808D01*
X1791092Y2189192D01*
X1793000Y2196314D01*
Y2203686D01*
X1791092Y2210808D01*
X1787406Y2217192D01*
X1782192Y2222406D01*
X1775808Y2226092D01*
X1768686Y2228000D01*
D02*
G37*
G36*
X2440700Y2194895D02*
Y2165000D01*
X2470595D01*
X2468315Y2173510D01*
X2463707Y2181491D01*
X2457191Y2188007D01*
X2449210Y2192615D01*
X2440700Y2194895D01*
D02*
G37*
G36*
X2430700D02*
X2422191Y2192615D01*
X2414210Y2188007D01*
X2407693Y2181491D01*
X2403085Y2173510D01*
X2400805Y2165000D01*
X2430700D01*
Y2194895D01*
D02*
G37*
G36*
X1865047Y2188005D02*
X1857674D01*
X1850553Y2186097D01*
X1844168Y2182411D01*
X1838955Y2177198D01*
X1835269Y2170813D01*
X1833361Y2163691D01*
Y2156319D01*
X1835269Y2149198D01*
X1838955Y2142813D01*
X1844168Y2137600D01*
X1850553Y2133913D01*
X1857674Y2132005D01*
X1865047D01*
X1872168Y2133913D01*
X1878553Y2137600D01*
X1883766Y2142813D01*
X1887452Y2149198D01*
X1889361Y2156319D01*
Y2163691D01*
X1887452Y2170813D01*
X1883766Y2177198D01*
X1878553Y2182411D01*
X1872168Y2186097D01*
X1865047Y2188005D01*
D02*
G37*
G36*
X1718686Y2183000D02*
X1711314D01*
X1704192Y2181092D01*
X1697808Y2177406D01*
X1692594Y2172192D01*
X1688908Y2165808D01*
X1687000Y2158686D01*
Y2151314D01*
X1688908Y2144192D01*
X1692594Y2137808D01*
X1697808Y2132594D01*
X1704192Y2128908D01*
X1711314Y2127000D01*
X1718686D01*
X1725808Y2128908D01*
X1732192Y2132594D01*
X1737406Y2137808D01*
X1741092Y2144192D01*
X1743000Y2151314D01*
Y2158686D01*
X1741092Y2165808D01*
X1737406Y2172192D01*
X1732192Y2177406D01*
X1725808Y2181092D01*
X1718686Y2183000D01*
D02*
G37*
G36*
X2470595Y2155000D02*
X2440700D01*
Y2125105D01*
X2449210Y2127385D01*
X2457191Y2131993D01*
X2463707Y2138510D01*
X2468315Y2146491D01*
X2470595Y2155000D01*
D02*
G37*
G36*
X2430700D02*
X2400805D01*
X2403085Y2146491D01*
X2407693Y2138510D01*
X2414210Y2131993D01*
X2422191Y2127385D01*
X2430700Y2125105D01*
Y2155000D01*
D02*
G37*
G36*
X2363686Y2178000D02*
X2356314D01*
X2349192Y2176092D01*
X2342808Y2172406D01*
X2337594Y2167192D01*
X2333908Y2160808D01*
X2332000Y2153686D01*
Y2146314D01*
X2333908Y2139192D01*
X2337594Y2132808D01*
X2342808Y2127594D01*
X2349192Y2123908D01*
X2356314Y2122000D01*
X2363686D01*
X2370808Y2123908D01*
X2377192Y2127594D01*
X2382406Y2132808D01*
X2386092Y2139192D01*
X2388000Y2146314D01*
Y2153686D01*
X2386092Y2160808D01*
X2382406Y2167192D01*
X2377192Y2172406D01*
X2370808Y2176092D01*
X2363686Y2178000D01*
D02*
G37*
G36*
X2708686Y2168000D02*
X2701314D01*
X2694192Y2166092D01*
X2687808Y2162406D01*
X2682594Y2157192D01*
X2678908Y2150808D01*
X2677000Y2143686D01*
Y2136314D01*
X2678908Y2129192D01*
X2682594Y2122808D01*
X2687808Y2117594D01*
X2694192Y2113908D01*
X2701314Y2112000D01*
X2708686D01*
X2715808Y2113908D01*
X2722192Y2117594D01*
X2727406Y2122808D01*
X2731092Y2129192D01*
X2733000Y2136314D01*
Y2143686D01*
X2731092Y2150808D01*
X2727406Y2157192D01*
X2722192Y2162406D01*
X2715808Y2166092D01*
X2708686Y2168000D01*
D02*
G37*
G36*
X2228686Y2098000D02*
X2221314D01*
X2214192Y2096092D01*
X2207808Y2092406D01*
X2202594Y2087192D01*
X2198908Y2080808D01*
X2197000Y2073686D01*
Y2066314D01*
X2198908Y2059192D01*
X2202594Y2052808D01*
X2207808Y2047594D01*
X2214192Y2043908D01*
X2221314Y2042000D01*
X2228686D01*
X2235808Y2043908D01*
X2242192Y2047594D01*
X2247406Y2052808D01*
X2251092Y2059192D01*
X2253000Y2066314D01*
Y2073686D01*
X2251092Y2080808D01*
X2247406Y2087192D01*
X2242192Y2092406D01*
X2235808Y2096092D01*
X2228686Y2098000D01*
D02*
G37*
G36*
X1136611Y2025070D02*
X1129238D01*
X1122117Y2023162D01*
X1115732Y2019476D01*
X1110519Y2014263D01*
X1106832Y2007878D01*
X1104924Y2000756D01*
Y1993384D01*
X1106832Y1986263D01*
X1110519Y1979878D01*
X1115732Y1974665D01*
X1122117Y1970978D01*
X1129238Y1969070D01*
X1136611D01*
X1143732Y1970978D01*
X1150117Y1974665D01*
X1155330Y1979878D01*
X1159016Y1986263D01*
X1160924Y1993384D01*
Y2000756D01*
X1159016Y2007878D01*
X1155330Y2014263D01*
X1150117Y2019476D01*
X1143732Y2023162D01*
X1136611Y2025070D01*
D02*
G37*
G36*
X2473686Y1933582D02*
X2466314D01*
X2459192Y1931674D01*
X2452808Y1927988D01*
X2447594Y1922775D01*
X2443908Y1916390D01*
X2442000Y1909268D01*
Y1901896D01*
X2443908Y1894775D01*
X2447594Y1888390D01*
X2452808Y1883177D01*
X2459192Y1879490D01*
X2466314Y1877582D01*
X2473686D01*
X2480808Y1879490D01*
X2487192Y1883177D01*
X2492406Y1888390D01*
X2496092Y1894775D01*
X2498000Y1901896D01*
Y1909268D01*
X2496092Y1916390D01*
X2492406Y1922775D01*
X2487192Y1927988D01*
X2480808Y1931674D01*
X2473686Y1933582D01*
D02*
G37*
G36*
X2268686Y1920448D02*
X2261314D01*
X2254192Y1918539D01*
X2247808Y1914853D01*
X2242594Y1909640D01*
X2238908Y1903255D01*
X2237000Y1896134D01*
Y1888761D01*
X2238908Y1881640D01*
X2242594Y1875255D01*
X2247808Y1870042D01*
X2254192Y1866356D01*
X2261314Y1864448D01*
X2268686D01*
X2275808Y1866356D01*
X2282192Y1870042D01*
X2287406Y1875255D01*
X2291092Y1881640D01*
X2293000Y1888761D01*
Y1896134D01*
X2291092Y1903255D01*
X2287406Y1909640D01*
X2282192Y1914853D01*
X2275808Y1918539D01*
X2268686Y1920448D01*
D02*
G37*
G36*
X2643686Y1918000D02*
X2636314D01*
X2629192Y1916092D01*
X2622808Y1912406D01*
X2617594Y1907192D01*
X2613908Y1900808D01*
X2612000Y1893686D01*
Y1886314D01*
X2613908Y1879192D01*
X2617594Y1872808D01*
X2622808Y1867594D01*
X2629192Y1863908D01*
X2636314Y1862000D01*
X2643686D01*
X2650808Y1863908D01*
X2657192Y1867594D01*
X2662406Y1872808D01*
X2666092Y1879192D01*
X2668000Y1886314D01*
Y1893686D01*
X2666092Y1900808D01*
X2662406Y1907192D01*
X2657192Y1912406D01*
X2650808Y1916092D01*
X2643686Y1918000D01*
D02*
G37*
G36*
X2768686Y1913000D02*
X2761314D01*
X2754192Y1911092D01*
X2747808Y1907406D01*
X2742594Y1902192D01*
X2738908Y1895808D01*
X2737000Y1888686D01*
Y1881314D01*
X2738908Y1874192D01*
X2742594Y1867808D01*
X2747808Y1862594D01*
X2754192Y1858908D01*
X2761314Y1857000D01*
X2768686D01*
X2775808Y1858908D01*
X2782192Y1862594D01*
X2787406Y1867808D01*
X2791092Y1874192D01*
X2793000Y1881314D01*
Y1888686D01*
X2791092Y1895808D01*
X2787406Y1902192D01*
X2782192Y1907406D01*
X2775808Y1911092D01*
X2768686Y1913000D01*
D02*
G37*
G36*
X2545000Y1869895D02*
Y1840000D01*
X2574895D01*
X2572615Y1848510D01*
X2568007Y1856491D01*
X2561491Y1863007D01*
X2553510Y1867615D01*
X2545000Y1869895D01*
D02*
G37*
G36*
X2535000D02*
X2526491Y1867615D01*
X2518510Y1863007D01*
X2511993Y1856491D01*
X2507385Y1848510D01*
X2505105Y1840000D01*
X2535000D01*
Y1869895D01*
D02*
G37*
G36*
X2574895Y1830000D02*
X2545000D01*
Y1800105D01*
X2553510Y1802385D01*
X2561491Y1806993D01*
X2568007Y1813510D01*
X2572615Y1821491D01*
X2574895Y1830000D01*
D02*
G37*
G36*
X2535000D02*
X2505105D01*
X2507385Y1821491D01*
X2511993Y1813510D01*
X2518510Y1806993D01*
X2526491Y1802385D01*
X2535000Y1800105D01*
Y1830000D01*
D02*
G37*
G36*
X3090650Y1748337D02*
Y1718442D01*
X3120545D01*
X3118265Y1726952D01*
X3113657Y1734933D01*
X3107141Y1741449D01*
X3099160Y1746057D01*
X3090650Y1748337D01*
D02*
G37*
G36*
X3080650D02*
X3072141Y1746057D01*
X3064160Y1741449D01*
X3057643Y1734933D01*
X3053035Y1726952D01*
X3050755Y1718442D01*
X3080650D01*
Y1748337D01*
D02*
G37*
G36*
X3120545Y1708442D02*
X3090650D01*
Y1678547D01*
X3099160Y1680827D01*
X3107141Y1685435D01*
X3113657Y1691952D01*
X3118265Y1699933D01*
X3120545Y1708442D01*
D02*
G37*
G36*
X3080650D02*
X3050755D01*
X3053035Y1699933D01*
X3057643Y1691952D01*
X3064160Y1685435D01*
X3072141Y1680827D01*
X3080650Y1678547D01*
Y1708442D01*
D02*
G37*
G36*
X2863686Y1728000D02*
X2856314D01*
X2849193Y1726092D01*
X2842808Y1722406D01*
X2835095Y1714693D01*
X2831408Y1708308D01*
X2829500Y1701187D01*
Y1693814D01*
X2831408Y1686693D01*
X2835095Y1680308D01*
X2840308Y1675095D01*
X2846693Y1671408D01*
X2853814Y1669500D01*
X2861186D01*
X2868308Y1671408D01*
X2874693Y1675095D01*
X2882406Y1682808D01*
X2886092Y1689193D01*
X2888000Y1696314D01*
Y1703687D01*
X2886092Y1710808D01*
X2882406Y1717193D01*
X2877193Y1722406D01*
X2870808Y1726092D01*
X2863686Y1728000D01*
D02*
G37*
G36*
X2678686Y1543000D02*
X2671314D01*
X2664192Y1541092D01*
X2657808Y1537406D01*
X2652594Y1532192D01*
X2648908Y1525808D01*
X2647000Y1518686D01*
Y1511314D01*
X2647183Y1510630D01*
X2642524Y1508700D01*
X2640330Y1512500D01*
X2635117Y1517714D01*
X2628732Y1521400D01*
X2621610Y1523308D01*
X2614238D01*
X2607117Y1521400D01*
X2600732Y1517714D01*
X2595519Y1512500D01*
X2591832Y1506116D01*
X2589924Y1498994D01*
Y1491622D01*
X2591832Y1484500D01*
X2595519Y1478116D01*
X2600732Y1472902D01*
X2602033Y1472151D01*
X2600693Y1467151D01*
X2317586D01*
X2316927Y1472151D01*
X2319732Y1472902D01*
X2326117Y1476589D01*
X2331330Y1481802D01*
X2335016Y1488187D01*
X2336924Y1495308D01*
Y1502680D01*
X2335016Y1509802D01*
X2331330Y1516187D01*
X2326117Y1521400D01*
X2319732Y1525086D01*
X2312610Y1526994D01*
X2305238D01*
X2298117Y1525086D01*
X2291732Y1521400D01*
X2286519Y1516187D01*
X2282832Y1509802D01*
X2280924Y1502680D01*
Y1495308D01*
X2282832Y1488187D01*
X2286519Y1481802D01*
X2291732Y1476589D01*
X2298117Y1472902D01*
X2300921Y1472151D01*
X2300263Y1467151D01*
X2039726D01*
X2039016Y1469802D01*
X2035330Y1476187D01*
X2030117Y1481400D01*
X2023732Y1485086D01*
X2016611Y1486994D01*
X2009238D01*
X2002117Y1485086D01*
X1995732Y1481400D01*
X1990519Y1476187D01*
X1986832Y1469802D01*
X1984924Y1462680D01*
Y1455308D01*
X1986832Y1448187D01*
X1990519Y1441802D01*
X1995732Y1436589D01*
X2002117Y1432902D01*
X2009238Y1430994D01*
X2016611D01*
X2023732Y1432902D01*
X2030117Y1436589D01*
X2035330Y1441802D01*
X2039016Y1448187D01*
X2039726Y1450838D01*
X2770122D01*
X2770832Y1448187D01*
X2774519Y1441802D01*
X2779732Y1436589D01*
X2786117Y1432902D01*
X2793238Y1430994D01*
X2800610D01*
X2807732Y1432902D01*
X2814117Y1436589D01*
X2819330Y1441802D01*
X2823016Y1448187D01*
X2824924Y1455308D01*
Y1462680D01*
X2823016Y1469802D01*
X2819330Y1476187D01*
X2814117Y1481400D01*
X2807732Y1485086D01*
X2800610Y1486994D01*
X2793238D01*
X2786117Y1485086D01*
X2779732Y1481400D01*
X2774519Y1476187D01*
X2770832Y1469802D01*
X2770122Y1467151D01*
X2635155D01*
X2633815Y1472151D01*
X2635117Y1472902D01*
X2640330Y1478116D01*
X2644016Y1484500D01*
X2645924Y1491622D01*
Y1498994D01*
X2645741Y1499678D01*
X2650400Y1501608D01*
X2652594Y1497808D01*
X2657808Y1492594D01*
X2664192Y1488908D01*
X2671314Y1487000D01*
X2678686D01*
X2685808Y1488908D01*
X2692192Y1492594D01*
X2697406Y1497808D01*
X2701092Y1504192D01*
X2703000Y1511314D01*
Y1518686D01*
X2701092Y1525808D01*
X2697406Y1532192D01*
X2692192Y1537406D01*
X2685808Y1541092D01*
X2678686Y1543000D01*
D02*
G37*
G36*
X2975856Y1526994D02*
X2968484D01*
X2961363Y1525086D01*
X2954978Y1521400D01*
X2949765Y1516187D01*
X2946078Y1509802D01*
X2944170Y1502680D01*
Y1495308D01*
X2946078Y1488187D01*
X2949765Y1481802D01*
X2954978Y1476589D01*
X2961363Y1472902D01*
X2968484Y1470994D01*
X2975856D01*
X2982978Y1472902D01*
X2989363Y1476589D01*
X2994576Y1481802D01*
X2998262Y1488187D01*
X3000170Y1495308D01*
Y1502680D01*
X2998262Y1509802D01*
X2994576Y1516187D01*
X2989363Y1521400D01*
X2982978Y1525086D01*
X2975856Y1526994D01*
D02*
G37*
G36*
X2841177Y1334428D02*
X2833804D01*
X2826683Y1332520D01*
X2820298Y1328834D01*
X2815085Y1323621D01*
X2811398Y1317236D01*
X2809490Y1310114D01*
Y1302742D01*
X2811398Y1295621D01*
X2815085Y1289236D01*
X2820298Y1284023D01*
X2826683Y1280336D01*
X2833804Y1278428D01*
X2841177D01*
X2848298Y1280336D01*
X2854683Y1284023D01*
X2859896Y1289236D01*
X2863582Y1295621D01*
X2865490Y1302742D01*
Y1310114D01*
X2863582Y1317236D01*
X2859896Y1323621D01*
X2854683Y1328834D01*
X2848298Y1332520D01*
X2841177Y1334428D01*
D02*
G37*
G36*
X1737935Y1306670D02*
X1730562D01*
X1723441Y1304762D01*
X1717056Y1301076D01*
X1711843Y1295863D01*
X1708156Y1289478D01*
X1706248Y1282357D01*
Y1274984D01*
X1708156Y1267863D01*
X1711843Y1261478D01*
X1717056Y1256265D01*
X1723441Y1252578D01*
X1730562Y1250670D01*
X1737935D01*
X1745056Y1252578D01*
X1751441Y1256265D01*
X1756654Y1261478D01*
X1760340Y1267863D01*
X1762248Y1274984D01*
Y1282357D01*
X1760340Y1289478D01*
X1756654Y1295863D01*
X1751441Y1301076D01*
X1745056Y1304762D01*
X1737935Y1306670D01*
D02*
G37*
G36*
X2986273Y1296994D02*
X2978900D01*
X2971779Y1295086D01*
X2965394Y1291400D01*
X2960181Y1286187D01*
X2956494Y1279802D01*
X2954586Y1272680D01*
Y1265308D01*
X2956494Y1258187D01*
X2960181Y1251802D01*
X2965394Y1246589D01*
X2971779Y1242902D01*
X2978900Y1240994D01*
X2986273D01*
X2993394Y1242902D01*
X2999779Y1246589D01*
X3004992Y1251802D01*
X3008678Y1258187D01*
X3010586Y1265308D01*
Y1272680D01*
X3008678Y1279802D01*
X3004992Y1286187D01*
X2999779Y1291400D01*
X2993394Y1295086D01*
X2986273Y1296994D01*
D02*
G37*
G36*
X3034039Y1233000D02*
X3026666D01*
X3019545Y1231092D01*
X3013160Y1227406D01*
X3007947Y1222193D01*
X3004260Y1215808D01*
X3002352Y1208687D01*
Y1201314D01*
X3004260Y1194193D01*
X3007947Y1187808D01*
X3013160Y1182595D01*
X3019545Y1178908D01*
X3026666Y1177000D01*
X3034039D01*
X3041160Y1178908D01*
X3047545Y1182595D01*
X3052758Y1187808D01*
X3056444Y1194193D01*
X3058352Y1201314D01*
Y1208687D01*
X3056444Y1215808D01*
X3052758Y1222193D01*
X3047545Y1227406D01*
X3041160Y1231092D01*
X3034039Y1233000D01*
D02*
G37*
G36*
X1685611Y1180994D02*
X1678238D01*
X1671117Y1179086D01*
X1664732Y1175400D01*
X1659519Y1170187D01*
X1655832Y1163802D01*
X1653924Y1156680D01*
Y1149308D01*
X1655832Y1142187D01*
X1659519Y1135802D01*
X1664732Y1130589D01*
X1671117Y1126902D01*
X1678238Y1124994D01*
X1685611D01*
X1692732Y1126902D01*
X1699117Y1130589D01*
X1704330Y1135802D01*
X1708016Y1142187D01*
X1709924Y1149308D01*
Y1156680D01*
X1708016Y1163802D01*
X1704330Y1170187D01*
X1699117Y1175400D01*
X1692732Y1179086D01*
X1685611Y1180994D01*
D02*
G37*
%LPD*%
G36*
X1985654Y2672465D02*
X1987992Y2671055D01*
X1989832Y2664187D01*
X1993519Y2657802D01*
X1998732Y2652589D01*
X2005117Y2648902D01*
X2012238Y2646994D01*
X2019611D01*
X2026732Y2648902D01*
X2033117Y2652589D01*
X2035767Y2655240D01*
X2040767Y2653168D01*
Y2550902D01*
X2035767Y2548831D01*
X2032192Y2552406D01*
X2025808Y2556092D01*
X2018686Y2558000D01*
X2011314D01*
X2004192Y2556092D01*
X1997808Y2552406D01*
X1992594Y2547192D01*
X1988908Y2540808D01*
X1987897Y2537032D01*
X1982531Y2536326D01*
X1981330Y2538407D01*
X1976117Y2543620D01*
X1969732Y2547306D01*
X1962611Y2549214D01*
X1955238D01*
X1948117Y2547306D01*
X1941732Y2543620D01*
X1936519Y2538407D01*
X1932832Y2532022D01*
X1930924Y2524901D01*
Y2517528D01*
X1932832Y2510407D01*
X1934205Y2508030D01*
X1901892Y2475718D01*
X1898330Y2476187D01*
X1893117Y2481400D01*
X1886732Y2485086D01*
X1879611Y2486994D01*
X1872238D01*
X1865117Y2485086D01*
X1858732Y2481400D01*
X1853519Y2476187D01*
X1852525Y2474465D01*
X1845877Y2472951D01*
X1845157Y2473442D01*
Y2503174D01*
X1850157Y2505245D01*
X1852808Y2502594D01*
X1859192Y2498908D01*
X1866314Y2497000D01*
X1873686D01*
X1880808Y2498908D01*
X1887192Y2502594D01*
X1892406Y2507808D01*
X1896092Y2514192D01*
X1898000Y2521314D01*
Y2528686D01*
X1896092Y2535808D01*
X1892406Y2542192D01*
X1887192Y2547406D01*
X1880808Y2551092D01*
X1873686Y2553000D01*
X1869938D01*
X1867866Y2558000D01*
X1983305Y2673438D01*
X1985654Y2672465D01*
D02*
G37*
%LPC*%
G36*
X6279871Y3047032D02*
X6271182D01*
X6262789Y3044783D01*
X6255264Y3040439D01*
X6249120Y3034295D01*
X6244775Y3026770D01*
X6242526Y3018377D01*
Y3009688D01*
X6244775Y3001295D01*
X6249120Y2993770D01*
X6255264Y2987626D01*
X6262789Y2983281D01*
X6271182Y2981032D01*
X6279871D01*
X6288264Y2983281D01*
X6292371Y2985652D01*
X7063767Y2214256D01*
Y2143953D01*
X7058767Y2142436D01*
X7058264Y2143190D01*
X7058264Y2143190D01*
X6360644Y2840810D01*
X6362016Y2843187D01*
X6363924Y2850308D01*
Y2857680D01*
X6362016Y2864802D01*
X6358330Y2871187D01*
X6353117Y2876400D01*
X6346732Y2880086D01*
X6339610Y2881994D01*
X6332238D01*
X6325117Y2880086D01*
X6318732Y2876400D01*
X6313519Y2871187D01*
X6309832Y2864802D01*
X6307924Y2857680D01*
Y2850308D01*
X6309832Y2843187D01*
X6313519Y2836802D01*
X6318732Y2831589D01*
X6325117Y2827902D01*
X6332238Y2825994D01*
X6339610D01*
X6346732Y2827902D01*
X6349109Y2829274D01*
X7044340Y2134044D01*
Y1630680D01*
X7039941Y1629501D01*
X7032524Y1625219D01*
X7026468Y1619163D01*
X7022185Y1611745D01*
X7019969Y1603473D01*
Y1594908D01*
X7022185Y1586635D01*
X7026468Y1579218D01*
X7032524Y1573162D01*
X7039941Y1568879D01*
X7048214Y1566663D01*
X7056779D01*
X7065051Y1568879D01*
X7072469Y1573162D01*
X7072624Y1573317D01*
X7078050Y1571672D01*
X7078052Y1571658D01*
X6895157Y1388762D01*
X6893388Y1386116D01*
X6892767Y1382994D01*
X6892767Y1382994D01*
Y1275373D01*
X6853546Y1236151D01*
X6827071D01*
X6780530Y1282691D01*
X6782807Y1286635D01*
X6785024Y1294908D01*
Y1303473D01*
X6782807Y1311745D01*
X6778525Y1319163D01*
X6773850Y1323838D01*
X6775803Y1328838D01*
X6811314D01*
X6824462Y1315689D01*
X6822185Y1311745D01*
X6819969Y1303473D01*
Y1294908D01*
X6822185Y1286635D01*
X6826468Y1279218D01*
X6832524Y1273162D01*
X6839941Y1268879D01*
X6848214Y1266663D01*
X6856779D01*
X6865051Y1268879D01*
X6872469Y1273162D01*
X6878525Y1279218D01*
X6882807Y1286635D01*
X6885024Y1294908D01*
Y1303473D01*
X6882807Y1311745D01*
X6878525Y1319163D01*
X6872469Y1325219D01*
X6865051Y1329501D01*
X6856779Y1331718D01*
X6848214D01*
X6839941Y1329501D01*
X6835998Y1327224D01*
X6820460Y1342762D01*
X6817814Y1344530D01*
X6814692Y1345151D01*
X6814692Y1345151D01*
X6731924D01*
X6728803Y1344530D01*
X6726157Y1342762D01*
X6726156Y1342762D01*
X6709157Y1325762D01*
X6707388Y1323116D01*
X6706767Y1319994D01*
X6706767Y1319994D01*
Y1299373D01*
X6679283Y1271888D01*
X6678477Y1272099D01*
X6676970Y1277663D01*
X6678525Y1279218D01*
X6682807Y1286635D01*
X6685024Y1294908D01*
Y1303473D01*
X6682807Y1311745D01*
X6678525Y1319163D01*
X6672469Y1325219D01*
X6665051Y1329501D01*
X6656779Y1331718D01*
X6648214D01*
X6639941Y1329501D01*
X6635998Y1327224D01*
X6150157Y1813065D01*
Y2030290D01*
X6182692Y2062826D01*
X6182692Y2062827D01*
X6184460Y2065473D01*
X6185081Y2068594D01*
X6185081Y2068595D01*
Y2445994D01*
X6185081Y2445994D01*
X6184460Y2449116D01*
X6182692Y2451762D01*
X6133081Y2501373D01*
Y2845168D01*
X6138081Y2847240D01*
X6140732Y2844589D01*
X6147117Y2840902D01*
X6154238Y2838994D01*
X6161610D01*
X6168732Y2840902D01*
X6171109Y2842274D01*
X6290767Y2722616D01*
Y2465036D01*
X6285767Y2463696D01*
X6284330Y2466187D01*
X6279117Y2471400D01*
X6272732Y2475086D01*
X6265610Y2476994D01*
X6258238D01*
X6251117Y2475086D01*
X6244732Y2471400D01*
X6239519Y2466187D01*
X6235832Y2459802D01*
X6233924Y2452680D01*
Y2445308D01*
X6235832Y2438187D01*
X6239519Y2431802D01*
X6244732Y2426589D01*
X6251117Y2422902D01*
X6253767Y2422192D01*
Y2215995D01*
X6253767Y2215994D01*
X6254388Y2212873D01*
X6256157Y2210227D01*
X6411767Y2054616D01*
Y1931763D01*
X6411767Y1931762D01*
X6412388Y1928641D01*
X6414157Y1925995D01*
X6724462Y1615689D01*
X6722185Y1611745D01*
X6719969Y1603473D01*
Y1594908D01*
X6722185Y1586635D01*
X6726468Y1579218D01*
X6732524Y1573162D01*
X6739941Y1568879D01*
X6748214Y1566663D01*
X6756779D01*
X6765051Y1568879D01*
X6772469Y1573162D01*
X6778525Y1579218D01*
X6782807Y1586635D01*
X6785024Y1594908D01*
Y1603473D01*
X6782807Y1611745D01*
X6778525Y1619163D01*
X6772469Y1625219D01*
X6765051Y1629501D01*
X6756779Y1631718D01*
X6748214D01*
X6739941Y1629501D01*
X6735998Y1627224D01*
X6428081Y1935141D01*
Y2057994D01*
X6427460Y2061116D01*
X6425692Y2063762D01*
X6425692Y2063762D01*
X6270081Y2219373D01*
Y2422192D01*
X6272732Y2422902D01*
X6279117Y2426589D01*
X6284330Y2431802D01*
X6285767Y2434292D01*
X6290767Y2432952D01*
Y2252763D01*
X6290767Y2252762D01*
X6291388Y2249641D01*
X6293157Y2246994D01*
X6924462Y1615689D01*
X6922185Y1611745D01*
X6919969Y1603473D01*
Y1594908D01*
X6922185Y1586635D01*
X6926468Y1579218D01*
X6932524Y1573162D01*
X6939941Y1568879D01*
X6948214Y1566663D01*
X6954754D01*
X6956858Y1561696D01*
X6932546Y1537383D01*
X6925839D01*
X6880530Y1582691D01*
X6882807Y1586635D01*
X6885024Y1594908D01*
Y1603473D01*
X6882807Y1611745D01*
X6878525Y1619163D01*
X6872469Y1625219D01*
X6865051Y1629501D01*
X6856779Y1631718D01*
X6848214D01*
X6839941Y1629501D01*
X6832524Y1625219D01*
X6826468Y1619163D01*
X6822185Y1611745D01*
X6819969Y1603473D01*
Y1594908D01*
X6822185Y1586635D01*
X6826468Y1579218D01*
X6832524Y1573162D01*
X6839941Y1568879D01*
X6848214Y1566663D01*
X6856779D01*
X6865051Y1568879D01*
X6868995Y1571156D01*
X6916692Y1523459D01*
X6916693Y1523458D01*
X6919339Y1521690D01*
X6922460Y1521070D01*
X6935924D01*
X6935924Y1521069D01*
X6939046Y1521690D01*
X6941692Y1523458D01*
X6996692Y1578458D01*
X6996692Y1578458D01*
X6998460Y1581105D01*
X6999081Y1584226D01*
Y1942994D01*
X6999081Y1942994D01*
X6998460Y1946116D01*
X6996692Y1948762D01*
X6996692Y1948762D01*
X6618644Y2326810D01*
X6620016Y2329187D01*
X6621924Y2336308D01*
Y2343680D01*
X6620016Y2350802D01*
X6616330Y2357187D01*
X6611117Y2362400D01*
X6604732Y2366086D01*
X6597610Y2367994D01*
X6590238D01*
X6583117Y2366086D01*
X6576732Y2362400D01*
X6571519Y2357187D01*
X6567832Y2350802D01*
X6565924Y2343680D01*
Y2336308D01*
X6567832Y2329187D01*
X6571519Y2322802D01*
X6576732Y2317589D01*
X6583117Y2313902D01*
X6590238Y2311994D01*
X6597610D01*
X6604732Y2313902D01*
X6607109Y2315274D01*
X6982767Y1939616D01*
Y1620991D01*
X6977767Y1619920D01*
X6972469Y1625219D01*
X6965051Y1629501D01*
X6956779Y1631718D01*
X6948214D01*
X6939941Y1629501D01*
X6935998Y1627224D01*
X6307081Y2256141D01*
Y2725994D01*
X6307081Y2725994D01*
X6306460Y2729116D01*
X6304692Y2731762D01*
X6304692Y2731762D01*
X6182644Y2853810D01*
X6184016Y2856187D01*
X6185924Y2863308D01*
Y2870680D01*
X6184016Y2877802D01*
X6180330Y2884187D01*
X6175117Y2889400D01*
X6168732Y2893086D01*
X6161610Y2894994D01*
X6154238D01*
X6147117Y2893086D01*
X6140732Y2889400D01*
X6138081Y2886749D01*
X6133081Y2888820D01*
Y2938791D01*
X6179942Y2985652D01*
X6184049Y2983281D01*
X6192442Y2981032D01*
X6201131D01*
X6209524Y2983281D01*
X6217049Y2987626D01*
X6223193Y2993770D01*
X6227537Y3001295D01*
X6229786Y3009688D01*
Y3018377D01*
X6227537Y3026770D01*
X6223193Y3034295D01*
X6217049Y3040439D01*
X6209524Y3044783D01*
X6201131Y3047032D01*
X6192442D01*
X6184049Y3044783D01*
X6176524Y3040439D01*
X6170380Y3034295D01*
X6166035Y3026770D01*
X6163786Y3018377D01*
Y3009688D01*
X6166035Y3001295D01*
X6168406Y2997188D01*
X6119157Y2947938D01*
X6117388Y2945292D01*
X6116767Y2942170D01*
X6116767Y2942170D01*
Y2497995D01*
X6116767Y2497994D01*
X6117388Y2494873D01*
X6119157Y2492227D01*
X6168767Y2442615D01*
Y2071973D01*
X6136233Y2039436D01*
X6136233Y2039436D01*
X6134464Y2036789D01*
X6133843Y2033668D01*
X6133843Y2033668D01*
Y1809687D01*
X6133843Y1809686D01*
X6134464Y1806565D01*
X6136233Y1803918D01*
X6624462Y1315689D01*
X6622185Y1311745D01*
X6619969Y1303473D01*
Y1294908D01*
X6622185Y1286635D01*
X6626468Y1279218D01*
X6631535Y1274151D01*
X6630136Y1269151D01*
X6450303D01*
X5895157Y1824297D01*
Y2151626D01*
X5898745Y2155016D01*
X5899901Y2155450D01*
X5903736Y2154422D01*
X5911109D01*
X5918230Y2156330D01*
X5924615Y2160017D01*
X5929828Y2165230D01*
X5933514Y2171615D01*
X5935422Y2178736D01*
Y2186108D01*
X5933514Y2193230D01*
X5929828Y2199615D01*
X5924615Y2204828D01*
X5918230Y2208514D01*
X5911109Y2210422D01*
X5903736D01*
X5896615Y2208514D01*
X5890230Y2204828D01*
X5885017Y2199615D01*
X5881330Y2193230D01*
X5879422Y2186108D01*
Y2178736D01*
X5881330Y2171615D01*
X5884344Y2166395D01*
X5884272Y2165590D01*
X5881570Y2163075D01*
X5876366Y2163235D01*
X5871153Y2168448D01*
X5867157Y2170755D01*
Y2254436D01*
X5867157Y2254436D01*
X5867157Y2254437D01*
Y2254438D01*
X5866883Y2255814D01*
X5866537Y2257558D01*
X5866536Y2257559D01*
X5866536Y2257560D01*
X5865522Y2259078D01*
X5864769Y2260205D01*
X5864768Y2260206D01*
X5864768Y2260206D01*
X5864768Y2260206D01*
X5862117Y2262858D01*
Y2374168D01*
X5881692Y2393744D01*
X5881692Y2393744D01*
X5883460Y2396391D01*
X5884081Y2399513D01*
X5884081Y2399513D01*
Y2487664D01*
X5883460Y2490786D01*
X5881692Y2493432D01*
X5881692Y2493432D01*
X5862362Y2512762D01*
X5859716Y2514530D01*
X5856594Y2515151D01*
X5856594Y2515151D01*
X5829257D01*
X5829256Y2515151D01*
X5826135Y2514530D01*
X5823489Y2512762D01*
X5823488Y2512762D01*
X5766233Y2455506D01*
X5764464Y2452860D01*
X5763843Y2449738D01*
X5763843Y2449738D01*
Y2144563D01*
X5763843Y2144562D01*
X5764464Y2141441D01*
X5766233Y2138794D01*
X5816861Y2088166D01*
X5813791Y2084165D01*
X5808732Y2087086D01*
X5801610Y2088994D01*
X5794238D01*
X5787117Y2087086D01*
X5780732Y2083400D01*
X5775519Y2078187D01*
X5771832Y2071802D01*
X5769924Y2064680D01*
Y2057308D01*
X5771832Y2050187D01*
X5775519Y2043802D01*
X5780732Y2038589D01*
X5787117Y2034902D01*
X5789767Y2034192D01*
Y462393D01*
X5789767Y462392D01*
X5790388Y459271D01*
X5792157Y456625D01*
X5933205Y315577D01*
X5931832Y313200D01*
X5929924Y306079D01*
Y298706D01*
X5931832Y291585D01*
X5935519Y285200D01*
X5940732Y279987D01*
X5947117Y276300D01*
X5954238Y274392D01*
X5961610D01*
X5968732Y276300D01*
X5975117Y279987D01*
X5980330Y285200D01*
X5984016Y291585D01*
X5985924Y298706D01*
Y306079D01*
X5984016Y313200D01*
X5980330Y319585D01*
X5975117Y324798D01*
X5968732Y328484D01*
X5961610Y330392D01*
X5954238D01*
X5947117Y328484D01*
X5944740Y327112D01*
X5806081Y465771D01*
Y739168D01*
X5811081Y741240D01*
X5813732Y738589D01*
X5820117Y734902D01*
X5827238Y732994D01*
X5834610D01*
X5841732Y734902D01*
X5848117Y738589D01*
X5853330Y743802D01*
X5857016Y750187D01*
X5858924Y757308D01*
Y764681D01*
X5857016Y771802D01*
X5853330Y778187D01*
X5848117Y783400D01*
X5841732Y787086D01*
X5839081Y787796D01*
Y2076733D01*
X5843691Y2078739D01*
X5846767Y2076245D01*
Y1161995D01*
X5846767Y1161994D01*
X5847388Y1158873D01*
X5849157Y1156226D01*
X5855204Y1150178D01*
X5853832Y1147802D01*
X5851924Y1140680D01*
Y1133308D01*
X5853832Y1126187D01*
X5857519Y1119802D01*
X5862732Y1114589D01*
X5869117Y1110902D01*
X5876238Y1108994D01*
X5883610D01*
X5890732Y1110902D01*
X5897117Y1114589D01*
X5902330Y1119802D01*
X5906016Y1126187D01*
X5907924Y1133308D01*
Y1140680D01*
X5906016Y1147802D01*
X5902330Y1154187D01*
X5897117Y1159400D01*
X5890732Y1163086D01*
X5883610Y1164994D01*
X5876238D01*
X5869117Y1163086D01*
X5866740Y1161714D01*
X5863081Y1165373D01*
Y2080022D01*
X5862460Y2083144D01*
X5860692Y2085790D01*
X5846216Y2100266D01*
X5848130Y2104885D01*
X5867627D01*
X5867628Y2104885D01*
X5870750Y2105506D01*
X5873396Y2107274D01*
X5874224Y2108103D01*
X5878843Y2106189D01*
Y1820919D01*
X5878843Y1820918D01*
X5879464Y1817797D01*
X5881233Y1815150D01*
X6441156Y1255227D01*
X6441157Y1255226D01*
X6443803Y1253458D01*
X6446924Y1252838D01*
X6679924D01*
X6679924Y1252837D01*
X6683046Y1253458D01*
X6685692Y1255226D01*
X6717028Y1286563D01*
X6718881Y1286589D01*
X6722912Y1285376D01*
X6726468Y1279218D01*
X6732524Y1273162D01*
X6739941Y1268879D01*
X6748214Y1266663D01*
X6756779D01*
X6765051Y1268879D01*
X6768995Y1271156D01*
X6817924Y1222227D01*
X6817925Y1222226D01*
X6820571Y1220458D01*
X6823692Y1219838D01*
X6856924D01*
X6856924Y1219837D01*
X6860046Y1220458D01*
X6862692Y1222226D01*
X6906692Y1266226D01*
X6908460Y1268873D01*
X6909081Y1271994D01*
X6909081Y1271995D01*
Y1379616D01*
X7090248Y1560783D01*
X7094868Y1558869D01*
Y1453097D01*
X6968995Y1327224D01*
X6965051Y1329501D01*
X6956779Y1331718D01*
X6948214D01*
X6939941Y1329501D01*
X6932524Y1325219D01*
X6926468Y1319163D01*
X6922185Y1311745D01*
X6919969Y1303473D01*
Y1294908D01*
X6922185Y1286635D01*
X6926468Y1279218D01*
X6932524Y1273162D01*
X6939941Y1268879D01*
X6948214Y1266663D01*
X6956779D01*
X6965051Y1268879D01*
X6972469Y1273162D01*
X6978525Y1279218D01*
X6982807Y1286635D01*
X6985024Y1294908D01*
Y1303473D01*
X6982807Y1311745D01*
X6980530Y1315689D01*
X7108792Y1443950D01*
X7108792Y1443950D01*
X7110560Y1446597D01*
X7111181Y1449718D01*
Y2408894D01*
X7110560Y2412016D01*
X7108792Y2414662D01*
X7108792Y2414662D01*
X6574644Y2948810D01*
X6576016Y2951187D01*
X6577924Y2958308D01*
Y2965680D01*
X6576016Y2972802D01*
X6572330Y2979187D01*
X6567117Y2984400D01*
X6560732Y2988086D01*
X6553610Y2989994D01*
X6546238D01*
X6539117Y2988086D01*
X6532732Y2984400D01*
X6527519Y2979187D01*
X6523832Y2972802D01*
X6521924Y2965680D01*
Y2958308D01*
X6523832Y2951187D01*
X6527519Y2944802D01*
X6532732Y2939589D01*
X6539117Y2935902D01*
X6546238Y2933994D01*
X6553610D01*
X6560732Y2935902D01*
X6563109Y2937274D01*
X7094151Y2406232D01*
X7093719Y2402856D01*
X7088646Y2401305D01*
X7084847Y2405104D01*
X7078462Y2408790D01*
X7071341Y2410698D01*
X7063968D01*
X7056847Y2408790D01*
X7050462Y2405104D01*
X7045249Y2399891D01*
X7041562Y2393506D01*
X7039654Y2386385D01*
Y2379012D01*
X7041562Y2371891D01*
X7045249Y2365506D01*
X7050462Y2360293D01*
X7056847Y2356606D01*
X7063968Y2354698D01*
X7071341D01*
X7078462Y2356606D01*
X7084847Y2360293D01*
X7089868Y2365314D01*
X7090750Y2365265D01*
X7094868Y2363833D01*
Y1633119D01*
X7090248Y1631206D01*
X7080081Y1641373D01*
Y2217634D01*
X7080081Y2217634D01*
X7079460Y2220756D01*
X7077692Y2223402D01*
X7077692Y2223402D01*
X6303906Y2997188D01*
X6306277Y3001295D01*
X6308526Y3009688D01*
Y3018377D01*
X6306277Y3026770D01*
X6301933Y3034295D01*
X6295789Y3040439D01*
X6288264Y3044783D01*
X6279871Y3047032D01*
D02*
G37*
G36*
X6122391D02*
X6113702D01*
X6105309Y3044783D01*
X6097784Y3040439D01*
X6091640Y3034295D01*
X6087295Y3026770D01*
X6085046Y3018377D01*
Y3009688D01*
X6087295Y3001295D01*
X6091640Y2993770D01*
X6097784Y2987626D01*
X6105309Y2983281D01*
X6113702Y2981032D01*
X6122391D01*
X6130784Y2983281D01*
X6138309Y2987626D01*
X6144453Y2993770D01*
X6148797Y3001295D01*
X6151046Y3009688D01*
Y3018377D01*
X6148797Y3026770D01*
X6144453Y3034295D01*
X6138309Y3040439D01*
X6130784Y3044783D01*
X6122391Y3047032D01*
D02*
G37*
G36*
X6043651D02*
X6034962D01*
X6026569Y3044783D01*
X6019044Y3040439D01*
X6012900Y3034295D01*
X6008555Y3026770D01*
X6006306Y3018377D01*
Y3009688D01*
X6008555Y3001295D01*
X6012900Y2993770D01*
X6019044Y2987626D01*
X6026569Y2983281D01*
X6034962Y2981032D01*
X6043651D01*
X6052044Y2983281D01*
X6059569Y2987626D01*
X6065713Y2993770D01*
X6070057Y3001295D01*
X6072306Y3009688D01*
Y3018377D01*
X6070057Y3026770D01*
X6065713Y3034295D01*
X6059569Y3040439D01*
X6052044Y3044783D01*
X6043651Y3047032D01*
D02*
G37*
G36*
X5964911D02*
X5956222D01*
X5947829Y3044783D01*
X5940304Y3040439D01*
X5934160Y3034295D01*
X5929815Y3026770D01*
X5927566Y3018377D01*
Y3009688D01*
X5929815Y3001295D01*
X5934160Y2993770D01*
X5940304Y2987626D01*
X5947829Y2983281D01*
X5956222Y2981032D01*
X5964911D01*
X5973304Y2983281D01*
X5980829Y2987626D01*
X5986973Y2993770D01*
X5991317Y3001295D01*
X5993566Y3009688D01*
Y3018377D01*
X5991317Y3026770D01*
X5986973Y3034295D01*
X5980829Y3040439D01*
X5973304Y3044783D01*
X5964911Y3047032D01*
D02*
G37*
G36*
X5886171D02*
X5877482D01*
X5869089Y3044783D01*
X5861564Y3040439D01*
X5855420Y3034295D01*
X5851075Y3026770D01*
X5848826Y3018377D01*
Y3009688D01*
X5851075Y3001295D01*
X5855420Y2993770D01*
X5861564Y2987626D01*
X5869089Y2983281D01*
X5877482Y2981032D01*
X5886171D01*
X5894564Y2983281D01*
X5902089Y2987626D01*
X5908233Y2993770D01*
X5912577Y3001295D01*
X5914826Y3009688D01*
Y3018377D01*
X5912577Y3026770D01*
X5908233Y3034295D01*
X5902089Y3040439D01*
X5894564Y3044783D01*
X5886171Y3047032D01*
D02*
G37*
G36*
X7672955Y3041282D02*
X7664266D01*
X7655873Y3039033D01*
X7648348Y3034689D01*
X7642204Y3028545D01*
X7637859Y3021020D01*
X7635610Y3012627D01*
Y3003938D01*
X7637859Y2995545D01*
X7642204Y2988020D01*
X7648348Y2981876D01*
X7655873Y2977531D01*
X7664266Y2975282D01*
X7672955D01*
X7681348Y2977531D01*
X7688873Y2981876D01*
X7695017Y2988020D01*
X7699361Y2995545D01*
X7701610Y3003938D01*
Y3012627D01*
X7699361Y3021020D01*
X7695017Y3028545D01*
X7688873Y3034689D01*
X7681348Y3039033D01*
X7672955Y3041282D01*
D02*
G37*
G36*
X7572955D02*
X7564266D01*
X7555873Y3039033D01*
X7548348Y3034689D01*
X7542204Y3028545D01*
X7537859Y3021020D01*
X7535610Y3012627D01*
Y3003938D01*
X7537859Y2995545D01*
X7542204Y2988020D01*
X7548348Y2981876D01*
X7555873Y2977531D01*
X7564266Y2975282D01*
X7572955D01*
X7581348Y2977531D01*
X7588873Y2981876D01*
X7595017Y2988020D01*
X7599361Y2995545D01*
X7601610Y3003938D01*
Y3012627D01*
X7599361Y3021020D01*
X7595017Y3028545D01*
X7588873Y3034689D01*
X7581348Y3039033D01*
X7572955Y3041282D01*
D02*
G37*
G36*
X7472955D02*
X7464266D01*
X7455873Y3039033D01*
X7448348Y3034689D01*
X7442204Y3028545D01*
X7437859Y3021020D01*
X7435610Y3012627D01*
Y3003938D01*
X7437859Y2995545D01*
X7442204Y2988020D01*
X7448348Y2981876D01*
X7455873Y2977531D01*
X7464266Y2975282D01*
X7472955D01*
X7481348Y2977531D01*
X7488873Y2981876D01*
X7495017Y2988020D01*
X7499361Y2995545D01*
X7501610Y3003938D01*
Y3012627D01*
X7499361Y3021020D01*
X7495017Y3028545D01*
X7488873Y3034689D01*
X7481348Y3039033D01*
X7472955Y3041282D01*
D02*
G37*
G36*
X7372955D02*
X7364266D01*
X7355873Y3039033D01*
X7348348Y3034689D01*
X7342204Y3028545D01*
X7337859Y3021020D01*
X7335610Y3012627D01*
Y3003938D01*
X7337859Y2995545D01*
X7342204Y2988020D01*
X7348348Y2981876D01*
X7355873Y2977531D01*
X7364266Y2975282D01*
X7372955D01*
X7381348Y2977531D01*
X7388873Y2981876D01*
X7395017Y2988020D01*
X7399361Y2995545D01*
X7401610Y3003938D01*
Y3012627D01*
X7399361Y3021020D01*
X7395017Y3028545D01*
X7388873Y3034689D01*
X7381348Y3039033D01*
X7372955Y3041282D01*
D02*
G37*
G36*
X7272955D02*
X7264266D01*
X7255873Y3039033D01*
X7248348Y3034689D01*
X7242204Y3028545D01*
X7237859Y3021020D01*
X7235610Y3012627D01*
Y3003938D01*
X7237859Y2995545D01*
X7242204Y2988020D01*
X7248348Y2981876D01*
X7255873Y2977531D01*
X7264266Y2975282D01*
X7272955D01*
X7281348Y2977531D01*
X7288873Y2981876D01*
X7295017Y2988020D01*
X7299361Y2995545D01*
X7301610Y3003938D01*
Y3012627D01*
X7299361Y3021020D01*
X7295017Y3028545D01*
X7288873Y3034689D01*
X7281348Y3039033D01*
X7272955Y3041282D01*
D02*
G37*
G36*
X7172955D02*
X7164266D01*
X7155873Y3039033D01*
X7148348Y3034689D01*
X7142204Y3028545D01*
X7137859Y3021020D01*
X7135610Y3012627D01*
Y3003938D01*
X7137859Y2995545D01*
X7142204Y2988020D01*
X7148348Y2981876D01*
X7155873Y2977531D01*
X7164266Y2975282D01*
X7172955D01*
X7181348Y2977531D01*
X7188873Y2981876D01*
X7195017Y2988020D01*
X7199361Y2995545D01*
X7201610Y3003938D01*
Y3012627D01*
X7199361Y3021020D01*
X7195017Y3028545D01*
X7188873Y3034689D01*
X7181348Y3039033D01*
X7172955Y3041282D01*
D02*
G37*
G36*
X7072955D02*
X7064266D01*
X7055873Y3039033D01*
X7048348Y3034689D01*
X7042204Y3028545D01*
X7037859Y3021020D01*
X7035610Y3012627D01*
Y3003938D01*
X7037859Y2995545D01*
X7042204Y2988020D01*
X7048348Y2981876D01*
X7055873Y2977531D01*
X7064266Y2975282D01*
X7072955D01*
X7081348Y2977531D01*
X7088873Y2981876D01*
X7095017Y2988020D01*
X7099361Y2995545D01*
X7101610Y3003938D01*
Y3012627D01*
X7099361Y3021020D01*
X7095017Y3028545D01*
X7088873Y3034689D01*
X7081348Y3039033D01*
X7072955Y3041282D01*
D02*
G37*
G36*
X6972955D02*
X6964266D01*
X6955873Y3039033D01*
X6948348Y3034689D01*
X6942204Y3028545D01*
X6937859Y3021020D01*
X6935610Y3012627D01*
Y3003938D01*
X6937859Y2995545D01*
X6942204Y2988020D01*
X6948348Y2981876D01*
X6955873Y2977531D01*
X6964266Y2975282D01*
X6972955D01*
X6981348Y2977531D01*
X6988873Y2981876D01*
X6995017Y2988020D01*
X6999361Y2995545D01*
X7001610Y3003938D01*
Y3012627D01*
X6999361Y3021020D01*
X6995017Y3028545D01*
X6988873Y3034689D01*
X6981348Y3039033D01*
X6972955Y3041282D01*
D02*
G37*
G36*
X6872955D02*
X6864266D01*
X6855873Y3039033D01*
X6848348Y3034689D01*
X6842204Y3028545D01*
X6837859Y3021020D01*
X6835610Y3012627D01*
Y3003938D01*
X6837859Y2995545D01*
X6842204Y2988020D01*
X6848348Y2981876D01*
X6855873Y2977531D01*
X6864266Y2975282D01*
X6872955D01*
X6881348Y2977531D01*
X6888873Y2981876D01*
X6895017Y2988020D01*
X6899361Y2995545D01*
X6901610Y3003938D01*
Y3012627D01*
X6899361Y3021020D01*
X6895017Y3028545D01*
X6888873Y3034689D01*
X6881348Y3039033D01*
X6872955Y3041282D01*
D02*
G37*
G36*
X6772955D02*
X6764266D01*
X6755873Y3039033D01*
X6748348Y3034689D01*
X6742204Y3028545D01*
X6737859Y3021020D01*
X6735610Y3012627D01*
Y3003938D01*
X6737859Y2995545D01*
X6742204Y2988020D01*
X6748348Y2981876D01*
X6755873Y2977531D01*
X6764266Y2975282D01*
X6772955D01*
X6781348Y2977531D01*
X6788873Y2981876D01*
X6795017Y2988020D01*
X6799361Y2995545D01*
X6801610Y3003938D01*
Y3012627D01*
X6799361Y3021020D01*
X6795017Y3028545D01*
X6788873Y3034689D01*
X6781348Y3039033D01*
X6772955Y3041282D01*
D02*
G37*
G36*
X6791186Y2955500D02*
X6783814D01*
X6776693Y2953592D01*
X6770308Y2949906D01*
X6765095Y2944693D01*
X6761408Y2938308D01*
X6759500Y2931186D01*
Y2923814D01*
X6761408Y2916693D01*
X6765095Y2910308D01*
X6770308Y2905095D01*
X6776693Y2901408D01*
X6783814Y2899500D01*
X6791186D01*
X6798308Y2901408D01*
X6804693Y2905095D01*
X6809906Y2910308D01*
X6813592Y2916693D01*
X6815500Y2923814D01*
Y2931186D01*
X6813592Y2938308D01*
X6809906Y2944693D01*
X6804693Y2949906D01*
X6798308Y2953592D01*
X6791186Y2955500D01*
D02*
G37*
G36*
X7063686Y2858000D02*
X7056314D01*
X7049193Y2856092D01*
X7042808Y2852406D01*
X7037595Y2847193D01*
X7033908Y2840808D01*
X7032000Y2833686D01*
Y2826314D01*
X7033908Y2819193D01*
X7037595Y2812808D01*
X7042808Y2807595D01*
X7049193Y2803908D01*
X7056314Y2802000D01*
X7063686D01*
X7070808Y2803908D01*
X7077193Y2807595D01*
X7082406Y2812808D01*
X7086092Y2819193D01*
X7088000Y2826314D01*
Y2833686D01*
X7086092Y2840808D01*
X7082406Y2847193D01*
X7077193Y2852406D01*
X7070808Y2856092D01*
X7063686Y2858000D01*
D02*
G37*
G36*
X6950610Y2736994D02*
X6943238D01*
X6936117Y2735086D01*
X6929732Y2731400D01*
X6924519Y2726187D01*
X6920832Y2719802D01*
X6918924Y2712680D01*
Y2705308D01*
X6920832Y2698187D01*
X6924519Y2691802D01*
X6929732Y2686589D01*
X6936117Y2682902D01*
X6943238Y2680994D01*
X6950610D01*
X6957732Y2682902D01*
X6964117Y2686589D01*
X6969330Y2691802D01*
X6973016Y2698187D01*
X6974924Y2705308D01*
Y2712680D01*
X6973016Y2719802D01*
X6969330Y2726187D01*
X6964117Y2731400D01*
X6957732Y2735086D01*
X6950610Y2736994D01*
D02*
G37*
G36*
X7168686Y2648000D02*
X7161314D01*
X7154193Y2646092D01*
X7147808Y2642406D01*
X7142595Y2637193D01*
X7138908Y2630808D01*
X7137000Y2623686D01*
Y2616314D01*
X7138908Y2609193D01*
X7142595Y2602808D01*
X7147808Y2597595D01*
X7154193Y2593908D01*
X7161314Y2592000D01*
X7168686D01*
X7175808Y2593908D01*
X7182193Y2597595D01*
X7187406Y2602808D01*
X7191092Y2609193D01*
X7193000Y2616314D01*
Y2623686D01*
X7191092Y2630808D01*
X7187406Y2637193D01*
X7182193Y2642406D01*
X7175808Y2646092D01*
X7168686Y2648000D01*
D02*
G37*
G36*
X7298686Y2588000D02*
X7291314D01*
X7284193Y2586092D01*
X7277808Y2582406D01*
X7272595Y2577193D01*
X7268908Y2570808D01*
X7267000Y2563686D01*
Y2556314D01*
X7268908Y2549193D01*
X7272595Y2542808D01*
X7277808Y2537595D01*
X7284193Y2533908D01*
X7291314Y2532000D01*
X7298686D01*
X7305808Y2533908D01*
X7312193Y2537595D01*
X7317406Y2542808D01*
X7321092Y2549193D01*
X7323000Y2556314D01*
Y2563686D01*
X7321092Y2570808D01*
X7317406Y2577193D01*
X7312193Y2582406D01*
X7305808Y2586092D01*
X7298686Y2588000D01*
D02*
G37*
G36*
X6118610Y2386994D02*
X6111238D01*
X6104117Y2385086D01*
X6097732Y2381400D01*
X6092519Y2376187D01*
X6088832Y2369802D01*
X6086924Y2362680D01*
Y2355308D01*
X6088832Y2348187D01*
X6092519Y2341802D01*
X6097732Y2336589D01*
X6101504Y2334410D01*
X6101832Y2333187D01*
X6105519Y2326802D01*
X6110732Y2321589D01*
X6117117Y2317902D01*
X6124238Y2315994D01*
X6131610D01*
X6138732Y2317902D01*
X6145117Y2321589D01*
X6150330Y2326802D01*
X6154016Y2333187D01*
X6155924Y2340308D01*
Y2347680D01*
X6154016Y2354802D01*
X6150330Y2361187D01*
X6145117Y2366400D01*
X6141344Y2368578D01*
X6141016Y2369802D01*
X6137330Y2376187D01*
X6132117Y2381400D01*
X6125732Y2385086D01*
X6118610Y2386994D01*
D02*
G37*
G36*
X7377610Y2266994D02*
X7370238D01*
X7363117Y2265086D01*
X7356732Y2261400D01*
X7351519Y2256187D01*
X7347832Y2249802D01*
X7345924Y2242680D01*
Y2235308D01*
X7347832Y2228187D01*
X7351519Y2221802D01*
X7356732Y2216589D01*
X7363117Y2212902D01*
X7370238Y2210994D01*
X7377610D01*
X7384732Y2212902D01*
X7391117Y2216589D01*
X7396330Y2221802D01*
X7400016Y2228187D01*
X7401924Y2235308D01*
Y2242680D01*
X7400016Y2249802D01*
X7396330Y2256187D01*
X7391117Y2261400D01*
X7384732Y2265086D01*
X7377610Y2266994D01*
D02*
G37*
G36*
X7353686Y2133000D02*
X7346314D01*
X7339193Y2131092D01*
X7332808Y2127406D01*
X7327595Y2122193D01*
X7323908Y2115808D01*
X7322000Y2108686D01*
Y2101314D01*
X7323908Y2094193D01*
X7327595Y2087808D01*
X7332808Y2082595D01*
X7339193Y2078908D01*
X7346314Y2077000D01*
X7353686D01*
X7360808Y2078908D01*
X7367193Y2082595D01*
X7372406Y2087808D01*
X7376092Y2094193D01*
X7378000Y2101314D01*
Y2108686D01*
X7376092Y2115808D01*
X7372406Y2122193D01*
X7367193Y2127406D01*
X7360808Y2131092D01*
X7353686Y2133000D01*
D02*
G37*
G36*
X6236610Y2126994D02*
X6229238D01*
X6222117Y2125086D01*
X6215732Y2121400D01*
X6210519Y2116187D01*
X6206832Y2109802D01*
X6204924Y2102680D01*
Y2095308D01*
X6206832Y2088187D01*
X6210519Y2081802D01*
X6215732Y2076589D01*
X6222117Y2072902D01*
X6229238Y2070994D01*
X6236610D01*
X6243732Y2072902D01*
X6250117Y2076589D01*
X6255330Y2081802D01*
X6259016Y2088187D01*
X6260924Y2095308D01*
Y2102680D01*
X6259016Y2109802D01*
X6255330Y2116187D01*
X6250117Y2121400D01*
X6243732Y2125086D01*
X6236610Y2126994D01*
D02*
G37*
G36*
X7332167Y2044444D02*
X7324794D01*
X7317673Y2042536D01*
X7311288Y2038850D01*
X7306075Y2033637D01*
X7302388Y2027252D01*
X7300480Y2020130D01*
Y2012758D01*
X7302388Y2005637D01*
X7306075Y1999252D01*
X7311288Y1994039D01*
X7317673Y1990352D01*
X7324794Y1988444D01*
X7332167D01*
X7339288Y1990352D01*
X7345673Y1994039D01*
X7350886Y1999252D01*
X7354572Y2005637D01*
X7356480Y2012758D01*
Y2020130D01*
X7354572Y2027252D01*
X7350886Y2033637D01*
X7345673Y2038850D01*
X7339288Y2042536D01*
X7332167Y2044444D01*
D02*
G37*
G36*
X7808643Y2349155D02*
X7763273D01*
Y2303785D01*
X7777660D01*
X7778655Y2298785D01*
X7773108Y2296488D01*
X7766727Y2290106D01*
X7763273Y2281769D01*
Y2272744D01*
X7766727Y2264406D01*
X7773108Y2258025D01*
X7779569Y2255349D01*
Y2249952D01*
X7773108Y2247276D01*
X7766727Y2240894D01*
X7763273Y2232557D01*
Y2223532D01*
X7766727Y2215194D01*
X7773108Y2208813D01*
X7779569Y2206137D01*
Y2200740D01*
X7773108Y2198064D01*
X7766727Y2191682D01*
X7763273Y2183345D01*
Y2174320D01*
X7766727Y2165982D01*
X7773108Y2159601D01*
X7779569Y2156925D01*
Y2151528D01*
X7773108Y2148852D01*
X7766727Y2142470D01*
X7763273Y2134133D01*
Y2125108D01*
X7766727Y2116770D01*
X7773108Y2110389D01*
X7779574Y2107711D01*
Y2102316D01*
X7773108Y2099638D01*
X7766727Y2093256D01*
X7763273Y2084919D01*
Y2075894D01*
X7766727Y2067556D01*
X7773108Y2061175D01*
X7779569Y2058499D01*
Y2053102D01*
X7773108Y2050426D01*
X7766727Y2044044D01*
X7763273Y2035707D01*
Y2026682D01*
X7766727Y2018344D01*
X7773108Y2011963D01*
X7779569Y2009287D01*
Y2003890D01*
X7773108Y2001214D01*
X7766727Y1994832D01*
X7763273Y1986495D01*
Y1977470D01*
X7766727Y1969132D01*
X7771429Y1964430D01*
X7771231Y1958954D01*
X7770947Y1958379D01*
X7767731Y1956522D01*
X7762204Y1950995D01*
X7758296Y1944226D01*
X7756566Y1937768D01*
X7815351D01*
X7813620Y1944226D01*
X7809712Y1950995D01*
X7804185Y1956522D01*
X7800969Y1958379D01*
X7800685Y1958954D01*
X7800488Y1964430D01*
X7805190Y1969132D01*
X7808643Y1977470D01*
Y1986495D01*
X7805190Y1994832D01*
X7798808Y2001214D01*
X7792347Y2003890D01*
Y2009287D01*
X7798808Y2011963D01*
X7805190Y2018344D01*
X7808643Y2026682D01*
Y2035707D01*
X7805190Y2044044D01*
X7798808Y2050426D01*
X7792347Y2053102D01*
Y2058499D01*
X7798808Y2061175D01*
X7805190Y2067556D01*
X7808643Y2075894D01*
Y2084919D01*
X7805190Y2093256D01*
X7798808Y2099638D01*
X7792342Y2102316D01*
Y2107711D01*
X7798808Y2110389D01*
X7805190Y2116770D01*
X7808643Y2125108D01*
Y2134133D01*
X7805190Y2142470D01*
X7798808Y2148852D01*
X7792347Y2151528D01*
Y2156925D01*
X7798808Y2159601D01*
X7805190Y2165982D01*
X7808643Y2174320D01*
Y2183345D01*
X7805190Y2191682D01*
X7798808Y2198064D01*
X7792347Y2200740D01*
Y2206137D01*
X7798808Y2208813D01*
X7805190Y2215194D01*
X7808643Y2223532D01*
Y2232557D01*
X7805190Y2240894D01*
X7798808Y2247276D01*
X7792347Y2249952D01*
Y2255349D01*
X7798808Y2258025D01*
X7805190Y2264406D01*
X7808643Y2272744D01*
Y2281769D01*
X7805190Y2290106D01*
X7798808Y2296488D01*
X7793261Y2298785D01*
X7794256Y2303785D01*
X7808643D01*
Y2349155D01*
D02*
G37*
G36*
X5925610Y2871994D02*
X5918238D01*
X5911117Y2870086D01*
X5904732Y2866400D01*
X5899519Y2861187D01*
X5895832Y2854802D01*
X5893924Y2847680D01*
Y2840308D01*
X5895832Y2833187D01*
X5899519Y2826802D01*
X5904732Y2821589D01*
X5911117Y2817902D01*
X5918238Y2815994D01*
X5925610D01*
X5932732Y2817902D01*
X5935109Y2819275D01*
X5949843Y2804540D01*
Y2132455D01*
X5925157Y2107768D01*
X5923388Y2105122D01*
X5922767Y2102000D01*
X5922767Y2102000D01*
Y1939796D01*
X5920117Y1939086D01*
X5913732Y1935400D01*
X5908519Y1930187D01*
X5904832Y1923802D01*
X5902924Y1916680D01*
Y1909308D01*
X5904832Y1902187D01*
X5908519Y1895802D01*
X5913732Y1890589D01*
X5920117Y1886902D01*
X5927238Y1884994D01*
X5934610D01*
X5941732Y1886902D01*
X5948117Y1890589D01*
X5953330Y1895802D01*
X5957016Y1902187D01*
X5958083Y1906167D01*
X5963659Y1907661D01*
X5966732Y1904589D01*
X5973117Y1900902D01*
X5980238Y1898994D01*
X5987610D01*
X5994732Y1900902D01*
X6001117Y1904589D01*
X6006330Y1909802D01*
X6010016Y1916187D01*
X6011924Y1923308D01*
Y1930680D01*
X6010016Y1937802D01*
X6006330Y1944187D01*
X6001117Y1949400D01*
X5994732Y1953086D01*
X5987610Y1954994D01*
X5980238D01*
X5973117Y1953086D01*
X5966732Y1949400D01*
X5961519Y1944187D01*
X5957832Y1937802D01*
X5956766Y1933822D01*
X5951189Y1932327D01*
X5948117Y1935400D01*
X5941732Y1939086D01*
X5939081Y1939796D01*
Y2098622D01*
X5963768Y2123308D01*
X5963768Y2123309D01*
X5965536Y2125955D01*
X5966157Y2129076D01*
Y2807918D01*
X5966157Y2807918D01*
X5965536Y2811040D01*
X5963768Y2813686D01*
X5963768Y2813686D01*
X5946644Y2830810D01*
X5948016Y2833187D01*
X5949924Y2840308D01*
Y2847680D01*
X5948016Y2854802D01*
X5944330Y2861187D01*
X5939117Y2866400D01*
X5932732Y2870086D01*
X5925610Y2871994D01*
D02*
G37*
G36*
X7433686Y1918000D02*
X7426314D01*
X7419193Y1916092D01*
X7412808Y1912406D01*
X7407595Y1907193D01*
X7403908Y1900808D01*
X7402000Y1893687D01*
Y1886314D01*
X7403908Y1879193D01*
X7407595Y1872808D01*
X7412808Y1867595D01*
X7419193Y1863908D01*
X7426314Y1862000D01*
X7433686D01*
X7440808Y1863908D01*
X7447193Y1867595D01*
X7452406Y1872808D01*
X7456092Y1879193D01*
X7458000Y1886314D01*
Y1893687D01*
X7456092Y1900808D01*
X7452406Y1907193D01*
X7447193Y1912406D01*
X7440808Y1916092D01*
X7433686Y1918000D01*
D02*
G37*
G36*
X7815351Y1927768D02*
X7756566D01*
X7758296Y1921310D01*
X7762204Y1914541D01*
X7767731Y1909014D01*
X7770946Y1907158D01*
X7771230Y1906585D01*
X7771427Y1901107D01*
X7766727Y1896406D01*
X7763273Y1888069D01*
Y1879044D01*
X7766727Y1870706D01*
X7773108Y1864325D01*
X7781446Y1860871D01*
X7790471D01*
X7798808Y1864325D01*
X7805190Y1870706D01*
X7808643Y1879044D01*
Y1888069D01*
X7805190Y1896406D01*
X7800489Y1901107D01*
X7800687Y1906585D01*
X7800971Y1907158D01*
X7804185Y1909014D01*
X7809712Y1914541D01*
X7813620Y1921310D01*
X7815351Y1927768D01*
D02*
G37*
G36*
X5975301Y1886994D02*
X5967928D01*
X5960807Y1885086D01*
X5954422Y1881400D01*
X5949209Y1876187D01*
X5945522Y1869802D01*
X5943614Y1862680D01*
Y1855308D01*
X5945522Y1848187D01*
X5949209Y1841802D01*
X5954422Y1836589D01*
X5960807Y1832902D01*
X5967928Y1830994D01*
X5975301D01*
X5982422Y1832902D01*
X5988807Y1836589D01*
X5994020Y1841802D01*
X5997706Y1848187D01*
X5999614Y1855308D01*
Y1862680D01*
X5997706Y1869802D01*
X5994020Y1876187D01*
X5988807Y1881400D01*
X5982422Y1885086D01*
X5975301Y1886994D01*
D02*
G37*
G36*
X7578686Y1738000D02*
X7571314D01*
X7564193Y1736092D01*
X7557808Y1732406D01*
X7552595Y1727193D01*
X7548908Y1720808D01*
X7547000Y1713687D01*
Y1706314D01*
X7548908Y1699193D01*
X7552595Y1692808D01*
X7557808Y1687595D01*
X7564193Y1683908D01*
X7571314Y1682000D01*
X7578686D01*
X7585808Y1683908D01*
X7592193Y1687595D01*
X7597406Y1692808D01*
X7601092Y1699193D01*
X7603000Y1706314D01*
Y1713687D01*
X7601092Y1720808D01*
X7597406Y1727193D01*
X7592193Y1732406D01*
X7585808Y1736092D01*
X7578686Y1738000D01*
D02*
G37*
G36*
X7385024Y1631718D02*
X7319969D01*
Y1566663D01*
X7385024D01*
Y1631718D01*
D02*
G37*
G36*
X7256779D02*
X7248214D01*
X7239941Y1629501D01*
X7232524Y1625219D01*
X7226468Y1619163D01*
X7222185Y1611745D01*
X7219969Y1603473D01*
Y1594908D01*
X7222185Y1586635D01*
X7226468Y1579218D01*
X7232524Y1573162D01*
X7239941Y1568879D01*
X7248214Y1566663D01*
X7256779D01*
X7265051Y1568879D01*
X7272469Y1573162D01*
X7278525Y1579218D01*
X7282807Y1586635D01*
X7285024Y1594908D01*
Y1603473D01*
X7282807Y1611745D01*
X7278525Y1619163D01*
X7272469Y1625219D01*
X7265051Y1629501D01*
X7256779Y1631718D01*
D02*
G37*
G36*
X7156779D02*
X7148214D01*
X7139941Y1629501D01*
X7132524Y1625219D01*
X7126468Y1619163D01*
X7122185Y1611745D01*
X7119969Y1603473D01*
Y1594908D01*
X7122185Y1586635D01*
X7126468Y1579218D01*
X7132524Y1573162D01*
X7139941Y1568879D01*
X7148214Y1566663D01*
X7156779D01*
X7165051Y1568879D01*
X7172469Y1573162D01*
X7178525Y1579218D01*
X7182807Y1586635D01*
X7185024Y1594908D01*
Y1603473D01*
X7182807Y1611745D01*
X7178525Y1619163D01*
X7172469Y1625219D01*
X7165051Y1629501D01*
X7156779Y1631718D01*
D02*
G37*
G36*
X6656779D02*
X6648214D01*
X6639941Y1629501D01*
X6632524Y1625219D01*
X6626468Y1619163D01*
X6622185Y1611745D01*
X6619969Y1603473D01*
Y1594908D01*
X6622185Y1586635D01*
X6626468Y1579218D01*
X6632524Y1573162D01*
X6639941Y1568879D01*
X6648214Y1566663D01*
X6656779D01*
X6665051Y1568879D01*
X6672469Y1573162D01*
X6678525Y1579218D01*
X6682807Y1586635D01*
X6685024Y1594908D01*
Y1603473D01*
X6682807Y1611745D01*
X6678525Y1619163D01*
X6672469Y1625219D01*
X6665051Y1629501D01*
X6656779Y1631718D01*
D02*
G37*
G36*
X6156924Y1516889D02*
Y1486994D01*
X6186819D01*
X6184539Y1495504D01*
X6179931Y1503485D01*
X6173415Y1510001D01*
X6165434Y1514609D01*
X6156924Y1516889D01*
D02*
G37*
G36*
X6146924D02*
X6138415Y1514609D01*
X6130434Y1510001D01*
X6123917Y1503485D01*
X6119309Y1495504D01*
X6117029Y1486994D01*
X6146924D01*
Y1516889D01*
D02*
G37*
G36*
X6186819Y1476994D02*
X6156924D01*
Y1447099D01*
X6165434Y1449379D01*
X6173415Y1453987D01*
X6179931Y1460504D01*
X6184539Y1468485D01*
X6186819Y1476994D01*
D02*
G37*
G36*
X6146924D02*
X6117029D01*
X6119309Y1468485D01*
X6123917Y1460504D01*
X6130434Y1453987D01*
X6138415Y1449379D01*
X6146924Y1447099D01*
Y1476994D01*
D02*
G37*
G36*
X5918608Y1446889D02*
Y1416994D01*
X5948503D01*
X5946223Y1425504D01*
X5941615Y1433485D01*
X5935099Y1440001D01*
X5927118Y1444609D01*
X5918608Y1446889D01*
D02*
G37*
G36*
X5908608D02*
X5900099Y1444609D01*
X5892118Y1440001D01*
X5885601Y1433485D01*
X5880993Y1425504D01*
X5878713Y1416994D01*
X5908608D01*
Y1446889D01*
D02*
G37*
G36*
X5948503Y1406994D02*
X5918608D01*
Y1377099D01*
X5927118Y1379379D01*
X5935099Y1383987D01*
X5941615Y1390504D01*
X5946223Y1398485D01*
X5948503Y1406994D01*
D02*
G37*
G36*
X5908608D02*
X5878713D01*
X5880993Y1398485D01*
X5885601Y1390504D01*
X5892118Y1383987D01*
X5900099Y1379379D01*
X5908608Y1377099D01*
Y1406994D01*
D02*
G37*
G36*
X7357700Y1338718D02*
X7357496D01*
Y1304190D01*
X7392024D01*
Y1304394D01*
X7389330Y1314447D01*
X7384126Y1323461D01*
X7376767Y1330820D01*
X7367753Y1336024D01*
X7357700Y1338718D01*
D02*
G37*
G36*
X7347496D02*
X7347292D01*
X7337239Y1336024D01*
X7328226Y1330820D01*
X7320866Y1323461D01*
X7315662Y1314447D01*
X7312969Y1304394D01*
Y1304190D01*
X7347496D01*
Y1338718D01*
D02*
G37*
G36*
X7256779Y1331718D02*
X7248214D01*
X7239941Y1329501D01*
X7232524Y1325219D01*
X7226468Y1319163D01*
X7222185Y1311745D01*
X7219969Y1303473D01*
Y1294908D01*
X7222185Y1286635D01*
X7226468Y1279218D01*
X7232524Y1273162D01*
X7239941Y1268879D01*
X7248214Y1266663D01*
X7256779D01*
X7265051Y1268879D01*
X7272469Y1273162D01*
X7278525Y1279218D01*
X7282807Y1286635D01*
X7285024Y1294908D01*
Y1303473D01*
X7282807Y1311745D01*
X7278525Y1319163D01*
X7272469Y1325219D01*
X7265051Y1329501D01*
X7256779Y1331718D01*
D02*
G37*
G36*
X7156779D02*
X7148214D01*
X7139941Y1329501D01*
X7132524Y1325219D01*
X7126468Y1319163D01*
X7122185Y1311745D01*
X7119969Y1303473D01*
Y1294908D01*
X7122185Y1286635D01*
X7126468Y1279218D01*
X7132524Y1273162D01*
X7139941Y1268879D01*
X7148214Y1266663D01*
X7156779D01*
X7165051Y1268879D01*
X7172469Y1273162D01*
X7178525Y1279218D01*
X7182807Y1286635D01*
X7185024Y1294908D01*
Y1303473D01*
X7182807Y1311745D01*
X7178525Y1319163D01*
X7172469Y1325219D01*
X7165051Y1329501D01*
X7156779Y1331718D01*
D02*
G37*
G36*
X7056779D02*
X7048214D01*
X7039941Y1329501D01*
X7032524Y1325219D01*
X7026468Y1319163D01*
X7022185Y1311745D01*
X7019969Y1303473D01*
Y1294908D01*
X7022185Y1286635D01*
X7026468Y1279218D01*
X7032524Y1273162D01*
X7039941Y1268879D01*
X7048214Y1266663D01*
X7056779D01*
X7065051Y1268879D01*
X7072469Y1273162D01*
X7078525Y1279218D01*
X7082807Y1286635D01*
X7085024Y1294908D01*
Y1303473D01*
X7082807Y1311745D01*
X7078525Y1319163D01*
X7072469Y1325219D01*
X7065051Y1329501D01*
X7056779Y1331718D01*
D02*
G37*
G36*
X7392024Y1294190D02*
X7357496D01*
Y1259663D01*
X7357700D01*
X7367753Y1262356D01*
X7376767Y1267560D01*
X7384126Y1274920D01*
X7389330Y1283933D01*
X7392024Y1293986D01*
Y1294190D01*
D02*
G37*
G36*
X7347496D02*
X7312969D01*
Y1293986D01*
X7315662Y1283933D01*
X7320866Y1274920D01*
X7328226Y1267560D01*
X7337239Y1262356D01*
X7347292Y1259663D01*
X7347496D01*
Y1294190D01*
D02*
G37*
G36*
X6449924Y1230889D02*
Y1200994D01*
X6479819D01*
X6477539Y1209504D01*
X6472931Y1217485D01*
X6466415Y1224001D01*
X6458434Y1228609D01*
X6449924Y1230889D01*
D02*
G37*
G36*
X6439924D02*
X6431415Y1228609D01*
X6423434Y1224001D01*
X6416917Y1217485D01*
X6412309Y1209504D01*
X6410029Y1200994D01*
X6439924D01*
Y1230889D01*
D02*
G37*
G36*
X6130610Y1242994D02*
X6123238D01*
X6116117Y1241086D01*
X6109732Y1237400D01*
X6104519Y1232187D01*
X6100832Y1225802D01*
X6098924Y1218680D01*
Y1211308D01*
X6100832Y1204187D01*
X6104519Y1197802D01*
X6109732Y1192589D01*
X6116117Y1188902D01*
X6123238Y1186994D01*
X6130610D01*
X6137732Y1188902D01*
X6144117Y1192589D01*
X6149330Y1197802D01*
X6153016Y1204187D01*
X6154924Y1211308D01*
Y1218680D01*
X6153016Y1225802D01*
X6149330Y1232187D01*
X6144117Y1237400D01*
X6137732Y1241086D01*
X6130610Y1242994D01*
D02*
G37*
G36*
X6479819Y1190994D02*
X6449924D01*
Y1161099D01*
X6458434Y1163379D01*
X6466415Y1167987D01*
X6472931Y1174504D01*
X6477539Y1182485D01*
X6479819Y1190994D01*
D02*
G37*
G36*
X6439924D02*
X6410029D01*
X6412309Y1182485D01*
X6416917Y1174504D01*
X6423434Y1167987D01*
X6431415Y1163379D01*
X6439924Y1161099D01*
Y1190994D01*
D02*
G37*
G36*
X6080610Y1204432D02*
X6073238D01*
X6066117Y1202524D01*
X6059732Y1198838D01*
X6054519Y1193625D01*
X6050832Y1187240D01*
X6048924Y1180119D01*
Y1172746D01*
X6050832Y1165625D01*
X6054519Y1159240D01*
X6059732Y1154027D01*
X6066117Y1150340D01*
X6073238Y1148432D01*
X6080610D01*
X6087732Y1150340D01*
X6094117Y1154027D01*
X6099330Y1159240D01*
X6103016Y1165625D01*
X6104924Y1172746D01*
Y1180119D01*
X6103016Y1187240D01*
X6099330Y1193625D01*
X6094117Y1198838D01*
X6087732Y1202524D01*
X6080610Y1204432D01*
D02*
G37*
G36*
X3299610Y1007994D02*
X3292238D01*
X3285117Y1006086D01*
X3278732Y1002400D01*
X3273519Y997187D01*
X3269832Y990802D01*
X3267924Y983681D01*
Y976308D01*
X3269832Y969187D01*
X3273519Y962802D01*
X3278732Y957589D01*
X3285117Y953902D01*
X3292238Y951994D01*
X3299610D01*
X3306732Y953902D01*
X3313117Y957589D01*
X3318330Y962802D01*
X3322016Y969187D01*
X3323924Y976308D01*
Y983681D01*
X3322016Y990802D01*
X3318330Y997187D01*
X3313117Y1002400D01*
X3306732Y1006086D01*
X3299610Y1007994D01*
D02*
G37*
G36*
X5940610Y995994D02*
X5933238D01*
X5926117Y994086D01*
X5919732Y990400D01*
X5914519Y985187D01*
X5910832Y978802D01*
X5908924Y971681D01*
Y964308D01*
X5910832Y957187D01*
X5914519Y950802D01*
X5919732Y945589D01*
X5926117Y941902D01*
X5933238Y939994D01*
X5940610D01*
X5947732Y941902D01*
X5954117Y945589D01*
X5959330Y950802D01*
X5963016Y957187D01*
X5964924Y964308D01*
Y971681D01*
X5963016Y978802D01*
X5959330Y985187D01*
X5954117Y990400D01*
X5947732Y994086D01*
X5940610Y995994D01*
D02*
G37*
G36*
X2777610Y982994D02*
X2770238D01*
X2763117Y981086D01*
X2756732Y977400D01*
X2751519Y972187D01*
X2747832Y965802D01*
X2745924Y958681D01*
Y951308D01*
X2747832Y944187D01*
X2751519Y937802D01*
X2756732Y932589D01*
X2763117Y928902D01*
X2770238Y926994D01*
X2777610D01*
X2784732Y928902D01*
X2791117Y932589D01*
X2796330Y937802D01*
X2800016Y944187D01*
X2801924Y951308D01*
Y958681D01*
X2800016Y965802D01*
X2796330Y972187D01*
X2791117Y977400D01*
X2784732Y981086D01*
X2777610Y982994D01*
D02*
G37*
G36*
X1811611Y961994D02*
X1804238D01*
X1797117Y960086D01*
X1790732Y956400D01*
X1785519Y951187D01*
X1781832Y944802D01*
X1779924Y937681D01*
Y930308D01*
X1781832Y923187D01*
X1785519Y916802D01*
X1790732Y911589D01*
X1797117Y907902D01*
X1804238Y905994D01*
X1811611D01*
X1818732Y907902D01*
X1825117Y911589D01*
X1830330Y916802D01*
X1834016Y923187D01*
X1835924Y930308D01*
Y937681D01*
X1834016Y944802D01*
X1830330Y951187D01*
X1825117Y956400D01*
X1818732Y960086D01*
X1811611Y961994D01*
D02*
G37*
G36*
X5313924Y913889D02*
Y883994D01*
X5343819D01*
X5341539Y892504D01*
X5336931Y900485D01*
X5330415Y907001D01*
X5322434Y911609D01*
X5313924Y913889D01*
D02*
G37*
G36*
X5303924D02*
X5295415Y911609D01*
X5287434Y907001D01*
X5280917Y900485D01*
X5276309Y892504D01*
X5274029Y883994D01*
X5303924D01*
Y913889D01*
D02*
G37*
G36*
X2576610Y968994D02*
X2569238D01*
X2562117Y967086D01*
X2555732Y963400D01*
X2550519Y958187D01*
X2546832Y951802D01*
X2544924Y944681D01*
Y937308D01*
X2546832Y930187D01*
X2550519Y923802D01*
X2553326Y920994D01*
X2551255Y915994D01*
X2547238D01*
X2540117Y914086D01*
X2533732Y910400D01*
X2528519Y905187D01*
X2524832Y898802D01*
X2522924Y891681D01*
Y884308D01*
X2524832Y877187D01*
X2528519Y870802D01*
X2533732Y865589D01*
X2540117Y861902D01*
X2547238Y859994D01*
X2554610D01*
X2561732Y861902D01*
X2568117Y865589D01*
X2573330Y870802D01*
X2577016Y877187D01*
X2578924Y884308D01*
Y891681D01*
X2577016Y898802D01*
X2573330Y905187D01*
X2570522Y907994D01*
X2572593Y912994D01*
X2576610D01*
X2583732Y914902D01*
X2590117Y918589D01*
X2595330Y923802D01*
X2599016Y930187D01*
X2600924Y937308D01*
Y944681D01*
X2599016Y951802D01*
X2595330Y958187D01*
X2590117Y963400D01*
X2583732Y967086D01*
X2576610Y968994D01*
D02*
G37*
G36*
X3804610Y910626D02*
X3797238D01*
X3790117Y908718D01*
X3783732Y905032D01*
X3778519Y899819D01*
X3774832Y893434D01*
X3772924Y886312D01*
Y878940D01*
X3774832Y871819D01*
X3778519Y865434D01*
X3783732Y860221D01*
X3790117Y856534D01*
X3797238Y854626D01*
X3804610D01*
X3811732Y856534D01*
X3818117Y860221D01*
X3823330Y865434D01*
X3827016Y871819D01*
X3828924Y878940D01*
Y886312D01*
X3827016Y893434D01*
X3823330Y899819D01*
X3818117Y905032D01*
X3811732Y908718D01*
X3804610Y910626D01*
D02*
G37*
G36*
X4318686Y908000D02*
X4311314D01*
X4304193Y906092D01*
X4297808Y902406D01*
X4292595Y897193D01*
X4288908Y890808D01*
X4287000Y883687D01*
Y876314D01*
X4288908Y869193D01*
X4292595Y862808D01*
X4297808Y857595D01*
X4304193Y853908D01*
X4311314Y852000D01*
X4318686D01*
X4325808Y853908D01*
X4332193Y857595D01*
X4337406Y862808D01*
X4341092Y869193D01*
X4343000Y876314D01*
Y883687D01*
X4341092Y890808D01*
X4337406Y897193D01*
X4332193Y902406D01*
X4325808Y906092D01*
X4318686Y908000D01*
D02*
G37*
G36*
X5343819Y873994D02*
X5313924D01*
Y844099D01*
X5322434Y846379D01*
X5330415Y850987D01*
X5336931Y857504D01*
X5341539Y865485D01*
X5343819Y873994D01*
D02*
G37*
G36*
X5303924D02*
X5274029D01*
X5276309Y865485D01*
X5280917Y857504D01*
X5287434Y850987D01*
X5295415Y846379D01*
X5303924Y844099D01*
Y873994D01*
D02*
G37*
G36*
X4963610Y856994D02*
X4956238D01*
X4949117Y855086D01*
X4942732Y851400D01*
X4937519Y846187D01*
X4933832Y839802D01*
X4933122Y837151D01*
X4497165D01*
X4497164Y837151D01*
X4494043Y836530D01*
X4491396Y834762D01*
X4455769Y799134D01*
X4451662Y801505D01*
X4443269Y803754D01*
X4434580D01*
X4426187Y801505D01*
X4418662Y797161D01*
X4412518Y791017D01*
X4408173Y783492D01*
X4405924Y775099D01*
Y766410D01*
X4408173Y758017D01*
X4412518Y750492D01*
X4418662Y744348D01*
X4426187Y740003D01*
X4434580Y737754D01*
X4443269D01*
X4451662Y740003D01*
X4459187Y744348D01*
X4465331Y750492D01*
X4469675Y758017D01*
X4471924Y766410D01*
Y775099D01*
X4469675Y783492D01*
X4467304Y787599D01*
X4500543Y820837D01*
X4933122D01*
X4933832Y818187D01*
X4937519Y811802D01*
X4942732Y806589D01*
X4949117Y802902D01*
X4956238Y800994D01*
X4963610D01*
X4970732Y802902D01*
X4977117Y806589D01*
X4982330Y811802D01*
X4986016Y818187D01*
X4987924Y825308D01*
Y832681D01*
X4986016Y839802D01*
X4982330Y846187D01*
X4977117Y851400D01*
X4970732Y855086D01*
X4963610Y856994D01*
D02*
G37*
G36*
X3449610Y995994D02*
X3442238D01*
X3435117Y994086D01*
X3428732Y990400D01*
X3423519Y985187D01*
X3419832Y978802D01*
X3417924Y971681D01*
Y964308D01*
X3419832Y957187D01*
X3423519Y950802D01*
X3428732Y945589D01*
X3435117Y941902D01*
X3442238Y939994D01*
X3446767D01*
Y801713D01*
X3441767Y799754D01*
X3437009Y804513D01*
X3429484Y808857D01*
X3421091Y811106D01*
X3412402D01*
X3404009Y808857D01*
X3396484Y804513D01*
X3390340Y798369D01*
X3385995Y790844D01*
X3383746Y782451D01*
Y773762D01*
X3385995Y765369D01*
X3390340Y757844D01*
X3396484Y751700D01*
X3404009Y747355D01*
X3412402Y745106D01*
X3421091D01*
X3429484Y747355D01*
X3437009Y751700D01*
X3441767Y756458D01*
X3446767Y754499D01*
Y332995D01*
X3446767Y332994D01*
X3447388Y329873D01*
X3449157Y327226D01*
X3454204Y322178D01*
X3452832Y319802D01*
X3450924Y312680D01*
Y305308D01*
X3452832Y298187D01*
X3456519Y291802D01*
X3461732Y286589D01*
X3468117Y282902D01*
X3475238Y280994D01*
X3482610D01*
X3489732Y282902D01*
X3496117Y286589D01*
X3501330Y291802D01*
X3503590Y295716D01*
X3508590Y294376D01*
Y210085D01*
X3504009Y208857D01*
X3496484Y204513D01*
X3490340Y198369D01*
X3485995Y190844D01*
X3483746Y182451D01*
Y173762D01*
X3485995Y165369D01*
X3490340Y157844D01*
X3496484Y151700D01*
X3504009Y147355D01*
X3512402Y145106D01*
X3521091D01*
X3529484Y147355D01*
X3537009Y151700D01*
X3543153Y157844D01*
X3547497Y165369D01*
X3549746Y173762D01*
Y182451D01*
X3547497Y190844D01*
X3543153Y198369D01*
X3537009Y204513D01*
X3529484Y208857D01*
X3524903Y210085D01*
Y590438D01*
X3628740Y694275D01*
X3631117Y692902D01*
X3638238Y690994D01*
X3645610D01*
X3652732Y692902D01*
X3659117Y696589D01*
X3664330Y701802D01*
X3668016Y708187D01*
X3669924Y715308D01*
Y722681D01*
X3668016Y729802D01*
X3664330Y736187D01*
X3659117Y741400D01*
X3652732Y745086D01*
X3645610Y746994D01*
X3638238D01*
X3631117Y745086D01*
X3624732Y741400D01*
X3619519Y736187D01*
X3615832Y729802D01*
X3613924Y722681D01*
Y715308D01*
X3615832Y708187D01*
X3617205Y705810D01*
X3510979Y599584D01*
X3509210Y596938D01*
X3508589Y593816D01*
X3508590Y593816D01*
Y323612D01*
X3503590Y322273D01*
X3501330Y326187D01*
X3496117Y331400D01*
X3489732Y335086D01*
X3482610Y336994D01*
X3475238D01*
X3468117Y335086D01*
X3467369Y334654D01*
X3463081Y337837D01*
Y945568D01*
X3463117Y945589D01*
X3468330Y950802D01*
X3472016Y957187D01*
X3473924Y964308D01*
Y971681D01*
X3472016Y978802D01*
X3468330Y985187D01*
X3463117Y990400D01*
X3456732Y994086D01*
X3449610Y995994D01*
D02*
G37*
G36*
X3812617Y823994D02*
X3805244D01*
X3798123Y822086D01*
X3791738Y818400D01*
X3786525Y813187D01*
X3782838Y806802D01*
X3780930Y799681D01*
Y792308D01*
X3782838Y785187D01*
X3786525Y778802D01*
X3791738Y773589D01*
X3798123Y769902D01*
X3805244Y767994D01*
X3812617D01*
X3819738Y769902D01*
X3826123Y773589D01*
X3831336Y778802D01*
X3835022Y785187D01*
X3836930Y792308D01*
Y799681D01*
X3835022Y806802D01*
X3831336Y813187D01*
X3826123Y818400D01*
X3819738Y822086D01*
X3812617Y823994D01*
D02*
G37*
G36*
X3521091Y811106D02*
X3512402D01*
X3504009Y808857D01*
X3496484Y804513D01*
X3490340Y798369D01*
X3485995Y790844D01*
X3483746Y782451D01*
Y773762D01*
X3485995Y765369D01*
X3490340Y757844D01*
X3496484Y751700D01*
X3504009Y747355D01*
X3512402Y745106D01*
X3521091D01*
X3529484Y747355D01*
X3537009Y751700D01*
X3543153Y757844D01*
X3547497Y765369D01*
X3549746Y773762D01*
Y782451D01*
X3547497Y790844D01*
X3543153Y798369D01*
X3537009Y804513D01*
X3529484Y808857D01*
X3521091Y811106D01*
D02*
G37*
G36*
X3321091D02*
X3312402D01*
X3304009Y808857D01*
X3296484Y804513D01*
X3290340Y798369D01*
X3285995Y790844D01*
X3283746Y782451D01*
Y773762D01*
X3285995Y765369D01*
X3290340Y757844D01*
X3296484Y751700D01*
X3304009Y747355D01*
X3312402Y745106D01*
X3321091D01*
X3329484Y747355D01*
X3337009Y751700D01*
X3343153Y757844D01*
X3347497Y765369D01*
X3349746Y773762D01*
Y782451D01*
X3347497Y790844D01*
X3343153Y798369D01*
X3337009Y804513D01*
X3329484Y808857D01*
X3321091Y811106D01*
D02*
G37*
G36*
X3221091D02*
X3212402D01*
X3204009Y808857D01*
X3196484Y804513D01*
X3190340Y798369D01*
X3185995Y790844D01*
X3183746Y782451D01*
Y773762D01*
X3185995Y765369D01*
X3190340Y757844D01*
X3196484Y751700D01*
X3204009Y747355D01*
X3212402Y745106D01*
X3221091D01*
X3229484Y747355D01*
X3237009Y751700D01*
X3243153Y757844D01*
X3247497Y765369D01*
X3249746Y773762D01*
Y782451D01*
X3247497Y790844D01*
X3243153Y798369D01*
X3237009Y804513D01*
X3229484Y808857D01*
X3221091Y811106D01*
D02*
G37*
G36*
X3121091D02*
X3112402D01*
X3104009Y808857D01*
X3096484Y804513D01*
X3090340Y798369D01*
X3085995Y790844D01*
X3083746Y782451D01*
Y773762D01*
X3085995Y765369D01*
X3090340Y757844D01*
X3096484Y751700D01*
X3104009Y747355D01*
X3112402Y745106D01*
X3121091D01*
X3129484Y747355D01*
X3137009Y751700D01*
X3143153Y757844D01*
X3147497Y765369D01*
X3149746Y773762D01*
Y782451D01*
X3147497Y790844D01*
X3143153Y798369D01*
X3137009Y804513D01*
X3129484Y808857D01*
X3121091Y811106D01*
D02*
G37*
G36*
X2690064Y798754D02*
X2682692D01*
X2675571Y796846D01*
X2669186Y793160D01*
X2663973Y787947D01*
X2660286Y781562D01*
X2658378Y774441D01*
Y767068D01*
X2660286Y759947D01*
X2663973Y753562D01*
X2669186Y748349D01*
X2675571Y744662D01*
X2682692Y742754D01*
X2690064D01*
X2697186Y744662D01*
X2703571Y748349D01*
X2708784Y753562D01*
X2712470Y759947D01*
X2714378Y767068D01*
Y774441D01*
X2712470Y781562D01*
X2708784Y787947D01*
X2703571Y793160D01*
X2697186Y796846D01*
X2690064Y798754D01*
D02*
G37*
G36*
X4543269Y803754D02*
X4534580D01*
X4526187Y801505D01*
X4518662Y797161D01*
X4512518Y791017D01*
X4508173Y783492D01*
X4505924Y775099D01*
Y766410D01*
X4508173Y758017D01*
X4510544Y753910D01*
X3956807Y200172D01*
X3954430Y201544D01*
X3947309Y203452D01*
X3939936D01*
X3932815Y201544D01*
X3926430Y197858D01*
X3921217Y192645D01*
X3917530Y186260D01*
X3915622Y179138D01*
Y171766D01*
X3917530Y164645D01*
X3921217Y158260D01*
X3926430Y153047D01*
X3932815Y149360D01*
X3939936Y147452D01*
X3947309D01*
X3954430Y149360D01*
X3960815Y153047D01*
X3966028Y158260D01*
X3969714Y164645D01*
X3971622Y171766D01*
Y179138D01*
X3969714Y186260D01*
X3968342Y188637D01*
X4522080Y742374D01*
X4526187Y740003D01*
X4534580Y737754D01*
X4543269D01*
X4551662Y740003D01*
X4559187Y744348D01*
X4565331Y750492D01*
X4569675Y758017D01*
X4571924Y766410D01*
Y775099D01*
X4569675Y783492D01*
X4565331Y791017D01*
X4559187Y797161D01*
X4551662Y801505D01*
X4543269Y803754D01*
D02*
G37*
G36*
X4343269D02*
X4334580D01*
X4326187Y801505D01*
X4318662Y797161D01*
X4312518Y791017D01*
X4308173Y783492D01*
X4305924Y775099D01*
Y766410D01*
X4308173Y758017D01*
X4312518Y750492D01*
X4318662Y744348D01*
X4326187Y740003D01*
X4334580Y737754D01*
X4343269D01*
X4351662Y740003D01*
X4359187Y744348D01*
X4365331Y750492D01*
X4369675Y758017D01*
X4371924Y766410D01*
Y775099D01*
X4369675Y783492D01*
X4365331Y791017D01*
X4359187Y797161D01*
X4351662Y801505D01*
X4343269Y803754D01*
D02*
G37*
G36*
X4243269D02*
X4234580D01*
X4226187Y801505D01*
X4218662Y797161D01*
X4212518Y791017D01*
X4208173Y783492D01*
X4205924Y775099D01*
Y766410D01*
X4208173Y758017D01*
X4212518Y750492D01*
X4218662Y744348D01*
X4226187Y740003D01*
X4234580Y737754D01*
X4243269D01*
X4251662Y740003D01*
X4259187Y744348D01*
X4265331Y750492D01*
X4269675Y758017D01*
X4271924Y766410D01*
Y775099D01*
X4269675Y783492D01*
X4265331Y791017D01*
X4259187Y797161D01*
X4251662Y801505D01*
X4243269Y803754D01*
D02*
G37*
G36*
X4143269D02*
X4134580D01*
X4126187Y801505D01*
X4118662Y797161D01*
X4112518Y791017D01*
X4108173Y783492D01*
X4105924Y775099D01*
Y766410D01*
X4108173Y758017D01*
X4112518Y750492D01*
X4118662Y744348D01*
X4126187Y740003D01*
X4134580Y737754D01*
X4143269D01*
X4151662Y740003D01*
X4159187Y744348D01*
X4165331Y750492D01*
X4169675Y758017D01*
X4171924Y766410D01*
Y775099D01*
X4169675Y783492D01*
X4165331Y791017D01*
X4159187Y797161D01*
X4151662Y801505D01*
X4143269Y803754D01*
D02*
G37*
G36*
X2487883D02*
X2479194D01*
X2470801Y801505D01*
X2463276Y797161D01*
X2457132Y791017D01*
X2452787Y783492D01*
X2450538Y775099D01*
Y766410D01*
X2452787Y758017D01*
X2457132Y750492D01*
X2463276Y744348D01*
X2470801Y740003D01*
X2479194Y737754D01*
X2487883D01*
X2496276Y740003D01*
X2503801Y744348D01*
X2509945Y750492D01*
X2514289Y758017D01*
X2516538Y766410D01*
Y775099D01*
X2514289Y783492D01*
X2509945Y791017D01*
X2503801Y797161D01*
X2496276Y801505D01*
X2487883Y803754D01*
D02*
G37*
G36*
X2387883D02*
X2379194D01*
X2370801Y801505D01*
X2363276Y797161D01*
X2357132Y791017D01*
X2352787Y783492D01*
X2350538Y775099D01*
Y766410D01*
X2352787Y758017D01*
X2357132Y750492D01*
X2363276Y744348D01*
X2370801Y740003D01*
X2379194Y737754D01*
X2387883D01*
X2396276Y740003D01*
X2403801Y744348D01*
X2409945Y750492D01*
X2414289Y758017D01*
X2416538Y766410D01*
Y775099D01*
X2414289Y783492D01*
X2409945Y791017D01*
X2403801Y797161D01*
X2396276Y801505D01*
X2387883Y803754D01*
D02*
G37*
G36*
X2287883D02*
X2279194D01*
X2270801Y801505D01*
X2263276Y797161D01*
X2257132Y791017D01*
X2252787Y783492D01*
X2250538Y775099D01*
Y766410D01*
X2252787Y758017D01*
X2257132Y750492D01*
X2263276Y744348D01*
X2270801Y740003D01*
X2279194Y737754D01*
X2287883D01*
X2296276Y740003D01*
X2303801Y744348D01*
X2309945Y750492D01*
X2314289Y758017D01*
X2316538Y766410D01*
Y775099D01*
X2314289Y783492D01*
X2309945Y791017D01*
X2303801Y797161D01*
X2296276Y801505D01*
X2287883Y803754D01*
D02*
G37*
G36*
X2187883D02*
X2179194D01*
X2170801Y801505D01*
X2163276Y797161D01*
X2157132Y791017D01*
X2152787Y783492D01*
X2150538Y775099D01*
Y766410D01*
X2152787Y758017D01*
X2157132Y750492D01*
X2163276Y744348D01*
X2170801Y740003D01*
X2179194Y737754D01*
X2187883D01*
X2196276Y740003D01*
X2203801Y744348D01*
X2209945Y750492D01*
X2214289Y758017D01*
X2216538Y766410D01*
Y775099D01*
X2214289Y783492D01*
X2209945Y791017D01*
X2203801Y797161D01*
X2196276Y801505D01*
X2187883Y803754D01*
D02*
G37*
G36*
X2087883D02*
X2079194D01*
X2070801Y801505D01*
X2063276Y797161D01*
X2057132Y791017D01*
X2052787Y783492D01*
X2050538Y775099D01*
Y766410D01*
X2052787Y758017D01*
X2057132Y750492D01*
X2063276Y744348D01*
X2070801Y740003D01*
X2079194Y737754D01*
X2087883D01*
X2096276Y740003D01*
X2103801Y744348D01*
X2109945Y750492D01*
X2114289Y758017D01*
X2116538Y766410D01*
Y775099D01*
X2114289Y783492D01*
X2109945Y791017D01*
X2103801Y797161D01*
X2096276Y801505D01*
X2087883Y803754D01*
D02*
G37*
G36*
X1469383D02*
X1460694D01*
X1452301Y801505D01*
X1444776Y797161D01*
X1438632Y791017D01*
X1434287Y783492D01*
X1432038Y775099D01*
Y766410D01*
X1434287Y758017D01*
X1438632Y750492D01*
X1444776Y744348D01*
X1452301Y740003D01*
X1460694Y737754D01*
X1469383D01*
X1477776Y740003D01*
X1485301Y744348D01*
X1491445Y750492D01*
X1495789Y758017D01*
X1498038Y766410D01*
Y775099D01*
X1495789Y783492D01*
X1491445Y791017D01*
X1485301Y797161D01*
X1477776Y801505D01*
X1469383Y803754D01*
D02*
G37*
G36*
X1369383D02*
X1360694D01*
X1352301Y801505D01*
X1344776Y797161D01*
X1338632Y791017D01*
X1334287Y783492D01*
X1332038Y775099D01*
Y766410D01*
X1334287Y758017D01*
X1338632Y750492D01*
X1344776Y744348D01*
X1352301Y740003D01*
X1360694Y737754D01*
X1369383D01*
X1377776Y740003D01*
X1385301Y744348D01*
X1391445Y750492D01*
X1395789Y758017D01*
X1398038Y766410D01*
Y775099D01*
X1395789Y783492D01*
X1391445Y791017D01*
X1385301Y797161D01*
X1377776Y801505D01*
X1369383Y803754D01*
D02*
G37*
G36*
X1269383D02*
X1260694D01*
X1252301Y801505D01*
X1244776Y797161D01*
X1238632Y791017D01*
X1234287Y783492D01*
X1232038Y775099D01*
Y766410D01*
X1234287Y758017D01*
X1238632Y750492D01*
X1244776Y744348D01*
X1252301Y740003D01*
X1260694Y737754D01*
X1269383D01*
X1277776Y740003D01*
X1285301Y744348D01*
X1291445Y750492D01*
X1295789Y758017D01*
X1298038Y766410D01*
Y775099D01*
X1295789Y783492D01*
X1291445Y791017D01*
X1285301Y797161D01*
X1277776Y801505D01*
X1269383Y803754D01*
D02*
G37*
G36*
X1169383D02*
X1160694D01*
X1152301Y801505D01*
X1144776Y797161D01*
X1138632Y791017D01*
X1134287Y783492D01*
X1132038Y775099D01*
Y766410D01*
X1134287Y758017D01*
X1138632Y750492D01*
X1144776Y744348D01*
X1152301Y740003D01*
X1160694Y737754D01*
X1169383D01*
X1177776Y740003D01*
X1185301Y744348D01*
X1191445Y750492D01*
X1195789Y758017D01*
X1198038Y766410D01*
Y775099D01*
X1195789Y783492D01*
X1191445Y791017D01*
X1185301Y797161D01*
X1177776Y801505D01*
X1169383Y803754D01*
D02*
G37*
G36*
X1069383D02*
X1060694D01*
X1052301Y801505D01*
X1044776Y797161D01*
X1038632Y791017D01*
X1034287Y783492D01*
X1032038Y775099D01*
Y766410D01*
X1034287Y758017D01*
X1038632Y750492D01*
X1044776Y744348D01*
X1052301Y740003D01*
X1060694Y737754D01*
X1069383D01*
X1077776Y740003D01*
X1085301Y744348D01*
X1091445Y750492D01*
X1095789Y758017D01*
X1098038Y766410D01*
Y775099D01*
X1095789Y783492D01*
X1091445Y791017D01*
X1085301Y797161D01*
X1077776Y801505D01*
X1069383Y803754D01*
D02*
G37*
G36*
X4758610Y792994D02*
X4751238D01*
X4744117Y791086D01*
X4737732Y787400D01*
X4732519Y782187D01*
X4728832Y775802D01*
X4726924Y768681D01*
Y761308D01*
X4728832Y754187D01*
X4730205Y751810D01*
X4636924Y658530D01*
X4631924Y660601D01*
Y664681D01*
X4630016Y671802D01*
X4626330Y678187D01*
X4621117Y683400D01*
X4614732Y687086D01*
X4607610Y688994D01*
X4600238D01*
X4593117Y687086D01*
X4586732Y683400D01*
X4581519Y678187D01*
X4577832Y671802D01*
X4575924Y664681D01*
Y657308D01*
X4577832Y650187D01*
X4581519Y643802D01*
X4586732Y638589D01*
X4593117Y634902D01*
X4600238Y632994D01*
X4604318D01*
X4606389Y627994D01*
X4533157Y554762D01*
X4531388Y552116D01*
X4530767Y548994D01*
X4530767Y548994D01*
Y202733D01*
X4526187Y201505D01*
X4518662Y197161D01*
X4512518Y191017D01*
X4508173Y183492D01*
X4505924Y175099D01*
Y166410D01*
X4508173Y158017D01*
X4512518Y150492D01*
X4518662Y144348D01*
X4526187Y140003D01*
X4534580Y137754D01*
X4543269D01*
X4551662Y140003D01*
X4559187Y144348D01*
X4565331Y150492D01*
X4569675Y158017D01*
X4571924Y166410D01*
Y175099D01*
X4569675Y183492D01*
X4565331Y191017D01*
X4559187Y197161D01*
X4551662Y201505D01*
X4547081Y202733D01*
Y545615D01*
X4741740Y740275D01*
X4744117Y738902D01*
X4751238Y736994D01*
X4758610D01*
X4765732Y738902D01*
X4772117Y742589D01*
X4777330Y747802D01*
X4781016Y754187D01*
X4782924Y761308D01*
Y768681D01*
X4781016Y775802D01*
X4777330Y782187D01*
X4772117Y787400D01*
X4765732Y791086D01*
X4758610Y792994D01*
D02*
G37*
G36*
X4383686Y728000D02*
X4376314D01*
X4369193Y726092D01*
X4362808Y722406D01*
X4357595Y717193D01*
X4353908Y710808D01*
X4352000Y703687D01*
Y696314D01*
X4353908Y689193D01*
X4357595Y682808D01*
X4362808Y677595D01*
X4369193Y673908D01*
X4376314Y672000D01*
X4383686D01*
X4390808Y673908D01*
X4397193Y677595D01*
X4402406Y682808D01*
X4406092Y689193D01*
X4408000Y696314D01*
Y703687D01*
X4406092Y710808D01*
X4402406Y717193D01*
X4397193Y722406D01*
X4390808Y726092D01*
X4383686Y728000D01*
D02*
G37*
G36*
X4909610Y630994D02*
X4902238D01*
X4895117Y629086D01*
X4888732Y625400D01*
X4883519Y620187D01*
X4879832Y613802D01*
X4877924Y606681D01*
Y599308D01*
X4879832Y592187D01*
X4883519Y585802D01*
X4888732Y580589D01*
X4895117Y576902D01*
X4902238Y574994D01*
X4909610D01*
X4916732Y576902D01*
X4923117Y580589D01*
X4928330Y585802D01*
X4932016Y592187D01*
X4933924Y599308D01*
Y606681D01*
X4932016Y613802D01*
X4928330Y620187D01*
X4923117Y625400D01*
X4916732Y629086D01*
X4909610Y630994D01*
D02*
G37*
G36*
X2421610Y855994D02*
X2414238D01*
X2407117Y854086D01*
X2400732Y850400D01*
X2395519Y845187D01*
X2391832Y838802D01*
X2389924Y831681D01*
Y824308D01*
X2391832Y817187D01*
X2395519Y810802D01*
X2400732Y805589D01*
X2407117Y801902D01*
X2414238Y799994D01*
X2421610D01*
X2428732Y801902D01*
X2435117Y805589D01*
X2440330Y810802D01*
X2444016Y817187D01*
X2444726Y819837D01*
X2530546D01*
X2561767Y788616D01*
Y731995D01*
X2561767Y731994D01*
X2562388Y728873D01*
X2564157Y726226D01*
X2753205Y537178D01*
X2751832Y534802D01*
X2749924Y527681D01*
Y520308D01*
X2751832Y513187D01*
X2755519Y506802D01*
X2760732Y501589D01*
X2767117Y497902D01*
X2774238Y495994D01*
X2781610D01*
X2788732Y497902D01*
X2795117Y501589D01*
X2800330Y506802D01*
X2804016Y513187D01*
X2805924Y520308D01*
Y527681D01*
X2804016Y534802D01*
X2800330Y541187D01*
X2795117Y546400D01*
X2788732Y550086D01*
X2781610Y551994D01*
X2774238D01*
X2767117Y550086D01*
X2764740Y548714D01*
X2578081Y735373D01*
Y791994D01*
X2578081Y791994D01*
X2577460Y795116D01*
X2575692Y797762D01*
X2575692Y797762D01*
X2539692Y833762D01*
X2537046Y835530D01*
X2533924Y836151D01*
X2533924Y836151D01*
X2444726D01*
X2444016Y838802D01*
X2440330Y845187D01*
X2435117Y850400D01*
X2428732Y854086D01*
X2421610Y855994D01*
D02*
G37*
G36*
X3584544Y441994D02*
X3577172D01*
X3570051Y440086D01*
X3563666Y436400D01*
X3558453Y431187D01*
X3554766Y424802D01*
X3552858Y417680D01*
Y410308D01*
X3554766Y403187D01*
X3558453Y396802D01*
X3563666Y391589D01*
X3570051Y387902D01*
X3577172Y385994D01*
X3584544D01*
X3591666Y387902D01*
X3598051Y391589D01*
X3603264Y396802D01*
X3606950Y403187D01*
X3608858Y410308D01*
Y417680D01*
X3606950Y424802D01*
X3603264Y431187D01*
X3598051Y436400D01*
X3591666Y440086D01*
X3584544Y441994D01*
D02*
G37*
G36*
X1425611Y981994D02*
X1418238D01*
X1411117Y980086D01*
X1404732Y976400D01*
X1399519Y971187D01*
X1395832Y964802D01*
X1393924Y957681D01*
Y950308D01*
X1395832Y943187D01*
X1399519Y936802D01*
X1404732Y931589D01*
X1411117Y927902D01*
X1418238Y925994D01*
X1425611D01*
X1432732Y927902D01*
X1435109Y929274D01*
X1513767Y850616D01*
Y342796D01*
X1511117Y342086D01*
X1504732Y338400D01*
X1499519Y333187D01*
X1495832Y326802D01*
X1493924Y319680D01*
Y312308D01*
X1495832Y305187D01*
X1499519Y298802D01*
X1504732Y293589D01*
X1511117Y289902D01*
X1518238Y287994D01*
X1525611D01*
X1532732Y289902D01*
X1539117Y293589D01*
X1544330Y298802D01*
X1548016Y305187D01*
X1549924Y312308D01*
Y319680D01*
X1548016Y326802D01*
X1544330Y333187D01*
X1539117Y338400D01*
X1532732Y342086D01*
X1530081Y342796D01*
Y853994D01*
X1530081Y853994D01*
X1529460Y857116D01*
X1527692Y859762D01*
X1527692Y859762D01*
X1446644Y940810D01*
X1448016Y943187D01*
X1449924Y950308D01*
Y957681D01*
X1448016Y964802D01*
X1444330Y971187D01*
X1439117Y976400D01*
X1432732Y980086D01*
X1425611Y981994D01*
D02*
G37*
G36*
X3892610Y268994D02*
X3885238D01*
X3878117Y267086D01*
X3871732Y263400D01*
X3866519Y258187D01*
X3862832Y251802D01*
X3860924Y244680D01*
Y237308D01*
X3862832Y230187D01*
X3866519Y223802D01*
X3871732Y218589D01*
X3878117Y214902D01*
X3885238Y212994D01*
X3892610D01*
X3899732Y214902D01*
X3906117Y218589D01*
X3911330Y223802D01*
X3915016Y230187D01*
X3916924Y237308D01*
Y244680D01*
X3915016Y251802D01*
X3911330Y258187D01*
X3906117Y263400D01*
X3899732Y267086D01*
X3892610Y268994D01*
D02*
G37*
G36*
X3421091Y211106D02*
X3412402D01*
X3404009Y208857D01*
X3396484Y204513D01*
X3390340Y198369D01*
X3385995Y190844D01*
X3383746Y182451D01*
Y173762D01*
X3385995Y165369D01*
X3390340Y157844D01*
X3396484Y151700D01*
X3404009Y147355D01*
X3412402Y145106D01*
X3421091D01*
X3429484Y147355D01*
X3437009Y151700D01*
X3443153Y157844D01*
X3447497Y165369D01*
X3449746Y173762D01*
Y182451D01*
X3447497Y190844D01*
X3443153Y198369D01*
X3437009Y204513D01*
X3429484Y208857D01*
X3421091Y211106D01*
D02*
G37*
G36*
X3321091D02*
X3312402D01*
X3304009Y208857D01*
X3296484Y204513D01*
X3290340Y198369D01*
X3285995Y190844D01*
X3283746Y182451D01*
Y173762D01*
X3285995Y165369D01*
X3290340Y157844D01*
X3296484Y151700D01*
X3304009Y147355D01*
X3312402Y145106D01*
X3321091D01*
X3329484Y147355D01*
X3337009Y151700D01*
X3343153Y157844D01*
X3347497Y165369D01*
X3349746Y173762D01*
Y182451D01*
X3347497Y190844D01*
X3343153Y198369D01*
X3337009Y204513D01*
X3329484Y208857D01*
X3321091Y211106D01*
D02*
G37*
G36*
X3221091D02*
X3212402D01*
X3204009Y208857D01*
X3196484Y204513D01*
X3190340Y198369D01*
X3185995Y190844D01*
X3183746Y182451D01*
Y173762D01*
X3185995Y165369D01*
X3190340Y157844D01*
X3196484Y151700D01*
X3204009Y147355D01*
X3212402Y145106D01*
X3221091D01*
X3229484Y147355D01*
X3237009Y151700D01*
X3243153Y157844D01*
X3247497Y165369D01*
X3249746Y173762D01*
Y182451D01*
X3247497Y190844D01*
X3243153Y198369D01*
X3237009Y204513D01*
X3229484Y208857D01*
X3221091Y211106D01*
D02*
G37*
G36*
X3149746D02*
X3083746D01*
Y145106D01*
X3149746D01*
Y211106D01*
D02*
G37*
G36*
X4443269Y203754D02*
X4434580D01*
X4426187Y201505D01*
X4418662Y197161D01*
X4412518Y191017D01*
X4408173Y183492D01*
X4405924Y175099D01*
Y166410D01*
X4408173Y158017D01*
X4412518Y150492D01*
X4418662Y144348D01*
X4426187Y140003D01*
X4434580Y137754D01*
X4443269D01*
X4451662Y140003D01*
X4459187Y144348D01*
X4465331Y150492D01*
X4469675Y158017D01*
X4471924Y166410D01*
Y175099D01*
X4469675Y183492D01*
X4465331Y191017D01*
X4459187Y197161D01*
X4451662Y201505D01*
X4443269Y203754D01*
D02*
G37*
G36*
X4343269D02*
X4334580D01*
X4326187Y201505D01*
X4318662Y197161D01*
X4312518Y191017D01*
X4308173Y183492D01*
X4305924Y175099D01*
Y166410D01*
X4308173Y158017D01*
X4312518Y150492D01*
X4318662Y144348D01*
X4326187Y140003D01*
X4334580Y137754D01*
X4343269D01*
X4351662Y140003D01*
X4359187Y144348D01*
X4365331Y150492D01*
X4369675Y158017D01*
X4371924Y166410D01*
Y175099D01*
X4369675Y183492D01*
X4365331Y191017D01*
X4359187Y197161D01*
X4351662Y201505D01*
X4343269Y203754D01*
D02*
G37*
G36*
X4243269D02*
X4234580D01*
X4226187Y201505D01*
X4218662Y197161D01*
X4212518Y191017D01*
X4208173Y183492D01*
X4205924Y175099D01*
Y166410D01*
X4208173Y158017D01*
X4212518Y150492D01*
X4218662Y144348D01*
X4226187Y140003D01*
X4234580Y137754D01*
X4243269D01*
X4251662Y140003D01*
X4259187Y144348D01*
X4265331Y150492D01*
X4269675Y158017D01*
X4271924Y166410D01*
Y175099D01*
X4269675Y183492D01*
X4265331Y191017D01*
X4259187Y197161D01*
X4251662Y201505D01*
X4243269Y203754D01*
D02*
G37*
G36*
X4171924D02*
X4105924D01*
Y137754D01*
X4171924D01*
Y203754D01*
D02*
G37*
G36*
X2487883D02*
X2479194D01*
X2470801Y201505D01*
X2463276Y197161D01*
X2457132Y191017D01*
X2452787Y183492D01*
X2450538Y175099D01*
Y166410D01*
X2452787Y158017D01*
X2457132Y150492D01*
X2463276Y144348D01*
X2470801Y140003D01*
X2479194Y137754D01*
X2487883D01*
X2496276Y140003D01*
X2503801Y144348D01*
X2509945Y150492D01*
X2514289Y158017D01*
X2516538Y166410D01*
Y175099D01*
X2514289Y183492D01*
X2509945Y191017D01*
X2503801Y197161D01*
X2496276Y201505D01*
X2487883Y203754D01*
D02*
G37*
G36*
X2387883D02*
X2379194D01*
X2370801Y201505D01*
X2363276Y197161D01*
X2357132Y191017D01*
X2352787Y183492D01*
X2350538Y175099D01*
Y166410D01*
X2352787Y158017D01*
X2357132Y150492D01*
X2363276Y144348D01*
X2370801Y140003D01*
X2379194Y137754D01*
X2387883D01*
X2396276Y140003D01*
X2403801Y144348D01*
X2409945Y150492D01*
X2414289Y158017D01*
X2416538Y166410D01*
Y175099D01*
X2414289Y183492D01*
X2409945Y191017D01*
X2403801Y197161D01*
X2396276Y201505D01*
X2387883Y203754D01*
D02*
G37*
G36*
X2287883D02*
X2279194D01*
X2270801Y201505D01*
X2263276Y197161D01*
X2257132Y191017D01*
X2252787Y183492D01*
X2250538Y175099D01*
Y166410D01*
X2252787Y158017D01*
X2257132Y150492D01*
X2263276Y144348D01*
X2270801Y140003D01*
X2279194Y137754D01*
X2287883D01*
X2296276Y140003D01*
X2303801Y144348D01*
X2309945Y150492D01*
X2314289Y158017D01*
X2316538Y166410D01*
Y175099D01*
X2314289Y183492D01*
X2309945Y191017D01*
X2303801Y197161D01*
X2296276Y201505D01*
X2287883Y203754D01*
D02*
G37*
G36*
X2187883D02*
X2179194D01*
X2170801Y201505D01*
X2163276Y197161D01*
X2157132Y191017D01*
X2152787Y183492D01*
X2150538Y175099D01*
Y166410D01*
X2152787Y158017D01*
X2157132Y150492D01*
X2163276Y144348D01*
X2170801Y140003D01*
X2179194Y137754D01*
X2187883D01*
X2196276Y140003D01*
X2203801Y144348D01*
X2209945Y150492D01*
X2214289Y158017D01*
X2216538Y166410D01*
Y175099D01*
X2214289Y183492D01*
X2209945Y191017D01*
X2203801Y197161D01*
X2196276Y201505D01*
X2187883Y203754D01*
D02*
G37*
G36*
X2116538D02*
X2050538D01*
Y137754D01*
X2116538D01*
Y203754D01*
D02*
G37*
G36*
X1469383D02*
X1460694D01*
X1452301Y201505D01*
X1444776Y197161D01*
X1438632Y191017D01*
X1434287Y183492D01*
X1432038Y175099D01*
Y166410D01*
X1434287Y158017D01*
X1438632Y150492D01*
X1444776Y144348D01*
X1452301Y140003D01*
X1460694Y137754D01*
X1469383D01*
X1477776Y140003D01*
X1485301Y144348D01*
X1491445Y150492D01*
X1495789Y158017D01*
X1498038Y166410D01*
Y175099D01*
X1495789Y183492D01*
X1491445Y191017D01*
X1485301Y197161D01*
X1477776Y201505D01*
X1469383Y203754D01*
D02*
G37*
G36*
X1369383D02*
X1360694D01*
X1352301Y201505D01*
X1344776Y197161D01*
X1338632Y191017D01*
X1334287Y183492D01*
X1332038Y175099D01*
Y166410D01*
X1334287Y158017D01*
X1338632Y150492D01*
X1344776Y144348D01*
X1352301Y140003D01*
X1360694Y137754D01*
X1369383D01*
X1377776Y140003D01*
X1385301Y144348D01*
X1391445Y150492D01*
X1395789Y158017D01*
X1398038Y166410D01*
Y175099D01*
X1395789Y183492D01*
X1391445Y191017D01*
X1385301Y197161D01*
X1377776Y201505D01*
X1369383Y203754D01*
D02*
G37*
G36*
X1269383D02*
X1260694D01*
X1252301Y201505D01*
X1244776Y197161D01*
X1238632Y191017D01*
X1234287Y183492D01*
X1232038Y175099D01*
Y166410D01*
X1234287Y158017D01*
X1238632Y150492D01*
X1244776Y144348D01*
X1252301Y140003D01*
X1260694Y137754D01*
X1269383D01*
X1277776Y140003D01*
X1285301Y144348D01*
X1291445Y150492D01*
X1295789Y158017D01*
X1298038Y166410D01*
Y175099D01*
X1295789Y183492D01*
X1291445Y191017D01*
X1285301Y197161D01*
X1277776Y201505D01*
X1269383Y203754D01*
D02*
G37*
G36*
X1169383D02*
X1160694D01*
X1152301Y201505D01*
X1144776Y197161D01*
X1138632Y191017D01*
X1134287Y183492D01*
X1132038Y175099D01*
Y166410D01*
X1134287Y158017D01*
X1138632Y150492D01*
X1144776Y144348D01*
X1152301Y140003D01*
X1160694Y137754D01*
X1169383D01*
X1177776Y140003D01*
X1185301Y144348D01*
X1191445Y150492D01*
X1195789Y158017D01*
X1198038Y166410D01*
Y175099D01*
X1195789Y183492D01*
X1191445Y191017D01*
X1185301Y197161D01*
X1177776Y201505D01*
X1169383Y203754D01*
D02*
G37*
G36*
X1098038D02*
X1032038D01*
Y137754D01*
X1098038D01*
Y203754D01*
D02*
G37*
G36*
X2831610Y171994D02*
X2824238D01*
X2817117Y170086D01*
X2810732Y166400D01*
X2805519Y161187D01*
X2801832Y154802D01*
X2799924Y147680D01*
Y140308D01*
X2801832Y133187D01*
X2805519Y126802D01*
X2810732Y121589D01*
X2817117Y117902D01*
X2824238Y115994D01*
X2831610D01*
X2838732Y117902D01*
X2845117Y121589D01*
X2850330Y126802D01*
X2854016Y133187D01*
X2855924Y140308D01*
Y147680D01*
X2854016Y154802D01*
X2850330Y161187D01*
X2845117Y166400D01*
X2838732Y170086D01*
X2831610Y171994D01*
D02*
G37*
%LPD*%
G36*
X5814924Y2474056D02*
Y2470308D01*
X5816832Y2463187D01*
X5820519Y2456802D01*
X5825732Y2451589D01*
X5832117Y2447902D01*
X5832803Y2447718D01*
Y2302843D01*
X5827803Y2301504D01*
X5827406Y2302193D01*
X5822193Y2307406D01*
X5815808Y2311092D01*
X5808686Y2313000D01*
X5801314D01*
X5794193Y2311092D01*
X5787808Y2307406D01*
X5785157Y2304755D01*
X5780157Y2306826D01*
Y2446360D01*
X5809924Y2476127D01*
X5814924Y2474056D01*
D02*
G37*
G36*
X5822767Y2039168D02*
Y787796D01*
X5820117Y787086D01*
X5813732Y783400D01*
X5811081Y780749D01*
X5806081Y782820D01*
Y2034192D01*
X5808732Y2034902D01*
X5815117Y2038589D01*
X5817767Y2041239D01*
X5822767Y2039168D01*
D02*
G37*
D10*
X1733924Y1278994D02*
X1734248Y1278670D01*
X2411924Y1663994D02*
X2665924D01*
X1971924Y2214994D02*
Y2391994D01*
X1800924Y2303994D02*
X1954924Y2149994D01*
X2012924Y2162994D02*
X2048924Y2198994D01*
X2733750Y2203750D02*
X2735000Y2205000D01*
X2179924Y1895994D02*
Y2322550D01*
X1937924Y2425994D02*
X1971924Y2391994D01*
X2186325Y2887994D02*
X2250336D01*
X1837000Y2444918D02*
X1855924Y2425994D01*
X1837000Y2538669D02*
X2186325Y2887994D01*
X1837000Y2444918D02*
Y2538669D01*
X3065924Y2420994D02*
Y3045000D01*
X1705000Y2550000D02*
X1705293Y2549707D01*
X1640000Y2595000D02*
Y2610000D01*
X1518740Y2473740D02*
X1640000Y2595000D01*
X1518740Y2425000D02*
Y2473740D01*
X1440000Y2425000D02*
X1599006Y2265994D01*
X1896704Y2458994D02*
X1958924Y2521214D01*
X2012924Y1458994D02*
X2796924D01*
X5772000Y2144562D02*
Y2449738D01*
X3355000Y2874574D02*
Y3040000D01*
Y2874574D02*
X3398924Y2830650D01*
X1855924Y2425994D02*
X1937924D01*
X1350472Y1220446D02*
Y2740994D01*
X1875924Y2458994D02*
X1896704D01*
X1788924Y1448994D02*
Y1723994D01*
X1363924Y2148994D02*
X1788924Y1723994D01*
X1363924Y2148994D02*
Y2441994D01*
X1476924Y2554994D01*
X1511924D01*
X1800924Y2303994D02*
X1871924Y2374994D01*
X2016924Y2673994D02*
X2048924D01*
X2015924Y2674994D02*
X2016924Y2673994D01*
X2303668Y2862000D02*
X2329664Y2887994D01*
X2250336D02*
X2276330Y2862000D01*
X2329664Y2887994D02*
X2357630D01*
X2276330Y2862000D02*
X2303668D01*
X2179924Y2789994D02*
X2237924Y2847994D01*
X5907422Y2182422D02*
X5917422D01*
X5920000Y2185000D01*
X5886960Y2132372D02*
Y2153628D01*
X5887000Y2153668D01*
Y1820918D02*
Y2153668D01*
X5846000Y2184750D02*
Y2249054D01*
X5820960Y2159710D02*
X5846000Y2184750D01*
X5833000Y2216330D02*
Y2243668D01*
X5807960Y2191290D02*
X5833000Y2216330D01*
X5820960Y2132372D02*
Y2159710D01*
X5867628Y2113042D02*
X5886960Y2132372D01*
X5840290Y2113042D02*
X5867628D01*
X5820960Y2132372D02*
X5840290Y2113042D01*
X5807960Y2126988D02*
Y2191290D01*
X5921924Y2843994D02*
X5958000Y2807918D01*
X5930924Y2102000D02*
X5958000Y2129076D01*
Y2807918D01*
X5807960Y2268710D02*
X5833000Y2243668D01*
X5807960Y2268710D02*
Y2282040D01*
X5859000Y2151082D02*
Y2254438D01*
X5853960Y2146042D02*
X5859000Y2151082D01*
X5853960Y2259480D02*
Y2377546D01*
Y2259480D02*
X5859000Y2254438D01*
X5840960Y2254094D02*
Y2472030D01*
Y2254094D02*
X5846000Y2249054D01*
X5856594Y2506994D02*
X5875924Y2487664D01*
Y2399512D02*
Y2487664D01*
X5853960Y2377546D02*
X5875924Y2399512D01*
X5840960Y2472030D02*
X5842924Y2473994D01*
X5807960Y2126988D02*
X5854924Y2080022D01*
Y1161994D02*
Y2080022D01*
X5805000Y2285000D02*
X5807960Y2282040D01*
X5772000Y2144562D02*
X5830924Y2085638D01*
X5772000Y2449738D02*
X5829256Y2506994D01*
X5856594D01*
X5830924Y760994D02*
Y2085638D01*
X5930924Y1912994D02*
Y2102000D01*
X5887000Y1820918D02*
X6446924Y1260994D01*
X5854924Y1161994D02*
X5879924Y1136994D01*
X5797924Y462392D02*
Y2060994D01*
X2179924Y2379614D02*
Y2789994D01*
Y2379614D02*
X2194788Y2364750D01*
Y2337412D02*
Y2364750D01*
X2179924Y2322550D02*
X2194788Y2337412D01*
X2179924Y1895994D02*
X2411924Y1663994D01*
X6142000Y1809686D02*
X6652496Y1299190D01*
X6142000Y1809686D02*
Y2033668D01*
X6176924Y2068594D01*
Y2445994D01*
X3943622Y175452D02*
X4538924Y770754D01*
X4497164Y828994D02*
X4959924D01*
X4438924Y770754D02*
X4497164Y828994D01*
X6157924Y2866994D02*
X6298924Y2725994D01*
Y2252762D02*
Y2725994D01*
Y2252762D02*
X6952496Y1599190D01*
X6261924Y2215994D02*
Y2448994D01*
Y2215994D02*
X6419924Y2057994D01*
Y1931762D02*
Y2057994D01*
Y1931762D02*
X6752496Y1599190D01*
X6549924Y2961994D02*
X7103024Y2408894D01*
Y1449718D02*
Y2408894D01*
X6952496Y1299190D02*
X7103024Y1449718D01*
X6275526Y3014032D02*
X7071924Y2217634D01*
Y1637994D02*
Y2217634D01*
Y1637994D02*
X7090024Y1619894D01*
Y1572094D02*
Y1619894D01*
X6900924Y1382994D02*
X7090024Y1572094D01*
X6900924Y1271994D02*
Y1382994D01*
X6856924Y1227994D02*
X6900924Y1271994D01*
X6823692Y1227994D02*
X6856924D01*
X6752496Y1299190D02*
X6823692Y1227994D01*
X6124924Y2497994D02*
X6176924Y2445994D01*
X6124924Y2497994D02*
Y2942170D01*
X6196786Y3014032D01*
X3257924Y1461994D02*
X3576924Y1780994D01*
Y2343964D01*
X3639924Y2406964D01*
X3776150D01*
X3454924Y332994D02*
X3478924Y308994D01*
X3454924Y332994D02*
Y958994D01*
X3445924Y967994D02*
X3454924Y958994D01*
X2417924Y827994D02*
X2533924D01*
X2569924Y791994D01*
Y731994D02*
Y791994D01*
Y731994D02*
X2777924Y523994D01*
X2316924Y1837994D02*
X2476924Y1997994D01*
X2967924D01*
X3286728Y1345798D02*
X3633924Y1692994D01*
Y2268964D01*
X3671924Y2306964D01*
X3776150D01*
X2048924Y2198994D02*
Y2673994D01*
X1421924Y953994D02*
X1521924Y853994D01*
Y315994D02*
Y853994D01*
X5797924Y462392D02*
X5957924Y302392D01*
X4538924Y170754D02*
Y548994D01*
X4754924Y764994D01*
X6814692Y1336994D02*
X6852496Y1299190D01*
X6731924Y1336994D02*
X6814692D01*
X6714924Y1319994D02*
X6731924Y1336994D01*
X6714924Y1295994D02*
Y1319994D01*
X6679924Y1260994D02*
X6714924Y1295994D01*
X6446924Y1260994D02*
X6679924D01*
X2723924Y2325994D02*
Y2596994D01*
X3776150Y2106964D02*
X4395894D01*
X4428924Y2139994D01*
X3476150Y2606964D02*
X3493954D01*
X3643924Y2456994D01*
X3919924D01*
X4229924Y2146994D01*
X3516746Y178106D02*
Y593816D01*
X3641924Y718994D01*
X7052496Y1599190D02*
Y2137422D01*
X6335924Y2853994D02*
X7052496Y2137422D01*
X6852496Y1599190D02*
X6922460Y1529226D01*
X6935924D01*
X6990924Y1584226D01*
Y1942994D01*
X6593924Y2339994D02*
X6990924Y1942994D01*
D57*
X2307924Y1600994D02*
X2938924D01*
X2091924Y1816994D02*
Y2420994D01*
Y1816994D02*
X2307924Y1600994D01*
X3010924Y1643994D02*
Y1763994D01*
Y2194076D01*
Y2656994D02*
Y2814076D01*
Y2194076D02*
Y2656994D01*
X2938924Y1600994D02*
X2967924D01*
X2114924D02*
X2307924D01*
X2800000Y2405000D02*
X3010924Y2194076D01*
X1397424Y2318494D02*
X2114924Y1600994D01*
X2967924D02*
X3010924Y1643994D01*
X2967924Y2699994D02*
X3010924Y2656994D01*
X2287000Y2699994D02*
X2967924D01*
X2235000Y2647994D02*
X2287000Y2699994D01*
X2235000Y2620000D02*
Y2647994D01*
X2938924Y1600994D02*
X2993924Y1655994D01*
Y1746994D01*
X3010924Y1763994D01*
X2990000Y2835000D02*
X3010924Y2814076D01*
D61*
X3116746Y778106D02*
D03*
X3216746D02*
D03*
X3316746D02*
D03*
X3416746D02*
D03*
X3516746D02*
D03*
Y178106D02*
D03*
X3416746D02*
D03*
X3316746D02*
D03*
X3216746D02*
D03*
X1294178Y3105682D02*
D03*
X1394178D02*
D03*
X1794178D02*
D03*
X1694178D02*
D03*
X7668610Y3108282D02*
D03*
Y3008282D02*
D03*
X7568610Y3108282D02*
D03*
Y3008282D02*
D03*
X7468610Y3108282D02*
D03*
Y3008282D02*
D03*
X7368610Y3108282D02*
D03*
Y3008282D02*
D03*
X7268610Y3108282D02*
D03*
Y3008282D02*
D03*
X7168610Y3108282D02*
D03*
Y3008282D02*
D03*
X7068610Y3108282D02*
D03*
Y3008282D02*
D03*
X6968610Y3108282D02*
D03*
Y3008282D02*
D03*
X6868610Y3108282D02*
D03*
Y3008282D02*
D03*
X6768610Y3108282D02*
D03*
Y3008282D02*
D03*
X1894178Y3105682D02*
D03*
X1994178D02*
D03*
X2294178D02*
D03*
X2394178D02*
D03*
X2194178D02*
D03*
X2094178D02*
D03*
X1094178D02*
D03*
X1194178D02*
D03*
X2994178D02*
D03*
X1494178D02*
D03*
X1594178D02*
D03*
X2494178D02*
D03*
X2594178D02*
D03*
X2694178D02*
D03*
X2794178D02*
D03*
X2894178D02*
D03*
X1518740Y2425000D02*
D03*
X1165038Y170754D02*
D03*
X1265038D02*
D03*
X1365038D02*
D03*
X1465038D02*
D03*
Y770754D02*
D03*
X1365038D02*
D03*
X1265038D02*
D03*
X1165038D02*
D03*
X1065038D02*
D03*
X5881826Y3014032D02*
D03*
X5960566D02*
D03*
X6039306D02*
D03*
X6118046D02*
D03*
X6196786D02*
D03*
X6275526D02*
D03*
X5881826Y3092772D02*
D03*
X5960566D02*
D03*
X6039306D02*
D03*
X6118046D02*
D03*
X6196786D02*
D03*
X2183538Y170754D02*
D03*
X2283538D02*
D03*
X2383538D02*
D03*
X2483538D02*
D03*
Y770754D02*
D03*
X2383538D02*
D03*
X2283538D02*
D03*
X2183538D02*
D03*
X2083538D02*
D03*
X4238924Y170754D02*
D03*
X4338924D02*
D03*
X4438924D02*
D03*
X4538924D02*
D03*
Y770754D02*
D03*
X4438924D02*
D03*
X4338924D02*
D03*
X4238924D02*
D03*
X4138924D02*
D03*
D62*
X3116746Y178106D02*
D03*
X1440000Y2425000D02*
D03*
X1065038Y170754D02*
D03*
X6275526Y3092772D02*
D03*
X2083538Y170754D02*
D03*
X4138924D02*
D03*
D63*
X3476150Y2606964D02*
D03*
D64*
Y2506964D02*
D03*
Y2406964D02*
D03*
Y2306964D02*
D03*
Y2206964D02*
D03*
Y2106964D02*
D03*
Y2006964D02*
D03*
Y1906964D02*
D03*
X3776150Y2606964D02*
D03*
Y2506964D02*
D03*
Y2406964D02*
D03*
Y2306964D02*
D03*
Y2206964D02*
D03*
Y2106964D02*
D03*
Y2006964D02*
D03*
Y1906964D02*
D03*
D65*
X7785958Y1883556D02*
D03*
Y1932768D02*
D03*
Y1981982D02*
D03*
Y2031194D02*
D03*
Y2080406D02*
D03*
Y2129620D02*
D03*
Y2178832D02*
D03*
Y2228044D02*
D03*
Y2277256D02*
D03*
D66*
Y2326470D02*
D03*
D67*
X7352496Y1599190D02*
D03*
D68*
X7252496D02*
D03*
X7152496D02*
D03*
X7052496D02*
D03*
X6952496D02*
D03*
X6852496D02*
D03*
X6752496D02*
D03*
X6652496D02*
D03*
X7352496Y1299190D02*
D03*
X7252496D02*
D03*
X7152496D02*
D03*
X7052496D02*
D03*
X6952496D02*
D03*
X6852496D02*
D03*
X6752496D02*
D03*
X6652496D02*
D03*
D69*
X1734248Y1278670D02*
D03*
X2665924Y1663994D02*
D03*
X2374537Y2471829D02*
D03*
X2440000Y2385000D02*
D03*
D03*
X2297500Y2292500D02*
D03*
D03*
X1861361Y2160005D02*
D03*
D03*
X1971924Y2214994D02*
D03*
X1715000Y2155000D02*
D03*
D03*
X1410000Y2695000D02*
D03*
D03*
X1765000Y2200000D02*
D03*
D03*
X1954924Y2149994D02*
D03*
X2012924Y2162994D02*
D03*
X1870000Y2525000D02*
D03*
D03*
X3845000Y2340000D02*
D03*
D03*
X3950000D02*
D03*
D03*
X1705293Y2549707D02*
D03*
X1705000Y2550000D02*
D03*
X2015000Y2530000D02*
D03*
X1640000Y2525000D02*
D03*
D03*
Y2610000D02*
D03*
X2095000Y2970000D02*
D03*
D03*
X3520000Y2855000D02*
D03*
D03*
X3865924Y2497994D02*
D03*
X1708750Y2258750D02*
D03*
D03*
X1599006Y2265994D02*
D03*
X1915327Y2833374D02*
D03*
D03*
X1958924Y2521214D02*
D03*
X1538444Y2612908D02*
D03*
D03*
X1830080Y2738228D02*
D03*
D03*
X1972794Y2824093D02*
D03*
X2675000Y1515000D02*
D03*
D03*
X2617924Y1495308D02*
D03*
X2925000Y1550000D02*
D03*
D03*
X2265000Y1892448D02*
D03*
D03*
X2215000Y2200000D02*
D03*
D03*
X2360000Y2150000D02*
D03*
D03*
X2765000Y1885000D02*
D03*
D03*
X2640000Y1890000D02*
D03*
D03*
X2540000Y1835000D02*
D03*
X2470000Y1905582D02*
D03*
D03*
X2225000Y2070000D02*
D03*
D03*
X2435700Y2160000D02*
D03*
X2015924Y2864994D02*
D03*
X2733750Y2203750D02*
D03*
X2735000Y2205000D02*
D03*
X2705000Y2140000D02*
D03*
D03*
X3355000Y3040000D02*
D03*
X3296994Y3061490D02*
D03*
X4682924Y2317994D02*
D03*
X3398924Y2830650D02*
D03*
X1922940Y2928994D02*
D03*
X1264924Y3016994D02*
D03*
X3065924Y3045000D02*
D03*
Y2420994D02*
D03*
X3398924D02*
D03*
X1700000Y3035000D02*
D03*
D03*
X1350472Y1220446D02*
D03*
Y2740994D02*
D03*
X1299924Y2757994D02*
D03*
X2091924Y2420994D02*
D03*
X1875924Y2458994D02*
D03*
X2216924Y2744994D02*
D03*
X1655924Y2915994D02*
D03*
X1689924Y2864994D02*
D03*
X1788924Y1448994D02*
D03*
X1511924Y2554994D02*
D03*
X1871924Y2374994D02*
D03*
X2015924Y2674994D02*
D03*
X1397424Y2318494D02*
D03*
X1440000Y2935000D02*
D03*
D03*
X1520000Y2710000D02*
D03*
D03*
X1530000Y2970000D02*
D03*
D03*
X5475000Y2075000D02*
D03*
X4380000Y700000D02*
D03*
D03*
X4315000Y880000D02*
D03*
D03*
X2301700Y2631312D02*
D03*
D03*
X2235000Y2620000D02*
D03*
X2290000Y2895000D02*
D03*
X2237924Y2847994D02*
D03*
X2357630Y2887994D02*
D03*
X3030352Y1205000D02*
D03*
D03*
X4105000Y1485000D02*
D03*
D03*
X3543924Y1154994D02*
D03*
X5089596Y2059596D02*
D03*
D03*
X7165000Y2620000D02*
D03*
D03*
X7295000Y2560000D02*
D03*
D03*
X7067654Y2382698D02*
D03*
D03*
X2857500Y1697500D02*
D03*
X2860000Y1700000D02*
D03*
X2945000Y1690000D02*
D03*
D03*
X5907422Y2182422D02*
D03*
D03*
X5800000Y2230000D02*
D03*
D03*
X5805000Y2285000D02*
D03*
X5853960Y2146042D02*
D03*
X5842924Y2473994D02*
D03*
X5930924Y1912994D02*
D03*
X5983924Y1926994D02*
D03*
X5971614Y1858994D02*
D03*
X5797924Y2060994D02*
D03*
X7060000Y2830000D02*
D03*
D03*
X6787500Y2927500D02*
D03*
D03*
X2161788Y2351082D02*
D03*
D03*
X2800000Y2405000D02*
D03*
X3285000Y2595000D02*
D03*
D03*
X3076456D02*
D03*
D03*
X5560000Y1835000D02*
D03*
D03*
X5315000Y1800000D02*
D03*
D03*
X7430000Y1890000D02*
D03*
D03*
X3275000Y2995034D02*
D03*
X7575000Y1710000D02*
D03*
D03*
X5325000Y1860000D02*
D03*
D03*
X5270000Y2310000D02*
D03*
D03*
X4977690Y2284994D02*
D03*
Y2226760D02*
D03*
X4836924Y1902522D02*
D03*
X4705000Y2015000D02*
D03*
D03*
X4766924Y1988994D02*
D03*
X4645000Y1570000D02*
D03*
D03*
X7350000Y2105000D02*
D03*
D03*
X7328480Y2016444D02*
D03*
D03*
X5335000Y1920000D02*
D03*
D03*
X5255000Y2135000D02*
D03*
D03*
X6151924Y1481994D02*
D03*
X5913608Y1411994D02*
D03*
X6444924Y1195994D02*
D03*
X5308924Y878994D02*
D03*
X2972170Y1498994D02*
D03*
X1681924Y1152994D02*
D03*
X5574924Y1594994D02*
D03*
X3311924Y1643994D02*
D03*
X4517924Y1936994D02*
D03*
X5830924Y760994D02*
D03*
X2572924Y940994D02*
D03*
X3943622Y175452D02*
D03*
X4959924Y828994D02*
D03*
X3888924Y240994D02*
D03*
X3580858Y413994D02*
D03*
X3808930Y795994D02*
D03*
X2827924Y143994D02*
D03*
X2686378Y770754D02*
D03*
X1807924Y933994D02*
D03*
X6157924Y2866994D02*
D03*
X6261924Y2448994D02*
D03*
X6549924Y2961994D02*
D03*
X4091924Y1959994D02*
D03*
X3257924Y1461994D02*
D03*
X4205924Y1383994D02*
D03*
X4603924Y660994D02*
D03*
X3478924Y308994D02*
D03*
X3445924Y967994D02*
D03*
X2417924Y827994D02*
D03*
X2777924Y523994D02*
D03*
X3585924Y3134994D02*
D03*
X4445924Y2677994D02*
D03*
X6232924Y2098994D02*
D03*
X4679924Y1614994D02*
D03*
X4989924Y1580994D02*
D03*
X5936924Y967994D02*
D03*
X7373924Y2238994D02*
D03*
X2550924Y887994D02*
D03*
X2316924Y1837994D02*
D03*
X2967924Y1997994D02*
D03*
X5044924Y1693994D02*
D03*
X5562204Y1719994D02*
D03*
X3339358Y1306428D02*
D03*
X4840214Y1971994D02*
D03*
X4264924Y2259994D02*
D03*
X2588924Y2412994D02*
D03*
X3286728Y1345798D02*
D03*
X6127924Y2343994D02*
D03*
X3498924Y1817994D02*
D03*
X1421924Y953994D02*
D03*
X1521924Y315994D02*
D03*
X5957924Y302392D02*
D03*
X2837490Y1306428D02*
D03*
X4058924Y1744994D02*
D03*
X4754924Y764994D02*
D03*
X4905924Y602994D02*
D03*
X5879924Y1136994D02*
D03*
X4125924Y1684994D02*
D03*
X4107928Y1593994D02*
D03*
X2308924Y1498994D02*
D03*
X3295924Y979994D02*
D03*
X2773924Y954994D02*
D03*
X3800924Y882626D02*
D03*
X6114924Y2358994D02*
D03*
X4854924Y1767994D02*
D03*
X5921924Y2843994D02*
D03*
X2723924Y2325994D02*
D03*
Y2596994D02*
D03*
X4428924Y2139994D02*
D03*
X4229924Y2146994D02*
D03*
X2796924Y1458994D02*
D03*
X2012924D02*
D03*
X3641924Y718994D02*
D03*
X6126924Y1214994D02*
D03*
X6076924Y1176432D02*
D03*
X3944924Y2240994D02*
D03*
X2212924Y1996994D02*
D03*
X2982586Y1268994D02*
D03*
X4125924Y1777994D02*
D03*
X5401924Y2407994D02*
D03*
X4550924Y1887994D02*
D03*
X1132924Y1997070D02*
D03*
X6335924Y2853994D02*
D03*
X6593924Y2339994D02*
D03*
X6946924Y2708994D02*
D03*
X3085650Y1713442D02*
D03*
X2990000Y2835000D02*
D03*
%TF.MD5,75ec87b08c151f7bd07090d2fbaff3bf*%
M02*
