%TF.GenerationSoftware,Altium Limited,DefaultClient, ()*%
G04 Layer_Physical_Order=1*
G04 Layer_Color=255*
G04 Board_Origin=10000758|10000058*
%FSLAX26Y26*%
%MOIN*%
%TF.SameCoordinates,25D2ED89-9C84-4B78-AC60-275F8E3A73DB*%
%TF.FilePolarity,Positive*%
%TF.FileFunction,Copper,L1,Top,Signal*%
%TF.Part,Single*%
G01*
G75*
%TA.AperFunction,Conductor*%
%ADD10C,0.010000*%
%TA.AperFunction,SMDPad,CuDef*%
%ADD11R,0.016000X0.030000*%
%ADD12O,0.013780X0.049213*%
%ADD13R,0.017716X0.019685*%
%ADD14R,0.011811X0.057087*%
%ADD15R,0.009842X0.013780*%
%ADD16R,0.031496X0.035433*%
%ADD17R,0.060000X0.039370*%
%ADD18R,0.039370X0.041339*%
%TA.AperFunction,TestPad*%
G04:AMPARAMS|DCode=19|XSize=137.953mil|YSize=59.055mil|CornerRadius=14.764mil|HoleSize=0mil|Usage=FLASHONLY|Rotation=90.000|XOffset=0mil|YOffset=0mil|HoleType=Round|Shape=RoundedRectangle|*
%AMROUNDEDRECTD19*
21,1,0.137953,0.029527,0,0,90.0*
21,1,0.108425,0.059055,0,0,90.0*
1,1,0.029528,0.014764,0.054213*
1,1,0.029528,0.014764,-0.054213*
1,1,0.029528,-0.014764,-0.054213*
1,1,0.029528,-0.014764,0.054213*
%
%ADD19ROUNDEDRECTD19*%
G04:AMPARAMS|DCode=20|XSize=393.701mil|YSize=433.071mil|CornerRadius=98.425mil|HoleSize=0mil|Usage=FLASHONLY|Rotation=90.000|XOffset=0mil|YOffset=0mil|HoleType=Round|Shape=RoundedRectangle|*
%AMROUNDEDRECTD20*
21,1,0.393701,0.236220,0,0,90.0*
21,1,0.196850,0.433071,0,0,90.0*
1,1,0.196850,0.118110,0.098425*
1,1,0.196850,0.118110,-0.098425*
1,1,0.196850,-0.118110,-0.098425*
1,1,0.196850,-0.118110,0.098425*
%
%ADD20ROUNDEDRECTD20*%
%TA.AperFunction,SMDPad,CuDef*%
%ADD21R,0.041339X0.039370*%
G04:AMPARAMS|DCode=22|XSize=21.654mil|YSize=21.654mil|CornerRadius=2.165mil|HoleSize=0mil|Usage=FLASHONLY|Rotation=0.000|XOffset=0mil|YOffset=0mil|HoleType=Round|Shape=RoundedRectangle|*
%AMROUNDEDRECTD22*
21,1,0.021654,0.017323,0,0,0.0*
21,1,0.017323,0.021654,0,0,0.0*
1,1,0.004331,0.008662,-0.008662*
1,1,0.004331,-0.008662,-0.008662*
1,1,0.004331,-0.008662,0.008662*
1,1,0.004331,0.008662,0.008662*
%
%ADD22ROUNDEDRECTD22*%
%ADD23R,0.024409X0.025197*%
%ADD24R,0.057087X0.017716*%
G04:AMPARAMS|DCode=25|XSize=21.654mil|YSize=21.654mil|CornerRadius=2.165mil|HoleSize=0mil|Usage=FLASHONLY|Rotation=270.000|XOffset=0mil|YOffset=0mil|HoleType=Round|Shape=RoundedRectangle|*
%AMROUNDEDRECTD25*
21,1,0.021654,0.017323,0,0,270.0*
21,1,0.017323,0.021654,0,0,270.0*
1,1,0.004331,-0.008662,-0.008662*
1,1,0.004331,-0.008662,0.008662*
1,1,0.004331,0.008662,0.008662*
1,1,0.004331,0.008662,-0.008662*
%
%ADD25ROUNDEDRECTD25*%
%ADD26O,0.078740X0.013780*%
%ADD27R,0.039370X0.060000*%
%ADD28O,0.027559X0.098425*%
%ADD29R,0.039370X0.078740*%
%ADD30R,0.025591X0.027559*%
%ADD31R,0.027559X0.025591*%
%ADD32R,0.043307X0.043307*%
%ADD33R,0.013780X0.019685*%
%ADD34R,0.062992X0.013780*%
%ADD35O,0.062992X0.013780*%
%ADD36R,0.049606X0.014173*%
%ADD37O,0.098425X0.027559*%
%ADD38O,0.013780X0.078740*%
%ADD39R,0.021654X0.021654*%
%ADD40R,0.035433X0.041339*%
G04:AMPARAMS|DCode=41|XSize=24.803mil|YSize=22.835mil|CornerRadius=5.937mil|HoleSize=0mil|Usage=FLASHONLY|Rotation=90.000|XOffset=0mil|YOffset=0mil|HoleType=Round|Shape=RoundedRectangle|*
%AMROUNDEDRECTD41*
21,1,0.024803,0.010961,0,0,90.0*
21,1,0.012929,0.022835,0,0,90.0*
1,1,0.011874,0.005480,0.006465*
1,1,0.011874,0.005480,-0.006465*
1,1,0.011874,-0.005480,-0.006465*
1,1,0.011874,-0.005480,0.006465*
%
%ADD41ROUNDEDRECTD41*%
%ADD42R,0.025591X0.025591*%
%ADD43R,0.017716X0.017716*%
%ADD44R,0.021654X0.023622*%
%ADD45R,0.021654X0.017716*%
%ADD46O,0.066929X0.013780*%
%ADD47R,0.017716X0.013780*%
%ADD48O,0.049213X0.013780*%
%ADD49O,0.075000X0.013780*%
%ADD50R,0.044488X0.096063*%
G04:AMPARAMS|DCode=51|XSize=44.488mil|YSize=96.063mil|CornerRadius=0mil|HoleSize=0mil|Usage=FLASHONLY|Rotation=0.000|XOffset=0mil|YOffset=0mil|HoleType=Round|Shape=Octagon|*
%AMOCTAGOND51*
4,1,8,-0.011122,0.048032,0.011122,0.048032,0.022244,0.036910,0.022244,-0.036910,0.011122,-0.048032,-0.011122,-0.048032,-0.022244,-0.036910,-0.022244,0.036910,-0.011122,0.048032,0.0*
%
%ADD51OCTAGOND51*%

%ADD52R,0.053150X0.061024*%
%ADD53R,0.045276X0.051181*%
%ADD54R,0.055276X0.081000*%
G04:AMPARAMS|DCode=55|XSize=31.496mil|YSize=31.496mil|CornerRadius=3.15mil|HoleSize=0mil|Usage=FLASHONLY|Rotation=180.000|XOffset=0mil|YOffset=0mil|HoleType=Round|Shape=RoundedRectangle|*
%AMROUNDEDRECTD55*
21,1,0.031496,0.025197,0,0,180.0*
21,1,0.025197,0.031496,0,0,180.0*
1,1,0.006299,-0.012598,0.012598*
1,1,0.006299,0.012598,0.012598*
1,1,0.006299,0.012598,-0.012598*
1,1,0.006299,-0.012598,-0.012598*
%
%ADD55ROUNDEDRECTD55*%
G04:AMPARAMS|DCode=56|XSize=31.496mil|YSize=31.496mil|CornerRadius=3.15mil|HoleSize=0mil|Usage=FLASHONLY|Rotation=270.000|XOffset=0mil|YOffset=0mil|HoleType=Round|Shape=RoundedRectangle|*
%AMROUNDEDRECTD56*
21,1,0.031496,0.025197,0,0,270.0*
21,1,0.025197,0.031496,0,0,270.0*
1,1,0.006299,-0.012598,-0.012598*
1,1,0.006299,-0.012598,0.012598*
1,1,0.006299,0.012598,0.012598*
1,1,0.006299,0.012598,-0.012598*
%
%ADD56ROUNDEDRECTD56*%
%TA.AperFunction,Conductor*%
%ADD57C,0.030000*%
%ADD58C,0.015000*%
%ADD59C,0.020000*%
%TA.AperFunction,NonConductor*%
%ADD60C,0.010000*%
%TA.AperFunction,ComponentPad*%
%ADD61C,0.060000*%
%ADD62R,0.060000X0.060000*%
%ADD63R,0.100000X0.050000*%
%ADD64O,0.100000X0.050000*%
%ADD65C,0.039370*%
%ADD66R,0.039370X0.039370*%
%ADD67R,0.059055X0.059055*%
%ADD68C,0.059055*%
%TA.AperFunction,ViaPad*%
%ADD69C,0.050000*%
D10*
X2915745Y2680116D02*
G03*
X3012884Y2582977I97139J0D01*
G01*
X2060000Y2880000D02*
G03*
X2065000Y2875000I5000J0D01*
G01*
X2060000Y2880000D02*
G03*
X2017902Y2837902I0J-42098D01*
G01*
X2367795Y2631313D02*
G03*
X2301700Y2697406I-66095J-2D01*
G01*
X2270880Y2775094D02*
G03*
X2270880Y2775093I2836J-1D01*
G01*
X2273716Y2777929D02*
G03*
X2270880Y2775094I0J-2836D01*
G01*
X963034Y1196966D02*
G03*
X965000Y1195000I1966J0D01*
G01*
X2065000Y2862915D02*
G03*
X2116446Y2811469I51446J0D01*
G01*
X2332862Y2777929D02*
G03*
X2357630Y2802697I-0J24768D01*
G01*
X1990000Y2305000D02*
G03*
X2015930Y2330930I0J25930D01*
G01*
X1240000Y1200000D02*
G03*
X1243504Y1203504I0J3504D01*
G01*
X2368015Y2813083D02*
G03*
X2357630Y2802697I0J-10386D01*
G01*
X1734248Y1278670D02*
X1775000Y1237918D01*
X2733630Y1606470D02*
X2773892Y1566208D01*
X2733630Y1606470D02*
Y1661776D01*
X2108924Y1549312D02*
Y1671994D01*
X2140924Y1560160D02*
X2499654Y1201430D01*
X2140924Y1560160D02*
Y1776994D01*
X2308924Y1498994D02*
Y1639994D01*
X2806924Y1608994D02*
X2833338Y1635408D01*
X2806924Y1534994D02*
Y1608994D01*
X1633924Y1435994D02*
X1802924Y1266994D01*
Y1144994D02*
Y1266994D01*
X1815924Y1131472D02*
Y1421994D01*
X2689924Y1417994D02*
X2806924Y1534994D01*
X1954924Y1157994D02*
Y2149994D01*
X2620492Y1618562D02*
X2665924Y1663994D01*
X2632822Y1700000D02*
X2695406D01*
X2153924Y1703994D02*
X2247924Y1609994D01*
X2600594Y1843814D02*
X2754946Y1689462D01*
X2695406Y1700000D02*
X2733630Y1661776D01*
X2552162Y1780660D02*
X2632822Y1700000D01*
X2617924Y1495308D02*
Y1565130D01*
X2645924Y1593130D01*
X2620492Y1618562D02*
X2645924Y1593130D01*
X2078960Y1519348D02*
X2108924Y1549312D01*
X2078960Y1216030D02*
Y1519348D01*
X1746924Y1144994D02*
X1802924D01*
X1746924Y1086802D02*
Y1144994D01*
Y1086802D02*
X1949732D01*
X2078960Y1216030D01*
X1860000Y2155000D02*
X1865000Y2160000D01*
X2390000Y2385000D02*
X2440000D01*
X2297500Y2292500D02*
X2390000Y2385000D01*
X2445000Y2430000D02*
X2538196Y2336804D01*
X2205000Y2430000D02*
X2445000D01*
X2538196Y2115228D02*
Y2336804D01*
X6892924Y2145000D02*
Y2204862D01*
X6099566Y1807994D02*
X6167924D01*
X5630000Y3118936D02*
X5643000D01*
X5500000Y3114994D02*
X5586000D01*
X5486924D02*
X5500000D01*
X5486924Y3017994D02*
X5495000D01*
X5422500Y2112500D02*
X5443700Y2133700D01*
X5395924Y2085924D02*
X5422500Y2112500D01*
X5664566Y1781994D02*
X5673490D01*
X5443924Y1222692D02*
Y1326994D01*
X5037924Y1953704D02*
X5211924Y2127704D01*
X1620434Y2450826D02*
Y2525434D01*
X3934406Y1864994D02*
Y1923378D01*
X3576924Y1120708D02*
Y1256432D01*
X2236094Y1936094D02*
X2261924D01*
X2219824D02*
X2236094D01*
X4316246Y2139994D02*
X4428924D01*
X1646024Y2492000D02*
X1653669D01*
X3551382Y1572994D02*
X3567068D01*
X2203000Y2417000D02*
X2213000Y2407000D01*
Y2299615D02*
Y2407000D01*
X2210000Y2296615D02*
X2213000Y2299615D01*
X2210000Y2295000D02*
Y2296615D01*
Y2295000D02*
X2254402Y2250598D01*
X2300785Y2204215D02*
X2313924Y2191076D01*
X2300785Y2204215D02*
Y2245912D01*
X2296099Y2250598D02*
X2300785Y2245912D01*
X2254402Y2250598D02*
X2296099D01*
X2313924Y2159994D02*
Y2191076D01*
X1943924Y2484994D02*
X2131620D01*
X2199614Y2417000D02*
X2203000D01*
X1861361Y2160005D02*
X1861366Y2160000D01*
X1865000D01*
X1715000Y2155000D02*
X1860000D01*
X1918255Y2247994D02*
X1985593D01*
X1875261Y2205000D02*
X1918255Y2247994D01*
X1870261Y2200000D02*
X1875261Y2205000D01*
X1899054Y2259000D02*
X1906048Y2265994D01*
X1767331Y2259000D02*
X1899054D01*
X1893669Y2272000D02*
X1900663Y2278994D01*
X1809249Y2272000D02*
X1893669D01*
X1880000Y2305000D02*
Y2316132D01*
X1864924Y2320076D02*
X1880000Y2305000D01*
X1920924Y1844836D02*
Y2203994D01*
X1765000Y2200000D02*
X1870261D01*
X1985593Y2247994D02*
X2045924Y2187663D01*
X1971924Y2214994D02*
X2012924Y2173994D01*
X1906048Y2265994D02*
X2099006D01*
X1900663Y2278994D02*
X2114309D01*
X2045924Y2164076D02*
Y2187663D01*
X2099006Y2265994D02*
X2108924Y2256076D01*
X2114309Y2278994D02*
X2155924Y2237379D01*
X1682000Y2168669D02*
X1718331Y2205000D01*
X1682000Y2164092D02*
Y2168669D01*
X1718331Y2205000D02*
X1722908D01*
X1446598Y1928690D02*
X1682000Y2164092D01*
X1410000Y2695000D02*
X1441000Y2664000D01*
X1454924D01*
X2102442Y2638240D02*
X2116446D01*
X2086142Y2654540D02*
X2102442Y2638240D01*
X2107924Y2694994D02*
X2136132Y2666786D01*
X2035924Y2694994D02*
X2107924D01*
X2015924Y2674994D02*
X2035924Y2694994D01*
X2155816Y2688102D02*
Y2705102D01*
Y2638240D02*
Y2688102D01*
X1722796Y2481000D02*
X1724438D01*
X2135391Y2517994D02*
X2460324D01*
X2049855Y2603530D02*
X2135391Y2517994D01*
X2032388Y2603530D02*
X2049855D01*
X1975302Y2660616D02*
X2032388Y2603530D01*
X2065000Y2121472D02*
Y2145000D01*
X2043117Y2099589D02*
X2065000Y2121472D01*
X2010117Y1702366D02*
X2078960Y1633522D01*
X2010117Y1702366D02*
Y2160187D01*
X2012924Y2162994D01*
Y2173994D01*
X2045924Y2164076D02*
X2065000Y2145000D01*
X2261924Y2089638D02*
Y2115228D01*
X2309850D01*
Y2089638D02*
Y2115228D01*
X5024924Y1966704D02*
X5037924Y1953704D01*
X5495000Y3015826D02*
Y3017994D01*
X2671286Y2235046D02*
Y2242994D01*
X2688292Y2260000D01*
X2725000D01*
X1705000Y2255000D02*
X1708750Y2258750D01*
X5011924Y1953704D02*
X5024924Y1966704D01*
X5066214Y2007994D01*
X2108924Y1958344D02*
Y2256076D01*
X2155924Y2136146D02*
X2179000Y2113070D01*
Y1976918D02*
Y2113070D01*
X2192000Y2050822D02*
Y2107685D01*
X2227433Y2143118D01*
X2155924Y2136146D02*
Y2237379D01*
X2192000Y2050822D02*
X2212924Y2029898D01*
X2108924Y1958344D02*
X2137577D01*
X2142264Y1953658D01*
Y1903723D02*
Y1953658D01*
X2137577Y1899037D02*
X2142264Y1903723D01*
X2108924Y1899037D02*
X2137577D01*
X2108924Y1818204D02*
Y1899037D01*
Y1818204D02*
X2112610Y1814518D01*
X2082924Y1899004D02*
X2112610Y1928690D01*
X2082924Y1697994D02*
Y1899004D01*
X1722908Y2214577D02*
X1767331Y2259000D01*
X1722908Y2205000D02*
Y2214577D01*
X1758696Y2775000D02*
X1782914D01*
X1748000D02*
X1758696D01*
X1562924Y3074428D02*
Y3093994D01*
Y3053000D02*
Y3074428D01*
X1594178Y3105682D01*
X1552178Y3063682D02*
X1562924Y3074428D01*
X1560720Y2775000D02*
X1678331D01*
X1530000D02*
X1560720D01*
X1803385Y2525000D02*
X1870000D01*
X1793385Y2535000D02*
X1803385Y2525000D01*
X1883669Y2492000D02*
X1895663Y2503994D01*
X1856331Y2492000D02*
X1883669D01*
X1844337Y2503994D02*
X1856331Y2492000D01*
X1781976Y2503994D02*
X1844337D01*
X1895663D02*
X1924924D01*
X1759086Y2500702D02*
X1793385Y2535000D01*
X1759086Y2461526D02*
Y2500702D01*
X1748386Y2450826D02*
X1759086Y2461526D01*
X3891000Y2320946D02*
Y2385924D01*
X3886924Y2390000D02*
X3891000Y2385924D01*
X3886924Y2316870D02*
X3891000Y2320946D01*
X3886924Y2232994D02*
Y2316870D01*
X3868000Y2363669D02*
Y2495918D01*
Y2363669D02*
X3878000Y2353669D01*
Y2326331D02*
Y2353669D01*
X3865924Y2314255D02*
X3878000Y2326331D01*
X3865924Y2219256D02*
Y2314255D01*
X3777517Y2340000D02*
X3845000D01*
X3757517Y2360000D02*
X3777517Y2340000D01*
X3886924Y2390000D02*
Y2440994D01*
X3618459Y2328459D02*
X3664924Y2281994D01*
X3599924Y2346994D02*
X3618459Y2328459D01*
X3886924Y2390000D02*
X3927561D01*
X3936205Y2381356D01*
Y2353795D02*
Y2381356D01*
Y2353795D02*
X3950000Y2340000D01*
X3917000Y2268918D02*
X3944924Y2240994D01*
X3972778Y2443994D02*
X4009000Y2407772D01*
X3920924Y2465994D02*
X3996000Y2390918D01*
X3947364Y2408554D02*
X3983000Y2372918D01*
Y2326331D02*
Y2372918D01*
X3996000Y2320946D02*
Y2390918D01*
X4009000Y2315562D02*
Y2407772D01*
X3917000Y2268918D02*
Y2368806D01*
X3917378Y2369184D01*
X4004282Y2310844D02*
X4009000Y2315562D01*
X4004282Y2249636D02*
Y2310844D01*
X3991282Y2316229D02*
X3996000Y2320946D01*
X3991282Y2218048D02*
Y2316229D01*
X3978282Y2321613D02*
X3983000Y2326331D01*
X3978282Y2208428D02*
Y2321613D01*
X3725976Y2328459D02*
X3757517Y2360000D01*
X3618459Y2328459D02*
X3725976D01*
X3865924Y2497994D02*
X3868000Y2495918D01*
X3410000Y2815000D02*
X3434336Y2790664D01*
X3935924Y2167272D02*
Y2183994D01*
X3869436Y2100562D02*
X3935924Y2167272D01*
X3061112Y2224994D02*
X3251924D01*
X3012884Y2582977D02*
X3031923D01*
X3730924Y2006964D02*
Y2014994D01*
X3222924Y1991994D02*
X3347734Y1867184D01*
X2733630Y1771776D02*
X2839968Y1768832D01*
X2840000D01*
X3004924Y1746994D02*
Y1765000D01*
X2020924Y2840924D02*
X2060000Y2880000D01*
X2015924Y2864994D02*
X2020924Y2840924D01*
X2017902Y2837902D02*
X2020924Y2840924D01*
X2273716Y2777930D02*
X2315000D01*
X2361482Y2625000D02*
X2367794Y2631312D01*
X2355170D02*
X2361482Y2625000D01*
X1952550Y2772550D02*
X2015712D01*
X2270880Y2697406D02*
Y2775094D01*
X1799568Y2682718D02*
X1807286Y2675000D01*
X1649166Y2599166D02*
X1651745Y2601745D01*
X1671614Y2486614D02*
X1682316D01*
X2302433Y2130118D02*
X2341157Y2168843D01*
X1823240Y2372892D02*
X1880000Y2316132D01*
X1864924Y2320076D02*
Y2359994D01*
X1465000Y1995000D02*
Y2061102D01*
X1416924Y1963994D02*
X1465000Y2012070D01*
X963034Y1196966D02*
Y1245090D01*
X3664924Y2014994D02*
X3672954Y2006964D01*
X3717924Y1892994D02*
Y2135994D01*
X3625924Y1799994D02*
Y2263994D01*
X3717924Y1892994D02*
X3858924Y1751994D01*
X3625924Y1799994D02*
X3732032Y1693886D01*
X3664924Y2014994D02*
Y2281994D01*
X3732032Y1693886D02*
X3839928D01*
X3717924Y2135994D02*
X3754924Y2172994D01*
X3851924Y1871994D02*
Y1965740D01*
X3108824Y1936094D02*
X3218924Y1825994D01*
X3228498Y1786994D02*
X3312300Y1703192D01*
X3135924Y1786994D02*
X3228498D01*
X3074924Y1847994D02*
X3135924Y1786994D01*
X3859446Y1654516D02*
X3910924Y1705994D01*
X3839928Y1654516D02*
X3859446D01*
X3858924Y1676994D02*
Y1751994D01*
X3580612Y1676994D02*
X3858924D01*
X3754924Y2172994D02*
X3879924D01*
X1830000Y2675000D02*
X1927550Y2772550D01*
X1755024Y2554976D02*
X1972598Y2772550D01*
X1755686Y2537253D02*
X1959427Y2740994D01*
X1733496Y2493497D02*
X1947994Y2707994D01*
X1685331Y2577000D02*
X1691331Y2583000D01*
X1733496Y2486314D02*
Y2493497D01*
X1718250Y2498196D02*
X1755686Y2535632D01*
Y2537253D01*
X1712865Y2511196D02*
X1742686Y2541017D01*
Y2542638D01*
X1718669Y2583000D02*
X1742686Y2558983D01*
X1673000Y2518000D02*
X1705000Y2550000D01*
X1695000Y2620000D02*
Y2676966D01*
X1691331Y2583000D02*
X1718669D01*
X1729753Y2486314D02*
X1733496D01*
X1742686Y2557314D02*
X1744994Y2555006D01*
X1742686Y2557314D02*
Y2558983D01*
X1724438Y2481000D02*
X1729753Y2486314D01*
X1742686Y2542638D02*
X1755024Y2554976D01*
X1711244Y2511196D02*
X1712865D01*
X1716629Y2498196D02*
X1718250D01*
X1744994Y2555006D02*
X1754994D01*
X1755024Y2554976D01*
X1698244Y2498196D02*
X1711244Y2511196D01*
X1697206Y2478774D02*
X1716629Y2498196D01*
X1722796Y2450826D02*
Y2481000D01*
X1681331Y2577000D02*
X1685331D01*
X1673000Y2511331D02*
Y2518000D01*
X1653669Y2492000D02*
X1673000Y2511331D01*
X1646024Y2450826D02*
Y2492000D01*
X3003178Y1654314D02*
X3090620D01*
X3003178D02*
Y1730000D01*
X1200000Y1333426D02*
X1360000Y1493426D01*
X1952550Y2772550D02*
X1972598D01*
X1927550D02*
X1952550D01*
X1691039Y2498196D02*
X1698244D01*
X1682316Y2489474D02*
X1691039Y2498196D01*
X1682316Y2486614D02*
Y2489474D01*
X1959427Y2740994D02*
X2037924D01*
X1697206Y2450826D02*
Y2478774D01*
X1947994Y2707994D02*
X1997280D01*
X1620868Y2525000D02*
X1640000D01*
X1620434Y2525434D02*
X1620868Y2525000D01*
X1708750Y2258750D02*
X1726034Y2276034D01*
X1633000Y2563000D02*
X1651766Y2581766D01*
X1611331Y2563000D02*
X1633000D01*
X1592000Y2543669D02*
X1611331Y2563000D01*
X1592000Y2516331D02*
Y2543669D01*
Y2516331D02*
X1605000Y2503331D01*
Y2407918D02*
Y2503331D01*
X1668331Y2590000D02*
X1681331Y2577000D01*
X1658331Y2590000D02*
X1668331D01*
X1649166Y2599166D02*
X1658331Y2590000D01*
X1640000Y2610000D02*
X1643490D01*
X1651745Y2601745D01*
X1695000Y2676966D02*
X1697206Y2679172D01*
X1671614Y2450826D02*
Y2486614D01*
X1789587Y2870073D02*
X1826805D01*
X1718537D02*
X1789587D01*
X1713678D02*
X1718537D01*
X1709340Y2874410D02*
X1714200D01*
X1693611D02*
X1709340D01*
X1828070Y2903073D02*
X1831142Y2900000D01*
X1732206Y2903073D02*
X1828070D01*
X1826805Y2870073D02*
X1831142Y2874410D01*
X1789587Y2870073D02*
X1793924Y2874410D01*
X1709340D02*
X1713678Y2870073D01*
X1714200Y2874410D02*
X1718537Y2870073D01*
X1738106Y2785000D02*
X1801924Y2848818D01*
X1672952Y2761994D02*
X1695946Y2739000D01*
X1671567Y2744994D02*
X1690562Y2726000D01*
X1672946Y2762000D02*
X1695946Y2739000D01*
X1678331Y2775000D02*
X1701331Y2752000D01*
X1710918Y2739000D02*
X1722796Y2727122D01*
X1695946Y2739000D02*
X1710918D01*
X1695918Y2726000D02*
X1697206Y2724712D01*
X1690562Y2726000D02*
X1695918D01*
X1747527Y2752473D02*
X1750000Y2750000D01*
X1747527Y2752473D02*
X1747527D01*
X1734054Y2739000D02*
X1747527Y2752473D01*
X1695946Y2739000D02*
X1734054D01*
X1748000Y2771331D02*
Y2775000D01*
X1728669Y2752000D02*
X1748000Y2771331D01*
X1701331Y2752000D02*
X1728669D01*
X1715000Y2785000D02*
X1738106D01*
X1524620Y2761994D02*
X1672952D01*
X1503924Y2744994D02*
X1671567D01*
X1524616Y2762000D02*
X1672946D01*
X1517000Y2769615D02*
X1524616Y2762000D01*
X1517000Y2769615D02*
Y2769616D01*
X1499726Y2786890D02*
X1517000Y2769616D01*
X1773607Y2960000D02*
X1799285Y2934322D01*
X1693611Y2960000D02*
X1773607D01*
X1822410Y2934322D02*
X1831142Y2925590D01*
X1799285Y2934322D02*
X1822410D01*
X1693611Y2874410D02*
Y2960000D01*
X2050000Y2984764D02*
X2061686Y2973079D01*
X2091921D01*
X2095000Y2970000D01*
X3564830Y2905096D02*
X3584588D01*
X3520000Y2855000D02*
X3525880Y2860880D01*
X3564830D01*
X2117459Y2999210D02*
Y3060481D01*
Y2999210D02*
X2121178Y2995491D01*
Y2993732D02*
Y2995491D01*
Y2993732D02*
X2128000Y2986910D01*
Y2982000D02*
Y2986910D01*
Y2982000D02*
X2175000Y2935000D01*
X3598924Y2826664D02*
Y2860880D01*
X3480000Y2870624D02*
X3507880Y2898504D01*
X3480000Y2803664D02*
Y2870624D01*
Y2803664D02*
X3575924D01*
X3507880Y2898504D02*
X3523819D01*
X3582923Y2957608D02*
X4865538D01*
X3523819Y2898504D02*
X3582923Y2957608D01*
X2794178Y3105682D02*
X2905866Y2993994D01*
X2999924D01*
X3052924Y2940994D01*
Y2807994D02*
Y2940994D01*
X2999924Y2754994D02*
X3052924Y2807994D01*
X2055924Y3123994D02*
X2057337Y3122581D01*
X2057337D01*
X2056178Y3121422D02*
X2057337Y3122581D01*
X2056178Y3089942D02*
Y3121422D01*
Y3089942D02*
X2078438Y3067682D01*
X2109918D01*
X2110088Y3067852D01*
X2117459Y3060481D01*
X2175000Y2890144D02*
Y2935000D01*
X2155816Y2870960D02*
X2175000Y2890144D01*
X2092432Y2912422D02*
X2136132Y2868722D01*
X2181280Y2858766D02*
X2217514Y2895000D01*
X2181280Y2817246D02*
Y2858766D01*
X1724169Y2290000D02*
X1778772D01*
X1722419Y2291750D02*
X1724169Y2290000D01*
X1695081Y2291750D02*
X1722419D01*
X1693331Y2290000D02*
X1695081Y2291750D01*
X1621670Y2290000D02*
X1693331D01*
X1660000Y2205000D02*
X1722908D01*
X1599006Y2265994D02*
X1660000Y2205000D01*
X1605000Y2407918D02*
X1616924Y2395994D01*
X1765000D01*
X1778772Y2290000D02*
X1787806Y2299034D01*
X1726034Y2276034D02*
X1805215D01*
X1809249Y2272000D01*
X4440638Y2872994D02*
X4508968D01*
X3714830Y2860880D02*
X3895710Y2680000D01*
X4000000D01*
X3784102Y2809994D02*
X3822924D01*
X3742924Y2851172D02*
X3784102Y2809994D01*
X3812924Y2862994D02*
X3823362Y2852556D01*
X3742924Y2851172D02*
Y2903994D01*
X3728310Y2918608D02*
X3742924Y2903994D01*
X4503354Y2944608D02*
X4571481Y2876481D01*
X4562038Y2867038D02*
X4571481Y2876481D01*
X4514924Y2867038D02*
X4562038D01*
X1903374Y2833374D02*
X1915327D01*
X1923000Y2796331D02*
X1936331D01*
X1903669Y2777000D02*
X1923000Y2796331D01*
X1901616Y2895000D02*
X1928000Y2868616D01*
Y2848000D02*
Y2868616D01*
X1925500Y2845501D02*
X1928000Y2848000D01*
X1895000Y2895000D02*
X1901616D01*
X1777966Y3143994D02*
X1958000Y2963960D01*
X1748386Y2684172D02*
X1759086D01*
X1958000Y2818000D02*
Y2942000D01*
X1936331Y2796331D02*
X1958000Y2818000D01*
X1867686Y2922314D02*
X1895000Y2895000D01*
X1958924Y2521214D02*
Y2573924D01*
X1924924Y2503994D02*
X1943924Y2484994D01*
X2044470Y2590530D02*
X2205000Y2430000D01*
X1958924Y2573924D02*
X1975530Y2590530D01*
X2044470D01*
X1775000Y1115472D02*
X1912402D01*
X1651924Y2728994D02*
X1671614Y2709304D01*
X1511924Y2680994D02*
X1559924Y2728994D01*
X1363924Y2465374D02*
X1478924Y2580374D01*
X1504259Y2600580D02*
X1505444Y2599395D01*
Y2599239D02*
Y2599395D01*
Y2599239D02*
X1505502Y2599181D01*
Y2592916D02*
Y2599181D01*
X1503150Y2603981D02*
Y2640720D01*
Y2603981D02*
X1504259Y2602872D01*
Y2600580D02*
Y2602872D01*
X1503150Y2640720D02*
X1511924Y2649494D01*
X1505502Y2592916D02*
X1511924Y2586494D01*
X1573838Y2612908D02*
X1581924Y2620994D01*
X1538444Y2612908D02*
X1573838D01*
X1511924Y2649494D02*
Y2680994D01*
Y2554994D02*
Y2586494D01*
X1818394Y2726542D02*
X1830080Y2738228D01*
X1780924Y2726542D02*
X1818394D01*
X1780924Y2686120D02*
Y2726542D01*
X1773976Y2679172D02*
X1780924Y2686120D01*
X1807286Y2675000D02*
X1830000D01*
X1788299Y2762000D02*
X1821299Y2795000D01*
X1787000Y2762000D02*
X1788299D01*
X1782914Y2775000D02*
X1831142Y2823228D01*
X1876331Y2777000D02*
X1903669D01*
X1858331Y2795000D02*
X1876331Y2777000D01*
X1821299Y2795000D02*
X1858331D01*
X1767924Y2742924D02*
X1785000Y2760000D01*
X1767924Y2726994D02*
Y2742924D01*
X1785000Y2760000D02*
X1787000Y2762000D01*
X1620434Y2679172D02*
X1646024D01*
X2675000Y1515000D02*
Y1540000D01*
X2705000Y1570000D01*
Y1575000D01*
X2733400D01*
X2755064Y1553336D01*
X2925000Y1550000D02*
X2940000Y1565000D01*
Y1585000D01*
X2754946Y1689462D02*
X2800538D01*
X2244068Y1874068D02*
X2262448Y1892448D01*
X2244068Y1820000D02*
Y1874068D01*
Y1820000D02*
X2273982Y1790086D01*
X2262448Y1892448D02*
X2265000D01*
X2230924Y1734994D02*
X2373924D01*
X2207924Y1757994D02*
X2230924Y1734994D01*
X2373924D02*
X2403924Y1764994D01*
X2165000Y1865000D02*
X2236094Y1936094D01*
X2165000Y1801070D02*
Y1865000D01*
X2140924Y1776994D02*
X2165000Y1801070D01*
X2357924Y1871994D02*
Y2012866D01*
X2371924Y1904994D02*
Y1982994D01*
X2384924Y1936994D02*
X2403924Y1917994D01*
X2384924Y1936994D02*
Y1975994D01*
X2416924Y1955994D02*
X2417924Y1956994D01*
X2478924Y1837994D02*
X2510825Y1869895D01*
X2478924Y1837994D02*
Y1886076D01*
X2261924Y1936094D02*
X2309850D01*
X3031923Y2582977D02*
X3031924Y2582976D01*
X2343657Y2171343D02*
X2355415Y2183100D01*
X2227598Y2212598D02*
X2273100D01*
X2215000Y2200000D02*
X2227598Y2212598D01*
X2360000Y2150000D02*
Y2155000D01*
X2343657Y2171343D02*
X2360000Y2155000D01*
X2645000Y1885000D02*
X2765000D01*
X2640000Y1890000D02*
X2645000Y1885000D01*
X4835000Y95000D02*
X4837202Y95014D01*
X2848228Y1647514D02*
Y1660670D01*
X2585000Y1975000D02*
X2670000Y2060000D01*
X2928734Y1018734D02*
Y1022950D01*
X2925000Y1015000D02*
X2928734Y1018734D01*
X2585000Y1942828D02*
Y1954950D01*
Y1942828D02*
X2585566Y1942262D01*
Y1929927D02*
Y1942262D01*
X2585000Y1929361D02*
X2585566Y1929927D01*
X2585000Y1862303D02*
Y1929361D01*
Y1968418D02*
Y1975000D01*
Y1968418D02*
X2585566Y1967852D01*
Y1955517D02*
Y1967852D01*
X2585000Y1954950D02*
X2585566Y1955517D01*
X2585000Y1862303D02*
X2600594Y1846709D01*
Y1843814D02*
Y1846709D01*
X2540000Y1835000D02*
X2552162Y1822838D01*
X3398924Y2830650D02*
X3415754D01*
X3031924Y2582976D02*
Y2639558D01*
X3087066Y2694700D01*
X2995000Y3045000D02*
Y3047058D01*
X2559023Y1869895D02*
X2587594Y1841324D01*
X2510825Y1869895D02*
X2559023D01*
X2493824Y1936094D02*
X2538196D01*
X2439924Y1989994D02*
X2493824Y1936094D01*
X2225000Y2070000D02*
X2235000D01*
X2240000Y2075000D01*
X2179000Y1976918D02*
X2219824Y1936094D01*
X2212924Y1996994D02*
Y2029898D01*
X2227433Y2143118D02*
X2297048D01*
X2406099Y2250598D02*
X2457248Y2199450D01*
X2240000Y2075000D02*
Y2111689D01*
X2258429Y2130118D01*
X2302433D01*
X2261924Y1936094D02*
Y2089638D01*
X2355415Y2183100D02*
Y2245912D01*
X2360101Y2250598D01*
X2406099D01*
X2457248Y2199450D02*
X2459640D01*
X2475466Y2215276D01*
X2297048Y2143118D02*
X2313924Y2159994D01*
X2435700Y2160000D02*
X2455622D01*
X2383100Y2212598D02*
X2435700Y2160000D01*
X2403924Y2089638D02*
X2538196D01*
X2309850D02*
X2403924D01*
X1831142Y2968038D02*
X1871962D01*
X2020924Y2840924D02*
X2030000Y2850000D01*
Y2786838D02*
Y2850000D01*
X2018086Y2774924D02*
X2030000Y2786838D01*
X2065000Y2862914D02*
Y2875000D01*
X1930000Y2885000D02*
X1940000D01*
X1945000Y2890000D01*
Y2936616D01*
X1936924Y3010492D02*
X2034994Y2912422D01*
X1880686Y2934314D02*
X1930000Y2885000D01*
X1849616Y3032000D02*
X1945000Y2936616D01*
X2016924Y3036994D02*
X2032924Y3052994D01*
X5422500Y2107500D02*
Y2112500D01*
Y2107500D02*
X5440000Y2090000D01*
Y2070632D02*
Y2090000D01*
Y2070632D02*
X5440638Y2069994D01*
X5377924Y2007280D02*
X5440638Y2069994D01*
X5377924Y1960514D02*
Y2007280D01*
X2671286Y2235046D02*
X2701332Y2205000D01*
X2735000D01*
X2748669Y2172000D02*
X2749619Y2172950D01*
X2719669Y2172000D02*
X2748669D01*
X2718669Y2173000D02*
X2719669Y2172000D01*
X2697900Y2173000D02*
X2718669D01*
X2749619Y2172950D02*
X2768306D01*
X2785000Y2156256D02*
X2805702D01*
X2768306Y2172950D02*
X2785000Y2156256D01*
X2704924Y2139924D02*
X2705000Y2140000D01*
X2704924Y2033994D02*
Y2139924D01*
X2671286Y2199614D02*
X2697900Y2173000D01*
X2795000Y2198656D02*
X2802472Y2191184D01*
X2795000Y2198656D02*
Y2230000D01*
X2770000Y2255000D02*
X2795000Y2230000D01*
X2770000Y2255000D02*
Y2310000D01*
X3896186Y2188994D02*
X3909186D01*
X2425000Y2627520D02*
Y2722236D01*
X3149702Y1636820D02*
X3304750D01*
X5892918Y2185000D02*
X5920000D01*
X5821640Y2156280D02*
X5842918Y2135000D01*
X6127924Y2343994D02*
Y2373994D01*
X6111672Y2349648D02*
X6114924Y2358994D01*
X6106924Y2335994D02*
Y2376994D01*
X4751924Y1239994D02*
Y1800160D01*
X4551816Y1188994D02*
X4700924D01*
X6910924Y95376D02*
Y151994D01*
X6901924Y289994D02*
X7060958D01*
X6622924Y95376D02*
Y151994D01*
X6334924Y95376D02*
Y247994D01*
X6046924Y95376D02*
Y279994D01*
X5767924Y298994D02*
X5791576D01*
X5758924Y95376D02*
Y289994D01*
X5208924Y95376D02*
Y285392D01*
X4912924Y95376D02*
Y118930D01*
X968924Y1347994D02*
X1000000D01*
X951924Y904994D02*
X975000D01*
X1778228Y1928690D02*
X1890606D01*
X4319272Y1949994D02*
X4359770D01*
X4754924Y764994D02*
Y810748D01*
X4742688Y911994D02*
X4850924D01*
X2681698Y73876D02*
Y80000D01*
X5630000Y2995994D02*
X5786924D01*
X5616924Y3104994D02*
X5630000D01*
X6703924Y571994D02*
Y1733994D01*
X3278924Y1596994D02*
X3304924Y1570994D01*
X3963924Y2076920D02*
Y2194070D01*
X1775000Y1174528D02*
Y1237918D01*
X5149494Y2576564D02*
X5342610Y2769680D01*
X6113924Y1159994D02*
Y1214994D01*
X6682260Y2103506D02*
Y2200432D01*
X6232924Y2098994D02*
Y2200432D01*
X4989924Y1580994D02*
Y1800160D01*
X6235924Y1342994D02*
Y1929994D01*
X6429924Y2379566D02*
Y2400476D01*
X5419416Y1967502D02*
X5485432D01*
X5725924Y2167994D02*
Y2180748D01*
X3568924Y831994D02*
Y941574D01*
X2509924Y928994D02*
Y956666D01*
X6050924Y2247994D02*
Y2391994D01*
X4160924Y1535710D02*
Y1923378D01*
X4102500Y1487500D02*
X4112714D01*
X4100000Y1485000D02*
X4102500Y1487500D01*
X1153102Y3143994D02*
X1201102Y3095994D01*
X2131620Y2484994D02*
X2199614Y2417000D01*
X3399350Y2940650D02*
X3475682D01*
X3296994Y3043006D02*
X3399350Y2940650D01*
X3296994Y3043006D02*
Y3061490D01*
X3061112Y2207256D02*
Y2224994D01*
X3251924D02*
X3373924Y2346994D01*
X3599924D01*
X3222924Y1991994D02*
X3225924Y1994994D01*
X3347734Y1703192D02*
Y1867184D01*
X4481924Y2839994D02*
X4608924D01*
X4682924Y2913994D01*
X1243504Y1240000D02*
X1267510Y1215994D01*
X1287924D01*
X1413924Y1341994D01*
X1528924Y1554994D02*
Y1788994D01*
X1416924Y1900994D02*
X1528924Y1788994D01*
X1416924Y1900994D02*
Y1963994D01*
X1465000Y2012070D02*
Y2061102D01*
X972924Y2822994D02*
Y3131994D01*
Y2822994D02*
X1092924Y2702994D01*
X1771924Y3169994D02*
X1784924Y3156994D01*
X1362924Y3169994D02*
X1771924D01*
X1336924Y3143994D02*
X1362924Y3169994D01*
X1336924Y3088994D02*
Y3143994D01*
X1264924Y3016994D02*
X1336924Y3088994D01*
X3055000Y2280000D02*
X3257930D01*
X3398924Y2420994D01*
X3031924Y2582976D02*
X3076348D01*
X1478924Y2464816D02*
X1518740Y2425000D01*
X1478924Y2464816D02*
Y2580374D01*
X1767924Y2726542D02*
Y2726994D01*
X1767808Y2726542D02*
X1767924D01*
X1759086Y2717820D02*
X1767808Y2726542D01*
X1759086Y2684172D02*
Y2717820D01*
X1748386Y2707456D02*
X1767924Y2726994D01*
X1867686Y2922314D02*
Y2937762D01*
X1863000Y2942448D02*
X1867686Y2937762D01*
X1839874Y2942448D02*
X1863000D01*
X1831142Y2951180D02*
X1839874Y2942448D01*
X1880686Y2934314D02*
Y2943146D01*
X1880000Y2943832D02*
X1880686Y2943146D01*
X1880000Y2943832D02*
Y2960000D01*
X1871962Y2968038D02*
X1880000Y2960000D01*
X1797914Y3010000D02*
X1831142Y2976772D01*
X1745000Y3010000D02*
X1797914D01*
X1720000Y3035000D02*
X1745000Y3010000D01*
X1700000Y3035000D02*
X1720000D01*
X1831142Y2968038D02*
Y2976772D01*
X1752178Y3048000D02*
Y3063682D01*
Y3048000D02*
X1778298D01*
X1781298Y3045000D01*
X1855000D01*
X2015712Y2772550D02*
X2018086Y2774924D01*
X1765000Y2395994D02*
X1800138D01*
X1722796Y2712796D02*
Y2727122D01*
X1958000Y2942000D02*
Y2963960D01*
X1997280Y2707994D02*
X2135924D01*
X1997280D02*
X2017280Y2727994D01*
X1975302Y2686016D02*
X1997280Y2707994D01*
X1800138Y2395994D02*
X1823240Y2372892D01*
X4245000Y915000D02*
X4276924Y883076D01*
Y489994D02*
Y883076D01*
X4047924Y260994D02*
X4276924Y489994D01*
X1775000Y1174528D02*
Y1204994D01*
X1668104D02*
X1775000D01*
X1603110Y1140000D02*
X1668104Y1204994D01*
X1430918Y1140000D02*
X1603110D01*
X1350472Y1220446D02*
X1430918Y1140000D01*
X1350472Y2740994D02*
Y2875000D01*
X1598858Y2951180D02*
X1633110D01*
X1636678Y2954748D01*
Y3126740D01*
X1606736Y3156682D02*
X1636678Y3126740D01*
X1379160Y3156682D02*
X1606736D01*
X1350472Y3127994D02*
X1379160Y3156682D01*
X1350472Y2875000D02*
Y3127994D01*
X1292924Y2757994D02*
X1299924D01*
X1287924Y2752994D02*
X1292924Y2757994D01*
X1287924Y2734994D02*
Y2752994D01*
Y2734994D02*
X1314924Y2707994D01*
X1367924D01*
X1383924Y2723994D01*
Y2842994D01*
X1379924Y2846994D02*
X1383924Y2842994D01*
X1379924Y2846994D02*
Y2962994D01*
X1444924Y3027994D01*
Y3112994D01*
X1475612Y3143682D01*
X1513236D01*
X1562924Y3093994D01*
X1490924Y2981000D02*
X1562924Y3053000D01*
X1490924Y2844796D02*
Y2981000D01*
Y2844796D02*
X1560720Y2775000D01*
X1758696D02*
X1806924Y2823228D01*
X1831142D01*
X2135924Y2707994D02*
X2155816Y2688102D01*
X1773976Y2450826D02*
Y2495994D01*
X1781976Y2503994D01*
X1799568Y2450826D02*
X1867756D01*
X1875924Y2458994D01*
X1655924Y2915994D02*
Y3127994D01*
X1671924Y3143994D01*
X1777966D01*
X1748386Y2684172D02*
Y2707456D01*
X1082924Y2927560D02*
X1111102D01*
X1082924Y2816994D02*
Y2927560D01*
X1656690Y2823228D02*
X1662924Y2816994D01*
X1598858Y2823228D02*
X1656690D01*
X1201102Y2868030D02*
X1295888D01*
X1541924Y2855994D02*
X1549100Y2848818D01*
X1598858D01*
Y2874410D02*
X1680508D01*
X1689924Y2864994D01*
X1975302Y2660616D02*
Y2686016D01*
X2017280Y2727994D02*
X2132924D01*
X1689924Y2864994D02*
X1709340Y2874410D01*
X1799568Y2679172D02*
Y2682718D01*
X1697206Y2679172D02*
Y2724712D01*
X1486924Y2727994D02*
X1503924Y2744994D01*
X1486924Y2687994D02*
Y2727994D01*
Y2687994D02*
X1487924Y2686994D01*
Y2646994D02*
Y2686994D01*
X1463924Y2622994D02*
X1487924Y2646994D01*
X1432924Y2622994D02*
X1463924D01*
X1372924Y2682994D02*
X1432924Y2622994D01*
X1142924Y2682994D02*
X1372924D01*
X1049924Y2775994D02*
X1142924Y2682994D01*
X1049924Y2775994D02*
Y3127994D01*
X1065924Y3143994D01*
X1153102D01*
X1201102Y2927086D02*
Y3095994D01*
X1425000Y2775000D02*
X1454924D01*
Y2664000D02*
Y2775000D01*
X1801924Y2848818D02*
X1831142D01*
X1775000Y1115472D02*
X1799924D01*
X1815924Y1131472D01*
X1788924Y1448994D02*
X1815924Y1421994D01*
X1559924Y2728994D02*
X1651924D01*
X1671614Y2679172D02*
Y2709304D01*
X2136132Y2638240D02*
Y2666786D01*
X1745000Y2375994D02*
X1765000Y2395994D01*
X1745000Y2335000D02*
Y2375994D01*
X1511614Y2775000D02*
X1524620Y2761994D01*
X1484056Y2775000D02*
X1511614D01*
X1671614Y2405304D02*
Y2450826D01*
Y2405304D02*
X1679924Y2396994D01*
X1827924D01*
X1864924Y2359994D01*
X3003178Y1748740D02*
Y1764314D01*
Y1748740D02*
X3004924Y1746994D01*
Y1765000D02*
X3015000D01*
X2136132Y2573160D02*
Y2638240D01*
X1748386Y2679172D02*
Y2684172D01*
X1598858Y2900000D02*
Y2925590D01*
Y2874410D02*
Y2900000D01*
X1282968Y2425000D02*
X1440000D01*
X1246924Y2461044D02*
X1282968Y2425000D01*
X1090000Y2461044D02*
X1246924D01*
X1155398Y2868030D02*
X1201102D01*
X1154924Y2868504D02*
X1155398Y2868030D01*
X1111102Y2868504D02*
X1154924D01*
X3946924Y1199994D02*
Y1586406D01*
X6111672Y2349646D02*
Y2349648D01*
X2855802Y2889060D02*
Y2919504D01*
Y2788238D02*
Y2889060D01*
X2828170Y2947136D02*
X2855802Y2919504D01*
X2762146Y3013160D02*
X2828170Y2947136D01*
X1477000Y2809616D02*
Y3022000D01*
X1490000Y2815000D02*
Y3016616D01*
X1722796Y2679172D02*
Y2712796D01*
X1750000Y2740000D01*
Y2750000D01*
X1499726Y2786890D02*
Y2792614D01*
X1490340Y2802000D02*
X1499726Y2792614D01*
X1484616Y2802000D02*
X1490340D01*
X1477000Y2809616D02*
X1484616Y2802000D01*
X1495724Y2815000D02*
X1512726Y2797998D01*
X1490000Y2815000D02*
X1495724D01*
X1512726Y2792274D02*
X1530000Y2775000D01*
X1512726Y2792274D02*
Y2797998D01*
X1490000Y3016616D02*
X1515384Y3042000D01*
X1544562D01*
X1552178Y3049616D01*
Y3063682D01*
X1477000Y3022000D02*
X1510000Y3055000D01*
X1539178D01*
Y3060682D01*
X1494178Y3105682D02*
X1539178Y3060682D01*
X1855000Y3045000D02*
X1958000Y2942000D01*
X1746794Y3032000D02*
X1849616D01*
X1739178Y3039616D02*
X1746794Y3032000D01*
X1752178Y3063682D02*
X1794178Y3105682D01*
X1739178Y3039616D02*
Y3060682D01*
X1694178Y3105682D02*
X1739178Y3060682D01*
X1612676Y2298994D02*
X1621670Y2290000D01*
X1585338Y2298994D02*
X1612676D01*
X1576342Y2290000D02*
X1585338Y2298994D01*
X1556102Y2290000D02*
X1576342D01*
X1465000Y2198898D02*
X1556102Y2290000D01*
X5545994Y2090994D02*
X5726924D01*
X5485432Y2030432D02*
X5545994Y2090994D01*
X5485432Y1996220D02*
Y2030432D01*
X3281504Y2911504D02*
X3518434D01*
X3261986Y2891986D02*
X3281504Y2911504D01*
X3261986Y2684388D02*
Y2891986D01*
X3518434Y2911504D02*
X3577538Y2970608D01*
X4370000Y700000D02*
X4380000D01*
X4338924Y731076D02*
X4370000Y700000D01*
X4338924Y731076D02*
Y770754D01*
X4314202Y880798D02*
X4315000Y880000D01*
X4314202Y880798D02*
Y914580D01*
Y940170D02*
X4359830D01*
X4370000Y930000D01*
Y865000D02*
Y930000D01*
X4300924Y795924D02*
X4370000Y865000D01*
X4300924Y708558D02*
Y795924D01*
X4481924Y152608D02*
Y655630D01*
X4387924Y749630D02*
X4481924Y655630D01*
X4387924Y749630D02*
Y958352D01*
X4576944Y578994D02*
X4598924D01*
X4400924Y755014D02*
Y975994D01*
Y755014D02*
X4576944Y578994D01*
X2301700Y2631312D02*
X2355170D01*
X2268000Y2654384D02*
X2270880Y2657264D01*
X2268000Y2602000D02*
Y2654384D01*
Y2602000D02*
X2279006Y2590994D01*
X2388474D01*
X2230336Y2577994D02*
X2431868D01*
X2230000Y2625000D02*
Y2670000D01*
Y2625000D02*
X2235000Y2620000D01*
X2207336Y2600994D02*
X2230336Y2577994D01*
X2183924Y2600994D02*
X2207336D01*
X2175502Y2609416D02*
X2183924Y2600994D01*
X2270880Y2657264D02*
Y2661974D01*
X2194924Y2564994D02*
X2437254D01*
X2177298Y2531994D02*
X2422638D01*
X2431868Y2577994D02*
X2447732Y2593858D01*
X2437254Y2564994D02*
X2470000Y2597740D01*
X2136132Y2573160D02*
X2177298Y2531994D01*
X2422638D02*
X2483000Y2592356D01*
X2460324Y2517994D02*
X2494324Y2551994D01*
X2217514Y2895000D02*
X2290000D01*
X2388474Y2590994D02*
X2425000Y2627520D01*
Y2722236D02*
X2425924Y2721312D01*
X2405924Y2741312D02*
X2425000Y2722236D01*
X2405924Y2741312D02*
X2425000D01*
X2367794D02*
X2405924D01*
X2425000Y2722236D02*
Y2741312D01*
X2460732Y2607998D02*
Y2634076D01*
Y2607998D02*
X2465418Y2603310D01*
X2466720D01*
X2470000Y2600032D01*
Y2597740D02*
Y2600032D01*
X2474638Y2613778D02*
Y2639854D01*
Y2613778D02*
X2483000Y2605416D01*
Y2592356D02*
Y2605416D01*
X2496000Y2553670D02*
Y2638178D01*
X2447732Y2593858D02*
Y2602612D01*
X2447034Y2603310D02*
X2447732Y2602612D01*
X2445734Y2603310D02*
X2447034D01*
X2441048Y2607998D02*
X2445734Y2603310D01*
X2441048Y2607998D02*
Y2671712D01*
X2443628Y2674290D01*
X2440924Y2676994D02*
X2443628Y2674290D01*
X2494324Y2639854D02*
X2496000Y2638178D01*
X2494324Y2551994D02*
X2496000Y2553670D01*
X2454954Y2639854D02*
X2460732Y2634076D01*
X2175502Y2811468D02*
X2181280Y2817246D01*
X2237924Y2847994D02*
X2248924Y2836994D01*
Y2683930D02*
Y2836994D01*
X2216654Y2790000D02*
X2230000D01*
X2195186Y2811468D02*
X2216654Y2790000D01*
X2198240Y2638240D02*
X2230000Y2670000D01*
X2357630Y2836556D02*
Y2887994D01*
X2195186Y2638240D02*
X2198240D01*
X2175502D02*
Y2717416D01*
Y2785502D02*
Y2811468D01*
X2169722Y2779722D02*
X2175502Y2785502D01*
X2169722Y2779612D02*
Y2779722D01*
X2165036Y2774924D02*
X2169722Y2779612D01*
X2018086Y2774924D02*
X2165036D01*
X3030352Y1205000D02*
X3033802D01*
X3135230Y1306428D01*
X4112714Y1487500D02*
X4160924Y1535710D01*
X4100000Y1485000D02*
X4105000D01*
X4095000Y1480000D02*
X4100000Y1485000D01*
X3135230Y1306428D02*
X3212586D01*
X3507924Y1068994D02*
Y1235944D01*
X3543924Y1150994D02*
Y1154994D01*
X3528924Y1135994D02*
X3543924Y1150994D01*
X3502580Y1241288D02*
X3507924Y1235944D01*
X3147072Y1241288D02*
X3502580D01*
X3576924Y1120708D02*
X3867638D01*
X2928734Y1022950D02*
X3147072Y1241288D01*
X4439616Y1093714D02*
X4536642D01*
X3946924Y1586406D02*
X4439616Y1093714D01*
X3946924Y1586406D02*
Y1852476D01*
X6892932Y2145064D02*
X6899528Y2204862D01*
X5443700Y2133700D02*
X5504344D01*
X5395924Y2069994D02*
Y2085924D01*
X5074596Y2059596D02*
X5089596D01*
X5055994Y2040994D02*
X5074596Y2059596D01*
X5211924Y2127704D02*
Y2611994D01*
X5052546Y2040994D02*
X5055994D01*
X5041550Y2030000D02*
X5052546Y2040994D01*
X5001438Y2030000D02*
X5041550D01*
X5001438Y2021652D02*
Y2030000D01*
X4994906Y2015120D02*
X5001438Y2021652D01*
X4960474Y2015120D02*
X4994906D01*
X4953942Y2021652D02*
X4960474Y2015120D01*
X4953942Y2021652D02*
Y2038994D01*
X4938446Y2054490D02*
X4953942Y2038994D01*
X4938446Y2054490D02*
Y2056084D01*
X4931914Y2062616D02*
X4938446Y2056084D01*
X4770874Y2062616D02*
X4931914D01*
X4760126Y2051868D02*
X4770874Y2062616D01*
X4733186Y2051868D02*
X4760126D01*
X4724054Y2061000D02*
X4733186Y2051868D01*
X4685946Y2061000D02*
X4724054D01*
X4599000Y1974054D02*
X4685946Y2061000D01*
X4599000Y1969000D02*
Y1974054D01*
X4564594Y1934594D02*
X4599000Y1969000D01*
X4564594Y1920994D02*
Y1934594D01*
Y1920994D02*
X4583924Y1901664D01*
Y1874326D02*
Y1901664D01*
X4564594Y1854994D02*
X4583924Y1874326D01*
X4537256Y1854994D02*
X4564594D01*
X4502250Y1890000D02*
X4537256Y1854994D01*
X4405000Y1890000D02*
X4502250D01*
X4488924Y1949994D02*
X4550924Y1887994D01*
X4359770Y1949994D02*
X4488924D01*
X5560000Y1830380D02*
Y1835000D01*
X5536614Y1806994D02*
X5560000Y1830380D01*
X7165000Y2620000D02*
Y2630000D01*
X7170000Y2635000D01*
X7220000D01*
X7295000Y2560000D01*
X7067654Y2382698D02*
X7069956Y2385000D01*
X7070000D01*
X7096594Y2358406D01*
X7120000D01*
X7052902Y2425000D02*
X7185918D01*
X6973308Y2345406D02*
X7052902Y2425000D01*
X6955406Y2345406D02*
X6973308D01*
X6942814Y2332814D02*
X6955406Y2345406D01*
X6899528Y2332814D02*
X6942814D01*
X7185918Y2425000D02*
X7250924Y2359994D01*
X6899528Y2307224D02*
X6996924D01*
X2955446Y1758880D02*
X2962384Y1765444D01*
X2887358Y1760766D02*
X2955446Y1758880D01*
X2880794Y1767702D02*
X2887358Y1760766D01*
X2840000Y1725000D02*
X2860000Y1705000D01*
X2843542Y1665356D02*
X2848228Y1660670D01*
X2824644Y1665356D02*
X2843542D01*
X2860000Y1700000D02*
Y1705000D01*
X2928734Y1022950D02*
Y1479104D01*
X2926518Y1020734D02*
X2928734Y1022950D01*
X2848228Y1647514D02*
X2858930D01*
X2800538Y1689462D02*
X2824644Y1665356D01*
X2938330Y1730000D02*
X3003178D01*
X2898000Y1689668D02*
X2938330Y1730000D01*
X3935924Y2165994D02*
Y2167272D01*
X3944618Y2175994D01*
X2962384Y1765444D02*
X3003178Y1764314D01*
X2840000Y1768832D02*
X2880794Y1767702D01*
X2840000Y1768832D02*
Y1770000D01*
Y1725000D02*
Y1768832D01*
X2898000Y1686330D02*
Y1689668D01*
X2884520Y1672852D02*
X2898000Y1686330D01*
X2884520Y1647514D02*
Y1672852D01*
X2940000Y1685000D02*
X2945000Y1690000D01*
X2940000Y1585000D02*
Y1685000D01*
X1360000Y1627070D02*
Y1920000D01*
Y1493426D02*
Y1627070D01*
X1408924Y1675994D01*
X1200000Y1467070D02*
X1360000Y1627070D01*
X2884520Y1572710D02*
Y1647514D01*
X2858930Y1572710D02*
Y1647514D01*
X5805000Y2180000D02*
X5869368Y2244368D01*
X5907422Y2182422D02*
X5917422D01*
X5920000Y2185000D01*
X5853960Y2146042D02*
X5892918Y2185000D01*
X5950180Y2158748D02*
X5984612D01*
X5943648Y2129636D02*
Y2152216D01*
X5950180Y2158748D01*
X6106924Y2335994D02*
X6111672Y2349646D01*
X5899802Y2085790D02*
X5943648Y2129636D01*
X5867542Y2085790D02*
X5899802D01*
X5819632Y2133700D02*
X5867542Y2085790D01*
X5985078Y2158282D02*
X5985080D01*
X5984612Y2158748D02*
X5985078Y2158282D01*
X5985080D02*
X5992388Y2165592D01*
Y2173000D01*
X5936382Y2228000D02*
X5949060Y2215322D01*
X5885738Y2228000D02*
X5936382D01*
X5869368Y2244368D02*
X5885738Y2228000D01*
X5770924Y2259076D02*
X5800000Y2230000D01*
X5770924Y2259076D02*
Y2533994D01*
X5758826Y2206174D02*
X5785000Y2180000D01*
X5805000D01*
X5758826Y2206174D02*
Y2212506D01*
X5758402Y2212928D02*
X5758826Y2212506D01*
X5758402Y2212928D02*
Y2225338D01*
Y2174156D02*
X5758826Y2174580D01*
X5726220Y2206338D02*
X5736920Y2195638D01*
X5750104D01*
X5758826Y2186916D01*
Y2174580D02*
Y2186916D01*
X5758402Y2174156D02*
X5776280Y2156280D01*
X5821640D01*
X5758402Y2225338D02*
X5758826Y2225760D01*
Y2238096D01*
X5750104Y2246818D02*
X5758826Y2238096D01*
X5736922Y2246818D02*
X5750104D01*
X5726220Y2257520D02*
X5736922Y2246818D01*
X5805000Y2332000D02*
X6008994Y2535994D01*
X5567336Y2133700D02*
X5819632D01*
X5842918Y2135000D02*
X5853960Y2146042D01*
X5805000Y2285000D02*
Y2332000D01*
X5949060Y2215322D02*
X5971100D01*
X5862000Y2305994D02*
X5894000Y2273994D01*
X5992388Y2173000D02*
X6030388Y2135000D01*
X5930924Y1912994D02*
X5949924Y1893994D01*
X5983924Y1926994D02*
X6005796D01*
X5949924Y1893994D02*
X6039924D01*
X5920432Y1945994D02*
X5971614D01*
Y1765826D02*
Y1858994D01*
X6005796Y1926994D02*
X6022796Y1943994D01*
X6039924Y1893994D02*
X6073976Y1928046D01*
X5847924Y1892496D02*
Y2015528D01*
X5778932Y1823504D02*
X5847924Y1892496D01*
X5775924Y1860994D02*
X5834924Y1919994D01*
Y2071994D01*
X5797924Y2108994D02*
X5834924Y2071994D01*
X5542924Y2108994D02*
X5797924D01*
X5971100Y2215322D02*
X5981802Y2226024D01*
X5895000Y2330000D02*
X5930524Y2329340D01*
X5862000Y2305994D02*
Y2345076D01*
X5896490Y2379566D01*
X5687924Y2398290D02*
X5746924Y2457290D01*
X5607400Y2347470D02*
X5705924Y2445994D01*
X5607400Y2279404D02*
Y2347470D01*
X7237972Y2238994D02*
X7373924D01*
X7220924Y2256042D02*
X7237972Y2238994D01*
X7120000Y2256042D02*
X7220924D01*
X7060000Y2825000D02*
Y2830000D01*
X6979924Y2744924D02*
X7060000Y2825000D01*
X6767500Y2927500D02*
X6787500D01*
X6755000Y2915000D02*
X6767500Y2927500D01*
X6710000Y2915000D02*
X6755000D01*
X6979924Y2695326D02*
Y2744924D01*
X6755000Y2470402D02*
X6979924Y2695326D01*
X6755000Y2380000D02*
Y2470402D01*
X2191972Y2263164D02*
X2273100Y2212598D01*
X2015930Y2372890D02*
X2191972Y2263164D01*
X2161788Y2343212D02*
Y2351082D01*
Y2343212D02*
X2200000Y2305000D01*
X2191972Y2296972D02*
X2200000Y2305000D01*
X2191972Y2263164D02*
Y2296972D01*
X2837906Y2191184D02*
X2853732Y2207010D01*
X2890358D01*
X2928114Y2169256D01*
X2974110D01*
X3012110Y2207256D01*
X3061112D01*
X2805702Y2156256D02*
X2979496D01*
X2992496Y2169256D01*
X3003766D01*
X2802214Y2407214D02*
Y2444538D01*
X2800000Y2405000D02*
X2802214Y2407214D01*
X2677870Y2407130D02*
Y2533450D01*
X2825000Y2260000D02*
X2837906Y2191184D01*
X2455622Y2160000D02*
X2510900Y2215276D01*
X3220000Y2595000D02*
X3285000D01*
X3211986Y2603014D02*
X3220000Y2595000D01*
X3211986Y2603014D02*
Y2684388D01*
X5652628Y1879994D02*
X5667244D01*
X5644634Y1872000D02*
X5652628Y1879994D01*
X5617296Y1872000D02*
X5644634D01*
X5609302Y1879994D02*
X5617296Y1872000D01*
X5543590Y1879994D02*
X5609302D01*
X5470540Y1806944D02*
X5543590Y1879994D01*
X5630964Y1905000D02*
X5636930D01*
X5664566Y1932636D01*
X5585930Y1915000D02*
X5638976Y1968046D01*
X5667244Y1916276D02*
X5679924Y1928956D01*
X5667244Y1879994D02*
Y1916276D01*
X5683692Y1905762D02*
X5751924Y1973994D01*
X5683692Y1856226D02*
Y1905762D01*
X5677460Y1849994D02*
X5683692Y1856226D01*
X5627924Y1849994D02*
X5677460D01*
X5587796Y1809866D02*
X5627924Y1849994D01*
X5651192Y1836994D02*
X5686924D01*
X5613386Y1799188D02*
X5651192Y1836994D01*
X5686924D02*
X5710924Y1860994D01*
X5570000Y1915000D02*
X5585930D01*
X5358000Y1800000D02*
Y1873668D01*
Y1564070D02*
Y1800000D01*
X5315000D02*
X5358000D01*
X5726924Y2090994D02*
X5751924Y2065994D01*
X5542924Y2108994D02*
Y2157994D01*
X1329960Y1033386D02*
X1340000Y1043426D01*
Y1076496D01*
X1324386Y1092110D02*
X1340000Y1076496D01*
X1324386Y1092110D02*
Y1096118D01*
X1307504Y1113000D02*
X1324386Y1096118D01*
X1239160Y1113000D02*
X1307504D01*
X1200000Y1073840D02*
X1239160Y1113000D01*
X1200000Y1046668D02*
Y1073840D01*
Y1046668D02*
X1213000Y1033668D01*
Y1006330D02*
Y1033668D01*
X1170924Y964256D02*
X1213000Y1006330D01*
X1170924Y945994D02*
Y964256D01*
X1126924Y901994D02*
X1170924Y945994D01*
X1183924Y958870D02*
X1226000Y1000946D01*
X1183924Y827108D02*
Y958870D01*
X1213000Y1052054D02*
Y1068454D01*
Y1052054D02*
X1226000Y1039054D01*
Y1000946D02*
Y1039054D01*
X1278780Y1058976D02*
X1289480Y1069676D01*
X1311386D01*
Y1090734D01*
X1302664Y1099456D02*
X1311386Y1090734D01*
X1290544Y1099456D02*
X1302664D01*
X1290000Y1100000D02*
X1290544Y1099456D01*
X1289456D02*
X1290000Y1100000D01*
X1244002Y1099456D02*
X1289456D01*
X1213000Y1068454D02*
X1244002Y1099456D01*
X1180000Y1020000D02*
Y1027374D01*
X1148328Y1059046D02*
X1180000Y1027374D01*
X1405434Y1084566D02*
X1501220D01*
X1335000Y1155000D02*
X1405434Y1084566D01*
X1186918Y1155000D02*
X1335000D01*
X1167924Y1173994D02*
X1186918Y1155000D01*
X1239924Y961994D02*
Y1076994D01*
X7430000Y1855000D02*
Y1890000D01*
X3275000Y2990070D02*
Y2995034D01*
X3015046Y2730116D02*
X3275000Y2990070D01*
X7430000Y1855000D02*
X7575000Y1710000D01*
X5325000Y1860000D02*
X5335000D01*
X4932924Y1138994D02*
X5358000Y1564070D01*
X5356924Y1874744D02*
Y1876870D01*
Y1874744D02*
X5358000Y1873668D01*
X5335000Y1860000D02*
X5343924Y1868924D01*
Y1882256D01*
X5368000Y1906330D01*
Y1933668D01*
X5346674Y1954994D02*
X5368000Y1933668D01*
X5318336Y1954994D02*
X5346674D01*
X5288000Y1985330D02*
X5318336Y1954994D01*
X5288000Y1985330D02*
Y2148668D01*
X5270000Y2166668D02*
X5288000Y2148668D01*
X5270000Y2166668D02*
Y2310000D01*
X5363000Y1957054D02*
Y2003668D01*
Y1957054D02*
X5381000Y1939054D01*
X5394000Y1895562D02*
Y1944438D01*
X5381000Y1900946D02*
Y1939054D01*
X5377924Y1960514D02*
X5394000Y1944438D01*
X5356924Y2009744D02*
Y2117994D01*
Y2009744D02*
X5363000Y2003668D01*
X5330000Y1990000D02*
Y2130672D01*
X5323924Y2136748D02*
X5330000Y2130672D01*
X5377924Y1879486D02*
X5394000Y1895562D01*
X5377924Y1392994D02*
Y1879486D01*
X5356924Y1876870D02*
X5381000Y1900946D01*
X5335000Y1925000D02*
X5340000Y1930000D01*
X5328006Y1941994D02*
X5340000Y1930000D01*
X5310256Y1941994D02*
X5328006D01*
X5255000Y1997250D02*
X5310256Y1941994D01*
X5255000Y1997250D02*
Y2135000D01*
X5411924Y1974994D02*
X5419416Y1967502D01*
X4977690Y2226760D02*
Y2284994D01*
Y2038868D02*
Y2226760D01*
X4760266Y1902522D02*
X4836924D01*
X4612000Y1556330D02*
Y1968668D01*
X4691330Y2048000D01*
X4727800Y2038868D02*
X4914698D01*
X4718668Y2048000D02*
X4727800Y2038868D01*
X4691330Y2048000D02*
X4718668D01*
X4645000Y1955000D02*
X4705000Y2015000D01*
X4645000Y1570000D02*
Y1955000D01*
X4766924Y1988994D02*
X4786924Y2008994D01*
X4316246Y2024994D02*
Y2100046D01*
X4786924Y2008994D02*
X4860924D01*
X4941804Y1928114D01*
X4612000Y1556330D02*
X4617924Y1550406D01*
Y1317530D02*
Y1550406D01*
X7350000Y2037964D02*
Y2105000D01*
X7328480Y2016444D02*
X7350000Y2037964D01*
X5335000Y1920000D02*
Y1925000D01*
X6892924Y2145000D02*
X6892932Y2145064D01*
X5630000Y3052994D02*
Y3070994D01*
X5946024Y2113628D02*
X5967396Y2135000D01*
X5847924Y2015528D02*
X5946024Y2113628D01*
X5778932Y1823504D02*
X5862754D01*
X6819106Y458176D02*
Y543994D01*
X5388622Y1222692D02*
X5443924D01*
X6374106Y636176D02*
Y806994D01*
Y582128D02*
Y636176D01*
X2772824Y1966094D02*
Y2086538D01*
X3946924Y1852476D02*
X3965406Y1833994D01*
X5363032Y1197102D02*
X5388622Y1222692D01*
X5341924Y1175994D02*
X5363032Y1197102D01*
X5456732D01*
X5362032D02*
X5363032D01*
X3576924Y1256432D02*
Y1372994D01*
X3895924Y2188994D02*
X3896186D01*
X3909186Y2175994D01*
X3865924Y2219256D02*
X3896186Y2188994D01*
X3580612Y1581642D02*
Y1676994D01*
X2780924Y2680116D02*
X2820924D01*
X2615924Y1623130D02*
X2620492Y1618562D01*
X2779460Y2629994D02*
X2812460Y2596994D01*
X4324924Y1350994D02*
X4406924Y1268994D01*
X1411924Y1388994D02*
Y1455994D01*
X983924Y1086732D02*
X1015924D01*
X4359770Y1949994D02*
X4760880Y2351104D01*
X4358924Y1949148D02*
X4359770Y1949994D01*
X6536336Y536994D02*
X6557336Y515994D01*
X6742336Y819406D02*
Y1234626D01*
Y582128D02*
Y819406D01*
X6962336Y777582D02*
Y791994D01*
Y582128D02*
Y777582D01*
X4141924Y2051330D02*
X4174856D01*
X4047260D02*
X4141924D01*
X3963924Y2076920D02*
X3979924D01*
X4393684Y2614044D02*
X4509874D01*
X3577538Y2970608D02*
X3599424Y2992494D01*
X5333110Y2779180D02*
X5342610Y2788680D01*
X5178924Y2624994D02*
X5333110Y2779180D01*
X3972778Y2567994D02*
Y2589282D01*
Y2443994D02*
Y2567994D01*
X6163924Y2082994D02*
X6191924Y2054994D01*
X6163924Y2082994D02*
Y2156994D01*
X6235924Y1929994D02*
Y2010994D01*
X5522924Y2160994D02*
X5533412Y2171482D01*
X4759690Y965760D02*
X4932924Y1138994D01*
X2402998Y930920D02*
X2468924Y996846D01*
X5903924Y884994D02*
Y1038994D01*
Y703994D02*
Y884994D01*
X4887924Y1120994D02*
X4947924Y1180994D01*
X4125924Y1777994D02*
Y1930968D01*
Y1684994D02*
Y1777994D01*
X2755924Y3019382D02*
X2762146Y3013160D01*
X2494324Y2454994D02*
Y2551994D01*
X2088898Y2912422D02*
X2092432D01*
X2034994D02*
X2088898D01*
X2136132Y2865190D02*
Y2868722D01*
Y2811468D02*
Y2865190D01*
X2155816Y2811468D02*
Y2870960D01*
X1590000Y1108504D02*
X1673490Y1191994D01*
X1698924D01*
X1714924Y1175994D01*
Y1093192D02*
Y1175994D01*
Y1093192D02*
X1734314Y1073802D01*
X1981928D01*
X2097120Y1188994D01*
X2423728D01*
X2476924Y1135798D01*
X2510474D01*
X3934406Y1864994D02*
X3946924Y1852476D01*
X2403924Y2089638D02*
X2459568Y2033994D01*
X3934406Y1923378D02*
X3946508D01*
X3965406Y1833994D02*
X3999924D01*
X4012924Y1846994D01*
Y2077994D01*
X4055924Y2120994D01*
X4164588D01*
Y2228330D01*
X4114924Y2277994D02*
X4164588Y2228330D01*
X4114924Y2277994D02*
Y2407994D01*
X4132924Y2425994D01*
X4184924D01*
X4218924Y2391994D01*
Y2243994D02*
Y2391994D01*
Y2243994D02*
X4280924Y2181994D01*
Y1859994D02*
Y2181994D01*
Y1859994D02*
X4324924Y1815994D01*
Y1678496D02*
Y1815994D01*
X4305372Y1658944D02*
X4324924Y1678496D01*
X4551816Y1251422D02*
X4617924Y1317530D01*
X6099566Y1706994D02*
Y1765826D01*
Y1706994D02*
X6151924Y1654636D01*
X5739198Y1237584D02*
X5913608Y1411994D01*
X5637706Y1237584D02*
X5739198D01*
X5637706Y1200994D02*
Y1237584D01*
Y1200994D02*
X5685078Y1197102D01*
Y1030994D02*
Y1043558D01*
Y1030994D02*
X5703924D01*
X5716924Y1017994D01*
Y855994D02*
Y1017994D01*
X5700924Y839994D02*
X5716924Y855994D01*
X5687924Y839994D02*
X5700924D01*
X5629410Y898508D02*
X5687924Y839994D01*
X5629410Y898508D02*
Y998702D01*
X4914698Y1990930D02*
Y2038868D01*
Y1990930D02*
X4951924Y1953704D01*
X5000266D01*
X5862754Y1823504D02*
X5920432Y1765826D01*
X5431924Y3015826D02*
X5495000D01*
X5384924Y2968826D02*
X5431924Y3015826D01*
X5384924Y2784994D02*
Y2968826D01*
X5211924Y2611994D02*
X5384924Y2784994D01*
X6391924Y2200432D02*
X6445062D01*
X6379924Y2212432D02*
X6391924Y2200432D01*
X6379924Y2212432D02*
Y2390086D01*
X6343016Y2426994D02*
X6379924Y2390086D01*
X6108924Y2426994D02*
X6343016D01*
X6073924Y2391994D02*
X6108924Y2426994D01*
X6073924Y2283994D02*
Y2391994D01*
Y2283994D02*
X6076924Y2280994D01*
Y2214994D02*
Y2280994D01*
X6062362Y2200432D02*
X6076924Y2214994D01*
X5981802Y2200432D02*
X6062362D01*
X5715000Y1823504D02*
X5778932D01*
X6180000Y1926496D02*
X6203924Y1902572D01*
Y1843994D02*
Y1902572D01*
X6167924Y1807994D02*
X6203924Y1843994D01*
X6099566Y1765826D02*
Y1807994D01*
X6889924Y1864994D02*
X6892924Y2145000D01*
X6889924Y1864994D02*
X6990924Y1763994D01*
Y1296994D02*
Y1763994D01*
Y1296994D02*
X7031924Y1255994D01*
X7309300D01*
X7352496Y1299190D01*
X6892924Y2204862D02*
X6899528D01*
X6734924Y2049994D02*
X6892924Y2204862D01*
X6663924Y2049994D02*
X6734924D01*
X6513486Y2200432D02*
X6663924Y2049994D01*
X6445062Y2200432D02*
X6513486D01*
X6375068Y1123240D02*
X6444924Y1193096D01*
Y1195994D01*
X5308924Y878994D02*
Y1143994D01*
X5362032Y1197102D01*
X6151924Y1481994D02*
Y1654636D01*
X2578688Y1623130D02*
X2620492Y1618562D01*
X2578688Y1623130D02*
X2615924D01*
X2972170Y1498994D02*
X2988170Y1514994D01*
Y1539328D01*
X2425924Y2708994D02*
Y2721312D01*
X2248924Y2683930D02*
X2270880Y2661974D01*
X3076348Y2472976D02*
Y2506418D01*
X3118924Y2548994D01*
Y2627408D01*
X3087066Y2659266D02*
X3118924Y2627408D01*
X3112188Y2684388D02*
X3161986D01*
X3087066Y2659266D02*
X3112188Y2684388D01*
X4330584Y2931608D02*
X4397202Y2864990D01*
X3639100Y2931608D02*
X4330584D01*
X3636924Y2815994D02*
X3639100Y2931608D01*
X3611594Y2790664D02*
X3636924Y2815994D01*
X3434336Y2790664D02*
X3611594D01*
X2587594Y1780660D02*
Y1841324D01*
X1501220Y1033386D02*
X1562316D01*
X1681924Y1152994D01*
X5485432Y1684486D02*
X5574924Y1594994D01*
X5485432Y1684486D02*
Y1773780D01*
X1890606Y1814518D02*
X1920924Y1844836D01*
X3149702Y1636820D02*
Y1646820D01*
X3304750Y1636820D02*
X3311924Y1643994D01*
X6899528Y2358406D02*
X6967924D01*
X7120512Y2510994D01*
X7503008D01*
X7785958Y2228044D01*
X6830322Y3069994D02*
X6868610Y3108282D01*
X6595924Y3069994D02*
X6830322D01*
X6563924Y2775994D02*
Y3037994D01*
X5770924Y2533994D02*
X5980924Y2743994D01*
X5511024Y1717702D02*
Y1773780D01*
Y1717702D02*
X5607924Y1620802D01*
Y1578994D02*
Y1620802D01*
X5572706Y1543776D02*
X5607924Y1578994D01*
X5572706Y742212D02*
Y1543776D01*
Y742212D02*
X5604924Y709994D01*
X4584924Y950994D02*
X4832924D01*
X4536642Y940170D02*
X4574100D01*
X3619924Y920994D02*
Y955164D01*
X5980924Y2743994D02*
X6531924D01*
X6563924Y2775994D01*
Y3037994D02*
X6595924Y3069994D01*
X4574100Y940170D02*
X4584924Y950994D01*
X4832924D02*
X4899924Y883994D01*
X3607924Y967164D02*
X3619924Y955164D01*
X2551924Y982256D02*
X2572924Y961256D01*
Y940994D02*
Y961256D01*
X3571606Y967164D02*
X3607924D01*
X2510474Y982256D02*
X2551924D01*
X1568452Y931024D02*
X1635482Y863994D01*
X1501220Y931024D02*
X1568452D01*
X5666110Y1024994D02*
X5692402Y998702D01*
X5631924Y1024994D02*
X5666110D01*
X5611706Y1045212D02*
X5631924Y1024994D01*
X5611706Y1045212D02*
Y1278776D01*
X5653924Y1320994D01*
X6090924Y2319994D02*
X6106924Y2335994D01*
X6030388Y2135000D02*
X6090924Y2195536D01*
X4487488Y1188430D02*
X4551816D01*
X2499654Y1264422D02*
X2576226Y1340994D01*
X7176092Y1925404D02*
X7610878D01*
X6956496Y2145000D02*
X7176092Y1925404D01*
X2514008Y2781910D02*
Y2813082D01*
Y2781910D02*
X2528918Y2767000D01*
X2539918D01*
X2562924Y2743994D01*
Y2694876D02*
Y2743994D01*
X2559042Y2690994D02*
X2562924Y2694876D01*
X2487924Y2690994D02*
X2559042D01*
X2469924Y2708994D02*
X2487924Y2690994D01*
X2469924Y2708994D02*
Y2750994D01*
X887924Y2702994D02*
X1092924D01*
X864924Y2679994D02*
X887924Y2702994D01*
X864924Y1609994D02*
Y2679994D01*
Y1609994D02*
X1037924Y1436994D01*
Y1263994D02*
Y1436994D01*
X1019020Y1245090D02*
X1037924Y1263994D01*
X1000436Y1245090D02*
X1019020D01*
X7060958Y289994D02*
Y302392D01*
X6856924Y244994D02*
X6901924Y289994D01*
X6856924Y110994D02*
Y244994D01*
X6792924Y46994D02*
X6856924Y110994D01*
X6327924Y46994D02*
X6792924D01*
X6294924Y79994D02*
X6327924Y46994D01*
X6294924Y79994D02*
Y375994D01*
X6243924Y426994D02*
X6294924Y375994D01*
X5973924Y426994D02*
X6243924D01*
X5585706Y815212D02*
X5973924Y426994D01*
X5585706Y815212D02*
Y1521776D01*
X5638976Y1575046D01*
Y1773780D01*
X1446598Y1685668D02*
Y1814518D01*
X1319924Y1296994D02*
X1411924Y1388994D01*
X1062924Y1133732D02*
Y1168994D01*
X1015924Y1086732D02*
X1062924Y1133732D01*
X1411924Y1650994D02*
X1446598Y1685668D01*
X1411924Y1455994D02*
Y1650994D01*
Y1455994D02*
X1431924Y1435994D01*
X1633924D01*
X2346404Y1699902D02*
X2402554D01*
X2416924Y1714272D01*
Y1955994D01*
X4299096Y2419822D02*
X4377156D01*
X4298924Y2419994D02*
X4299096Y2419822D01*
X1778228Y1928690D02*
X1806532Y1956994D01*
X1668602Y1928690D02*
X1778228D01*
X1634924Y1895012D02*
X1668602Y1928690D01*
X1634924Y1661708D02*
Y1895012D01*
Y1661708D02*
X1663110Y1633522D01*
X3943622Y75000D02*
Y175452D01*
X4742688Y911994D02*
Y924626D01*
X4850924Y911994D02*
X4858924Y903994D01*
Y817994D02*
Y903994D01*
Y817994D02*
X4922924Y753994D01*
Y676994D02*
Y753994D01*
X4869924Y623994D02*
X4922924Y676994D01*
X4869924Y587994D02*
Y623994D01*
Y587994D02*
X4887924Y569994D01*
X4919924D01*
X4959924Y609994D01*
Y828994D01*
X4742688Y469116D02*
X4761046D01*
X4792924Y500994D01*
Y639994D01*
X4863924Y710994D01*
X3888924Y240994D02*
X3928622Y280692D01*
Y300000D01*
X3580858Y413994D02*
X3701924D01*
X3768622Y347296D01*
Y320000D02*
Y347296D01*
X3794924Y810000D02*
X3808930Y795994D01*
X3743622Y810000D02*
X3794924D01*
X2686378Y485448D02*
Y555000D01*
X2684924Y483994D02*
X2686378Y485448D01*
X2691378Y677540D02*
Y700000D01*
Y677540D02*
X2827924Y540994D01*
Y143994D02*
Y540994D01*
X2686378Y770754D02*
Y830000D01*
X1065038Y170754D02*
X1294278Y399994D01*
X1655924D01*
X1673622Y417692D01*
Y436428D01*
Y192142D02*
Y228296D01*
X1666446Y235472D02*
X1673622Y228296D01*
X1429756Y235472D02*
X1666446D01*
X1365038Y170754D02*
X1429756Y235472D01*
X1798930Y925000D02*
X1807924Y933994D01*
X1673622Y925000D02*
X1798930D01*
X7429898Y3146994D02*
X7468610Y3108282D01*
X7351924Y3146994D02*
X7429898D01*
X7319610Y3114680D02*
X7351924Y3146994D01*
X7319610Y2960704D02*
Y3114680D01*
X6801000Y2442094D02*
X7319610Y2960704D01*
X6801000Y2345280D02*
Y2442094D01*
X6732924Y2277204D02*
X6801000Y2345280D01*
X6669472Y2277204D02*
X6732924D01*
X6157924Y3053910D02*
X6196786Y3092772D01*
X6157924Y2866994D02*
Y3053910D01*
X6206212Y2251614D02*
X6269924D01*
X6272924Y2248614D01*
Y2075994D02*
Y2248614D01*
Y2075994D02*
X6690924Y1657994D01*
Y1507538D02*
Y1657994D01*
X6339924Y1156538D02*
X6690924Y1507538D01*
X6339924Y1088994D02*
Y1156538D01*
X6333924Y1082994D02*
X6339924Y1088994D01*
X6333924Y753994D02*
Y1082994D01*
X6297336Y717406D02*
X6333924Y753994D01*
X6297336Y582128D02*
Y717406D01*
X6206212Y2277204D02*
X6263924D01*
X6296894Y2244234D01*
Y2141024D02*
Y2244234D01*
Y2141024D02*
X6703924Y1733994D01*
X6647924Y515994D02*
X6703924Y571994D01*
X6557336Y515994D02*
X6647924D01*
X6522336Y550994D02*
Y582128D01*
X7411600Y634202D02*
Y757994D01*
X6623924Y536994D02*
X6678924Y591994D01*
X6536336Y536994D02*
X6623924D01*
X6522336Y550994D02*
X6536336Y536994D01*
X6206212Y2302796D02*
X6309924D01*
X6335924Y2276796D01*
Y2127318D02*
Y2276796D01*
Y2127318D02*
X6790024Y1673218D01*
Y1282314D02*
Y1673218D01*
X6742336Y1234626D02*
X6790024Y1282314D01*
X6742336Y819406D02*
X6759924Y836994D01*
X6792924D01*
X6919924Y709994D01*
Y551616D02*
Y709994D01*
Y551616D02*
X6927924Y543616D01*
X6996924D01*
Y664994D01*
X7025924Y693994D01*
X7335924D01*
X7349924Y679994D01*
Y610994D02*
Y679994D01*
Y610994D02*
X7383924Y576994D01*
X7511600D01*
Y634202D01*
X4091924Y1713886D02*
Y1959994D01*
X4071924Y1693886D02*
X4091924Y1713886D01*
X4059928Y1693886D02*
X4071924D01*
X2982586Y1345798D02*
X3141728D01*
X3257924Y1461994D01*
X4536642Y1068124D02*
X4567924D01*
X4584054Y1084254D01*
X4560924Y1114994D02*
X4584054Y1084254D01*
X4461620Y1114994D02*
X4560924D01*
X4205924Y1370690D02*
X4461620Y1114994D01*
X4205924Y1370690D02*
Y1383994D01*
X4603924Y660994D02*
Y798748D01*
X4615924Y810748D01*
X4695444D01*
X4670924Y582994D02*
X4695444D01*
X4670924Y444994D02*
Y582994D01*
Y444994D02*
X4679924Y435994D01*
X4759924D01*
X4843424Y519494D01*
Y642494D01*
X4896924Y695994D01*
Y733994D01*
X4778338Y852580D02*
X4896924Y733994D01*
X4503924Y852580D02*
X4778338D01*
X4447578Y908926D02*
X4503924Y852580D01*
X4447578Y908926D02*
Y1004340D01*
X4358204Y1093714D02*
X4447578Y1004340D01*
X4314202Y1093714D02*
X4358204D01*
X4695444Y469116D02*
Y499514D01*
X4750924Y554994D01*
X4766924D01*
Y638606D01*
X4823924Y695606D01*
Y779994D01*
X4766924Y836994D02*
X4823924Y779994D01*
X4467538Y836994D02*
X4766924D01*
X4432000Y872532D02*
X4467538Y836994D01*
X4432000Y872532D02*
Y990048D01*
X4353924Y1068124D02*
X4432000Y990048D01*
X4314202Y1068124D02*
X4353924D01*
X3489930Y320000D02*
X3721378D01*
X3478924Y308994D02*
X3489930Y320000D01*
X3445924Y967994D02*
Y1057994D01*
X3408800Y1095118D02*
X3445924Y1057994D01*
X3349166Y1095118D02*
X3408800D01*
X4695444Y355238D02*
Y375994D01*
X4666444Y404994D02*
X4695444Y375994D01*
X4117924Y502994D02*
X4176924Y561994D01*
Y960532D01*
X4258924Y1042532D01*
X4314202D01*
X2288034Y1084618D02*
X2322924D01*
Y1143994D01*
X2304924Y1161994D02*
X2322924Y1143994D01*
X2177924Y1161994D02*
X2304924D01*
X2031924Y1015994D02*
X2177924Y1161994D01*
X2031924Y75994D02*
Y1015994D01*
Y75994D02*
X2103924Y3994D01*
X2750924D01*
X2770924Y23994D01*
Y375994D01*
X2751918Y395000D02*
X2770924Y375994D01*
X2723622Y395000D02*
X2751918D01*
X3726378Y450000D02*
Y503994D01*
X3681378Y548994D02*
X3726378Y503994D01*
X3605746Y548994D02*
X3681378D01*
X3478746Y675994D02*
X3605746Y548994D01*
X3478746Y675994D02*
Y852172D01*
X3399924Y930994D02*
X3478746Y852172D01*
X3399924Y930994D02*
Y1027936D01*
X3383924Y1043936D02*
X3399924Y1027936D01*
X3349166Y1043936D02*
X3383924D01*
X2288034Y1059028D02*
X2327924D01*
X2348924Y1038028D01*
Y896994D02*
Y1038028D01*
Y896994D02*
X2417924Y827994D01*
X2777924Y523994D02*
Y537000D01*
X2759924Y555000D02*
X2777924Y537000D01*
X2733622Y555000D02*
X2759924D01*
X2288034Y1033436D02*
X2327924D01*
X2335054Y733864D01*
X2344924Y723994D01*
X2738622Y700000D02*
Y751994D01*
X1278780Y982204D02*
X1349924D01*
X1361924Y970204D01*
X1576776Y192142D02*
X1626378D01*
X4695444Y899474D02*
Y924626D01*
Y899474D02*
X4711924Y882994D01*
X4779924D01*
X4795924Y898994D01*
X4834924D01*
X4845924Y887994D01*
Y803380D02*
Y887994D01*
Y803380D02*
X4909924Y739380D01*
Y690608D02*
Y739380D01*
X4856424Y637108D02*
X4909924Y690608D01*
X4856424Y566494D02*
Y637108D01*
Y566494D02*
X4898924Y523994D01*
Y181994D02*
Y523994D01*
Y181994D02*
X4937924Y142994D01*
Y55994D02*
Y142994D01*
X4893924Y11994D02*
X4937924Y55994D01*
X4144924Y11994D02*
X4893924D01*
X4100924Y55994D02*
X4144924Y11994D01*
X4100924Y55994D02*
Y207994D01*
X4432924Y539994D01*
Y656368D01*
X4343924Y665558D02*
X4432924Y656368D01*
X4300924Y708558D02*
X4343924Y665558D01*
X1626378Y922540D02*
Y925000D01*
Y922540D02*
X1649924Y898994D01*
X1827924D01*
X1890924Y961994D01*
Y999994D01*
X1868924Y1021994D02*
X1890924Y999994D01*
X1719924Y1021994D02*
X1868924D01*
X1521924Y721994D02*
X1541924Y741994D01*
Y747610D01*
X1403540Y885994D02*
X1541924Y747610D01*
X1351954Y885994D02*
X1403540D01*
X1306924Y931024D02*
X1351954Y885994D01*
X1278780Y931024D02*
X1306924D01*
X3534924Y1729994D02*
Y2256994D01*
X3522924Y1717994D02*
X3534924Y1729994D01*
X3522924Y1515316D02*
Y1717994D01*
Y1515316D02*
X3551382D01*
X3823362Y2852556D02*
X3952222D01*
X3564830Y2860880D02*
Y2905096D01*
X3584588D02*
X3624100Y2944608D01*
X4503354D01*
X4084726Y3021796D02*
X4131938D01*
X4059538Y2996608D02*
X4084726Y3021796D01*
X3731716Y2996608D02*
X4059538D01*
X3714830Y3013494D02*
X3731716Y2996608D01*
X3714830Y3013494D02*
Y3053794D01*
X3614830D02*
Y3106088D01*
X3585924Y3134994D02*
X3614830Y3106088D01*
X4445924Y2677994D02*
X4509874Y2614044D01*
X4586204D01*
X4047236Y3137994D02*
X4131938Y3053292D01*
X3669924Y3137994D02*
X4047236D01*
X3642924Y3110994D02*
X3669924Y3137994D01*
X3642924Y3011494D02*
Y3110994D01*
X3623924Y2992494D02*
X3642924Y3011494D01*
X3599424Y2992494D02*
X3623924D01*
X5210120Y3116994D02*
X5307286Y3019828D01*
X4998924Y3116994D02*
X5210120D01*
X4852538Y2970608D02*
X4998924Y3116994D01*
X3577538Y2970608D02*
X4852538D01*
X5342610Y2788680D02*
Y3019936D01*
X3311986Y2757056D02*
X3316924Y2761994D01*
X3311986Y2684388D02*
Y2757056D01*
X4801204Y2576564D02*
X5149494D01*
X5333110Y2779180D02*
X5342610Y2769680D01*
X5307286Y3055260D02*
X5342610Y3019936D01*
X3598924Y2860880D02*
X3614830D01*
X3575924Y2803664D02*
X3598924Y2826664D01*
X4865538Y2957608D02*
X4982924Y3074994D01*
X5091924D01*
Y2951994D02*
Y3074994D01*
X5080418Y2940488D02*
X5091924Y2951994D01*
X5080418Y2867038D02*
Y2940488D01*
X2722832Y2780116D02*
X2780924D01*
Y2711994D02*
Y2780116D01*
X2770924Y2701994D02*
X2780924Y2711994D01*
X2665616Y2701994D02*
X2770924D01*
X2665616Y2657994D02*
Y2701994D01*
Y2657994D02*
X2781924Y2650994D01*
X2883924Y2548994D01*
X3627924D02*
X3953778D01*
X3972778Y2567994D01*
X2915746Y2730116D02*
X3015046D01*
X3849924Y3055260D02*
X3899230D01*
X5252458Y2806666D02*
X5310782Y2864990D01*
X4873854Y2806666D02*
X5252458D01*
X4857930Y2822590D02*
X4873854Y2806666D01*
X5654768Y1069150D02*
X5685078D01*
X5624706Y1099212D02*
X5654768Y1069150D01*
X5624706Y1099212D02*
Y1250584D01*
X5704788D01*
X5726198Y1271994D01*
Y1347102D01*
X5971614Y1592518D01*
Y1765826D01*
X5383924Y1145920D02*
X5456732D01*
X5374924Y1032994D02*
X5383924Y1145920D01*
X6123924Y1009994D02*
Y1129994D01*
X6142924Y1148994D01*
X6159924D01*
X6196924Y1111994D01*
X6239388Y1099660D01*
X7152496Y1399190D02*
Y1599190D01*
X7052496Y1299190D02*
X7152496Y1399190D01*
X5997204Y1424714D02*
Y1765826D01*
Y1424714D02*
X6135924Y1285994D01*
X6235924D01*
X6288924Y1338994D01*
Y1428994D01*
X7252496Y1399190D02*
Y1599190D01*
X7152496Y1299190D02*
X7252496Y1399190D01*
X6669472Y2200432D02*
X6682260D01*
Y2103506D02*
X6700924Y2084842D01*
X4679924Y1614994D02*
Y1783994D01*
X4721682Y1825752D01*
X4760266D01*
X4989924Y1800160D02*
X5000266D01*
X5936924Y967994D02*
X6146924D01*
X6162924Y983994D01*
Y1024480D01*
X6186924Y1048480D01*
X6239388D01*
X3057794Y1936094D02*
X3108824D01*
X4910924Y1837994D02*
X4949862Y1876932D01*
X5000266D01*
X2398924Y1989994D02*
X2439924D01*
X2384924Y1975994D02*
X2398924Y1989994D01*
X2403924Y1764994D02*
Y1917994D01*
X2167924Y1757994D02*
X2207924D01*
X2153924Y1743994D02*
X2167924Y1757994D01*
X2153924Y1703994D02*
Y1743994D01*
X6211924Y1318994D02*
X6235924Y1342994D01*
X6160000Y1099994D02*
X6185924Y1074070D01*
X6239388D01*
X6163924Y2226024D02*
X6206212D01*
X6163924Y2156994D02*
Y2226024D01*
Y2156994D02*
X6191924Y2128994D01*
Y2054994D02*
Y2128994D01*
Y2054994D02*
X6235924Y2010994D01*
Y1929994D02*
X6260924Y1904994D01*
X5896490Y2379566D02*
X5981802D01*
Y2353976D02*
X6015924D01*
X6023924Y2361976D01*
Y2450994D01*
X6081424Y2508494D01*
X6321906D01*
X6429924Y2400476D01*
Y2379566D02*
X6445062D01*
X5503780Y2180748D02*
X5517142D01*
X5551388Y2214994D01*
X5613808D01*
X5681924Y2283110D01*
X5726220D01*
X4536642Y914580D02*
X4639096D01*
X5912924Y1188994D02*
X5925954Y1202024D01*
X6014978D01*
X3568924Y941574D02*
X3571606D01*
X3568924Y831994D02*
X3607924Y792994D01*
Y680994D02*
Y792994D01*
Y680994D02*
X3639924Y648994D01*
X3822312D01*
X4281924Y1108606D01*
X4382312D01*
X4448386Y1042532D01*
X4536642D01*
X2509924Y956666D02*
X2510474D01*
X2509924Y928994D02*
X2550924Y887994D01*
X3528924Y1079994D02*
Y1135994D01*
Y1079994D02*
X3539392Y1069526D01*
X3571606D01*
X2486924Y1961684D02*
X2538196D01*
X2445614Y2002994D02*
X2486924Y1961684D01*
X2391924Y2002994D02*
X2445614D01*
X2371924Y1982994D02*
X2391924Y2002994D01*
X2371924Y1904994D02*
X2390924Y1885994D01*
Y1847994D02*
Y1885994D01*
X2380924Y1837994D02*
X2390924Y1847994D01*
X2316924Y1837994D02*
X2380924D01*
X2931614Y1961684D02*
X2967924Y1997994D01*
X2829448Y1961684D02*
X2931614D01*
X3123702Y1549994D02*
Y1573404D01*
X3033924Y1549994D02*
X3123702D01*
X2833338Y1635408D02*
Y1647514D01*
X2479924Y1007846D02*
X2510474D01*
X2468924Y996846D02*
X2479924Y1007846D01*
X2468924Y848994D02*
Y996846D01*
Y848994D02*
X2484924Y832994D01*
X3000924D02*
X3304924Y1136994D01*
X3447924D01*
X3492924Y1043756D02*
Y1091994D01*
Y1043756D02*
X3543924Y992756D01*
X3571606D01*
X1468612Y956614D02*
X1501220D01*
X1468612Y889994D02*
Y956614D01*
Y889994D02*
X1499756D01*
X1522340Y867410D01*
X6028954Y2226024D02*
X6043924Y2259994D01*
X5939000Y1074070D02*
X6014978D01*
X5000266Y1851342D02*
X5045924D01*
Y1694994D02*
Y1851342D01*
X5044924Y1693994D02*
X5045924Y1694994D01*
X5562204Y1719994D02*
Y1773780D01*
X2434924Y1023994D02*
X2444366Y1033436D01*
X2434924Y1015994D02*
Y1023994D01*
X1791924Y983994D02*
X1857924D01*
X1759924Y951994D02*
X1791924Y983994D01*
X1574924Y951994D02*
X1759924D01*
X1544714Y982204D02*
X1574924Y951994D01*
X1501220Y982204D02*
X1544714D01*
X4160924Y1923378D02*
X4174856D01*
X3212586Y1306428D02*
X3339358D01*
X4821924Y1953704D02*
X4840214Y1971994D01*
X4760266Y1953704D02*
X4821924D01*
X4264924Y2259994D02*
Y2423994D01*
X4126204Y2562714D02*
X4264924Y2423994D01*
X4126204Y2562714D02*
Y2577156D01*
X1912402Y1115472D02*
X1954924Y1157994D01*
X3904924Y2887994D02*
X4117058D01*
X4152496Y2852556D01*
X4180618D01*
X3899230Y3019828D02*
X3935924D01*
X3946924Y3030828D01*
X4679924Y2844994D02*
X4797924D01*
X5008190Y3055260D01*
X5072610D01*
X3946924Y3030828D02*
X3951924D01*
X2666802Y2830116D02*
Y2883994D01*
Y2830116D02*
X2722832D01*
X5503780Y2359882D02*
X5578812D01*
X5661924Y2442994D01*
Y2718994D01*
X5629924Y2750994D02*
X5661924Y2718994D01*
X5629924Y2750994D02*
Y2799994D01*
X5609924Y2450994D02*
X5648924Y2489994D01*
Y2533994D01*
X5639924Y2542994D02*
X5648924Y2533994D01*
X5394924Y2542994D02*
X5639924D01*
X5339924Y2487994D02*
X5394924Y2542994D01*
X5339924Y2270994D02*
Y2487994D01*
Y2270994D02*
X5404580Y2206338D01*
X5503780D01*
X2536324Y2412994D02*
X2588924D01*
X2494324Y2454994D02*
X2536324Y2412994D01*
X2132924Y2727994D02*
X2155816Y2705102D01*
X5080418Y2837510D02*
X5102784D01*
X5189924Y2924650D01*
Y3068994D01*
X2032924Y3052994D02*
Y3127994D01*
X2016924Y3143994D02*
X2032924Y3127994D01*
X1961424Y3143994D02*
X2016924D01*
X1936924Y3119494D02*
X1961424Y3143994D01*
X1936924Y3010492D02*
Y3119494D01*
X2022924Y3156994D02*
X2055924Y3123994D01*
X1784924Y3156994D02*
X2022924D01*
X4481924Y2839994D02*
X4484408Y2837510D01*
X2474638Y2813082D02*
Y2852280D01*
X2436924Y2889994D02*
X2474638Y2852280D01*
X4366614Y3022780D02*
X4422138D01*
X1408924Y1675994D02*
Y1739994D01*
X1200000Y1347914D02*
Y1467070D01*
X5592434Y2171482D02*
X5652880Y2231928D01*
X5536614Y1773780D02*
Y1806994D01*
X5751924Y1973994D02*
Y2065994D01*
X5587796Y1773780D02*
Y1809866D01*
X1278780Y1033386D02*
X1329960D01*
X1126924Y493994D02*
Y901994D01*
Y493994D02*
X1184490Y436428D01*
X1626378D01*
X1278780Y1058976D02*
X1296924D01*
X1183924Y827108D02*
X1203038Y807994D01*
Y694458D02*
Y807994D01*
Y694458D02*
X1338924Y558572D01*
X1626378D01*
X5411924Y2308700D02*
X5503780D01*
X5365924Y2354700D02*
X5411924Y2308700D01*
X5365924Y2354700D02*
Y2446994D01*
X5390924Y2471994D01*
X5550924D01*
X3952222Y2793500D02*
X3991418D01*
X4081924Y2702994D01*
X3578924Y2464994D02*
Y2551994D01*
X3631220Y2604290D01*
X3649240D01*
X3681536Y2571994D01*
X3833924D01*
X3851212Y2589282D01*
X3919628D01*
X4366614Y3052308D02*
Y3069994D01*
X4374614Y3077994D01*
X4779768D01*
X4837934Y3019828D01*
X3664830Y3000088D02*
Y3053794D01*
Y3000088D02*
X3681310Y2983608D01*
X4444038D01*
X4460424Y2999994D01*
Y3031994D01*
X4422424Y3069994D02*
X4460424Y3031994D01*
X4366614Y3069994D02*
X4422424D01*
X3212586Y1345798D02*
X3286728D01*
X5500000Y3053994D02*
Y3094174D01*
Y3053994D02*
X5574710Y2979284D01*
X5847078D01*
X5881826Y3014032D01*
X2691378Y1074540D02*
Y1105000D01*
Y1074540D02*
X2711924Y1053994D01*
X2768924D01*
X2806924Y1015994D01*
Y935994D02*
Y1015994D01*
X2790924Y919994D02*
X2806924Y935994D01*
X2699924Y919994D02*
X2790924D01*
X2635924Y855994D02*
X2699924Y919994D01*
X2635924Y323140D02*
Y855994D01*
X2483538Y170754D02*
X2635924Y323140D01*
X4742688Y582994D02*
Y646758D01*
X4790924Y694994D01*
Y714994D01*
X7367496Y1117694D02*
X7610878Y1361076D01*
Y1925404D01*
X6468436Y2119994D02*
X6493442Y2145000D01*
X6411924Y2119994D02*
X6468436D01*
X6366924Y2164994D02*
X6411924Y2119994D01*
X6366924Y2164994D02*
Y2374994D01*
X6327924Y2413994D02*
X6366924Y2374994D01*
X6167924Y2413994D02*
X6327924D01*
X6127924Y2373994D02*
X6167924Y2413994D01*
X5946024Y1994174D02*
Y2113628D01*
X7352496Y1195686D02*
Y1299190D01*
Y1195686D02*
X7367496Y1180686D01*
X4305372Y1497866D02*
X4551816Y1251422D01*
X4305372Y1497866D02*
Y1658944D01*
X2261924Y2089638D02*
X2309850D01*
X2499654Y1146618D02*
Y1201430D01*
Y1146618D02*
X2510474Y1135798D01*
X1501220Y1084566D02*
X1566062D01*
X1590000Y1108504D01*
X4791010Y2384568D02*
Y2456994D01*
X3551382Y1572994D02*
Y1574372D01*
X3567068Y1572994D02*
X3579068Y1560994D01*
Y1486646D02*
Y1560994D01*
X3517272Y1486646D02*
X3579068D01*
X3498924Y1504994D02*
X3517272Y1486646D01*
X3498924Y1504994D02*
Y1817994D01*
X6375068Y1060248D02*
X6409924Y1025392D01*
Y1023994D02*
Y1025392D01*
X5796924Y1968420D02*
Y1977994D01*
X5715000Y1886496D02*
X5796924Y1968420D01*
X1278780Y1007796D02*
X1390948D01*
X1421924Y976820D01*
Y953994D02*
Y976820D01*
X1521924Y315994D02*
X1523632Y314286D01*
X1626378D01*
X5562204Y1964106D02*
Y1996220D01*
X5457540Y1859442D02*
X5562204Y1964106D01*
X5457540Y1583378D02*
Y1859442D01*
Y1583378D02*
X5546706Y1494212D01*
Y676212D02*
Y1494212D01*
Y676212D02*
X5563586Y659332D01*
Y302392D02*
Y659332D01*
X5880158Y302392D02*
X5957924D01*
X5569924Y2048994D02*
X5587796Y2031122D01*
Y1996220D02*
Y2031122D01*
X5503780Y2257520D02*
X5532392D01*
X5594400Y2319528D01*
Y2357084D01*
X5674924Y2437608D01*
Y2747994D01*
X5672924Y2749994D02*
X5674924Y2747994D01*
X5672924Y2749994D02*
Y2919994D01*
X2772586Y1306428D02*
X2837490D01*
X4058924Y1744994D02*
Y1974994D01*
X4084078Y2000148D02*
X4174856D01*
X2723622Y933994D02*
Y960000D01*
X2643924Y933994D02*
X2723622D01*
X2577924Y867994D02*
X2643924Y933994D01*
X2577924Y727994D02*
Y867994D01*
X2537924Y687994D02*
X2577924Y727994D01*
X2304924Y687994D02*
X2537924D01*
X2234538Y758380D02*
X2304924Y687994D01*
X2234538Y758380D02*
Y809140D01*
X2166924Y876754D02*
X2234538Y809140D01*
X2166924Y876754D02*
Y983994D01*
X2179940Y997010D01*
X2243170D01*
X2257924Y982256D01*
X2288034D01*
X3528924Y1241440D02*
Y1350994D01*
Y1241440D02*
X3553042Y1217322D01*
X5000266Y1953704D02*
X5011924D01*
X5598706Y1029406D02*
X5629410Y998702D01*
X5598706Y1029406D02*
Y1445776D01*
X5664566Y1511636D01*
Y1773780D01*
X6868610Y3008282D02*
X6906924Y3046596D01*
Y3127994D01*
X6887924Y3146994D02*
X6906924Y3127994D01*
X6629924Y3146994D02*
X6887924D01*
X6368924Y2885994D02*
X6629924Y3146994D01*
X6368924Y2807994D02*
Y2885994D01*
X6336924Y2775994D02*
X6368924Y2807994D01*
X5778924Y2775994D02*
X6336924D01*
X5746924Y2743994D02*
X5778924Y2775994D01*
X5746924Y2457290D02*
Y2743994D01*
X5687924Y2342290D02*
Y2398290D01*
Y2342290D02*
X5695924Y2334290D01*
X5726220D01*
X4530728Y103804D02*
X4721848D01*
X4481924Y152608D02*
X4530728Y103804D01*
X4354924Y991352D02*
X4387924Y958352D01*
X4314202Y991352D02*
X4354924D01*
X4742688Y810748D02*
X4754924D01*
X5652880Y2231928D02*
X5726220D01*
X4932924Y847994D02*
Y1138994D01*
X4925924Y840994D02*
X4932924Y847994D01*
X4925924Y772380D02*
Y840994D01*
Y772380D02*
X4935924Y762380D01*
Y632994D02*
Y762380D01*
X4905924Y602994D02*
X4935924Y632994D01*
X3447924Y1136994D02*
X3492924Y1091994D01*
X5903924Y1038994D02*
X5939000Y1074070D01*
X4314202Y1016942D02*
X4359976D01*
X4400924Y975994D01*
X4598924Y578994D02*
X4695444Y675514D01*
Y696872D01*
X1247496Y1084566D02*
X1278780D01*
X1239924Y1076994D02*
X1247496Y1084566D01*
X1196924Y918994D02*
X1239924Y961994D01*
X1196924Y846994D02*
Y918994D01*
Y846994D02*
X1216038Y827880D01*
Y752880D02*
Y827880D01*
Y752880D02*
X1239924Y728994D01*
X1287924D01*
X1303924Y744994D01*
Y793994D01*
X1293924Y803994D02*
X1303924Y793994D01*
X1293924Y803994D02*
Y855994D01*
X1310924Y872994D01*
X1397924D01*
X1412924Y857994D01*
Y725994D02*
Y857994D01*
Y725994D02*
X1463924Y674994D01*
X1589204D01*
X1594924Y680714D01*
X1626378D01*
X1167924Y1173994D02*
Y1261994D01*
X1159924Y1269994D02*
X1167924Y1261994D01*
X1137798Y1269994D02*
X1159924D01*
X1112894Y1245090D02*
X1137798Y1269994D01*
X1530062Y802856D02*
X1626378D01*
X1454924Y877994D02*
X1530062Y802856D01*
X1454924Y877994D02*
Y1049976D01*
X1463924Y1058976D01*
X1501220D01*
X1630000Y71994D02*
Y90000D01*
Y71994D02*
X1638000Y63994D01*
X1702924D01*
X1710924Y71994D01*
Y724994D01*
X1662924Y772994D02*
X1710924Y724994D01*
X1540538Y772994D02*
X1662924D01*
X1394538Y918994D02*
X1540538Y772994D01*
X1341544Y918994D02*
X1394538D01*
X1303924Y956614D02*
X1341544Y918994D01*
X1278780Y956614D02*
X1303924D01*
X1501220Y905432D02*
X1572486D01*
X1572924Y904994D01*
Y853994D02*
Y904994D01*
Y853994D02*
X1595924Y830994D01*
X1783924D01*
X2127924Y1174994D01*
X2363924D01*
X2454300Y1084618D01*
X2510474D01*
X1677244Y109684D02*
X1697924Y130364D01*
Y709432D01*
X1575678D02*
X1697924D01*
X1554924Y688678D02*
X1575678Y709432D01*
X1503924Y688678D02*
X1554924D01*
X1465038Y727564D02*
X1503924Y688678D01*
X1465038Y727564D02*
Y770754D01*
X6407924Y2226024D02*
X6445062D01*
X6392924Y2241024D02*
X6407924Y2226024D01*
X6392924Y2241024D02*
Y2401994D01*
X6354924Y2439994D02*
X6392924Y2401994D01*
X6098924Y2439994D02*
X6354924D01*
X6050924Y2391994D02*
X6098924Y2439994D01*
X6028954Y2226024D02*
X6050924Y2247994D01*
X5981802Y2226024D02*
X6028954D01*
X7120000Y2332814D02*
X7165104D01*
X7219924Y2277994D01*
X7251924D01*
X5656400Y2308700D02*
X5726220D01*
X5638976Y1968046D02*
Y1996220D01*
X6303924Y938994D02*
Y1100994D01*
X6261924Y896994D02*
X6303924Y938994D01*
X6261924Y496994D02*
Y896994D01*
Y496994D02*
X6295924Y462994D01*
X6350322D01*
X6510924Y302392D01*
X6513302D01*
X6744386D02*
Y467456D01*
X6776924Y499994D01*
Y803994D01*
X5664566Y1932636D02*
Y1996220D01*
X5613386D02*
Y2013994D01*
X5644386Y2044994D01*
X5658924D01*
X5679924Y2023994D01*
Y1928956D02*
Y2023994D01*
X5470540Y1589378D02*
Y1806944D01*
Y1589378D02*
X5559706Y1500212D01*
Y689212D02*
Y1500212D01*
Y689212D02*
X5905924Y342994D01*
X6183924D01*
X6196730Y330188D01*
Y302392D02*
Y330188D01*
X5725924Y2180748D02*
X5726220D01*
X5715924Y2157994D02*
X5725924Y2167994D01*
X5542924Y2157994D02*
X5715924D01*
X5710924Y1860994D02*
X5775924D01*
X5613386Y1773780D02*
Y1799188D01*
X6803024Y936894D02*
X6962336Y777582D01*
X6803024Y936894D02*
Y1708508D01*
X6351924Y2159608D02*
X6803024Y1708508D01*
X6351924Y2159608D02*
Y2292994D01*
X6316532Y2328386D02*
X6351924Y2292994D01*
X6206212Y2328386D02*
X6316532D01*
X6022796Y1943994D02*
Y1994174D01*
X5503780Y2231928D02*
X5559924D01*
X5607400Y2279404D01*
X5705924Y2445994D02*
Y2782994D01*
X5895924Y1227614D02*
X6014978D01*
X5879924Y1211614D02*
X5895924Y1227614D01*
X5879924Y1136994D02*
Y1211614D01*
X6008994Y2535994D02*
X6463924D01*
X6511924Y2487994D01*
Y2375994D02*
Y2487994D01*
X6489906Y2353976D02*
X6511924Y2375994D01*
X6445062Y2353976D02*
X6489906D01*
X6135924Y1907580D02*
X6180000Y1863504D01*
X6135924Y1907580D02*
Y2029464D01*
X6030388Y2135000D02*
X6135924Y2029464D01*
X6099566Y1994174D02*
Y2039994D01*
X6091944Y2047616D02*
X6099566Y2039994D01*
X6054780Y2047616D02*
X6091944D01*
X5967396Y2135000D02*
X6054780Y2047616D01*
X2190716Y1110208D02*
X2288034D01*
X2140924Y1060416D02*
X2190716Y1110208D01*
X2140924Y751994D02*
Y1060416D01*
Y751994D02*
X2321924Y570994D01*
Y107994D02*
Y570994D01*
Y107994D02*
X2339736Y90182D01*
X2644112D01*
X2728622Y174692D01*
Y235000D01*
X2681378Y153928D02*
Y235000D01*
X2631590Y104140D02*
X2681378Y153928D01*
X2392778Y104140D02*
X2631590D01*
X2344924Y151994D02*
X2392778Y104140D01*
X2344924Y151994D02*
Y609368D01*
X2183538Y770754D02*
X2344924Y609368D01*
X2269924Y1007846D02*
X2288034D01*
X2238776Y1038994D02*
X2269924Y1007846D01*
X2203538Y1038994D02*
X2238776D01*
X2153924Y989380D02*
X2203538Y1038994D01*
X2153924Y857994D02*
Y989380D01*
Y857994D02*
X2221538Y790380D01*
Y752994D02*
Y790380D01*
Y752994D02*
X2441924Y532608D01*
Y151994D02*
Y532608D01*
Y151994D02*
X2461924Y131994D01*
X2639924D01*
X2651924Y143994D01*
Y847994D01*
X2659924Y855994D01*
X2725622D01*
X2733622Y847994D01*
Y830000D02*
Y847994D01*
X3507924Y1068994D02*
X3532982Y1043936D01*
X3571606D01*
Y1018346D02*
X3601572D01*
X3668924Y950994D01*
Y914994D02*
Y950994D01*
X3606924Y852994D02*
X3668924Y914994D01*
X2444366Y1033436D02*
X2510474D01*
X4586204Y2584518D02*
X4588448D01*
X4603924Y2599994D01*
Y2739994D01*
X2529924Y2723994D02*
Y2739994D01*
X2494324Y2775594D02*
X2529924Y2739994D01*
X2494324Y2775594D02*
Y2813082D01*
X2514008Y2522994D02*
X2534008Y2502994D01*
X2514008Y2522994D02*
Y2639854D01*
X6011566Y2986292D02*
X6039306Y3014032D01*
X6011566Y2982674D02*
Y2986292D01*
X5991924Y2963032D02*
X6011566Y2982674D01*
X5515962Y2963032D02*
X5991924D01*
X5495000Y2983994D02*
X5515962Y2963032D01*
X5495000Y2983994D02*
Y2994174D01*
X5630000D02*
Y2995994D01*
X5786924D02*
X5843924Y3052994D01*
X5918826D01*
X5919826Y3051994D01*
Y3000130D02*
Y3051994D01*
Y3000130D02*
X5943924Y2976032D01*
X5983924D01*
X5998566Y2990674D01*
Y3031994D01*
X6019566Y3052994D01*
X6079084D01*
X6118046Y3014032D01*
X1673622Y654994D02*
Y680714D01*
X1399924Y654994D02*
X1673622D01*
X1326924Y727994D02*
X1399924Y654994D01*
X1326924Y727994D02*
Y836994D01*
X1100000Y1272070D02*
Y1750000D01*
X1011000Y1183070D02*
X1100000Y1272070D01*
X1011000Y1166070D02*
Y1183070D01*
X950924Y1105994D02*
X1011000Y1166070D01*
X950924Y1053268D02*
Y1105994D01*
Y1053268D02*
X970000D01*
X2082924Y1697994D02*
X2108924Y1671994D01*
X4930442Y302392D02*
X4970322D01*
X5517104Y849174D01*
Y1277994D01*
X5419924Y1375174D02*
X5517104Y1277994D01*
X5419924Y1375174D02*
Y1864994D01*
X5511024Y1956094D01*
Y1996220D01*
X5247014Y302392D02*
Y532084D01*
X5530104Y815174D01*
Y1303814D01*
X5432924Y1400994D02*
X5530104Y1303814D01*
X5432924Y1400994D02*
Y1856994D01*
X5536614Y1960684D01*
Y1996220D01*
X5920432Y1945994D02*
Y1994174D01*
X5971614Y1945994D02*
Y1994174D01*
X3475682Y2940650D02*
X3502204D01*
X3564830Y3003276D01*
Y3053794D01*
X2704924Y2033994D02*
X2772824Y1966094D01*
Y1947194D02*
Y1966094D01*
X2783924Y1936094D02*
X2829448D01*
X2037924Y2740994D02*
X2151924D01*
X2175502Y2717416D01*
X2177826Y1135798D02*
X2288034D01*
X2044924Y1002896D02*
X2177826Y1135798D01*
X2044924Y653994D02*
Y1002896D01*
Y653994D02*
X2144924Y553994D01*
Y87994D02*
Y553994D01*
Y87994D02*
X2181924Y50994D01*
X2733622D01*
Y80000D01*
X6647924Y2118994D02*
X6648924Y2117994D01*
X6647924Y2118994D02*
Y2166994D01*
X6622924Y2191994D02*
X6647924Y2166994D01*
X6622924Y2191994D02*
Y2217024D01*
X6631924Y2226024D01*
X6669472D01*
X4603258Y3055260D02*
X4647658D01*
X4701924Y3000994D01*
X4856924D01*
Y3079994D01*
X4767924Y3168994D02*
X4856924Y3079994D01*
X2796924Y3168994D02*
X4767924D01*
X2755924Y3127994D02*
X2796924Y3168994D01*
X2755924Y3019382D02*
Y3127994D01*
X2855802Y2788238D02*
X2863924Y2780116D01*
X2915746D01*
X4560590Y3019828D02*
X4603258D01*
X4131938Y3021796D02*
X4213136Y3102994D01*
X4790200D01*
X4837934Y3055260D01*
X1673622Y802856D02*
X1720062D01*
X1730924Y791994D01*
Y54994D02*
Y791994D01*
X1719924Y43994D02*
X1730924Y54994D01*
X1591798Y43994D02*
X1719924D01*
X1465038Y170754D02*
X1591798Y43994D01*
X1455184Y1519348D02*
X1488924Y1553088D01*
Y1772192D01*
X1446598Y1814518D02*
X1488924Y1772192D01*
X949390Y964528D02*
X975000D01*
X937924Y975994D02*
X949390Y964528D01*
X937924Y975994D02*
Y1115918D01*
X998000Y1175994D01*
Y1199070D01*
X1050924Y1251994D01*
Y1511994D01*
X1038924Y1523994D02*
X1050924Y1511994D01*
X2186924Y1724994D02*
X2237606Y1674312D01*
X1424924Y1603262D02*
X1455184Y1633522D01*
X1424924Y1487994D02*
Y1603262D01*
Y1487994D02*
X1425924Y1486994D01*
X1900924D01*
Y1663994D01*
X1890606Y1674312D02*
X1900924Y1663994D01*
X1890606Y1674312D02*
Y1814518D01*
X6493442Y2145000D02*
X6901924Y1736518D01*
Y1214994D02*
Y1736518D01*
Y1214994D02*
X6999224Y1117694D01*
X7367496D01*
X5664566Y1773780D02*
Y1781994D01*
X5673490D02*
X5715000Y1823504D01*
X2175502Y2609416D02*
Y2638240D01*
X2440924Y2676994D02*
X2514008D01*
Y2639854D02*
Y2676994D01*
X4059928Y1641994D02*
Y1654516D01*
Y1641994D02*
X4107928Y1593994D01*
X2915924Y1815994D02*
Y1884684D01*
X2992924Y1961684D01*
X3057794D01*
X4143924Y1948968D02*
X4174856D01*
X4125924Y1930968D02*
X4143924Y1948968D01*
X4058924Y1974994D02*
X4084078Y2000148D01*
X4947924Y1180994D02*
Y1839994D01*
X4959272Y1851342D01*
X5000266D01*
X4536642Y965760D02*
X4759690D01*
X5356924Y2117994D02*
X5399924Y2160994D01*
X5522924D01*
X5533412Y2171482D02*
X5592434D01*
X6669472Y2251614D02*
X6802544D01*
X6814924Y2263994D01*
Y2357994D01*
X7406924Y2949994D01*
Y3069968D01*
X7368610Y3108282D02*
X7406924Y3069968D01*
X2308924Y1639994D02*
X2317652Y1648722D01*
X2346404D01*
X5938590Y1099660D02*
X6014978D01*
X5802924Y963994D02*
X5938590Y1099660D01*
X5802924Y816994D02*
Y963994D01*
X5404924Y816994D02*
Y936994D01*
X5504104Y1036174D01*
Y1109428D01*
X5493202Y1120330D02*
X5504104Y1109428D01*
X5456732Y1120330D02*
X5493202D01*
X5685078Y1069150D02*
X5861822D01*
X5917924Y1125252D01*
X6014978D01*
X5062924Y2867038D02*
X5080418D01*
X5062924Y2819666D02*
Y2867038D01*
Y2819666D02*
X5158924D01*
X5223076Y2883818D01*
X5329610D01*
Y2848386D02*
Y2883818D01*
X5310782Y2829558D02*
X5329610Y2848386D01*
X3709976Y924626D02*
Y1001046D01*
X3725924Y1016994D01*
X3295924Y979994D02*
X3308754Y967164D01*
X3349166D01*
X4912924Y95376D02*
X4920590D01*
X4841860Y189994D02*
X4912924Y118930D01*
X4841860Y189994D02*
Y302392D01*
X4760266Y1928114D02*
X4799924D01*
X4807804Y1935994D01*
X4855924D01*
X4873924Y1917994D01*
Y1816994D02*
Y1917994D01*
Y1816994D02*
X4887924Y1802994D01*
Y1120994D02*
Y1802994D01*
X4758282Y991352D02*
X4887924Y1120994D01*
X4536642Y991352D02*
X4758282D01*
X3863924Y300000D02*
X3881378D01*
X3851924Y288000D02*
X3863924Y300000D01*
X3851924Y55994D02*
Y288000D01*
X3813924Y17994D02*
X3851924Y55994D01*
X3115924Y17994D02*
X3813924D01*
X3077924Y55994D02*
X3115924Y17994D01*
X3077924Y55994D02*
Y873994D01*
X3222276Y1018346D01*
X3349166D01*
X3696378Y810000D02*
Y854448D01*
X3719924Y877994D01*
X3475924Y988994D02*
X3507660Y957258D01*
X3475924Y988994D02*
Y1072994D01*
X3428210Y1120708D02*
X3475924Y1072994D01*
X3349166Y1120708D02*
X3428210D01*
X2083538Y55994D02*
Y170754D01*
Y55994D02*
X2113538Y25994D01*
X2727924D01*
X2757924Y55994D01*
Y272448D01*
X2676378Y353994D02*
X2757924Y272448D01*
X2676378Y353994D02*
Y395000D01*
X4631924Y155994D02*
Y586990D01*
X4741806Y696872D01*
X4742688D01*
X4769092Y79994D02*
Y103804D01*
X4761092Y71994D02*
X4769092Y79994D01*
X4537684Y71994D02*
X4761092D01*
X4438924Y170754D02*
X4537684Y71994D01*
X2510474Y1110208D02*
X2549924D01*
X2591710Y1151994D01*
X2714622D01*
X2738622Y1127994D01*
Y1105000D02*
Y1127994D01*
X5500000Y3114994D02*
Y3115826D01*
X5586000Y3114994D02*
X5630000Y3070994D01*
Y3099174D02*
Y3104994D01*
X5616924D02*
Y3142994D01*
X5895924D01*
X5921924Y3116994D01*
Y3077304D02*
Y3116994D01*
Y3077304D02*
X5932826Y3066402D01*
Y3041772D02*
Y3066402D01*
Y3041772D02*
X5960566Y3014032D01*
X5630000Y3118936D02*
Y3120826D01*
X5643000Y3065994D02*
Y3118936D01*
X5630000Y3052994D02*
X5643000Y3065994D01*
X5630000Y3015826D02*
Y3052994D01*
X1165038Y170754D02*
X1271976Y277692D01*
X1655924D01*
X1673622Y295390D01*
Y314286D01*
X2676378Y960000D02*
Y983994D01*
X2687832Y995448D01*
X2733470D01*
X2773924Y954994D01*
X3758924Y924626D02*
X3800924Y882626D01*
X3757220Y924626D02*
X3758924D01*
X4524924Y865994D02*
X4812924D01*
X4503924Y886994D02*
X4524924Y865994D01*
X4503924Y886994D02*
Y983352D01*
X4511924Y991352D01*
X4536642D01*
X2237606Y1674312D02*
X2346404D01*
X4306924Y2360766D02*
X4377156D01*
X975000Y904994D02*
Y905472D01*
X924924Y931994D02*
X951924Y904994D01*
X924924Y931994D02*
Y1303994D01*
X968924Y1347994D01*
X1000000Y1347914D02*
Y1347994D01*
X6090924Y2195536D02*
Y2319994D01*
X4854924Y1767994D02*
Y1815994D01*
X4819576Y1851342D02*
X4854924Y1815994D01*
X4760266Y1851342D02*
X4819576D01*
X6073976Y1928046D02*
Y1994174D01*
X2309850Y2012866D02*
X2357924D01*
X3851924Y1965740D02*
X3911924Y2025740D01*
X3946508D01*
X2825460Y2536130D02*
Y2583994D01*
X2674924Y2629994D02*
X2779460D01*
X2652616Y2652302D02*
X2674924Y2629994D01*
X2652616Y2652302D02*
Y2715686D01*
X2667046Y2730116D01*
X2722832D01*
X2723924Y2596994D02*
X2812460D01*
X2825460Y2583994D01*
X4316246Y2139416D02*
Y2139994D01*
X3161986Y2684388D02*
Y2740994D01*
X3061924D02*
X3161986D01*
X3027924Y2706994D02*
X3061924Y2740994D01*
X2847802Y2706994D02*
X3027924D01*
X2820924Y2680116D02*
X2847802Y2706994D01*
X5367924Y2180748D02*
X5503780D01*
X5323924Y2136748D02*
X5367924Y2180748D01*
X5485432Y1967502D02*
Y1996220D01*
X4004282Y2249636D02*
X4095924Y2157994D01*
Y2135314D02*
Y2157994D01*
Y2135314D02*
X4151588D01*
Y2215994D01*
X4101924Y2265658D02*
X4151588Y2215994D01*
X4101924Y2265658D02*
Y2607408D01*
X4105924Y2611408D01*
X4126204D01*
X4192924Y2183994D02*
X4229924Y2146994D01*
X4192924Y2183994D02*
Y2344184D01*
X4167924Y2369184D02*
X4192924Y2344184D01*
X4147378Y2369184D02*
X4167924D01*
X4135924Y2408554D02*
X4147378D01*
X4127924Y2400554D02*
X4135924Y2408554D01*
X4127924Y2291280D02*
Y2400554D01*
Y2291280D02*
X4177588Y2241616D01*
Y2107488D02*
Y2241616D01*
X4161418Y2107488D02*
X4177588D01*
X4141924Y2087994D02*
X4161418Y2107488D01*
X4141924Y2051330D02*
Y2087994D01*
X4857930Y2779994D02*
Y2822590D01*
X3664830Y2918608D02*
X3728310D01*
X3664830Y2860880D02*
Y2918608D01*
X3647532Y575000D02*
X3706378D01*
X3567924Y654608D02*
X3647532Y575000D01*
X3567924Y654608D02*
Y791994D01*
X3412924Y946994D02*
X3567924Y791994D01*
X3412924Y946994D02*
Y1047994D01*
X3391392Y1069526D02*
X3412924Y1047994D01*
X3349166Y1069526D02*
X3391392D01*
X1590000Y1171496D02*
X1663924Y1245420D01*
Y1340994D01*
X4406924Y1268994D02*
X4487488Y1188430D01*
X3716378Y690000D02*
Y743994D01*
X3665924Y794448D02*
X3716378Y743994D01*
X3665924Y794448D02*
Y858994D01*
X3681924Y874994D01*
Y1021118D01*
X3607924Y1095118D02*
X3681924Y1021118D01*
X3571606Y1095118D02*
X3607924D01*
X1673622Y539692D02*
Y558572D01*
X1663924Y529994D02*
X1673622Y539692D01*
X1175924Y529994D02*
X1663924D01*
X1165038Y540880D02*
X1175924Y529994D01*
X1165038Y540880D02*
Y770754D01*
X3695918Y75000D02*
X3716378D01*
X3496536Y274382D02*
X3695918Y75000D01*
X3453780Y274382D02*
X3496536D01*
X3432168Y295994D02*
X3453780Y274382D01*
X3432168Y295994D02*
Y319114D01*
X3454924Y341870D01*
Y831072D01*
X3386924Y899072D02*
X3454924Y831072D01*
X3386924Y899072D02*
Y989756D01*
X3383924Y992756D02*
X3386924Y989756D01*
X3349166Y992756D02*
X3383924D01*
X3763622Y48994D02*
Y75000D01*
X3387924Y48994D02*
X3763622D01*
X3377924Y58994D02*
X3387924Y48994D01*
X3377924Y58994D02*
Y704994D01*
X3388924Y715994D01*
X2833338Y1495408D02*
Y1572710D01*
X2796924Y1458994D02*
X2833338Y1495408D01*
X2012924Y1458994D02*
Y1567486D01*
X2078960Y1633522D01*
X3543924Y1405994D02*
X3576924Y1372994D01*
X3506310Y1405994D02*
X3543924D01*
X3300310Y1611994D02*
X3506310Y1405994D01*
X3141924Y1611994D02*
X3300310D01*
X3129924Y1623994D02*
X3141924Y1611994D01*
X3129924Y1623994D02*
Y1759994D01*
X3095924Y1793994D02*
X3129924Y1759994D01*
X2959924Y1793994D02*
X3095924D01*
X2948924Y1782994D02*
X2959924Y1793994D01*
X2899924Y1782994D02*
X2948924D01*
X2882924Y1799994D02*
X2899924Y1782994D01*
X2882924Y1799994D02*
Y1927994D01*
X2874824Y1936094D02*
X2882924Y1927994D01*
X2829448Y1936094D02*
X2874824D01*
X4025924Y2029994D02*
X4047260Y2051330D01*
X4025924Y1570994D02*
Y2029994D01*
X3288924Y1570994D02*
X3304924D01*
X3098112Y1596994D02*
X3278924D01*
X3098112Y1573404D02*
Y1596994D01*
X3312300Y1703192D02*
X3481232Y1534260D01*
Y1495994D02*
Y1534260D01*
Y1495994D02*
X3503580Y1473646D01*
X3592068D01*
Y1570186D01*
X3580612Y1581642D02*
X3592068Y1570186D01*
X6022796Y1711122D02*
X6095924Y1637994D01*
X6022796Y1711122D02*
Y1765826D01*
X4126204Y2611408D02*
X4189924D01*
X4247658Y2553674D01*
X4742880D01*
X4801204Y2611998D01*
X6374106Y582128D02*
X6411924D01*
X6705924Y288128D01*
Y251994D02*
Y288128D01*
Y251994D02*
X6781924D01*
Y420994D01*
X6819106Y458176D01*
X5341924Y1015994D02*
Y1175994D01*
Y1015994D02*
X5361924Y995994D01*
X5393924D01*
X5410924Y1012994D01*
Y1043558D01*
X5456732D01*
X4397202Y2829558D02*
X4440638Y2872994D01*
X4508968D02*
X4514924Y2867038D01*
X4801204Y2611998D02*
Y2805234D01*
X4857930Y2861960D01*
X4094980Y2793500D02*
X4180618D01*
X4035924Y2852556D02*
X4094980Y2793500D01*
X3952222Y2852556D02*
X4035924D01*
X3867638Y1120708D02*
X3946924Y1199994D01*
X4941804Y1928114D02*
X5000266D01*
X3979924Y1866994D02*
Y2076920D01*
X5443924Y1222692D02*
X5456732D01*
X5377924Y1392994D02*
X5443924Y1326994D01*
X6892924Y2145000D02*
X6893504D01*
X7241840Y2181994D02*
X7508924D01*
X7193382Y2230452D02*
X7241840Y2181994D01*
X7120000Y2230452D02*
X7193382D01*
X6996924Y2307224D02*
X7030514Y2273634D01*
X7079924D01*
X7087924Y2281634D01*
X7056924Y2307224D02*
X7120000D01*
Y2204862D02*
X7154056D01*
X7194924Y2163994D01*
X7387924D01*
X7402924Y2148994D01*
X7756120D01*
X7785958Y2178832D01*
X3641924Y718994D02*
X3671924D01*
X3692628Y698290D01*
Y664282D02*
Y698290D01*
Y664282D02*
X3763622D01*
Y690000D01*
X6113924Y1214994D02*
X6126924D01*
X6096924Y1142994D02*
X6113924Y1159994D01*
X6054772Y1142994D02*
X6096924D01*
X6046924Y1150842D02*
X6054772Y1142994D01*
X6014978Y1150842D02*
X6046924D01*
X6014978Y1176432D02*
X6076924D01*
X2855802Y2754994D02*
X2999924D01*
X2780924Y2680116D02*
X2855802Y2754994D01*
X2722832Y2680116D02*
X2780924D01*
X5015798Y3019828D02*
X5072610D01*
X4857930Y2861960D02*
X5015798Y3019828D01*
X2681698Y80000D02*
X2686378D01*
X2280042Y73876D02*
X2681698D01*
X2233924Y119994D02*
X2280042Y73876D01*
X2233924Y119994D02*
Y620368D01*
X2083538Y770754D02*
X2233924Y620368D01*
X3946508Y2076920D02*
X3963924D01*
Y2194070D02*
X3978282Y2208428D01*
X3917378Y2408554D02*
X3947364D01*
X3870000Y2100000D02*
Y2100070D01*
X3935924Y2165994D01*
X3886924Y2232994D02*
X3935924Y2183994D01*
X3886924Y2440994D02*
X3911924Y2465994D01*
X3920924D01*
X3991282Y2218048D02*
X4013902Y2195428D01*
Y2173314D02*
Y2195428D01*
X7611600Y634202D02*
Y698994D01*
X7480600Y829994D02*
X7611600Y698994D01*
X7000336Y829994D02*
X7480600D01*
X6962336Y791994D02*
X7000336Y829994D01*
X7611600Y295620D02*
Y365670D01*
X7641924Y395994D01*
Y843266D01*
X7367496Y1117694D02*
X7641924Y843266D01*
X6297336Y548582D02*
Y582128D01*
Y548582D02*
X6391924Y453994D01*
X6456924D01*
X6679924Y230994D01*
X6787924D01*
X6796924Y239994D01*
Y350994D01*
X7185924D01*
Y119994D02*
Y350994D01*
Y119994D02*
X7217924Y87994D01*
X7308924D01*
X7324924Y103994D01*
Y164994D01*
X7273924Y215994D02*
X7324924Y164994D01*
X7273924Y215994D02*
Y421318D01*
X7311600Y458994D01*
Y634202D01*
X7233924Y176282D02*
X7293468Y116738D01*
X7233924Y176282D02*
Y540128D01*
X7191924Y582128D02*
X7233924Y540128D01*
X7039106Y582128D02*
X7191924D01*
X6819106Y543994D02*
Y582128D01*
Y543994D02*
X6832484Y530616D01*
X7025728D01*
X7039106Y543994D01*
Y582128D01*
X6445062Y2328386D02*
X6504924D01*
X6535924Y2359386D01*
Y2536994D01*
X6929924Y2930994D01*
Y3069596D01*
X6968610Y3108282D01*
X6445062Y2277204D02*
X6519924D01*
X6564924Y2322204D01*
Y2435994D01*
X7106924Y2977994D01*
Y3046596D01*
X7168610Y3108282D01*
X6445062Y2302796D02*
X6511924D01*
X6548924Y2339796D01*
Y2445994D01*
X7029924Y2926994D01*
Y3069596D01*
X7068610Y3108282D01*
X3753622Y550296D02*
Y575000D01*
Y550296D02*
X3805372Y498546D01*
Y63442D02*
Y498546D01*
X3777924Y35994D02*
X3805372Y63442D01*
X3258858Y35994D02*
X3777924D01*
X3116746Y178106D02*
X3258858Y35994D01*
X3773622Y364744D02*
Y450000D01*
Y364744D02*
X3792372Y345994D01*
Y293994D02*
Y345994D01*
X3784924Y293994D02*
X3792372D01*
X3764924Y273994D02*
X3784924Y293994D01*
X4742688Y332230D02*
Y355238D01*
Y332230D02*
X4792924Y281994D01*
Y66994D02*
Y281994D01*
X4759924Y33994D02*
X4792924Y66994D01*
X4275684Y33994D02*
X4759924D01*
X4138924Y170754D02*
X4275684Y33994D01*
X2982586Y1268994D02*
Y1306428D01*
X5475628Y2334290D02*
X5503780D01*
X5401924Y2407994D02*
X5475628Y2334290D01*
X5410924Y2283110D02*
X5503780D01*
X5352924Y2341110D02*
X5410924Y2283110D01*
X5352924Y2341110D02*
Y2457994D01*
X5404924Y2509994D01*
X5615924D01*
X4319272Y1949148D02*
Y1949994D01*
X1012924Y1997070D02*
X1132924D01*
X990000Y2019994D02*
X1012924Y1997070D01*
X990000Y2019994D02*
Y2058956D01*
X6910924Y95376D02*
X6911358D01*
X6910924Y151994D02*
X7003542Y244612D01*
X7138160D01*
X7149542Y255994D01*
Y302392D01*
X3909186Y2175994D02*
Y2188994D01*
X3879924Y2172994D02*
X3895924Y2188994D01*
X3580612Y1676994D02*
Y1687114D01*
X3571606Y1120708D02*
X3576924D01*
X3553042Y1280314D02*
X3576924Y1256432D01*
X3870260Y2051330D02*
X3946508D01*
X3853924Y2034994D02*
X3870260Y2051330D01*
X2898924Y2064046D02*
X2909976Y2052994D01*
X2829448Y2064046D02*
X2898924D01*
X6206212Y2200432D02*
X6232924D01*
X6335924Y2853994D02*
Y3032374D01*
X6275526Y3092772D02*
X6335924Y3032374D01*
X6669472Y2302796D02*
X6731726D01*
X6788000Y2359070D01*
Y2480384D01*
X7230610Y2922994D01*
Y3031680D01*
X7256924Y3057994D01*
X7287924D01*
X7306610Y3076680D01*
Y3120066D01*
X7348538Y3161994D01*
X7514898D01*
X7568610Y3108282D01*
X6445062Y2251614D02*
X6583924D01*
X6615006Y2282696D01*
Y2437076D01*
X7133610Y2955680D01*
X7173296D01*
X7217610Y2999994D01*
Y3057282D01*
X7268610Y3108282D01*
X6628006Y2390076D02*
X6946924Y2708994D01*
X6628006Y2328386D02*
Y2390076D01*
Y2328386D02*
X6669472D01*
X7087924Y2281634D02*
X7120000D01*
X7079924Y2212862D02*
Y2273634D01*
Y2212862D02*
X7087924Y2204862D01*
X7120000D01*
X5486924Y3017994D02*
Y3114994D01*
X2346404Y1648722D02*
X2369760D01*
X2445032Y1723994D01*
Y1773350D01*
X6832970Y215994D02*
Y302392D01*
X6800970Y183994D02*
X6832970Y215994D01*
X6654924Y183994D02*
X6800970D01*
X6622924Y151994D02*
X6654924Y183994D01*
X6622924Y95376D02*
X6623308D01*
X4760880Y2351104D02*
X4791010D01*
X4319272Y1949148D02*
X4358924D01*
X1230000Y870000D02*
X1239844D01*
X1265978Y896134D01*
X3582954Y2306964D02*
X3625924Y2263994D01*
X3476150Y2306964D02*
X3582954D01*
X1446598Y1928690D02*
X1568924Y1806364D01*
Y1613534D02*
Y1806364D01*
Y1613534D02*
X1663110Y1519348D01*
X4239690Y965760D02*
X4314202D01*
X4193924Y919994D02*
X4239690Y965760D01*
X4193924Y481540D02*
Y919994D01*
X3896378Y183994D02*
X4193924Y481540D01*
X3896378Y75000D02*
Y183994D01*
X6334924Y95376D02*
X6335256D01*
X6334924Y247994D02*
X6389322Y302392D01*
X6424720D01*
X4551816Y1188430D02*
Y1188994D01*
X4700924D02*
X4751924Y1239994D01*
Y1800160D02*
X4760266D01*
X6046924Y95376D02*
X6047204D01*
X6046924Y279994D02*
X6069322Y302392D01*
X6108148D01*
X5208642Y95376D02*
X5208924D01*
X5191924Y302392D02*
X5208924Y285392D01*
X5158432Y302392D02*
X5191924D01*
X4356204Y2576564D02*
X4393684Y2614044D01*
X4356204Y2611998D02*
Y2823992D01*
X4397202Y2864990D01*
X5791576Y298994D02*
Y302392D01*
X5758924Y289994D02*
X5767924Y298994D01*
X5758924Y95376D02*
X5759154D01*
X2317070Y2777930D02*
X2332862D01*
X2315000Y2780000D02*
X2317070Y2777930D01*
X970000Y1086732D02*
X983924D01*
X1002924Y1067732D01*
Y905472D02*
Y1067732D01*
X975000Y905472D02*
X1002924D01*
X6374106Y636176D02*
X6423924Y685994D01*
X6551924D01*
X6599106Y638812D01*
Y582128D02*
Y638812D01*
X2772824Y1947194D02*
X2783924Y1936094D01*
X2772824Y2086538D02*
X2775924Y2089638D01*
X2829448D01*
X3057794D01*
X2829448D02*
Y2115228D01*
X7733288Y1932768D02*
X7785958D01*
X7725924Y1925404D02*
X7733288Y1932768D01*
X7673870Y1925404D02*
X7725924D01*
X6375068Y1105138D02*
Y1123240D01*
X6346924Y1076994D02*
X6375068Y1105138D01*
X6346924Y834176D02*
Y1076994D01*
Y834176D02*
X6374106Y806994D01*
X5456732Y1197102D02*
Y1222692D01*
X5920432Y1765826D02*
X5946024D01*
X6099566Y1807994D02*
Y1994174D01*
X6445062Y2179606D02*
Y2200432D01*
X6430450Y2164994D02*
X6445062Y2179606D01*
X6430450Y2145000D02*
Y2164994D01*
X6022796Y1994174D02*
X6048386D01*
X5997204D02*
X6022796D01*
X5971614D02*
X5997204D01*
X2327692Y2836556D02*
X2357630D01*
X2302924Y2811788D02*
X2327692Y2836556D01*
X2273716Y2811788D02*
X2302924D01*
X1668602Y1814518D02*
X1890606D01*
X7511600Y295620D02*
X7611600D01*
X7311600Y227854D02*
Y295620D01*
Y227854D02*
X7356460Y182994D01*
Y116738D02*
Y182994D01*
X7411600Y295620D02*
X7511600D01*
X7311600D02*
X7411600D01*
X1663110Y1519348D02*
X1871036D01*
X5475004Y209682D02*
Y302392D01*
Y209682D02*
X5496692Y187994D01*
Y95376D02*
Y187994D01*
X1663110Y1633522D02*
X1871036D01*
X5000266Y1902522D02*
Y1928114D01*
X4760266Y1851342D02*
Y1876932D01*
X3414526Y3064892D02*
X3465240D01*
X3090620Y1654314D02*
X3098112Y1646820D01*
X3085650Y1659282D02*
X3090620Y1654314D01*
X3085650Y1659282D02*
Y1713442D01*
X2552162Y1780660D02*
Y1822838D01*
X2755064Y1517904D02*
X2780000Y1542838D01*
Y1560000D01*
X2773892Y1566108D02*
X2780000Y1560000D01*
X2773892Y1566108D02*
Y1566208D01*
X2527058Y1780660D02*
X2552162D01*
X2378262Y1631862D02*
X2527058Y1780660D01*
X2355136Y1631862D02*
X2378262D01*
X2346404Y1623130D02*
X2355136Y1631862D01*
X1200000Y1318938D02*
Y1333426D01*
X1328956Y1920000D02*
X1360000D01*
X1190000Y2058956D02*
X1328956Y1920000D01*
X1200000Y1318938D02*
X1278938Y1240000D01*
X1190000Y2058956D02*
X1359044Y2228000D01*
X1410384D01*
X1439486Y2198898D01*
X1465000D01*
X2920630Y2835000D02*
X2990000D01*
X2915746Y2830116D02*
X2920630Y2835000D01*
X2230000Y2670000D02*
Y2790000D01*
X2533694Y2639854D02*
Y2643694D01*
X2590000Y2700000D01*
Y2780000D01*
X2566776D02*
X2590000D01*
X2533694Y2813082D02*
X2566776Y2780000D01*
X2713304Y2533450D02*
Y2556696D01*
X2680000Y2590000D02*
X2713304Y2556696D01*
X2583548Y2590000D02*
X2680000D01*
X2533694Y2639854D02*
X2583548Y2590000D01*
X2713304Y2533450D02*
X2802214Y2444538D01*
X2935460D01*
X2833368Y2325000D02*
X2935460Y2222906D01*
X2770000Y2310000D02*
X2785000Y2325000D01*
X2833368D01*
X2935460Y2222906D02*
X2951112Y2207256D01*
X2935460Y2222906D02*
Y2444538D01*
Y2536130D01*
Y2444538D02*
X3045000Y2335000D01*
X3240000D01*
X3311986Y2406986D01*
Y2491474D01*
X3365000Y2544488D01*
Y2635000D01*
X3440000Y2710000D01*
X3625000D01*
X3714830Y2799830D01*
Y2860880D01*
X4000000Y2680000D02*
X4035000Y2645000D01*
Y2262216D02*
Y2645000D01*
Y2262216D02*
X4123902Y2173314D01*
X4635000Y1075000D02*
Y1110000D01*
Y1065000D02*
Y1075000D01*
X4680000Y1030000D02*
X4715000D01*
X4635000Y1075000D02*
X4680000Y1030000D01*
X4536642Y1016942D02*
X4586942D01*
X4635000Y1065000D01*
X4610000Y1135000D02*
X4635000Y1110000D01*
X4460000Y1135000D02*
X4610000D01*
X4270000Y1325000D02*
X4460000Y1135000D01*
X4270000Y1325000D02*
Y1670000D01*
X4280994D01*
X4305372Y1694378D01*
X4260000Y1739750D02*
X4305372Y1694378D01*
X4260000Y1739750D02*
Y2060000D01*
X4245000Y2075000D02*
X4260000Y2060000D01*
X4176776Y2075000D02*
X4245000D01*
X4174856Y2076920D02*
X4176776Y2075000D01*
X2928734Y1479104D02*
X2987836Y1420000D01*
X2869630Y1538206D02*
X2928734Y1479104D01*
X2925000Y1019214D02*
X2926518Y1020734D01*
X2925000Y1015000D02*
Y1019214D01*
X3149702Y1539702D02*
Y1573404D01*
X3030000Y1420000D02*
X3149702Y1539702D01*
X2987836Y1420000D02*
X3030000D01*
X2869630Y1538206D02*
Y1562010D01*
X2858930Y1572710D02*
X2869630Y1562010D01*
X3268036Y2006964D02*
X3476150D01*
X3210000Y2065000D02*
X3268036Y2006964D01*
X3057794Y2038456D02*
Y2064046D01*
Y2012866D02*
Y2038456D01*
Y1987276D02*
Y2012866D01*
X3157866D01*
X3210000Y2065000D01*
Y2085000D01*
X3179772Y2115228D02*
X3210000Y2085000D01*
X3057794Y2115228D02*
X3179772D01*
X3003766Y2169256D02*
X3057794Y2115228D01*
X2538196Y2038456D02*
Y2064046D01*
Y2012866D02*
Y2038456D01*
Y1987276D02*
Y2012866D01*
X2622866D01*
X2670000Y2060000D02*
Y2080000D01*
X2634772Y2115228D02*
X2670000Y2080000D01*
X2586900Y2115228D02*
X2634772D01*
X2586900D02*
X2671286Y2199614D01*
X2538196Y2115228D02*
X2586900D01*
X1148328Y1059046D02*
Y1245090D01*
X6322456Y1304238D02*
Y1344228D01*
Y1304238D02*
X6340000Y1286694D01*
X6652496Y1599190D01*
X6340000Y1255000D02*
Y1286694D01*
X6239388Y1227614D02*
X6262614D01*
X6290000Y1255000D01*
X6340000D01*
X6380000Y1215000D01*
X6341432Y1176432D02*
X6380000Y1215000D01*
X6239388Y1176432D02*
X6341432D01*
X6217002Y1250000D02*
X6239388Y1227614D01*
X5790000Y1250000D02*
X6217002D01*
X3260000Y834854D02*
Y940000D01*
Y834854D02*
X3316746Y778106D01*
X6360846Y95376D02*
X6416180Y94344D01*
X6239388Y1150842D02*
Y1176432D01*
Y1125252D02*
Y1150842D01*
X5685078Y1222692D02*
X5742692D01*
X5770000Y1250000D01*
X5790000D01*
X5815000Y1225000D01*
Y1200000D02*
Y1225000D01*
X5786512Y1171512D02*
X5815000Y1200000D01*
X5685078Y1171512D02*
X5786512D01*
X5685078Y1145920D02*
Y1171512D01*
Y1120330D02*
Y1145920D01*
Y1094740D02*
Y1120330D01*
X4837202Y95014D02*
X4895000Y95376D01*
X4245000Y915000D02*
X4314202Y914580D01*
X3260000Y940000D02*
X3349166Y941574D01*
X2597764Y981784D02*
X2616770Y973626D01*
X2280000Y255000D02*
X2283538Y170754D01*
X3315000Y265000D02*
X3316746Y178106D01*
X4338924Y170754D02*
X4340000Y260000D01*
X4835000Y95000D02*
X4837202Y94944D01*
X5120000Y95000D02*
X5183050Y95376D01*
X5405000Y95000D02*
X5471102Y95376D01*
X5845000Y95000D02*
X5845810D01*
X5784744Y95376D02*
X5845000Y95000D01*
X6072796Y95376D02*
X6130000Y95000D01*
X6360846Y95376D02*
X6372114Y95166D01*
X6648898Y95376D02*
X6710000Y95000D01*
X6936948Y95376D02*
X6995000Y95000D01*
X7788868Y1882392D02*
X7790000Y1765000D01*
X7120000Y2358406D02*
X7195000Y2360000D01*
X6669472Y2379566D02*
X6755000Y2380000D01*
X6206212Y2379566D02*
X6295000Y2380000D01*
X5930524Y2329340D02*
X5981802Y2328386D01*
Y2302796D02*
Y2328386D01*
Y2277204D02*
Y2302796D01*
Y2251614D02*
Y2277204D01*
X6710000Y2915000D02*
X6768610Y3008282D01*
X2200000Y960000D02*
X2244954Y958296D01*
X2200000Y960000D02*
X2283538Y770754D01*
X2597764Y981784D02*
Y1042236D01*
X2580972Y1059028D02*
X2597764Y1042236D01*
X2510474Y1059028D02*
X2580972D01*
X2244954Y958296D02*
X2288034Y956666D01*
X1677244Y90000D02*
Y109684D01*
X1673306Y90000D02*
X1677244D01*
X1265038Y170754D02*
X1270000Y85000D01*
X1230000Y870000D02*
X1265038Y770754D01*
X1501220Y1007796D02*
X1600000Y985000D01*
X1265978Y896134D02*
X1278780Y905432D01*
X3409172Y1695154D02*
X3470612Y1687114D01*
X3347734Y1703192D02*
X3409172Y1695154D01*
X2940000Y1585000D02*
X2988170Y1574762D01*
X2273982Y1790086D02*
X2275000Y1790000D01*
X2335032Y1773350D01*
X4319272Y1890092D02*
X4405000Y1890000D01*
X3776150Y2006964D02*
X3869436Y2100562D01*
X3870000Y2100000D01*
X3055000Y2280000D02*
X3061112Y2207256D01*
X1891132Y2305000D02*
X1990000D01*
X2015930Y2330930D02*
Y2372890D01*
X3210000Y2805000D02*
X3211986Y2684388D01*
X1243504Y1203504D02*
Y1240000D01*
X3465240Y3027492D02*
Y3064892D01*
X2270880Y2697406D02*
X2301700D01*
X2368016Y2813082D02*
X2454954D01*
X2315000Y2777930D02*
Y2780000D01*
X2994178Y3047826D02*
Y3105682D01*
D11*
X3098112Y1646820D02*
D03*
X3149702D02*
D03*
Y1573404D02*
D03*
X3123702D02*
D03*
X3098112D02*
D03*
D12*
X5485432Y1773780D02*
D03*
X5511024D02*
D03*
X5536614D02*
D03*
X5562204D02*
D03*
X5587796D02*
D03*
X5613386D02*
D03*
X5638976D02*
D03*
X5664566D02*
D03*
X5485432Y1996220D02*
D03*
X5511024D02*
D03*
X5536614D02*
D03*
X5562204D02*
D03*
X5587796D02*
D03*
X5613386D02*
D03*
X5638976D02*
D03*
X5664566D02*
D03*
D13*
X2050000Y2955236D02*
D03*
Y2984764D02*
D03*
X5080418Y2837510D02*
D03*
Y2867038D02*
D03*
X4586204Y2584518D02*
D03*
Y2614044D02*
D03*
X4366614Y3022780D02*
D03*
Y3052308D02*
D03*
D14*
X2195186Y2811468D02*
D03*
X2175502D02*
D03*
X2155816D02*
D03*
X2136132D02*
D03*
X2116446D02*
D03*
Y2638240D02*
D03*
X2136132D02*
D03*
X2155816D02*
D03*
X2175502D02*
D03*
X2195186D02*
D03*
X2533694Y2639854D02*
D03*
X2514008D02*
D03*
X2494324D02*
D03*
X2474638D02*
D03*
X2454954D02*
D03*
Y2813082D02*
D03*
X2474638D02*
D03*
X2494324D02*
D03*
X2514008D02*
D03*
X2533694D02*
D03*
D15*
X5630000Y3015826D02*
D03*
Y2994174D02*
D03*
X5495000D02*
D03*
Y3015826D02*
D03*
X5630000Y3099174D02*
D03*
Y3120826D02*
D03*
X5500000Y3094174D02*
D03*
Y3115826D02*
D03*
D16*
X3709976Y924626D02*
D03*
X3757220D02*
D03*
X4742688D02*
D03*
X4695444D02*
D03*
X3716378Y75000D02*
D03*
X3763622D02*
D03*
X3943622D02*
D03*
X3896378D02*
D03*
X1673622Y925000D02*
D03*
X1626378D02*
D03*
X2676378Y960000D02*
D03*
X2723622D02*
D03*
X1677244Y90000D02*
D03*
X1630000D02*
D03*
X2686378Y830000D02*
D03*
X2733622D02*
D03*
X1673622Y192142D02*
D03*
X1626378D02*
D03*
X2691378Y700000D02*
D03*
X2738622D02*
D03*
X3928622Y300000D02*
D03*
X3881378D02*
D03*
X4769092Y103804D02*
D03*
X4721848D02*
D03*
X1673622Y314286D02*
D03*
X1626378D02*
D03*
X2686378Y555000D02*
D03*
X2733622D02*
D03*
X3773622Y450000D02*
D03*
X3726378D02*
D03*
X4742688Y696872D02*
D03*
X4695444D02*
D03*
X1673622Y436428D02*
D03*
X1626378D02*
D03*
X2676378Y395000D02*
D03*
X2723622D02*
D03*
X3753622Y575000D02*
D03*
X3706378D02*
D03*
X4742688Y355238D02*
D03*
X4695444D02*
D03*
X1673622Y558572D02*
D03*
X1626378D02*
D03*
X2681378Y235000D02*
D03*
X2728622D02*
D03*
X3768622Y320000D02*
D03*
X3721378D02*
D03*
X4742688Y469116D02*
D03*
X4695444D02*
D03*
X1673622Y680714D02*
D03*
X1626378D02*
D03*
X2686378Y80000D02*
D03*
X2733622D02*
D03*
X3743622Y810000D02*
D03*
X3696378D02*
D03*
X4742688Y582994D02*
D03*
X4695444D02*
D03*
X1673622Y802856D02*
D03*
X1626378D02*
D03*
X2691378Y1105000D02*
D03*
X2738622D02*
D03*
X3763622Y690000D02*
D03*
X3716378D02*
D03*
X4742688Y810748D02*
D03*
X4695444D02*
D03*
D17*
X3440000Y2944999D02*
D03*
Y2834999D02*
D03*
X2367794Y2631312D02*
D03*
Y2741312D02*
D03*
X3076348Y2582976D02*
D03*
Y2472976D02*
D03*
X2733630Y1661776D02*
D03*
Y1771776D02*
D03*
X3015000Y1655000D02*
D03*
Y1765000D02*
D03*
D18*
X1111102Y2868504D02*
D03*
Y2927560D02*
D03*
X1201102Y2927086D02*
D03*
Y2868030D02*
D03*
X1775000Y1174528D02*
D03*
Y1115472D02*
D03*
X4377156Y2419822D02*
D03*
Y2360766D02*
D03*
X975000Y964528D02*
D03*
Y905472D02*
D03*
X4180618Y2852556D02*
D03*
Y2793500D02*
D03*
X3952222Y2852556D02*
D03*
Y2793500D02*
D03*
X3551382Y1574372D02*
D03*
Y1515316D02*
D03*
X4319272Y1949148D02*
D03*
Y1890092D02*
D03*
D19*
X1000000Y1347914D02*
D03*
X1200000D02*
D03*
X990000Y2058956D02*
D03*
X1190000D02*
D03*
D20*
X1100000Y1750000D02*
D03*
X1090000Y2461044D02*
D03*
D21*
X1484056Y2775000D02*
D03*
X1425000D02*
D03*
X1409528Y2875000D02*
D03*
X1350472D02*
D03*
D22*
X2270880Y2697406D02*
D03*
Y2661974D02*
D03*
X2671286Y2199614D02*
D03*
Y2235046D02*
D03*
X3087066Y2694700D02*
D03*
Y2659266D02*
D03*
X4305372Y1694378D02*
D03*
Y1658944D02*
D03*
X2755064Y1553336D02*
D03*
Y1517904D02*
D03*
X2988170Y1574762D02*
D03*
Y1539328D02*
D03*
D23*
X2273716Y2777930D02*
D03*
Y2811788D02*
D03*
X2357630Y2802696D02*
D03*
Y2836556D02*
D03*
D24*
X1598858Y2976772D02*
D03*
Y2951180D02*
D03*
Y2925590D02*
D03*
Y2900000D02*
D03*
Y2874410D02*
D03*
Y2848818D02*
D03*
Y2823228D02*
D03*
X1831142Y2976772D02*
D03*
Y2951180D02*
D03*
Y2925590D02*
D03*
Y2900000D02*
D03*
Y2874410D02*
D03*
Y2848818D02*
D03*
Y2823228D02*
D03*
X2346404Y1699902D02*
D03*
Y1674312D02*
D03*
Y1648722D02*
D03*
Y1623130D02*
D03*
Y1597540D02*
D03*
Y1571950D02*
D03*
Y1546360D02*
D03*
X2578688Y1699902D02*
D03*
Y1674312D02*
D03*
Y1648722D02*
D03*
Y1623130D02*
D03*
Y1597540D02*
D03*
Y1571950D02*
D03*
Y1546360D02*
D03*
D25*
X2510900Y2215276D02*
D03*
X2475466D02*
D03*
X2587594Y1780660D02*
D03*
X2552162D02*
D03*
X1823240Y2372892D02*
D03*
X1787808D02*
D03*
X2837906Y2191184D02*
D03*
X2802472D02*
D03*
X3944618Y2175994D02*
D03*
X3909186D02*
D03*
X1148328Y1245090D02*
D03*
X1112894D02*
D03*
X1485432Y2590000D02*
D03*
X1450000D02*
D03*
X3347734Y1703192D02*
D03*
X3312300D02*
D03*
X2713304Y2533450D02*
D03*
X2677870D02*
D03*
X1278938Y1240000D02*
D03*
X1243504D02*
D03*
D26*
X2309850Y2115228D02*
D03*
Y2089638D02*
D03*
Y2064046D02*
D03*
Y2038456D02*
D03*
Y2012866D02*
D03*
Y1987276D02*
D03*
Y1961684D02*
D03*
Y1936094D02*
D03*
X2538196Y2115228D02*
D03*
Y2089638D02*
D03*
Y2064046D02*
D03*
Y2038456D02*
D03*
Y2012866D02*
D03*
Y1987276D02*
D03*
Y1961684D02*
D03*
Y1936094D02*
D03*
X2829448Y2115228D02*
D03*
Y2089638D02*
D03*
Y2064046D02*
D03*
Y2038456D02*
D03*
Y2012866D02*
D03*
Y1987276D02*
D03*
Y1961684D02*
D03*
Y1936094D02*
D03*
X3057794Y2115228D02*
D03*
Y2089638D02*
D03*
Y2064046D02*
D03*
Y2038456D02*
D03*
Y2012866D02*
D03*
Y1987276D02*
D03*
Y1961684D02*
D03*
Y1936094D02*
D03*
X5456732Y1222692D02*
D03*
Y1197102D02*
D03*
Y1171512D02*
D03*
Y1145920D02*
D03*
Y1120330D02*
D03*
Y1094740D02*
D03*
Y1069150D02*
D03*
Y1043558D02*
D03*
X5685078Y1222692D02*
D03*
Y1197102D02*
D03*
Y1171512D02*
D03*
Y1145920D02*
D03*
Y1120330D02*
D03*
Y1094740D02*
D03*
Y1069150D02*
D03*
Y1043558D02*
D03*
D27*
X2383100Y2212598D02*
D03*
X2273100D02*
D03*
X2335032Y1773350D02*
D03*
X2445032D02*
D03*
X2935460Y2536130D02*
D03*
X2825460D02*
D03*
X2951112Y2207256D02*
D03*
X3061112D02*
D03*
X1905930Y2372890D02*
D03*
X2015930D02*
D03*
X4013902Y2173314D02*
D03*
X4123902D02*
D03*
X1635000Y2335000D02*
D03*
X1745000D02*
D03*
X3470612Y1687114D02*
D03*
X3580612D02*
D03*
D28*
X3714830Y3053794D02*
D03*
X3664830D02*
D03*
X3614830D02*
D03*
X3564830D02*
D03*
X3714830Y2860880D02*
D03*
X3664830D02*
D03*
X3614830D02*
D03*
X3564830D02*
D03*
X3311986Y2684388D02*
D03*
X3261986D02*
D03*
X3211986D02*
D03*
X3161986D02*
D03*
X3311986Y2491474D02*
D03*
X3261986D02*
D03*
X3211986D02*
D03*
X3161986D02*
D03*
D29*
X1465000Y2061102D02*
D03*
Y2198898D02*
D03*
D30*
X1000436Y1245090D02*
D03*
X963034D02*
D03*
D31*
X3465240Y3064892D02*
D03*
Y3027492D02*
D03*
D32*
X1871036Y1519348D02*
D03*
Y1633522D02*
D03*
X2078960Y1519348D02*
D03*
Y1633522D02*
D03*
X1663110Y1519348D02*
D03*
Y1633522D02*
D03*
X1890606Y1814518D02*
D03*
Y1928690D02*
D03*
X1446598Y1814518D02*
D03*
Y1928690D02*
D03*
X1455184Y1519348D02*
D03*
Y1633522D02*
D03*
X1668602Y1814518D02*
D03*
Y1928690D02*
D03*
X2112610D02*
D03*
Y1814518D02*
D03*
D33*
X2884520Y1647514D02*
D03*
X2858930D02*
D03*
X2833338D02*
D03*
Y1572710D02*
D03*
X2858930D02*
D03*
X2884520D02*
D03*
D34*
X7120000Y2204862D02*
D03*
D35*
Y2230452D02*
D03*
Y2256042D02*
D03*
Y2281634D02*
D03*
Y2307224D02*
D03*
Y2332814D02*
D03*
Y2358406D02*
D03*
X6899528Y2204862D02*
D03*
Y2230452D02*
D03*
Y2256042D02*
D03*
Y2281634D02*
D03*
Y2307224D02*
D03*
Y2332814D02*
D03*
Y2358406D02*
D03*
D36*
X3946508Y2076920D02*
D03*
X4174856Y1923378D02*
D03*
Y1948968D02*
D03*
Y1974558D02*
D03*
Y2000148D02*
D03*
Y2025740D02*
D03*
Y2051330D02*
D03*
Y2076920D02*
D03*
X3946508Y1923378D02*
D03*
Y1948968D02*
D03*
Y1974558D02*
D03*
Y2000148D02*
D03*
Y2025740D02*
D03*
Y2051330D02*
D03*
D37*
X2722832Y2830116D02*
D03*
Y2780116D02*
D03*
Y2730116D02*
D03*
Y2680116D02*
D03*
X2915746Y2830116D02*
D03*
Y2780116D02*
D03*
Y2730116D02*
D03*
Y2680116D02*
D03*
D38*
X1799568Y2679172D02*
D03*
X1773976D02*
D03*
X1748386D02*
D03*
X1722796D02*
D03*
X1697206D02*
D03*
X1671614D02*
D03*
X1646024D02*
D03*
X1620434D02*
D03*
X1799568Y2450826D02*
D03*
X1773976D02*
D03*
X1748386D02*
D03*
X1722796D02*
D03*
X1697206D02*
D03*
X1671614D02*
D03*
X1646024D02*
D03*
X1620434D02*
D03*
X5920432Y1765826D02*
D03*
X5946024D02*
D03*
X5971614D02*
D03*
X5997204D02*
D03*
X6022796D02*
D03*
X6048386D02*
D03*
X6073976D02*
D03*
X6099566D02*
D03*
X5920432Y1994174D02*
D03*
X5946024D02*
D03*
X5971614D02*
D03*
X5997204D02*
D03*
X6022796D02*
D03*
X6048386D02*
D03*
X6073976D02*
D03*
X6099566D02*
D03*
D39*
X5310782Y2864990D02*
D03*
Y2829558D02*
D03*
X3899230Y3055260D02*
D03*
Y3019828D02*
D03*
X4603258Y3055260D02*
D03*
Y3019828D02*
D03*
X5072610Y3055260D02*
D03*
Y3019828D02*
D03*
X4801204Y2611998D02*
D03*
Y2576564D02*
D03*
X5307286Y3055260D02*
D03*
Y3019828D02*
D03*
X4356204Y2611998D02*
D03*
Y2576564D02*
D03*
X4837934Y3055260D02*
D03*
Y3019828D02*
D03*
X4397202Y2864990D02*
D03*
Y2829558D02*
D03*
D40*
X3919628Y2589282D02*
D03*
X3972778D02*
D03*
D41*
X4126204Y2577156D02*
D03*
Y2611408D02*
D03*
D42*
X4857930Y2822590D02*
D03*
Y2861960D02*
D03*
D43*
X4131938Y3021796D02*
D03*
Y3053292D02*
D03*
D44*
X970000Y1053268D02*
D03*
Y1086732D02*
D03*
X4791010Y2351104D02*
D03*
Y2384568D02*
D03*
D45*
X4316246Y2139416D02*
D03*
Y2100046D02*
D03*
X3917378Y2408554D02*
D03*
Y2369184D02*
D03*
X4147378Y2408554D02*
D03*
Y2369184D02*
D03*
X2772586Y1345798D02*
D03*
Y1306428D02*
D03*
X2982586Y1345798D02*
D03*
Y1306428D02*
D03*
X3212586Y1345798D02*
D03*
Y1306428D02*
D03*
X3839928Y1693886D02*
D03*
Y1654516D02*
D03*
X4059928Y1693886D02*
D03*
Y1654516D02*
D03*
D46*
X6669472Y2200432D02*
D03*
Y2226024D02*
D03*
Y2251614D02*
D03*
Y2277204D02*
D03*
Y2302796D02*
D03*
Y2328386D02*
D03*
Y2353976D02*
D03*
Y2379566D02*
D03*
X6445062Y2200432D02*
D03*
Y2226024D02*
D03*
Y2251614D02*
D03*
Y2277204D02*
D03*
Y2302796D02*
D03*
Y2328386D02*
D03*
Y2353976D02*
D03*
Y2379566D02*
D03*
X6206212Y2200432D02*
D03*
Y2226024D02*
D03*
Y2251614D02*
D03*
Y2277204D02*
D03*
Y2302796D02*
D03*
Y2328386D02*
D03*
Y2353976D02*
D03*
Y2379566D02*
D03*
X5981802Y2200432D02*
D03*
Y2226024D02*
D03*
Y2251614D02*
D03*
Y2277204D02*
D03*
Y2302796D02*
D03*
Y2328386D02*
D03*
Y2353976D02*
D03*
Y2379566D02*
D03*
X6239388Y1048480D02*
D03*
Y1074070D02*
D03*
Y1099660D02*
D03*
Y1125252D02*
D03*
Y1150842D02*
D03*
Y1176432D02*
D03*
Y1202024D02*
D03*
Y1227614D02*
D03*
X6014978Y1048480D02*
D03*
Y1074070D02*
D03*
Y1099660D02*
D03*
Y1125252D02*
D03*
Y1150842D02*
D03*
Y1176432D02*
D03*
Y1202024D02*
D03*
Y1227614D02*
D03*
D47*
X5208642Y95376D02*
D03*
X5183050D02*
D03*
X5496692D02*
D03*
X5471102D02*
D03*
X5759154D02*
D03*
X5784744D02*
D03*
X4920590D02*
D03*
X4895000D02*
D03*
X6047204D02*
D03*
X6072796D02*
D03*
X6623308D02*
D03*
X6648898D02*
D03*
X6335256D02*
D03*
X6360846D02*
D03*
X6911358D02*
D03*
X6936948D02*
D03*
D48*
X5503780Y2359882D02*
D03*
Y2334290D02*
D03*
Y2308700D02*
D03*
Y2283110D02*
D03*
Y2257520D02*
D03*
Y2231928D02*
D03*
Y2206338D02*
D03*
Y2180748D02*
D03*
X5726220Y2359882D02*
D03*
Y2334290D02*
D03*
Y2308700D02*
D03*
Y2283110D02*
D03*
Y2257520D02*
D03*
Y2231928D02*
D03*
Y2206338D02*
D03*
Y2180748D02*
D03*
X1278780Y1084566D02*
D03*
Y1058976D02*
D03*
Y1033386D02*
D03*
Y1007796D02*
D03*
Y982204D02*
D03*
Y956614D02*
D03*
Y931024D02*
D03*
Y905432D02*
D03*
X1501220Y1084566D02*
D03*
Y1058976D02*
D03*
Y1033386D02*
D03*
Y1007796D02*
D03*
Y982204D02*
D03*
Y956614D02*
D03*
Y931024D02*
D03*
Y905432D02*
D03*
X2288034Y1135798D02*
D03*
Y1110208D02*
D03*
Y1084618D02*
D03*
Y1059028D02*
D03*
Y1033436D02*
D03*
Y1007846D02*
D03*
Y982256D02*
D03*
Y956666D02*
D03*
X2510474Y1135798D02*
D03*
Y1110208D02*
D03*
Y1084618D02*
D03*
Y1059028D02*
D03*
Y1033436D02*
D03*
Y1007846D02*
D03*
Y982256D02*
D03*
Y956666D02*
D03*
X3349166Y1120708D02*
D03*
Y1095118D02*
D03*
Y1069526D02*
D03*
Y1043936D02*
D03*
Y1018346D02*
D03*
Y992756D02*
D03*
Y967164D02*
D03*
Y941574D02*
D03*
X3571606Y1120708D02*
D03*
Y1095118D02*
D03*
Y1069526D02*
D03*
Y1043936D02*
D03*
Y1018346D02*
D03*
Y992756D02*
D03*
Y967164D02*
D03*
Y941574D02*
D03*
X4314202Y1093714D02*
D03*
Y1068124D02*
D03*
Y1042532D02*
D03*
Y1016942D02*
D03*
Y991352D02*
D03*
Y965760D02*
D03*
Y940170D02*
D03*
Y914580D02*
D03*
X4536642Y1093714D02*
D03*
Y1068124D02*
D03*
Y1042532D02*
D03*
Y1016942D02*
D03*
Y991352D02*
D03*
Y965760D02*
D03*
Y940170D02*
D03*
Y914580D02*
D03*
D49*
X4760266Y1953704D02*
D03*
Y1928114D02*
D03*
Y1902522D02*
D03*
Y1876932D02*
D03*
Y1851342D02*
D03*
Y1825752D02*
D03*
Y1800160D02*
D03*
X5000266Y1953704D02*
D03*
Y1928114D02*
D03*
Y1902522D02*
D03*
Y1876932D02*
D03*
Y1851342D02*
D03*
Y1825752D02*
D03*
Y1800160D02*
D03*
D50*
X7611600Y295620D02*
D03*
X7511600D02*
D03*
X7411600D02*
D03*
X7311600Y634202D02*
D03*
X7411600D02*
D03*
X7511600D02*
D03*
X7611600D02*
D03*
D51*
X7311600Y295620D02*
D03*
D52*
X6962336Y582128D02*
D03*
X7039106D02*
D03*
X6742336D02*
D03*
X6819106D02*
D03*
X6522336D02*
D03*
X6599106D02*
D03*
X6297336D02*
D03*
X6374106D02*
D03*
D53*
X4930442Y302392D02*
D03*
X4841860D02*
D03*
X5247014D02*
D03*
X5158432D02*
D03*
X5563586D02*
D03*
X5475004D02*
D03*
X5880158D02*
D03*
X5791576D02*
D03*
X6196730D02*
D03*
X6108148D02*
D03*
X6513302D02*
D03*
X6424720D02*
D03*
D54*
X6832970D02*
D03*
X6744386D02*
D03*
X7149542D02*
D03*
X7060958D02*
D03*
D55*
X3553042Y1280314D02*
D03*
Y1217322D02*
D03*
X4551816Y1251422D02*
D03*
Y1188430D02*
D03*
X6180000Y1926496D02*
D03*
Y1863504D02*
D03*
X7367496Y1180686D02*
D03*
Y1117694D02*
D03*
X6375068Y1123240D02*
D03*
Y1060248D02*
D03*
X2499654Y1264422D02*
D03*
Y1201430D02*
D03*
X1590000Y1171496D02*
D03*
Y1108504D02*
D03*
X5715000Y1886496D02*
D03*
Y1823504D02*
D03*
D56*
X6430450Y2145000D02*
D03*
X6493442D02*
D03*
X7293468Y116738D02*
D03*
X7356460D02*
D03*
X7673870Y1925404D02*
D03*
X7610878D02*
D03*
X6030388Y2135000D02*
D03*
X5967396D02*
D03*
X6956496Y2145000D02*
D03*
X6893504D02*
D03*
X5567336Y2133700D02*
D03*
X5504344D02*
D03*
X4977690Y2038868D02*
D03*
X4914698D02*
D03*
X5692402Y998702D02*
D03*
X5629410D02*
D03*
D57*
X1592924Y2335994D02*
X1635000D01*
X1581924Y2566120D02*
Y2620994D01*
X1569000Y2553196D02*
X1581924Y2566120D01*
X1569000Y2506804D02*
Y2553196D01*
Y2506804D02*
X1581924Y2493880D01*
Y2482040D02*
Y2493880D01*
X1620434Y2651245D02*
Y2679172D01*
X1616183Y2646994D02*
X1620434Y2651245D01*
X1607924Y2646994D02*
X1616183D01*
X1584924Y2343994D02*
Y2353994D01*
X1498478Y2328441D02*
Y2377381D01*
X1498858Y2377000D01*
X1538622D01*
X1566740Y2405118D01*
Y2444882D01*
X1555753Y2455869D02*
X1566740Y2444882D01*
X1555753Y2455869D02*
Y2455869D01*
X1581924Y2482040D01*
X1498478Y2328441D02*
X1508424Y2318494D01*
X1787806Y2299034D02*
X1810964D01*
X1819924Y2307994D01*
X1787808Y2340110D02*
X1819924Y2307994D01*
X1918930Y2420994D02*
X2091924D01*
X1905930Y2372890D02*
X1918930Y2420994D01*
X1584924Y2343994D02*
X1592924Y2335994D01*
X1635000Y2335000D02*
Y2335994D01*
X1787808Y2340110D02*
Y2372892D01*
X1581924Y2620994D02*
X1607924Y2646994D01*
X1397424Y2318494D02*
X1508424D01*
D58*
X2154132Y2872644D02*
X2155816Y2870960D01*
X2154132Y2872644D02*
Y2872646D01*
X2143588Y2883190D02*
X2154132Y2872646D01*
X2096354Y2930422D02*
X2143588Y2883190D01*
X2081442Y2930422D02*
X2096354D01*
X2080520Y2929500D02*
X2081442Y2930422D01*
X2080296Y2929500D02*
X2080520D01*
X2079373Y2930422D02*
X2080296Y2929500D01*
X2038916Y2930422D02*
X2079373D01*
X2366778Y2995160D02*
X2758224D01*
X2374234Y3013160D02*
X2762146D01*
X3029788Y2814602D02*
Y2849950D01*
X2990678Y2889060D02*
X3029788Y2849950D01*
X2996806Y2780116D02*
X3030540Y2813850D01*
X3029788Y2814602D02*
X3030540Y2813850D01*
X2202290Y2959998D02*
X2429922D01*
X2154678Y3007608D02*
X2202290Y2959998D01*
X2154678Y3007608D02*
X2154678Y3007608D01*
X2154678Y3007608D02*
Y3066182D01*
X2043210Y2943448D02*
X2055000Y2955236D01*
X1663414Y2687372D02*
Y2718856D01*
X1936678Y3007204D02*
X2031460Y2912422D01*
X1954678Y3014660D02*
X2038916Y2930422D01*
X2031460Y2912422D02*
X2034994D01*
X1526772Y2976772D02*
X1598858D01*
X1154678Y3066182D02*
X1194178Y3105682D01*
X2422466Y2941998D02*
X2474638Y2889826D01*
X2025892Y2943448D02*
X2043210D01*
X2855802Y2889060D02*
X2990678D01*
X2851538D02*
X2855802D01*
X2762146Y3013160D02*
X2765680D01*
X2828170Y2947136D02*
Y2950670D01*
Y2909368D02*
Y2947136D01*
X1154678Y2973512D02*
X1201102Y2927086D01*
X1154678Y2973512D02*
Y3066182D01*
X1111102Y2927560D02*
X1136678Y2953134D01*
Y3063182D01*
X1094178Y3105682D02*
X1136678Y3063182D01*
X1440000Y2905472D02*
Y2935000D01*
X1409528Y2875000D02*
X1440000Y2905472D01*
X1520000Y2710000D02*
Y2720000D01*
X1529042Y2729042D01*
X1663414Y2687372D02*
X1671614Y2679172D01*
X1653226Y2729042D02*
X1663414Y2718856D01*
X1529042Y2729042D02*
X1653226D01*
X1530000Y2970000D02*
Y2973544D01*
X1526772Y2976772D02*
X1530000Y2973544D01*
X2474638Y2852280D02*
Y2889826D01*
X2088898Y2912422D02*
X2136132Y2865190D01*
X1954678Y3014660D02*
Y3066182D01*
X1994178Y3105682D01*
X1936678Y3007204D02*
Y3063182D01*
X1894178Y3105682D02*
X1936678Y3063182D01*
X2915746Y2780116D02*
X2996806D01*
X2831228Y2909368D02*
X2851538Y2889060D01*
X2828170Y2909368D02*
X2831228D01*
X2711644Y2841304D02*
X2722832Y2830116D01*
X2711644Y2841304D02*
Y2861234D01*
X2728942Y2878532D01*
X2783094D01*
X2810170Y2905608D01*
Y2943214D01*
X2765680Y3013160D02*
X2828170Y2950670D01*
X2758224Y2995160D02*
X2810170Y2943214D01*
X2336678Y3025260D02*
X2366778Y2995160D01*
X2354678Y3032716D02*
X2374234Y3013160D01*
X2354678Y3032716D02*
Y3066182D01*
X2394178Y3105682D01*
X2336678Y3025260D02*
Y3063182D01*
X2294178Y3105682D02*
X2336678Y3063182D01*
X2494324Y2813082D02*
Y2895596D01*
X2429922Y2959998D02*
X2494324Y2895596D01*
X2194834Y2941998D02*
X2422466D01*
X2136678Y3000152D02*
X2194834Y2941998D01*
X2154678Y3066182D02*
X2194178Y3105682D01*
X2136678Y3000152D02*
Y3063182D01*
X2094178Y3105682D02*
X2136678Y3063182D01*
D59*
X3296994Y3061490D02*
Y3068008D01*
X3215000Y3150000D02*
X3296994Y3068008D01*
X2838496Y3150000D02*
X3215000D01*
X2794178Y3105682D02*
X2838496Y3150000D01*
D60*
X1385000Y2195000D02*
X1425000D01*
X1405000Y2175000D02*
Y2215000D01*
D61*
X3116746Y778106D02*
D03*
X3216746D02*
D03*
X3316746D02*
D03*
X3416746D02*
D03*
X3516746D02*
D03*
Y178106D02*
D03*
X3416746D02*
D03*
X3316746D02*
D03*
X3216746D02*
D03*
X1294178Y3105682D02*
D03*
X1394178D02*
D03*
X1794178D02*
D03*
X1694178D02*
D03*
X7668610Y3108282D02*
D03*
Y3008282D02*
D03*
X7568610Y3108282D02*
D03*
Y3008282D02*
D03*
X7468610Y3108282D02*
D03*
Y3008282D02*
D03*
X7368610Y3108282D02*
D03*
Y3008282D02*
D03*
X7268610Y3108282D02*
D03*
Y3008282D02*
D03*
X7168610Y3108282D02*
D03*
Y3008282D02*
D03*
X7068610Y3108282D02*
D03*
Y3008282D02*
D03*
X6968610Y3108282D02*
D03*
Y3008282D02*
D03*
X6868610Y3108282D02*
D03*
Y3008282D02*
D03*
X6768610Y3108282D02*
D03*
Y3008282D02*
D03*
X1894178Y3105682D02*
D03*
X1994178D02*
D03*
X2294178D02*
D03*
X2394178D02*
D03*
X2194178D02*
D03*
X2094178D02*
D03*
X1094178D02*
D03*
X1194178D02*
D03*
X2994178D02*
D03*
X1494178D02*
D03*
X1594178D02*
D03*
X2494178D02*
D03*
X2594178D02*
D03*
X2694178D02*
D03*
X2794178D02*
D03*
X2894178D02*
D03*
X1518740Y2425000D02*
D03*
X1165038Y170754D02*
D03*
X1265038D02*
D03*
X1365038D02*
D03*
X1465038D02*
D03*
Y770754D02*
D03*
X1365038D02*
D03*
X1265038D02*
D03*
X1165038D02*
D03*
X1065038D02*
D03*
X5881826Y3014032D02*
D03*
X5960566D02*
D03*
X6039306D02*
D03*
X6118046D02*
D03*
X6196786D02*
D03*
X6275526D02*
D03*
X5881826Y3092772D02*
D03*
X5960566D02*
D03*
X6039306D02*
D03*
X6118046D02*
D03*
X6196786D02*
D03*
X2183538Y170754D02*
D03*
X2283538D02*
D03*
X2383538D02*
D03*
X2483538D02*
D03*
Y770754D02*
D03*
X2383538D02*
D03*
X2283538D02*
D03*
X2183538D02*
D03*
X2083538D02*
D03*
X4238924Y170754D02*
D03*
X4338924D02*
D03*
X4438924D02*
D03*
X4538924D02*
D03*
Y770754D02*
D03*
X4438924D02*
D03*
X4338924D02*
D03*
X4238924D02*
D03*
X4138924D02*
D03*
D62*
X3116746Y178106D02*
D03*
X1440000Y2425000D02*
D03*
X1065038Y170754D02*
D03*
X6275526Y3092772D02*
D03*
X2083538Y170754D02*
D03*
X4138924D02*
D03*
D63*
X3476150Y2606964D02*
D03*
D64*
Y2506964D02*
D03*
Y2406964D02*
D03*
Y2306964D02*
D03*
Y2206964D02*
D03*
Y2106964D02*
D03*
Y2006964D02*
D03*
Y1906964D02*
D03*
X3776150Y2606964D02*
D03*
Y2506964D02*
D03*
Y2406964D02*
D03*
Y2306964D02*
D03*
Y2206964D02*
D03*
Y2106964D02*
D03*
Y2006964D02*
D03*
Y1906964D02*
D03*
D65*
X7785958Y1883556D02*
D03*
Y1932768D02*
D03*
Y1981982D02*
D03*
Y2031194D02*
D03*
Y2080406D02*
D03*
Y2129620D02*
D03*
Y2178832D02*
D03*
Y2228044D02*
D03*
Y2277256D02*
D03*
D66*
Y2326470D02*
D03*
D67*
X7352496Y1599190D02*
D03*
D68*
X7252496D02*
D03*
X7152496D02*
D03*
X7052496D02*
D03*
X6952496D02*
D03*
X6852496D02*
D03*
X6752496D02*
D03*
X6652496D02*
D03*
X7352496Y1299190D02*
D03*
X7252496D02*
D03*
X7152496D02*
D03*
X7052496D02*
D03*
X6952496D02*
D03*
X6852496D02*
D03*
X6752496D02*
D03*
X6652496D02*
D03*
D69*
X1734248Y1278670D02*
D03*
X2665924Y1663994D02*
D03*
X2440000Y2385000D02*
D03*
X2297500Y2292500D02*
D03*
X1861361Y2160005D02*
D03*
X1880000Y2305000D02*
D03*
X1920924Y2203994D02*
D03*
X1971924Y2214994D02*
D03*
X1715000Y2155000D02*
D03*
X1410000Y2695000D02*
D03*
X2086142Y2654540D02*
D03*
X1765000Y2200000D02*
D03*
X2043117Y2099589D02*
D03*
X1954924Y2149994D02*
D03*
X2012924Y2162994D02*
D03*
X2725000Y2260000D02*
D03*
X1870000Y2525000D02*
D03*
X3845000Y2340000D02*
D03*
X3950000D02*
D03*
X3664924Y2014994D02*
D03*
X3851924Y1871994D02*
D03*
X3218924Y1825994D02*
D03*
X1695000Y2620000D02*
D03*
X1705000Y2550000D02*
D03*
X1640000Y2525000D02*
D03*
Y2610000D02*
D03*
X1732206Y2903073D02*
D03*
X1715000Y2785000D02*
D03*
X2095000Y2970000D02*
D03*
X3520000Y2855000D02*
D03*
X3865924Y2497994D02*
D03*
X1708750Y2258750D02*
D03*
X1584924Y2353994D02*
D03*
X1599006Y2265994D02*
D03*
X1819924Y2307994D02*
D03*
X3822924Y2809994D02*
D03*
X3812924Y2862994D02*
D03*
X1915327Y2833374D02*
D03*
X1958924Y2521214D02*
D03*
X1538444Y2612908D02*
D03*
X1830080Y2738228D02*
D03*
X2675000Y1515000D02*
D03*
X2705000Y1575000D02*
D03*
X2617924Y1495308D02*
D03*
X2925000Y1550000D02*
D03*
X2265000Y1892448D02*
D03*
X2417924Y1956994D02*
D03*
X2478924Y1837994D02*
D03*
X2215000Y2200000D02*
D03*
X2360000Y2150000D02*
D03*
X2765000Y1885000D02*
D03*
X2640000Y1890000D02*
D03*
X2540000Y1835000D02*
D03*
X2470000Y1905582D02*
D03*
X2225000Y2070000D02*
D03*
X2435700Y2160000D02*
D03*
X2065000Y2875000D02*
D03*
X2015924Y2864994D02*
D03*
X2016924Y3036994D02*
D03*
X2735000Y2205000D02*
D03*
X2705000Y2140000D02*
D03*
X3355000Y3040000D02*
D03*
X3296994Y3061490D02*
D03*
X3225924Y1994994D02*
D03*
X3398924Y2830650D02*
D03*
X4682924Y2913994D02*
D03*
X1413924Y1341994D02*
D03*
X1528924Y1554994D02*
D03*
X972924Y3131994D02*
D03*
X1264924Y3016994D02*
D03*
X3065924Y3045000D02*
D03*
Y2420994D02*
D03*
X3398924D02*
D03*
X1700000Y3035000D02*
D03*
X1363924Y2465374D02*
D03*
X4047924Y260994D02*
D03*
X1350472Y1220446D02*
D03*
Y2740994D02*
D03*
X1299924Y2757994D02*
D03*
X2091924Y2420994D02*
D03*
X1875924Y2458994D02*
D03*
X1655924Y2915994D02*
D03*
X1082924Y2816994D02*
D03*
X1662924D02*
D03*
X1295888Y2868030D02*
D03*
X1541924Y2855994D02*
D03*
X1689924Y2864994D02*
D03*
X1454924Y2664000D02*
D03*
X1788924Y1448994D02*
D03*
X1511924Y2554994D02*
D03*
X2015924Y2674994D02*
D03*
X1397424Y2318494D02*
D03*
X1440000Y2935000D02*
D03*
X1520000Y2710000D02*
D03*
X1530000Y2970000D02*
D03*
X4380000Y700000D02*
D03*
X4315000Y880000D02*
D03*
X2301700Y2631312D02*
D03*
X2235000Y2620000D02*
D03*
X2194924Y2564994D02*
D03*
X2290000Y2895000D02*
D03*
X2237924Y2847994D02*
D03*
X2357630Y2887994D02*
D03*
X3030352Y1205000D02*
D03*
X4105000Y1485000D02*
D03*
X3543924Y1154994D02*
D03*
X5089596Y2059596D02*
D03*
X7165000Y2620000D02*
D03*
X7295000Y2560000D02*
D03*
X7067654Y2382698D02*
D03*
X2860000Y1700000D02*
D03*
X2945000Y1690000D02*
D03*
X5907422Y2182422D02*
D03*
X5800000Y2230000D02*
D03*
X5805000Y2285000D02*
D03*
X5853960Y2146042D02*
D03*
X5894000Y2273994D02*
D03*
X5930924Y1912994D02*
D03*
X5983924Y1926994D02*
D03*
X5971614Y1858994D02*
D03*
X5797924Y2060994D02*
D03*
X5895000Y2330000D02*
D03*
X7060000Y2830000D02*
D03*
X6787500Y2927500D02*
D03*
X2161788Y2351082D02*
D03*
X2800000Y2405000D02*
D03*
X2677870Y2407130D02*
D03*
X2825000Y2260000D02*
D03*
X3285000Y2595000D02*
D03*
X3076456D02*
D03*
X5560000Y1835000D02*
D03*
X5630964Y1905000D02*
D03*
X5570000Y1915000D02*
D03*
X5315000Y1800000D02*
D03*
X1180000Y1020000D02*
D03*
X7430000Y1890000D02*
D03*
X3275000Y2995034D02*
D03*
X7575000Y1710000D02*
D03*
X5325000Y1860000D02*
D03*
X5330000Y1990000D02*
D03*
X5411924Y1974994D02*
D03*
X5270000Y2310000D02*
D03*
X4977690Y2284994D02*
D03*
Y2226760D02*
D03*
X4836924Y1902522D02*
D03*
X4705000Y2015000D02*
D03*
X4766924Y1988994D02*
D03*
X4316246Y2024994D02*
D03*
X4645000Y1570000D02*
D03*
X7350000Y2105000D02*
D03*
X7328480Y2016444D02*
D03*
X5335000Y1920000D02*
D03*
X5255000Y2135000D02*
D03*
X2704924Y2033994D02*
D03*
X2459568D02*
D03*
X6151924Y1481994D02*
D03*
X5913608Y1411994D02*
D03*
X6444924Y1195994D02*
D03*
X5308924Y878994D02*
D03*
X6444924Y1195994D02*
D03*
X3074924Y1847994D02*
D03*
X2972170Y1498994D02*
D03*
X2425924Y2708994D02*
D03*
X1681924Y1152994D02*
D03*
X5574924Y1594994D02*
D03*
X3311924Y1643994D02*
D03*
X3910924Y1705994D02*
D03*
X5604924Y709994D02*
D03*
X4899924Y883994D02*
D03*
X5830924Y760994D02*
D03*
X3619924Y920994D02*
D03*
X2572924Y940994D02*
D03*
X1635482Y863994D02*
D03*
X5653924Y1320994D02*
D03*
X6106924Y2376994D02*
D03*
X2576226Y1340994D02*
D03*
X4406924Y1268994D02*
D03*
X2469924Y2750994D02*
D03*
X1319924Y1296994D02*
D03*
X1062924Y1168994D02*
D03*
X4298924Y2419994D02*
D03*
X1806532Y1956994D02*
D03*
X3943622Y175452D02*
D03*
X4959924Y828994D02*
D03*
X4863924Y710994D02*
D03*
X3888924Y240994D02*
D03*
X3580858Y413994D02*
D03*
X3808930Y795994D02*
D03*
X2684924Y483994D02*
D03*
X2827924Y143994D02*
D03*
X2686378Y770754D02*
D03*
X1807924Y933994D02*
D03*
X6157924Y2866994D02*
D03*
X7411600Y757994D02*
D03*
X6678924Y591994D02*
D03*
X4091924Y1959994D02*
D03*
X3257924Y1461994D02*
D03*
X4205924Y1383994D02*
D03*
X4603924Y660994D02*
D03*
X3478924Y308994D02*
D03*
X3445924Y967994D02*
D03*
X4666444Y404994D02*
D03*
X4117924Y502994D02*
D03*
X2417924Y827994D02*
D03*
X2777924Y523994D02*
D03*
X2344924Y723994D02*
D03*
X2738622Y751994D02*
D03*
X1361924Y970204D02*
D03*
X1576776Y192142D02*
D03*
X1719924Y1021994D02*
D03*
X1521924Y721994D02*
D03*
X3534924Y2256994D02*
D03*
X3585924Y3134994D02*
D03*
X4445924Y2677994D02*
D03*
X5178924Y2624994D02*
D03*
X3316924Y2761994D02*
D03*
X2883924Y2548994D02*
D03*
X3627924D02*
D03*
X5374924Y1032994D02*
D03*
X6123924Y1009994D02*
D03*
X6288924Y1428994D02*
D03*
X6700924Y2084842D02*
D03*
X6232924Y2098994D02*
D03*
X4679924Y1614994D02*
D03*
X4989924Y1580994D02*
D03*
X5936924Y967994D02*
D03*
X4910924Y1837994D02*
D03*
X2247924Y1609994D02*
D03*
X6211924Y1318994D02*
D03*
X6160000Y1099994D02*
D03*
X6260924Y1904994D02*
D03*
X7373924Y2238994D02*
D03*
X7250924Y2359994D02*
D03*
X4639096Y914580D02*
D03*
X5912924Y1188994D02*
D03*
X2550924Y887994D02*
D03*
X2316924Y1837994D02*
D03*
X2967924Y1997994D02*
D03*
X3033924Y1549994D02*
D03*
X2689924Y1417994D02*
D03*
X2484924Y832994D02*
D03*
X3000924D02*
D03*
X1522340Y867410D02*
D03*
X2402998Y930920D02*
D03*
X6043924Y2259994D02*
D03*
X5903924Y884994D02*
D03*
X5044924Y1693994D02*
D03*
X5562204Y1719994D02*
D03*
X1857924Y983994D02*
D03*
X3339358Y1306428D02*
D03*
X4840214Y1971994D02*
D03*
X4264924Y2259994D02*
D03*
X3904924Y2887994D02*
D03*
X4679924Y2844994D02*
D03*
X3951924Y3030828D02*
D03*
X2666802Y2883994D02*
D03*
X5629924Y2799994D02*
D03*
X5609924Y2450994D02*
D03*
X2588924Y2412994D02*
D03*
X5189924Y3068994D02*
D03*
X2436924Y2889994D02*
D03*
X4422138Y3022780D02*
D03*
X1408924Y1739994D02*
D03*
X5550924Y2471994D02*
D03*
X4081924Y2702994D02*
D03*
X3578924Y2464994D02*
D03*
X3286728Y1345798D02*
D03*
X4790924Y714994D02*
D03*
X6127924Y2343994D02*
D03*
X4791010Y2456994D02*
D03*
X3498924Y1817994D02*
D03*
X6409924Y1023994D02*
D03*
X5796924Y1977994D02*
D03*
X1421924Y953994D02*
D03*
X1521924Y315994D02*
D03*
X5957924Y302392D02*
D03*
X5569924Y2048994D02*
D03*
X5672924Y2919994D02*
D03*
X2837490Y1306428D02*
D03*
X4058924Y1744994D02*
D03*
X4324924Y1350994D02*
D03*
X3528924D02*
D03*
X5395924Y2069994D02*
D03*
X5066214Y2007994D02*
D03*
X4754924Y764994D02*
D03*
X4905924Y602994D02*
D03*
X2434924Y1023994D02*
D03*
X7251924Y2277994D02*
D03*
X5656400Y2308700D02*
D03*
X6303924Y1100994D02*
D03*
X6776924Y803994D02*
D03*
X5705924Y2782994D02*
D03*
X5879924Y1136994D02*
D03*
X3606924Y852994D02*
D03*
X4603924Y2739994D02*
D03*
X2529924Y2723994D02*
D03*
X2534008Y2502994D02*
D03*
X1326924Y836994D02*
D03*
X6648924Y2117994D02*
D03*
X4560590Y3019828D02*
D03*
X3849924Y3055260D02*
D03*
X1038924Y1523994D02*
D03*
X2186924Y1724994D02*
D03*
X4107928Y1593994D02*
D03*
X2915924Y1815994D02*
D03*
X4125924Y1684994D02*
D03*
X4107928Y1593994D02*
D03*
X2308924Y1498994D02*
D03*
X5802924Y816994D02*
D03*
X5404924D02*
D03*
X3725924Y1016994D02*
D03*
X3295924Y979994D02*
D03*
X3719924Y877994D02*
D03*
X3507660Y957258D02*
D03*
X4631924Y155994D02*
D03*
X2773924Y954994D02*
D03*
X3800924Y882626D02*
D03*
X5903924Y703994D02*
D03*
X4812924Y865994D02*
D03*
X4306924Y2360766D02*
D03*
X6114924Y2358994D02*
D03*
X4854924Y1767994D02*
D03*
X2357924Y1871994D02*
D03*
X2723924Y2325994D02*
D03*
Y2596994D02*
D03*
X4428924Y2139994D02*
D03*
X4229924Y2146994D02*
D03*
X4857930Y2779994D02*
D03*
X1663924Y1340994D02*
D03*
X3388924Y715994D02*
D03*
X2796924Y1458994D02*
D03*
X2012924D02*
D03*
X4025924Y1570994D02*
D03*
X3288924D02*
D03*
X6095924Y1637994D02*
D03*
X3979924Y1866994D02*
D03*
X7508924Y2181994D02*
D03*
X7056924Y2307224D02*
D03*
X3641924Y718994D02*
D03*
X6126924Y1214994D02*
D03*
X6076924Y1176432D02*
D03*
X3944924Y2240994D02*
D03*
X3764924Y273994D02*
D03*
X2212924Y1996994D02*
D03*
X2982586Y1268994D02*
D03*
X4125924Y1777994D02*
D03*
X5401924Y2407994D02*
D03*
X5615924Y2509994D02*
D03*
X4550924Y1887994D02*
D03*
X1132924Y1997070D02*
D03*
X3853924Y2034994D02*
D03*
X2909976Y2052994D02*
D03*
X6335924Y2853994D02*
D03*
X6946924Y2708994D02*
D03*
X3413460Y3063826D02*
D03*
X3085650Y1713442D02*
D03*
X2990000Y2835000D02*
D03*
X4715000Y1030000D02*
D03*
X2926518Y1020734D02*
D03*
X6322456Y1344228D02*
D03*
X6416180Y94344D02*
D03*
X4245000Y915000D02*
D03*
X3260000Y940000D02*
D03*
X2616770Y973626D02*
D03*
X2280000Y255000D02*
D03*
X3315000Y265000D02*
D03*
X4340000Y260000D02*
D03*
X4837202Y94944D02*
D03*
X5120000Y95000D02*
D03*
X5405000D02*
D03*
X5845810D02*
D03*
X6130000D02*
D03*
X6710000D02*
D03*
X6995000D02*
D03*
X7790000Y1765000D02*
D03*
X7195000Y2360000D02*
D03*
X6295000Y2380000D02*
D03*
X2200000Y960000D02*
D03*
X1270000Y85000D02*
D03*
X1600000Y985000D02*
D03*
X1230000Y870000D02*
D03*
X2840000Y1770000D02*
D03*
X2273982Y1790086D02*
D03*
X4405000Y1890000D02*
D03*
X3870000Y2100000D02*
D03*
X3210000Y2805000D02*
D03*
X1240000Y1200000D02*
D03*
X965000Y1195000D02*
D03*
X1465000Y1995000D02*
D03*
X2315000Y2780000D02*
D03*
X2995000Y3045000D02*
D03*
%TF.MD5,3f3c55bf0e5ad754f78059a8d295dc2d*%
M02*
